<svg width="23" height="23" viewBox="0 0 23 23" fill="none" xmlns="http://www.w3.org/2000/svg">
<path d="M19.4653 1.5C20.6926 1.5 21.6875 2.48129 21.6875 3.69178L21.6875 7.43325C21.6875 8.64373 20.6926 9.62502 19.4653 9.62502H16.132C14.9047 9.62502 13.9097 8.64373 13.9097 7.43325L13.9097 3.69178C13.9097 2.48129 14.9046 1.5 16.1319 1.5L19.4653 1.5Z" stroke="white" stroke-width="1.5" stroke-linecap="round" stroke-linejoin="round"/>
<path d="M3.90972 1.5C2.68242 1.5 1.6875 2.48129 1.6875 3.69178L1.68751 7.43325C1.68751 8.64373 2.68243 9.62502 3.90973 9.62502H7.24306C8.47036 9.62502 9.46529 8.64373 9.46529 7.43325L9.46528 3.69178C9.46528 2.48129 8.47035 1.5 7.24305 1.5L3.90972 1.5Z" stroke="white" stroke-width="1.5" stroke-linecap="round" stroke-linejoin="round"/>
<path d="M19.4653 13.375C20.6926 13.375 21.6875 14.3563 21.6875 15.5668V19.3082C21.6875 20.5187 20.6926 21.5 19.4653 21.5H16.132C14.9047 21.5 13.9097 20.5187 13.9097 19.3082L13.9097 15.5668C13.9097 14.3563 14.9047 13.375 16.132 13.375H19.4653Z" stroke="white" stroke-width="1.5" stroke-linecap="round" stroke-linejoin="round"/>
<path d="M3.90973 13.375C2.68243 13.375 1.68751 14.3563 1.68751 15.5668L1.68751 19.3082C1.68751 20.5187 2.68244 21.5 3.90973 21.5H7.24307C8.47037 21.5 9.46529 20.5187 9.46529 19.3082L9.46528 15.5668C9.46528 14.3563 8.47036 13.375 7.24306 13.375H3.90973Z" stroke="white" stroke-width="1.5" stroke-linecap="round" stroke-linejoin="round"/>
</svg>
