<svg width="23" height="23" viewBox="0 0 23 23" fill="none" xmlns="http://www.w3.org/2000/svg">
<path d="M19.4663 1.5C20.6936 1.5 21.6885 2.48129 21.6885 3.69178L21.6885 7.43325C21.6885 8.64373 20.6936 9.62502 19.4663 9.62502H16.1329C14.9056 9.62502 13.9107 8.64373 13.9107 7.43325L13.9107 3.69178C13.9107 2.48129 14.9056 1.5 16.1329 1.5L19.4663 1.5Z" stroke="black" stroke-width="1.5" stroke-linecap="round" stroke-linejoin="round"/>
<path d="M3.9107 1.5C2.6834 1.5 1.68848 2.48129 1.68848 3.69178L1.68849 7.43325C1.68849 8.64373 2.68341 9.62502 3.91071 9.62502H7.24404C8.47134 9.62502 9.46626 8.64373 9.46626 7.43325L9.46625 3.69178C9.46625 2.48129 8.47133 1.5 7.24403 1.5L3.9107 1.5Z" stroke="black" stroke-width="1.5" stroke-linecap="round" stroke-linejoin="round"/>
<path d="M19.4663 13.375C20.6936 13.375 21.6885 14.3563 21.6885 15.5668V19.3082C21.6885 20.5187 20.6936 21.5 19.4663 21.5H16.1329C14.9056 21.5 13.9107 20.5187 13.9107 19.3082L13.9107 15.5668C13.9107 14.3563 14.9056 13.375 16.1329 13.375H19.4663Z" stroke="black" stroke-width="1.5" stroke-linecap="round" stroke-linejoin="round"/>
<path d="M3.91071 13.375C2.68341 13.375 1.68849 14.3563 1.68849 15.5668L1.68849 19.3082C1.68849 20.5187 2.68341 21.5 3.91071 21.5H7.24404C8.47134 21.5 9.46626 20.5187 9.46626 19.3082L9.46626 15.5668C9.46626 14.3563 8.47134 13.375 7.24404 13.375H3.91071Z" stroke="black" stroke-width="1.5" stroke-linecap="round" stroke-linejoin="round"/>
</svg>
