<svg width="213" height="49" viewBox="0 0 213 49" fill="none" xmlns="http://www.w3.org/2000/svg">
<path d="M54.053 10.7386H57.2986V20.678H69.7059V10.7386H72.9514V34.6743H69.7059V23.7207H57.2986V34.6743H54.053V10.7386ZM78.4016 20.6104C79.258 19.8216 80.2497 19.2356 81.3766 18.8524C82.5036 18.4467 83.6305 18.2439 84.7574 18.2439C85.9294 18.2439 86.9323 18.3904 87.7663 18.6834C88.6227 18.9764 89.3214 19.3708 89.8623 19.8666C90.4032 20.3625 90.7977 20.9372 91.0456 21.5908C91.316 22.2219 91.4513 22.8868 91.4513 23.5855V31.7669C91.4513 32.3303 91.4625 32.8487 91.4851 33.322C91.5076 33.7953 91.5414 34.2461 91.5865 34.6743H88.8819C88.8143 33.8629 88.7805 33.0516 88.7805 32.2402H88.7129C88.0367 33.2769 87.2366 34.0094 86.3125 34.4377C85.3885 34.8659 84.3179 35.08 83.1008 35.08C82.3571 35.08 81.6471 34.9786 80.9709 34.7757C80.2948 34.5729 79.6975 34.2686 79.1791 33.8629C78.6833 33.4572 78.2889 32.9614 77.9959 32.3754C77.7029 31.7669 77.5564 31.0682 77.5564 30.2793C77.5564 29.2426 77.7818 28.3749 78.2325 27.6762C78.7058 26.9775 79.3369 26.414 80.1258 25.9858C80.9371 25.535 81.8725 25.2195 82.9318 25.0392C84.0136 24.8363 85.1631 24.7349 86.3801 24.7349H88.6114V24.0588C88.6114 23.6531 88.5326 23.2474 88.3748 22.8417C88.217 22.436 87.9804 22.0754 87.6648 21.7599C87.3493 21.4218 86.9549 21.1626 86.4816 20.9823C86.0083 20.7794 85.4448 20.678 84.7912 20.678C84.2052 20.678 83.6868 20.7344 83.236 20.847C82.8078 20.9597 82.4134 21.1062 82.0528 21.2865C81.6922 21.4443 81.3654 21.6359 81.0724 21.8613C80.7794 22.0867 80.4976 22.3008 80.2272 22.5036L78.4016 20.6104ZM86.9887 26.9662C86.2675 26.9662 85.5237 27.0113 84.7574 27.1014C84.0136 27.1691 83.3262 27.3156 82.6951 27.5409C82.0866 27.7663 81.5795 28.0819 81.1738 28.4875C80.7906 28.8932 80.5991 29.4116 80.5991 30.0427C80.5991 30.9668 80.9033 31.6316 81.5119 32.0373C82.1429 32.443 82.9881 32.6459 84.0474 32.6459C84.8813 32.6459 85.5913 32.5106 86.1773 32.2402C86.7633 31.9472 87.2366 31.5753 87.5972 31.1245C87.9578 30.6738 88.217 30.1779 88.3748 29.637C88.5326 29.0735 88.6114 28.5214 88.6114 27.9804V26.9662H86.9887ZM104.384 22.6727C104.024 22.2219 103.573 21.85 103.032 21.557C102.514 21.2415 101.871 21.0837 101.105 21.0837C100.384 21.0837 99.7529 21.2415 99.2119 21.557C98.6936 21.85 98.4344 22.2895 98.4344 22.8755C98.4344 23.3488 98.5809 23.732 98.8739 24.025C99.1894 24.318 99.55 24.5546 99.9557 24.7349C100.384 24.9152 100.835 25.0504 101.308 25.1406C101.781 25.2308 102.187 25.3096 102.525 25.3773C103.179 25.535 103.787 25.7266 104.351 25.952C104.937 26.1774 105.433 26.4704 105.838 26.831C106.266 27.1916 106.593 27.6311 106.819 28.1495C107.067 28.6679 107.191 29.2989 107.191 30.0427C107.191 30.9442 106.999 31.7218 106.616 32.3754C106.233 33.0065 105.737 33.5249 105.128 33.9306C104.52 34.3362 103.821 34.6292 103.032 34.8095C102.266 34.9899 101.488 35.08 100.699 35.08C99.3697 35.08 98.1977 34.8772 97.1835 34.4715C96.1918 34.0658 95.3015 33.322 94.5127 32.2402L96.8116 30.347C97.3074 30.8428 97.8596 31.2823 98.4682 31.6654C99.0767 32.0486 99.8205 32.2402 100.699 32.2402C101.083 32.2402 101.466 32.2064 101.849 32.1388C102.255 32.0486 102.604 31.9246 102.897 31.7669C103.212 31.5866 103.46 31.3725 103.641 31.1245C103.844 30.8541 103.945 30.5498 103.945 30.2117C103.945 29.761 103.798 29.3891 103.505 29.0961C103.235 28.8031 102.897 28.5777 102.491 28.4199C102.108 28.2396 101.691 28.1044 101.24 28.0142C100.812 27.9015 100.429 27.8114 100.091 27.7438C99.4373 27.586 98.8175 27.4057 98.2315 27.2029C97.6455 27 97.1271 26.7296 96.6764 26.3915C96.2256 26.0534 95.865 25.6252 95.5945 25.1068C95.3241 24.5884 95.1888 23.9461 95.1888 23.1798C95.1888 22.3458 95.3579 21.6246 95.696 21.0161C96.0566 20.385 96.5186 19.8666 97.0821 19.4609C97.6681 19.0553 98.3217 18.751 99.0429 18.5481C99.7867 18.3453 100.53 18.2439 101.274 18.2439C102.356 18.2439 103.393 18.4467 104.384 18.8524C105.376 19.2581 106.165 19.9342 106.751 20.8809L104.384 22.6727ZM110.887 9.11585H113.93V21.1175H113.997C114.38 20.2611 115.045 19.5736 115.992 19.0553C116.938 18.5143 118.032 18.2439 119.271 18.2439C120.037 18.2439 120.77 18.3678 121.469 18.6158C122.19 18.8411 122.81 19.2018 123.328 19.6976C123.869 20.1934 124.297 20.8358 124.613 21.6246C124.928 22.3909 125.086 23.3037 125.086 24.363V34.6743H122.043V25.2082C122.043 24.4645 121.942 23.8334 121.739 23.315C121.536 22.7741 121.266 22.3458 120.928 22.0303C120.59 21.6922 120.195 21.4556 119.744 21.3204C119.316 21.1626 118.865 21.0837 118.392 21.0837C117.761 21.0837 117.175 21.1851 116.634 21.388C116.093 21.5908 115.62 21.9176 115.214 22.3684C114.809 22.7966 114.493 23.3488 114.268 24.025C114.042 24.7011 113.93 25.5012 113.93 26.4253V34.6743H110.887V9.11585ZM138.192 22.6727C137.831 22.2219 137.381 21.85 136.84 21.557C136.321 21.2415 135.679 21.0837 134.913 21.0837C134.191 21.0837 133.56 21.2415 133.019 21.557C132.501 21.85 132.242 22.2895 132.242 22.8755C132.242 23.3488 132.388 23.732 132.681 24.025C132.997 24.318 133.358 24.5546 133.763 24.7349C134.191 24.9152 134.642 25.0504 135.116 25.1406C135.589 25.2308 135.995 25.3096 136.333 25.3773C136.986 25.535 137.595 25.7266 138.158 25.952C138.744 26.1774 139.24 26.4704 139.646 26.831C140.074 27.1916 140.401 27.6311 140.626 28.1495C140.874 28.6679 140.998 29.2989 140.998 30.0427C140.998 30.9442 140.806 31.7218 140.423 32.3754C140.04 33.0065 139.544 33.5249 138.936 33.9306C138.327 34.3362 137.629 34.6292 136.84 34.8095C136.073 34.9899 135.296 35.08 134.507 35.08C133.177 35.08 132.005 34.8772 130.991 34.4715C129.999 34.0658 129.109 33.322 128.32 32.2402L130.619 30.347C131.115 30.8428 131.667 31.2823 132.276 31.6654C132.884 32.0486 133.628 32.2402 134.507 32.2402C134.89 32.2402 135.273 32.2064 135.656 32.1388C136.062 32.0486 136.411 31.9246 136.704 31.7669C137.02 31.5866 137.268 31.3725 137.448 31.1245C137.651 30.8541 137.752 30.5498 137.752 30.2117C137.752 29.761 137.606 29.3891 137.313 29.0961C137.043 28.8031 136.704 28.5777 136.299 28.4199C135.916 28.2396 135.499 28.1044 135.048 28.0142C134.62 27.9015 134.237 27.8114 133.898 27.7438C133.245 27.586 132.625 27.4057 132.039 27.2029C131.453 27 130.935 26.7296 130.484 26.3915C130.033 26.0534 129.672 25.6252 129.402 25.1068C129.132 24.5884 128.996 23.9461 128.996 23.1798C128.996 22.3458 129.165 21.6246 129.503 21.0161C129.864 20.385 130.326 19.8666 130.89 19.4609C131.476 19.0553 132.129 18.751 132.85 18.5481C133.594 18.3453 134.338 18.2439 135.082 18.2439C136.164 18.2439 137.2 18.4467 138.192 18.8524C139.184 19.2581 139.973 19.9342 140.559 20.8809L138.192 22.6727ZM153.281 21.2865H148.92V28.5552C148.92 29.0059 148.932 29.4567 148.954 29.9075C148.977 30.3357 149.056 30.7301 149.191 31.0907C149.349 31.4288 149.574 31.7105 149.867 31.9359C150.182 32.1388 150.633 32.2402 151.219 32.2402C151.58 32.2402 151.952 32.2064 152.335 32.1388C152.718 32.0711 153.067 31.9472 153.383 31.7669V34.5391C153.022 34.7419 152.549 34.8772 151.963 34.9448C151.4 35.0349 150.96 35.08 150.645 35.08C149.473 35.08 148.56 34.9222 147.906 34.6067C147.275 34.2686 146.802 33.8404 146.486 33.322C146.193 32.8036 146.013 32.2289 145.945 31.5978C145.9 30.9442 145.878 30.2906 145.878 29.637V21.2865H142.362V18.6496H145.878V14.1532H148.92V18.6496H153.281V21.2865ZM157.275 20.6104C158.131 19.8216 159.123 19.2356 160.25 18.8524C161.377 18.4467 162.504 18.2439 163.631 18.2439C164.803 18.2439 165.805 18.3904 166.639 18.6834C167.496 18.9764 168.195 19.3708 168.735 19.8666C169.276 20.3625 169.671 20.9372 169.919 21.5908C170.189 22.2219 170.324 22.8868 170.324 23.5855V31.7669C170.324 32.3303 170.336 32.8487 170.358 33.322C170.381 33.7953 170.415 34.2461 170.46 34.6743H167.755C167.687 33.8629 167.654 33.0516 167.654 32.2402H167.586C166.91 33.2769 166.11 34.0094 165.186 34.4377C164.262 34.8659 163.191 35.08 161.974 35.08C161.23 35.08 160.52 34.9786 159.844 34.7757C159.168 34.5729 158.571 34.2686 158.052 33.8629C157.556 33.4572 157.162 32.9614 156.869 32.3754C156.576 31.7669 156.43 31.0682 156.43 30.2793C156.43 29.2426 156.655 28.3749 157.106 27.6762C157.579 26.9775 158.21 26.414 158.999 25.9858C159.81 25.535 160.746 25.2195 161.805 25.0392C162.887 24.8363 164.036 24.7349 165.253 24.7349H167.485V24.0588C167.485 23.6531 167.406 23.2474 167.248 22.8417C167.09 22.436 166.854 22.0754 166.538 21.7599C166.222 21.4218 165.828 21.1626 165.355 20.9823C164.881 20.7794 164.318 20.678 163.664 20.678C163.078 20.678 162.56 20.7344 162.109 20.847C161.681 20.9597 161.287 21.1062 160.926 21.2865C160.565 21.4443 160.239 21.6359 159.946 21.8613C159.653 22.0867 159.371 22.3008 159.1 22.5036L157.275 20.6104ZM165.862 26.9662C165.141 26.9662 164.397 27.0113 163.631 27.1014C162.887 27.1691 162.199 27.3156 161.568 27.5409C160.96 27.7663 160.453 28.0819 160.047 28.4875C159.664 28.8932 159.472 29.4116 159.472 30.0427C159.472 30.9668 159.776 31.6316 160.385 32.0373C161.016 32.443 161.861 32.6459 162.921 32.6459C163.755 32.6459 164.464 32.5106 165.05 32.2402C165.636 31.9472 166.11 31.5753 166.47 31.1245C166.831 30.6738 167.09 30.1779 167.248 29.637C167.406 29.0735 167.485 28.5214 167.485 27.9804V26.9662H165.862ZM186.199 22.9093C185.635 22.3233 185.038 21.8838 184.407 21.5908C183.799 21.2753 183.066 21.1175 182.21 21.1175C181.376 21.1175 180.643 21.2753 180.012 21.5908C179.404 21.8838 178.885 22.3008 178.457 22.8417C178.051 23.3601 177.736 23.9686 177.51 24.6673C177.308 25.3434 177.206 26.0534 177.206 26.7972C177.206 27.5409 177.33 28.2509 177.578 28.927C177.826 29.5807 178.175 30.1554 178.626 30.6512C179.077 31.1471 179.618 31.5415 180.249 31.8345C180.88 32.1049 181.59 32.2402 182.379 32.2402C183.235 32.2402 183.968 32.0937 184.576 31.8007C185.185 31.4851 185.748 31.0344 186.267 30.4484L188.43 32.6121C187.641 33.4911 186.717 34.1221 185.658 34.5053C184.621 34.8884 183.517 35.08 182.345 35.08C181.105 35.08 179.967 34.8772 178.93 34.4715C177.916 34.0658 177.037 33.5023 176.293 32.7811C175.55 32.0373 174.975 31.1583 174.569 30.1441C174.163 29.1073 173.961 27.9692 173.961 26.7296C173.961 25.4899 174.163 24.3518 174.569 23.315C174.975 22.2782 175.538 21.388 176.259 20.6442C177.003 19.9004 177.882 19.3257 178.896 18.92C179.933 18.4918 181.083 18.2777 182.345 18.2777C183.517 18.2777 184.632 18.4918 185.692 18.92C186.774 19.3257 187.709 19.9568 188.498 20.8132L186.199 22.9093ZM191.048 9.11585H194.09V25.6139L200.987 18.6834H205.213L197.742 25.952L205.855 34.6743H201.528L194.09 26.3577V34.6743H191.048V9.11585Z" fill="#231F20"/>
<path d="M22.1889 45.4833C34.4435 45.4833 44.3778 35.549 44.3778 23.2944C44.3778 11.0398 34.4435 1.10547 22.1889 1.10547C9.93432 1.10547 0 11.0398 0 23.2944C0 35.549 9.93432 45.4833 22.1889 45.4833Z" fill="url(#paint0_linear_1776_69753)"/>
<path d="M11.7793 8.47119H15.3531V19.4206H29.027V8.47119H32.6008V22.7666H29.027H15.3531H11.7793V8.47119Z" fill="white"/>
<path d="M11.7793 23.6162H15.3531H29.027H32.6008V37.922H29.027V26.9622H15.3531V37.9116H11.7793V23.6162Z" fill="white"/>
<defs>
<linearGradient id="paint0_linear_1776_69753" x1="0.00010359" y1="23.2961" x2="44.3768" y2="23.2961" gradientUnits="userSpaceOnUse">
<stop stop-color="#7956EC"/>
<stop offset="0.1747" stop-color="#634CDE"/>
<stop offset="0.5355" stop-color="#3C39C4"/>
<stop offset="0.8233" stop-color="#242DB4"/>
<stop offset="1" stop-color="#1B29AE"/>
</linearGradient>
</defs>
</svg>
