<svg width="213" height="48" viewBox="0 0 213 48" fill="none" xmlns="http://www.w3.org/2000/svg">
<path d="M54.053 10.2391H57.2986V20.1785H69.7059V10.2391H72.9514V34.1748H69.7059V23.2212H57.2986V34.1748H54.053V10.2391ZM78.4016 20.1109C79.258 19.322 80.2497 18.736 81.3766 18.3529C82.5036 17.9472 83.6305 17.7444 84.7574 17.7444C85.9294 17.7444 86.9323 17.8909 87.7663 18.1839C88.6227 18.4769 89.3214 18.8713 89.8623 19.3671C90.4032 19.863 90.7977 20.4377 91.0456 21.0913C91.316 21.7224 91.4513 22.3873 91.4513 23.0859V31.2674C91.4513 31.8308 91.4625 32.3492 91.4851 32.8225C91.5076 33.2958 91.5414 33.7466 91.5865 34.1748H88.8819C88.8143 33.3634 88.7805 32.552 88.7805 31.7407H88.7129C88.0367 32.7774 87.2366 33.5099 86.3125 33.9382C85.3885 34.3664 84.3179 34.5805 83.1008 34.5805C82.3571 34.5805 81.6471 34.4791 80.9709 34.2762C80.2948 34.0734 79.6975 33.7691 79.1791 33.3634C78.6833 32.9577 78.2889 32.4619 77.9959 31.8759C77.7029 31.2674 77.5564 30.5687 77.5564 29.7798C77.5564 28.7431 77.7818 27.8753 78.2325 27.1767C78.7058 26.478 79.3369 25.9145 80.1258 25.4863C80.9371 25.0355 81.8725 24.72 82.9318 24.5397C84.0136 24.3368 85.1631 24.2354 86.3801 24.2354H88.6114V23.5592C88.6114 23.1536 88.5326 22.7479 88.3748 22.3422C88.217 21.9365 87.9804 21.5759 87.6648 21.2603C87.3493 20.9223 86.9549 20.6631 86.4816 20.4828C86.0083 20.2799 85.4448 20.1785 84.7912 20.1785C84.2052 20.1785 83.6868 20.2348 83.236 20.3475C82.8078 20.4602 82.4134 20.6067 82.0528 20.787C81.6922 20.9448 81.3654 21.1364 81.0724 21.3618C80.7794 21.5871 80.4976 21.8013 80.2272 22.0041L78.4016 20.1109ZM86.9887 26.4667C86.2675 26.4667 85.5237 26.5118 84.7574 26.6019C84.0136 26.6695 83.3262 26.816 82.6951 27.0414C82.0866 27.2668 81.5795 27.5823 81.1738 27.988C80.7906 28.3937 80.5991 28.9121 80.5991 29.5432C80.5991 30.4672 80.9033 31.1321 81.5119 31.5378C82.1429 31.9435 82.9881 32.1464 84.0474 32.1464C84.8813 32.1464 85.5913 32.0111 86.1773 31.7407C86.7633 31.4477 87.2366 31.0758 87.5972 30.625C87.9578 30.1743 88.217 29.6784 88.3748 29.1375C88.5326 28.574 88.6114 28.0218 88.6114 27.4809V26.4667H86.9887ZM104.384 22.1731C104.024 21.7224 103.573 21.3505 103.032 21.0575C102.514 20.742 101.871 20.5842 101.105 20.5842C100.384 20.5842 99.7529 20.742 99.2119 21.0575C98.6936 21.3505 98.4344 21.79 98.4344 22.376C98.4344 22.8493 98.5809 23.2324 98.8739 23.5254C99.1894 23.8184 99.55 24.0551 99.9557 24.2354C100.384 24.4157 100.835 24.5509 101.308 24.6411C101.781 24.7312 102.187 24.8101 102.525 24.8777C103.179 25.0355 103.787 25.2271 104.351 25.4525C104.937 25.6779 105.433 25.9709 105.838 26.3315C106.266 26.6921 106.593 27.1316 106.819 27.65C107.067 28.1683 107.191 28.7994 107.191 29.5432C107.191 30.4447 106.999 31.2223 106.616 31.8759C106.233 32.507 105.737 33.0253 105.128 33.431C104.52 33.8367 103.821 34.1297 103.032 34.31C102.266 34.4903 101.488 34.5805 100.699 34.5805C99.3697 34.5805 98.1977 34.3776 97.1835 33.972C96.1918 33.5663 95.3015 32.8225 94.5127 31.7407L96.8116 29.8474C97.3074 30.3433 97.8596 30.7828 98.4682 31.1659C99.0767 31.5491 99.8205 31.7407 100.699 31.7407C101.083 31.7407 101.466 31.7069 101.849 31.6392C102.255 31.5491 102.604 31.4251 102.897 31.2674C103.212 31.0871 103.46 30.8729 103.641 30.625C103.844 30.3546 103.945 30.0503 103.945 29.7122C103.945 29.2614 103.798 28.8896 103.505 28.5966C103.235 28.3036 102.897 28.0782 102.491 27.9204C102.108 27.7401 101.691 27.6049 101.24 27.5147C100.812 27.402 100.429 27.3119 100.091 27.2443C99.4373 27.0865 98.8175 26.9062 98.2315 26.7033C97.6455 26.5005 97.1271 26.23 96.6764 25.892C96.2256 25.5539 95.865 25.1257 95.5945 24.6073C95.3241 24.0889 95.1888 23.4466 95.1888 22.6803C95.1888 21.8463 95.3579 21.1251 95.696 20.5166C96.0566 19.8855 96.5186 19.3671 97.0821 18.9614C97.6681 18.5557 98.3217 18.2515 99.0429 18.0486C99.7867 17.8458 100.53 17.7444 101.274 17.7444C102.356 17.7444 103.393 17.9472 104.384 18.3529C105.376 18.7586 106.165 19.4347 106.751 20.3813L104.384 22.1731ZM110.887 8.61633H113.93V20.618H113.997C114.38 19.7615 115.045 19.0741 115.992 18.5557C116.938 18.0148 118.032 17.7444 119.271 17.7444C120.037 17.7444 120.77 17.8683 121.469 18.1162C122.19 18.3416 122.81 18.7022 123.328 19.1981C123.869 19.6939 124.297 20.3363 124.613 21.1251C124.928 21.8914 125.086 22.8042 125.086 23.8635V34.1748H122.043V24.7087C122.043 23.9649 121.942 23.3339 121.739 22.8155C121.536 22.2746 121.266 21.8463 120.928 21.5308C120.59 21.1927 120.195 20.9561 119.744 20.8208C119.316 20.6631 118.865 20.5842 118.392 20.5842C117.761 20.5842 117.175 20.6856 116.634 20.8885C116.093 21.0913 115.62 21.4181 115.214 21.8689C114.809 22.2971 114.493 22.8493 114.268 23.5254C114.042 24.2016 113.93 25.0017 113.93 25.9258V34.1748H110.887V8.61633ZM138.192 22.1731C137.831 21.7224 137.381 21.3505 136.84 21.0575C136.321 20.742 135.679 20.5842 134.913 20.5842C134.191 20.5842 133.56 20.742 133.019 21.0575C132.501 21.3505 132.242 21.79 132.242 22.376C132.242 22.8493 132.388 23.2324 132.681 23.5254C132.997 23.8184 133.358 24.0551 133.763 24.2354C134.191 24.4157 134.642 24.5509 135.116 24.6411C135.589 24.7312 135.995 24.8101 136.333 24.8777C136.986 25.0355 137.595 25.2271 138.158 25.4525C138.744 25.6779 139.24 25.9709 139.646 26.3315C140.074 26.6921 140.401 27.1316 140.626 27.65C140.874 28.1683 140.998 28.7994 140.998 29.5432C140.998 30.4447 140.806 31.2223 140.423 31.8759C140.04 32.507 139.544 33.0253 138.936 33.431C138.327 33.8367 137.629 34.1297 136.84 34.31C136.073 34.4903 135.296 34.5805 134.507 34.5805C133.177 34.5805 132.005 34.3776 130.991 33.972C129.999 33.5663 129.109 32.8225 128.32 31.7407L130.619 29.8474C131.115 30.3433 131.667 30.7828 132.276 31.1659C132.884 31.5491 133.628 31.7407 134.507 31.7407C134.89 31.7407 135.273 31.7069 135.656 31.6392C136.062 31.5491 136.411 31.4251 136.704 31.2674C137.02 31.0871 137.268 30.8729 137.448 30.625C137.651 30.3546 137.752 30.0503 137.752 29.7122C137.752 29.2614 137.606 28.8896 137.313 28.5966C137.043 28.3036 136.704 28.0782 136.299 27.9204C135.916 27.7401 135.499 27.6049 135.048 27.5147C134.62 27.402 134.237 27.3119 133.898 27.2443C133.245 27.0865 132.625 26.9062 132.039 26.7033C131.453 26.5005 130.935 26.23 130.484 25.892C130.033 25.5539 129.672 25.1257 129.402 24.6073C129.132 24.0889 128.996 23.4466 128.996 22.6803C128.996 21.8463 129.165 21.1251 129.503 20.5166C129.864 19.8855 130.326 19.3671 130.89 18.9614C131.476 18.5557 132.129 18.2515 132.85 18.0486C133.594 17.8458 134.338 17.7444 135.082 17.7444C136.164 17.7444 137.2 17.9472 138.192 18.3529C139.184 18.7586 139.973 19.4347 140.559 20.3813L138.192 22.1731ZM153.281 20.787H148.92V28.0556C148.92 28.5064 148.932 28.9572 148.954 29.4079C148.977 29.8362 149.056 30.2306 149.191 30.5912C149.349 30.9293 149.574 31.211 149.867 31.4364C150.182 31.6392 150.633 31.7407 151.219 31.7407C151.58 31.7407 151.952 31.7069 152.335 31.6392C152.718 31.5716 153.067 31.4477 153.383 31.2674V34.0396C153.022 34.2424 152.549 34.3776 151.963 34.4453C151.4 34.5354 150.96 34.5805 150.645 34.5805C149.473 34.5805 148.56 34.4227 147.906 34.1072C147.275 33.7691 146.802 33.3409 146.486 32.8225C146.193 32.3041 146.013 31.7294 145.945 31.0983C145.9 30.4447 145.878 29.7911 145.878 29.1375V20.787H142.362V18.15H145.878V13.6537H148.92V18.15H153.281V20.787ZM157.275 20.1109C158.131 19.322 159.123 18.736 160.25 18.3529C161.377 17.9472 162.504 17.7444 163.631 17.7444C164.803 17.7444 165.805 17.8909 166.639 18.1839C167.496 18.4769 168.195 18.8713 168.735 19.3671C169.276 19.863 169.671 20.4377 169.919 21.0913C170.189 21.7224 170.324 22.3873 170.324 23.0859V31.2674C170.324 31.8308 170.336 32.3492 170.358 32.8225C170.381 33.2958 170.415 33.7466 170.46 34.1748H167.755C167.687 33.3634 167.654 32.552 167.654 31.7407H167.586C166.91 32.7774 166.11 33.5099 165.186 33.9382C164.262 34.3664 163.191 34.5805 161.974 34.5805C161.23 34.5805 160.52 34.4791 159.844 34.2762C159.168 34.0734 158.571 33.7691 158.052 33.3634C157.556 32.9577 157.162 32.4619 156.869 31.8759C156.576 31.2674 156.43 30.5687 156.43 29.7798C156.43 28.7431 156.655 27.8753 157.106 27.1767C157.579 26.478 158.21 25.9145 158.999 25.4863C159.81 25.0355 160.746 24.72 161.805 24.5397C162.887 24.3368 164.036 24.2354 165.253 24.2354H167.485V23.5592C167.485 23.1536 167.406 22.7479 167.248 22.3422C167.09 21.9365 166.854 21.5759 166.538 21.2603C166.222 20.9223 165.828 20.6631 165.355 20.4828C164.881 20.2799 164.318 20.1785 163.664 20.1785C163.078 20.1785 162.56 20.2348 162.109 20.3475C161.681 20.4602 161.287 20.6067 160.926 20.787C160.565 20.9448 160.239 21.1364 159.946 21.3618C159.653 21.5871 159.371 21.8013 159.1 22.0041L157.275 20.1109ZM165.862 26.4667C165.141 26.4667 164.397 26.5118 163.631 26.6019C162.887 26.6695 162.199 26.816 161.568 27.0414C160.96 27.2668 160.453 27.5823 160.047 27.988C159.664 28.3937 159.472 28.9121 159.472 29.5432C159.472 30.4672 159.776 31.1321 160.385 31.5378C161.016 31.9435 161.861 32.1464 162.921 32.1464C163.755 32.1464 164.464 32.0111 165.05 31.7407C165.636 31.4477 166.11 31.0758 166.47 30.625C166.831 30.1743 167.09 29.6784 167.248 29.1375C167.406 28.574 167.485 28.0218 167.485 27.4809V26.4667H165.862ZM186.199 22.4098C185.635 21.8238 185.038 21.3843 184.407 21.0913C183.799 20.7758 183.066 20.618 182.21 20.618C181.376 20.618 180.643 20.7758 180.012 21.0913C179.404 21.3843 178.885 21.8013 178.457 22.3422C178.051 22.8606 177.736 23.4691 177.51 24.1678C177.308 24.8439 177.206 25.5539 177.206 26.2977C177.206 27.0414 177.33 27.7514 177.578 28.4275C177.826 29.0811 178.175 29.6559 178.626 30.1517C179.077 30.6476 179.618 31.042 180.249 31.335C180.88 31.6054 181.59 31.7407 182.379 31.7407C183.235 31.7407 183.968 31.5942 184.576 31.3012C185.185 30.9856 185.748 30.5349 186.267 29.9489L188.43 32.1125C187.641 32.9915 186.717 33.6226 185.658 34.0058C184.621 34.3889 183.517 34.5805 182.345 34.5805C181.105 34.5805 179.967 34.3776 178.93 33.972C177.916 33.5663 177.037 33.0028 176.293 32.2816C175.55 31.5378 174.975 30.6588 174.569 29.6446C174.163 28.6078 173.961 27.4697 173.961 26.23C173.961 24.9904 174.163 23.8522 174.569 22.8155C174.975 21.7787 175.538 20.8885 176.259 20.1447C177.003 19.4009 177.882 18.8262 178.896 18.4205C179.933 17.9923 181.083 17.7782 182.345 17.7782C183.517 17.7782 184.632 17.9923 185.692 18.4205C186.774 18.8262 187.709 19.4573 188.498 20.3137L186.199 22.4098ZM191.048 8.61633H194.09V25.1144L200.987 18.1839H205.213L197.742 25.4525L205.855 34.1748H201.528L194.09 25.8582V34.1748H191.048V8.61633Z" fill="white"/>
<path d="M22.1889 44.9843C34.4435 44.9843 44.3778 35.05 44.3778 22.7954C44.3778 10.5408 34.4435 0.606445 22.1889 0.606445C9.93432 0.606445 0 10.5408 0 22.7954C0 35.05 9.93432 44.9843 22.1889 44.9843Z" fill="url(#paint0_linear_2338_90698)"/>
<path d="M11.7793 7.97168H15.3531V18.9211H29.027V7.97168H32.6008V22.2671H29.027H15.3531H11.7793V7.97168Z" fill="white"/>
<path d="M11.7793 23.1172H15.3531H29.027H32.6008V37.4229H29.027V26.4631H15.3531V37.4126H11.7793V23.1172Z" fill="white"/>
<defs>
<linearGradient id="paint0_linear_2338_90698" x1="0.00010359" y1="22.7971" x2="44.3768" y2="22.7971" gradientUnits="userSpaceOnUse">
<stop stop-color="#7956EC"/>
<stop offset="0.1747" stop-color="#634CDE"/>
<stop offset="0.5355" stop-color="#3C39C4"/>
<stop offset="0.8233" stop-color="#242DB4"/>
<stop offset="1" stop-color="#1B29AE"/>
</linearGradient>
</defs>
</svg>
