<svg width="28" height="28" viewBox="0 0 28 28" fill="none" xmlns="http://www.w3.org/2000/svg">
<path d="M14 17.5C15.933 17.5 17.5 15.933 17.5 14C17.5 12.067 15.933 10.5 14 10.5C12.067 10.5 10.5 12.067 10.5 14C10.5 15.933 12.067 17.5 14 17.5Z" stroke="white" stroke-width="1.5" stroke-miterlimit="10" stroke-linecap="round" stroke-linejoin="round"/>
<path d="M2.33398 15.026V12.9727C2.33398 11.7594 3.32565 10.756 4.55065 10.756C6.66232 10.756 7.52565 9.26269 6.46398 7.43102C5.85732 6.38102 6.21898 5.01602 7.28065 4.40936L9.29898 3.25436C10.2207 2.70602 11.4107 3.03269 11.959 3.95436L12.0873 4.17602C13.1373 6.00769 14.864 6.00769 15.9257 4.17602L16.054 3.95436C16.6023 3.03269 17.7923 2.70602 18.714 3.25436L20.7323 4.40936C21.794 5.01602 22.1556 6.38102 21.549 7.43102C20.4873 9.26269 21.3507 10.756 23.4623 10.756C24.6757 10.756 25.679 11.7477 25.679 12.9727V15.026C25.679 16.2394 24.6873 17.2427 23.4623 17.2427C21.3507 17.2427 20.4873 18.736 21.549 20.5677C22.1556 21.6294 21.794 22.9827 20.7323 23.5894L18.714 24.7444C17.7923 25.2927 16.6023 24.966 16.054 24.0444L15.9257 23.8227C14.8757 21.991 13.149 21.991 12.0873 23.8227L11.959 24.0444C11.4107 24.966 10.2207 25.2927 9.29898 24.7444L7.28065 23.5894C6.21898 22.9827 5.85732 21.6177 6.46398 20.5677C7.52565 18.736 6.66232 17.2427 4.55065 17.2427C3.32565 17.2427 2.33398 16.2394 2.33398 15.026Z" stroke="white" stroke-width="1.5" stroke-miterlimit="10" stroke-linecap="round" stroke-linejoin="round"/>
</svg>
