<svg width="24" height="24" viewBox="0 0 24 24" fill="none" xmlns="http://www.w3.org/2000/svg">
<circle cx="12" cy="12" r="11.5" stroke="#13FF80"/>
<path d="M21 11.9999C21 16.9704 16.9707 20.9997 12.0001 20.9997C7.02959 20.9997 3 16.9704 3 11.9999C3 7.02933 7.02959 3 12.0001 3C16.9707 3 21 7.02933 21 11.9999Z" fill="#29296E"/>
<path d="M16.1891 9.5937L15.9602 8.88666C15.9137 8.74286 15.8002 8.63096 15.6558 8.58683L14.9454 8.36834C14.847 8.33831 14.8462 8.19956 14.9438 8.16792L15.6511 7.93907C15.7946 7.89255 15.9065 7.77905 15.9509 7.63472L16.1691 6.92423C16.1992 6.82614 16.3379 6.82508 16.3695 6.9229L16.5984 7.62994C16.6449 7.77347 16.7584 7.88537 16.9027 7.92976L17.6132 8.14799C17.7116 8.17829 17.7126 8.31678 17.6148 8.34841L16.9075 8.57726C16.764 8.62378 16.6521 8.73754 16.6077 8.88188L16.3895 9.5921C16.3594 9.69045 16.2207 9.69151 16.1891 9.5937Z" fill="#FAFAFA"/>
<path d="M3.81836 11.8574C4.03233 11.4382 4.45549 11.1224 4.89513 10.9228C5.33929 10.7253 5.82757 10.6041 6.30708 10.5648C7.27514 10.4773 8.21822 10.6392 9.0773 10.9191C9.51986 11.0509 9.91591 11.2341 10.325 11.4191C10.5238 11.5148 10.7107 11.6232 10.9031 11.7279L11.4347 12.036C12.0184 12.3938 12.5843 12.7106 13.1159 12.9568C13.6489 13.2008 14.1305 13.3658 14.5845 13.4501C15.0385 13.5354 15.4999 13.5343 16.0674 13.4041C16.6304 13.2768 17.2638 13.0022 17.9259 12.65C18.592 12.2976 19.2751 11.8654 20.0545 11.443C19.9763 12.3257 19.7265 13.1535 19.3363 13.9527C18.9365 14.7424 18.3804 15.5127 17.5697 16.1366C16.7745 16.7655 15.6823 17.2038 14.5704 17.2697C13.458 17.3449 12.3999 17.0998 11.4996 16.7312C10.5958 16.3572 9.8149 15.8657 9.12275 15.3232C8.93164 15.1733 8.82904 15.0882 8.68789 14.9689L8.29371 14.6236C8.02817 14.4158 7.77087 14.1672 7.50799 13.9612C6.98356 13.5229 6.46471 13.0838 5.89589 12.7032C5.60908 12.5097 5.31324 12.3303 4.9778 12.1713C4.81114 12.0945 4.63411 12.023 4.44406 11.9666C4.24949 11.9031 4.05174 11.8654 3.81836 11.8574Z" fill="#FF4F0A"/>
<path d="M3.81836 11.8571C3.9276 10.9488 4.35103 10.0969 5.02963 9.37181C5.70477 8.65361 6.75948 8.09994 7.92982 8.02658C8.50741 7.98803 9.09378 8.05236 9.63283 8.20174C10.1695 8.35059 10.6724 8.56749 11.1256 8.82293C11.3521 8.95131 11.5639 9.09165 11.7749 9.23333L12.3374 9.65915L13.2153 10.3518C13.7852 10.8056 14.3291 11.2253 14.8317 11.5719C15.3391 11.919 15.7713 12.1726 16.1841 12.3212C16.5932 12.4833 17.1099 12.5248 17.793 12.3531C18.1322 12.2749 18.486 12.1322 18.8634 11.9775C19.2387 11.8191 19.6284 11.6301 20.0545 11.4427C20.0032 11.8993 19.9104 12.3541 19.7342 12.7792C19.5649 13.21 19.3419 13.6316 19.0301 14.0247C18.8706 14.2161 18.6997 14.4085 18.5003 14.5861C18.301 14.7594 18.0801 14.9239 17.8361 15.0683C17.3494 15.3503 16.7721 15.5563 16.1799 15.6296C15.5876 15.7041 14.993 15.6669 14.4516 15.552C13.9072 15.4404 13.4112 15.2604 12.9559 15.0526C12.0485 14.6305 11.2893 14.0999 10.6182 13.5383C10.2811 13.2579 9.96508 12.965 9.66579 12.6675L9.31227 12.3127C9.20568 12.2098 9.09803 12.1064 8.99144 12.0118C8.5619 11.6319 8.1632 11.3417 7.72409 11.1607C7.28817 10.9712 6.73025 10.8933 6.0458 11.0214C5.36401 11.1482 4.61604 11.443 3.81836 11.8571Z" fill="#FAFAFA"/>
<path d="M7.41452 16.5409C7.41452 16.8096 7.19656 17.0276 6.92783 17.0276C6.6591 17.0276 6.44141 16.8096 6.44141 16.5409C6.44141 16.2722 6.6591 16.0542 6.92783 16.0542C7.19656 16.0542 7.41452 16.2722 7.41452 16.5409Z" fill="#FAFAFA"/>
<path d="M7.41452 16.5409C7.41452 16.8096 7.19656 17.0276 6.92783 17.0276C6.6591 17.0276 6.44141 16.8096 6.44141 16.5409C6.44141 16.2722 6.6591 16.0542 6.92783 16.0542C7.19656 16.0542 7.41452 16.2722 7.41452 16.5409Z" fill="#FAFAFA"/>
</svg>
