<svg width="37" height="36" viewBox="0 0 37 36" fill="none" xmlns="http://www.w3.org/2000/svg">
<path d="M18.5 3L9.5 12L12.5 15L18.5 9L24.5 15L27.5 12L18.5 3Z" stroke="#223311" stroke-width="1.5" stroke-miterlimit="10" stroke-linecap="round" stroke-linejoin="round"/>
<path d="M18.5 33L9.5 24L12.5 21L18.5 27L24.5 21L27.5 24L18.5 33Z" stroke="#223311" stroke-width="1.5" stroke-miterlimit="10" stroke-linecap="round" stroke-linejoin="round"/>
<path d="M30.1773 14.5532L26.7832 17.9473L30.1773 21.3413L33.5714 17.9473L30.1773 14.5532Z" stroke="#223311" stroke-width="1.5" stroke-miterlimit="10" stroke-linecap="round" stroke-linejoin="round"/>
<path d="M6.92728 14.5532L3.5332 17.9473L6.92728 21.3413L10.3214 17.9473L6.92728 14.5532Z" stroke="#223311" stroke-width="1.5" stroke-miterlimit="10" stroke-linecap="round" stroke-linejoin="round"/>
<path d="M18.3939 14.2877L14.6816 18L18.3939 21.7123L22.1062 18L18.3939 14.2877Z" stroke="#223311" stroke-width="1.5" stroke-miterlimit="10" stroke-linecap="round" stroke-linejoin="round"/>
</svg>
