<svg width="36" height="36" viewBox="0 0 36 36" fill="none" xmlns="http://www.w3.org/2000/svg">
<path d="M18 3L9 12L12 15L18 9L24 15L27 12L18 3Z" stroke="#223311" stroke-width="1.5" stroke-miterlimit="10" stroke-linecap="round" stroke-linejoin="round"/>
<path d="M18 33L9 24L12 21L18 27L24 21L27 24L18 33Z" stroke="#223311" stroke-width="1.5" stroke-miterlimit="10" stroke-linecap="round" stroke-linejoin="round"/>
<path d="M29.6773 14.5532L26.2832 17.9473L29.6773 21.3413L33.0714 17.9473L29.6773 14.5532Z" stroke="#223311" stroke-width="1.5" stroke-miterlimit="10" stroke-linecap="round" stroke-linejoin="round"/>
<path d="M6.42728 14.5532L3.0332 17.9473L6.42728 21.3413L9.82136 17.9473L6.42728 14.5532Z" stroke="#223311" stroke-width="1.5" stroke-miterlimit="10" stroke-linecap="round" stroke-linejoin="round"/>
<path d="M17.8939 14.2877L14.1816 18L17.8939 21.7123L21.6062 18L17.8939 14.2877Z" stroke="#223311" stroke-width="1.5" stroke-miterlimit="10" stroke-linecap="round" stroke-linejoin="round"/>
</svg>
