<svg width="17" height="20" viewBox="0 0 17 20" fill="none" xmlns="http://www.w3.org/2000/svg">
<path d="M1.89265 9.89375L1.90308 13.7208L5.15292 15.6343V17.8748L0.001159 14.8515V8.77464L1.89265 9.89375ZM1.89265 6.06672V8.29684L0 7.17656V4.94645L1.89265 3.82617L3.79457 4.94645L1.89265 6.06672ZM6.51011 4.94645L8.40276 3.82617L10.3047 4.94645L8.40276 6.06672L6.51011 4.94645Z" fill="#F0B90B"/>
<path d="M3.26025 12.9275V10.687L5.1529 11.8073V14.0374L3.26025 12.9275ZM6.51009 16.4368L8.40274 17.5571L10.3047 16.4368V18.6669L8.40274 19.7872L6.51009 18.6669V16.4368ZM13.019 4.94645L14.9117 3.82617L16.8136 4.94645V7.17656L14.9117 8.29684V6.06672L13.019 4.94645ZM14.9117 13.7208L14.9221 9.89375L16.8148 8.77348V14.8503L11.663 17.8737V15.6331L14.9117 13.7208Z" fill="#F0B90B"/>
<path d="M13.5543 12.9271L11.6616 14.0369V11.8068L13.5543 10.6865V12.9271Z" fill="#F0B90B"/>
<path d="M13.5545 6.85966L13.5649 9.10021L10.3058 11.0137V14.85L8.41318 15.9599L6.52053 14.85V11.0137L3.26141 9.10021V6.85966L5.16218 5.73938L8.40159 7.66218L11.6607 5.73938L13.5626 6.85966H13.5545ZM3.26025 3.03379L8.40274 0L13.5545 3.03379L11.6619 4.15407L8.40274 2.23127L5.1529 4.15407L3.26025 3.03379Z" fill="#F0B90B"/>
</svg>
