<svg width="20" height="27" viewBox="0 0 20 27" fill="none" xmlns="http://www.w3.org/2000/svg">
<path d="M19.9478 10.6429C20.3638 7.86109 18.2459 6.36575 15.3498 5.36821L16.2894 1.59997L13.9955 1.0284L13.0809 4.69742C12.4779 4.54702 11.8586 4.4053 11.2431 4.26481L12.1643 0.571571L9.8719 0L8.93189 3.76701C8.43286 3.65339 7.94273 3.5411 7.4672 3.42278L7.46986 3.41093L4.3066 2.62101L3.69641 5.07098C3.69641 5.07098 5.39825 5.46108 5.36238 5.48509C6.29126 5.71693 6.45924 6.33182 6.43134 6.8192L5.36116 11.1121C5.42512 11.1284 5.50808 11.1519 5.59963 11.1886C5.5231 11.1696 5.44167 11.1489 5.35717 11.1287L3.85713 17.1424C3.74361 17.4246 3.45548 17.8481 2.80605 17.6873C2.82904 17.7206 1.13885 17.2713 1.13885 17.2713L0 19.897L2.98506 20.6411C3.54039 20.7804 4.08457 20.9261 4.62049 21.0631L3.67127 24.8746L5.96246 25.4461L6.90248 21.6751C7.5284 21.845 8.13584 22.0018 8.7305 22.1495L7.79365 25.9028L10.0876 26.4743L11.0367 22.67C14.9482 23.4103 17.8893 23.1118 19.1273 19.5739C20.1248 16.7254 19.0776 15.0825 17.0198 14.011C18.5186 13.6654 19.6476 12.6796 19.9486 10.6432L19.9479 10.6427L19.9478 10.6429ZM14.7069 17.992C13.998 20.8405 9.20204 19.3007 7.64713 18.9145L8.90675 13.865C10.4616 14.2532 15.4477 15.0213 14.707 17.992H14.7069ZM15.4163 10.6016C14.7696 13.1926 10.7779 11.8763 9.48302 11.5535L10.625 6.9739C11.9199 7.29667 16.0899 7.8991 15.4165 10.6016H15.4163Z" fill="#F7931A"/>
</svg>
