<svg width="15" height="19" viewBox="0 0 15 19" fill="none" xmlns="http://www.w3.org/2000/svg">
<path d="M14.9608 7.63815C15.2729 5.6418 13.6845 4.56863 11.5126 3.85241L12.217 1.14818L10.4966 0.737981L9.8105 3.37092C9.35813 3.26304 8.89365 3.16119 8.43209 3.06026L9.12299 0.409732L7.40396 0L6.69903 2.70331C6.32455 2.62182 5.95733 2.54127 5.60075 2.45608L5.60268 2.44774L3.23001 1.88106L2.77231 3.63944C2.77231 3.63944 4.04864 3.91954 4.02155 3.93667C4.71825 4.10288 4.84405 4.54456 4.82324 4.8941L4.02058 7.97519C4.06848 7.98677 4.13089 8.0039 4.19959 8.03029C4.14202 8.01686 4.08106 8.00158 4.01768 7.98723L2.89278 12.3031C2.80763 12.5054 2.59136 12.8096 2.10464 12.6943C2.12205 12.7184 0.854433 12.3957 0.854433 12.3957L0 14.2795L2.23865 14.8138C2.65523 14.9138 3.06309 15.0184 3.46515 15.1166L2.75344 17.8518L4.47199 18.262L5.17692 15.5555C5.64623 15.6772 6.10199 15.7897 6.54808 15.8958L5.84556 18.5893L7.56604 18.9995L8.27775 16.2694C11.2112 16.8009 13.4169 16.5865 14.3454 14.0476C15.0934 12.0035 14.3081 10.8243 12.7647 10.0553C13.8887 9.80718 14.7353 9.09976 14.9613 7.63815H14.9608ZM11.0302 12.9124C10.4985 14.9564 6.90175 13.8517 5.73525 13.5744L6.68016 9.9507C7.84618 10.229 11.5857 10.7804 11.0302 12.9124ZM11.5619 7.60852C11.0772 9.46782 8.08325 8.52336 7.11221 8.29187L7.96858 5.00521C8.93962 5.2367 12.0675 5.66912 11.5619 7.60852Z" fill="#F7931A"/>
</svg>
