<svg width="37" height="36" viewBox="0 0 37 36" fill="none" xmlns="http://www.w3.org/2000/svg">
<path d="M14 12.5713H21.0269C22.5846 12.5713 23.8481 13.9732 23.8481 15.3924C23.8481 16.9501 22.5846 18.2136 21.0269 18.2136H14V12.5713Z" stroke="#231F20" stroke-width="1.5" stroke-miterlimit="10" stroke-linecap="round" stroke-linejoin="round"/>
<path d="M14 18.1963H22.0308C23.8135 18.1963 25.25 19.4598 25.25 21.0174C25.25 22.5751 23.8135 23.8386 22.0308 23.8386H14V18.1963Z" stroke="#231F20" stroke-width="1.5" stroke-miterlimit="10" stroke-linecap="round" stroke-linejoin="round"/>
<path d="M18.916 23.8213V26.6424" stroke="#231F20" stroke-width="1.5" stroke-miterlimit="10" stroke-linecap="round" stroke-linejoin="round"/>
<path d="M15.4023 23.8213V26.6424" stroke="#231F20" stroke-width="1.5" stroke-miterlimit="10" stroke-linecap="round" stroke-linejoin="round"/>
<path d="M18.916 9.75V12.5712" stroke="#231F20" stroke-width="1.5" stroke-miterlimit="10" stroke-linecap="round" stroke-linejoin="round"/>
<path d="M15.4023 9.75V12.5712" stroke="#231F20" stroke-width="1.5" stroke-miterlimit="10" stroke-linecap="round" stroke-linejoin="round"/>
<path d="M16.6654 12.5713H11.75" stroke="#231F20" stroke-width="1.5" stroke-miterlimit="10" stroke-linecap="round" stroke-linejoin="round"/>
<path d="M16.6654 23.8213H11.75" stroke="#231F20" stroke-width="1.5" stroke-miterlimit="10" stroke-linecap="round" stroke-linejoin="round"/>
<path d="M18.5 33C26.7843 33 33.5 26.2843 33.5 18C33.5 9.71573 26.7843 3 18.5 3C10.2157 3 3.5 9.71573 3.5 18C3.5 26.2843 10.2157 33 18.5 33Z" stroke="#231F20" stroke-width="1.5" stroke-miterlimit="10"/>
</svg>
