<svg width="68" height="16" viewBox="0 0 68 16" fill="none" xmlns="http://www.w3.org/2000/svg">
<rect width="68" height="16" rx="9" fill="#F7931A"/>
<path d="M23.1199 5.33203H16.8496V6.8458H19.2279V9.07076H20.7416V6.8458H23.1199V5.33203Z" fill="#1BA27A"/>
<path d="M20 9.30839C18.0327 9.30839 16.4376 8.99702 16.4376 8.61289C16.4376 8.22882 18.0326 7.91739 20 7.91739C21.9674 7.91739 23.5624 8.22882 23.5624 8.61289C23.5624 8.99702 21.9674 9.30839 20 9.30839ZM24 8.72884C24 8.23352 22.2092 7.83203 20 7.83203C17.791 7.83203 16 8.23352 16 8.72884C16 9.16502 17.3887 9.52843 19.2288 9.60896V12.803H20.7425V9.61021C22.5968 9.53221 24 9.16727 24 8.72884Z" fill="#1BA27A"/>
<circle cx="20" cy="9" r="8" fill="#F7931A"/>
<path d="M23.4798 8.22502C23.6254 7.25138 22.8841 6.72801 21.8705 6.37887L22.1993 5.05999L21.3965 4.85994L21.0764 6.1441C20.8653 6.09146 20.6486 6.04186 20.4331 5.99268L20.7556 4.70005L19.9532 4.5L19.6242 5.81845C19.4495 5.77869 19.278 5.73939 19.1116 5.69797L19.1125 5.69383L18.0054 5.41735L17.7918 6.27484C17.7918 6.27484 18.3874 6.41138 18.3749 6.41978C18.7 6.50093 18.7588 6.71614 18.749 6.88672L18.3745 8.38924C18.3968 8.39492 18.4259 8.40315 18.4579 8.41602C18.4311 8.40937 18.4026 8.40211 18.3731 8.39503L17.848 10.4998C17.8083 10.5986 17.7075 10.7468 17.4802 10.6906C17.4882 10.7022 16.8966 10.5449 16.8966 10.5449L16.498 11.4639L17.5428 11.7244C17.7372 11.7731 17.9276 11.8241 18.1152 11.8721L17.783 13.2061L18.5849 13.4061L18.9139 12.0863C19.133 12.1458 19.3456 12.2006 19.5537 12.2523L19.2258 13.566L20.0287 13.766L20.3609 12.4345C21.7299 12.6936 22.7593 12.5891 23.1926 11.3509C23.5417 10.3539 23.1752 9.77886 22.455 9.40386C22.9796 9.28288 23.3747 8.93786 23.48 8.22513L23.4798 8.22495L23.4798 8.22502ZM21.6454 10.7972C21.3973 11.7942 19.7188 11.2552 19.1745 11.1201L19.6154 9.35276C20.1596 9.48862 21.9048 9.75747 21.6455 10.7972H21.6454ZM21.8937 8.21057C21.6674 9.11741 20.2703 8.6567 19.8171 8.54373L20.2168 6.94086C20.67 7.05383 22.1295 7.26468 21.8938 8.21057H21.8937Z" fill="white"/>
<path d="M33.0502 13V4.27273H36.2462C36.8656 4.27273 37.3783 4.375 37.7846 4.57955C38.1908 4.78125 38.4948 5.0554 38.6965 5.40199C38.8982 5.74574 38.9991 6.13352 38.9991 6.56534C38.9991 6.92898 38.9323 7.2358 38.7988 7.4858C38.6653 7.73295 38.4863 7.93182 38.2619 8.08239C38.0403 8.23011 37.796 8.33807 37.5289 8.40625V8.49148C37.8187 8.50568 38.1013 8.59943 38.3769 8.77273C38.6553 8.94318 38.8854 9.18608 39.0673 9.50142C39.2491 9.81676 39.34 10.2003 39.34 10.652C39.34 11.098 39.2349 11.4986 39.0246 11.8537C38.8173 12.206 38.4962 12.4858 38.0616 12.6932C37.6269 12.8977 37.0715 13 36.3954 13H33.0502ZM34.367 11.8707H36.2675C36.8982 11.8707 37.3499 11.7486 37.6227 11.5043C37.8954 11.2599 38.0317 10.9545 38.0317 10.5881C38.0317 10.3125 37.9621 10.0597 37.8229 9.82955C37.6837 9.59943 37.4849 9.41619 37.2263 9.27983C36.9707 9.14347 36.6667 9.07528 36.3144 9.07528H34.367V11.8707ZM34.367 8.0483H36.1312C36.4266 8.0483 36.6923 7.99148 36.9281 7.87784C37.1667 7.7642 37.3556 7.60511 37.4948 7.40057C37.6369 7.19318 37.7079 6.94886 37.7079 6.66761C37.7079 6.30682 37.5815 6.00426 37.3286 5.75994C37.0758 5.51562 36.688 5.39347 36.1653 5.39347H34.367V8.0483ZM40.3214 5.40625V4.27273H47.0756V5.40625H44.3526V13H43.0401V5.40625H40.3214ZM55.2918 7.1108H53.9622C53.9111 6.8267 53.8159 6.5767 53.6767 6.3608C53.5375 6.14489 53.367 5.96165 53.1653 5.81108C52.9636 5.66051 52.7378 5.54687 52.4878 5.47017C52.2406 5.39347 51.9778 5.35511 51.6994 5.35511C51.1966 5.35511 50.7463 5.48153 50.3486 5.73438C49.9537 5.98722 49.6412 6.35795 49.4111 6.84659C49.1838 7.33523 49.0702 7.93182 49.0702 8.63636C49.0702 9.34659 49.1838 9.94602 49.4111 10.4347C49.6412 10.9233 49.9551 11.2926 50.3528 11.5426C50.7506 11.7926 51.198 11.9176 51.6952 11.9176C51.9707 11.9176 52.2321 11.8807 52.4793 11.8068C52.7293 11.7301 52.9551 11.6179 53.1568 11.4702C53.3585 11.3224 53.529 11.142 53.6682 10.929C53.8102 10.7131 53.9082 10.4659 53.9622 10.1875L55.2918 10.1918C55.2207 10.6207 55.083 11.0156 54.8784 11.3764C54.6767 11.7344 54.4168 12.044 54.0986 12.3054C53.7832 12.5639 53.4224 12.7642 53.0162 12.9062C52.6099 13.0483 52.1668 13.1193 51.6866 13.1193C50.931 13.1193 50.2577 12.9403 49.6668 12.5824C49.0759 12.2216 48.6099 11.706 48.269 11.0355C47.931 10.3651 47.7619 9.56534 47.7619 8.63636C47.7619 7.70455 47.9324 6.90483 48.2733 6.23722C48.6142 5.56676 49.0801 5.05256 49.671 4.6946C50.2619 4.33381 50.9338 4.15341 51.6866 4.15341C52.1497 4.15341 52.5815 4.22017 52.9821 4.35369C53.3855 4.48437 53.7477 4.67756 54.0687 4.93324C54.3898 5.18608 54.6554 5.49574 54.8656 5.86222C55.0759 6.22585 55.2179 6.64205 55.2918 7.1108Z" fill="white"/>
</svg>
