<svg width="21" height="21" viewBox="0 0 21 21" fill="none" xmlns="http://www.w3.org/2000/svg">
<path d="M7.875 7.33398H11.974C12.8827 7.33398 13.6197 8.15177 13.6197 8.97966C13.6197 9.88832 12.8827 10.6253 11.974 10.6253H7.875V7.33398Z" stroke="white" stroke-width="0.8" stroke-miterlimit="10" stroke-linecap="round" stroke-linejoin="round"/>
<path d="M7.875 10.6152H12.5596C13.5995 10.6152 14.4375 11.3523 14.4375 12.2609C14.4375 13.1696 13.5995 13.9066 12.5596 13.9066H7.875V10.6152Z" stroke="white" stroke-width="0.8" stroke-miterlimit="10" stroke-linecap="round" stroke-linejoin="round"/>
<path d="M10.7422 13.8965V15.5422" stroke="white" stroke-width="0.8" stroke-miterlimit="10" stroke-linecap="round" stroke-linejoin="round"/>
<path d="M8.69141 13.8965V15.5422" stroke="white" stroke-width="0.8" stroke-miterlimit="10" stroke-linecap="round" stroke-linejoin="round"/>
<path d="M10.7422 5.6875V7.33318" stroke="white" stroke-width="0.8" stroke-miterlimit="10" stroke-linecap="round" stroke-linejoin="round"/>
<path d="M8.69141 5.6875V7.33318" stroke="white" stroke-width="0.8" stroke-miterlimit="10" stroke-linecap="round" stroke-linejoin="round"/>
<path d="M9.42981 7.33398H6.5625" stroke="white" stroke-width="0.8" stroke-miterlimit="10" stroke-linecap="round" stroke-linejoin="round"/>
<path d="M9.42981 13.8965H6.5625" stroke="white" stroke-width="0.8" stroke-miterlimit="10" stroke-linecap="round" stroke-linejoin="round"/>
<path d="M10.749 19.25C15.5815 19.25 19.499 15.3325 19.499 10.5C19.499 5.66751 15.5815 1.75 10.749 1.75C5.91653 1.75 1.99902 5.66751 1.99902 10.5C1.99902 15.3325 5.91653 19.25 10.749 19.25Z" stroke="white" stroke-width="0.8" stroke-miterlimit="10"/>
</svg>
