<svg width="72" height="16" viewBox="0 0 72 16" fill="none" xmlns="http://www.w3.org/2000/svg">
<path d="M6.9533 1.08218C7.32807 0.709313 7.83523 0.5 8.36389 0.5H68C70.2091 0.5 72 2.29086 72 4.5V11.5C72 13.7091 70.2091 15.5 68 15.5H8.36389C7.83523 15.5 7.32808 15.2907 6.9533 14.9178L1.4251 9.41783C0.639221 8.63596 0.63922 7.36404 1.4251 6.58217L6.9533 1.08218Z" fill="#2BC8BF"/>
<path d="M13.8716 6.5H12.9909C12.9389 6.24669 12.8477 6.02415 12.7175 5.83239C12.5897 5.64062 12.4334 5.47964 12.2488 5.34943C12.0665 5.21686 11.8641 5.11742 11.6415 5.05114C11.419 4.98485 11.187 4.9517 10.9455 4.9517C10.5051 4.9517 10.1062 5.06297 9.74876 5.28551C9.39364 5.50805 9.11074 5.83594 8.90004 6.26918C8.6917 6.70241 8.58754 7.2339 8.58754 7.86364C8.58754 8.49337 8.6917 9.02486 8.90004 9.4581C9.11074 9.89134 9.39364 10.2192 9.74876 10.4418C10.1062 10.6643 10.5051 10.7756 10.9455 10.7756C11.187 10.7756 11.419 10.7424 11.6415 10.6761C11.8641 10.6098 12.0665 10.5116 12.2488 10.3814C12.4334 10.2488 12.5897 10.0866 12.7175 9.89489C12.8477 9.70076 12.9389 9.47822 12.9909 9.22727H13.8716C13.8053 9.59896 13.6846 9.93158 13.5094 10.2251C13.3342 10.5187 13.1164 10.7685 12.856 10.9744C12.5956 11.178 12.3032 11.3331 11.9789 11.4396C11.6569 11.5462 11.3124 11.5994 10.9455 11.5994C10.3252 11.5994 9.77362 11.4479 9.29066 11.1449C8.80771 10.8419 8.42773 10.411 8.15075 9.85227C7.87376 9.29356 7.73526 8.63068 7.73526 7.86364C7.73526 7.09659 7.87376 6.43371 8.15075 5.875C8.42773 5.31629 8.80771 4.88542 9.29066 4.58239C9.77362 4.27936 10.3252 4.12784 10.9455 4.12784C11.3124 4.12784 11.6569 4.18111 11.9789 4.28764C12.3032 4.39418 12.5956 4.55043 12.856 4.75639C13.1164 4.95999 13.3342 5.20857 13.5094 5.50213C13.6846 5.79332 13.8053 6.12595 13.8716 6.5ZM17.247 11.6136C16.7546 11.6136 16.3225 11.4964 15.9509 11.2621C15.5815 11.0277 15.2927 10.6998 15.0844 10.2784C14.8784 9.85701 14.7754 9.36458 14.7754 8.80114C14.7754 8.23295 14.8784 7.73698 15.0844 7.31321C15.2927 6.88944 15.5815 6.56037 15.9509 6.32599C16.3225 6.09162 16.7546 5.97443 17.247 5.97443C17.7394 5.97443 18.1703 6.09162 18.5396 6.32599C18.9113 6.56037 19.2001 6.88944 19.4061 7.31321C19.6144 7.73698 19.7186 8.23295 19.7186 8.80114C19.7186 9.36458 19.6144 9.85701 19.4061 10.2784C19.2001 10.6998 18.9113 11.0277 18.5396 11.2621C18.1703 11.4964 17.7394 11.6136 17.247 11.6136ZM17.247 10.8608C17.6211 10.8608 17.9288 10.7649 18.1703 10.5732C18.4118 10.3814 18.5905 10.1293 18.7065 9.81676C18.8225 9.50426 18.8805 9.16572 18.8805 8.80114C18.8805 8.43655 18.8225 8.09683 18.7065 7.78196C18.5905 7.46709 18.4118 7.21259 18.1703 7.01847C17.9288 6.82434 17.6211 6.72727 17.247 6.72727C16.873 6.72727 16.5652 6.82434 16.3237 7.01847C16.0822 7.21259 15.9035 7.46709 15.7875 7.78196C15.6715 8.09683 15.6135 8.43655 15.6135 8.80114C15.6135 9.16572 15.6715 9.50426 15.7875 9.81676C15.9035 10.1293 16.0822 10.3814 16.3237 10.5732C16.5652 10.7649 16.873 10.8608 17.247 10.8608ZM20.8479 11.5V6.04545H21.6576V6.89773H21.7286C21.8422 6.60653 22.0257 6.38045 22.279 6.21946C22.5323 6.05611 22.8365 5.97443 23.1917 5.97443C23.5515 5.97443 23.851 6.05611 24.0901 6.21946C24.3316 6.38045 24.5198 6.60653 24.6547 6.89773H24.7115C24.8512 6.616 25.0607 6.39228 25.3401 6.22656C25.6194 6.05848 25.9544 5.97443 26.3451 5.97443C26.8328 5.97443 27.2317 6.12713 27.5418 6.43253C27.8519 6.73556 28.007 7.20786 28.007 7.84943V11.5H27.1689V7.84943C27.1689 7.44697 27.0588 7.15933 26.8387 6.98651C26.6185 6.81368 26.3593 6.72727 26.061 6.72727C25.6775 6.72727 25.3803 6.84328 25.1696 7.07528C24.9589 7.30492 24.8536 7.59612 24.8536 7.94886V11.5H24.0013V7.7642C24.0013 7.45407 23.9007 7.20431 23.6995 7.01491C23.4982 6.82315 23.239 6.72727 22.9218 6.72727C22.704 6.72727 22.5004 6.78527 22.311 6.90128C22.1239 7.01728 21.9724 7.17827 21.8564 7.38423C21.7428 7.58783 21.686 7.82339 21.686 8.09091V11.5H20.8479ZM29.3893 11.5V6.04545H30.2274V11.5H29.3893ZM29.8154 5.13636C29.6521 5.13636 29.5112 5.08073 29.3929 4.96946C29.2769 4.85819 29.2189 4.72443 29.2189 4.56818C29.2189 4.41193 29.2769 4.27817 29.3929 4.1669C29.5112 4.05563 29.6521 4 29.8154 4C29.9788 4 30.1185 4.05563 30.2345 4.1669C30.3529 4.27817 30.412 4.41193 30.412 4.56818C30.412 4.72443 30.3529 4.85819 30.2345 4.96946C30.1185 5.08073 29.9788 5.13636 29.8154 5.13636ZM32.4504 8.21875V11.5H31.6124V6.04545H32.422V6.89773H32.493C32.6209 6.62074 32.815 6.3982 33.0754 6.23011C33.3358 6.05966 33.672 5.97443 34.0839 5.97443C34.4533 5.97443 34.7764 6.05019 35.0534 6.2017C35.3304 6.35085 35.5458 6.57812 35.6997 6.88352C35.8536 7.18655 35.9305 7.57008 35.9305 8.03409V11.5H35.0925V8.09091C35.0925 7.66241 34.9812 7.3286 34.7587 7.08949C34.5361 6.84801 34.2307 6.72727 33.8425 6.72727C33.575 6.72727 33.3358 6.78527 33.1251 6.90128C32.9168 7.01728 32.7523 7.18655 32.6315 7.40909C32.5108 7.63163 32.4504 7.90152 32.4504 8.21875ZM39.5137 13.6591C39.1088 13.6591 38.7608 13.607 38.4696 13.5028C38.1784 13.401 37.9358 13.2661 37.7417 13.098C37.5499 12.9323 37.3972 12.7547 37.2836 12.5653L37.9512 12.0966C38.0269 12.196 38.1228 12.3097 38.2388 12.4375C38.3548 12.5677 38.5134 12.6802 38.7147 12.7749C38.9183 12.8719 39.1846 12.9205 39.5137 12.9205C39.954 12.9205 40.3174 12.8139 40.6039 12.6009C40.8903 12.3878 41.0336 12.054 41.0336 11.5994V10.4915H40.9625C40.901 10.5909 40.8134 10.714 40.6998 10.8608C40.5885 11.0052 40.4275 11.1342 40.2168 11.2479C40.0085 11.3591 39.7267 11.4148 39.3716 11.4148C38.9313 11.4148 38.5359 11.3106 38.1855 11.1023C37.8375 10.8939 37.5617 10.5909 37.3581 10.1932C37.1569 9.79545 37.0563 9.3125 37.0563 8.74432C37.0563 8.18561 37.1545 7.6991 37.351 7.2848C37.5475 6.86813 37.821 6.54616 38.1713 6.31889C38.5217 6.08925 38.9266 5.97443 39.3858 5.97443C39.7409 5.97443 40.0227 6.03362 40.231 6.15199C40.4417 6.26799 40.6027 6.40057 40.714 6.54972C40.8276 6.6965 40.9152 6.81723 40.9767 6.91193H41.062V6.04545H41.8716V11.6562C41.8716 12.125 41.7651 12.5062 41.552 12.7997C41.3413 13.0956 41.0572 13.3123 40.6998 13.4496C40.3446 13.5893 39.9493 13.6591 39.5137 13.6591ZM39.4853 10.6619C39.8214 10.6619 40.1055 10.585 40.3375 10.4311C40.5695 10.2772 40.7459 10.0559 40.8667 9.76705C40.9874 9.47822 41.0478 9.13258 41.0478 8.73011C41.0478 8.33712 40.9886 7.99029 40.8702 7.68963C40.7518 7.38897 40.5766 7.15341 40.3446 6.98295C40.1126 6.8125 39.8262 6.72727 39.4853 6.72727C39.1301 6.72727 38.8342 6.81723 38.5975 6.99716C38.3631 7.17708 38.1867 7.41856 38.0684 7.72159C37.9524 8.02462 37.8944 8.3608 37.8944 8.73011C37.8944 9.1089 37.9535 9.44389 38.0719 9.73509C38.1926 10.0239 38.3702 10.2512 38.6046 10.4169C38.8413 10.5803 39.1349 10.6619 39.4853 10.6619ZM50.0091 6.04545C49.9665 5.68561 49.7937 5.40625 49.4907 5.20739C49.1876 5.00852 48.8159 4.90909 48.3756 4.90909C48.0536 4.90909 47.7719 4.96117 47.5304 5.06534C47.2913 5.16951 47.1043 5.31274 46.9694 5.49503C46.8368 5.67732 46.7705 5.88447 46.7705 6.11648C46.7705 6.31061 46.8167 6.47751 46.909 6.61719C47.0037 6.7545 47.1244 6.86932 47.2712 6.96165C47.418 7.05161 47.5719 7.12618 47.7328 7.18537C47.8938 7.24219 48.0418 7.28835 48.1767 7.32386L48.9154 7.52273C49.1048 7.57244 49.3155 7.6411 49.5475 7.72869C49.7819 7.81629 50.0056 7.93584 50.2186 8.08736C50.4341 8.23651 50.6116 8.42827 50.7513 8.66264C50.891 8.89702 50.9608 9.18466 50.9608 9.52557C50.9608 9.91856 50.8578 10.2737 50.6519 10.5909C50.4483 10.9081 50.15 11.1603 49.757 11.3473C49.3664 11.5343 48.8917 11.6278 48.333 11.6278C47.8122 11.6278 47.3612 11.5438 46.98 11.3757C46.6012 11.2076 46.3029 10.9732 46.0851 10.6726C45.8697 10.3719 45.7478 10.0227 45.7194 9.625H46.6284C46.6521 9.89962 46.7444 10.1269 46.9054 10.3068C47.0688 10.4844 47.2748 10.617 47.5233 10.7045C47.7743 10.7898 48.0442 10.8324 48.333 10.8324C48.6692 10.8324 48.971 10.7779 49.2385 10.669C49.506 10.5578 49.7179 10.4039 49.8742 10.2074C50.0304 10.0085 50.1086 9.77652 50.1086 9.51136C50.1086 9.26989 50.0411 9.07339 49.9061 8.92188C49.7712 8.77036 49.5936 8.64725 49.3735 8.55256C49.1533 8.45786 48.9154 8.375 48.6597 8.30398L47.7648 8.0483C47.1966 7.88494 46.7468 7.65175 46.4154 7.34872C46.0839 7.04569 45.9182 6.64915 45.9182 6.15909C45.9182 5.75189 46.0283 5.39678 46.2485 5.09375C46.471 4.78835 46.7693 4.55161 47.1434 4.38352C47.5198 4.21307 47.94 4.12784 48.404 4.12784C48.8728 4.12784 49.2894 4.21188 49.654 4.37997C50.0186 4.54569 50.3074 4.77296 50.5205 5.06179C50.7359 5.35062 50.8496 5.6785 50.8614 6.04545H50.0091ZM54.3611 11.6136C53.8687 11.6136 53.4366 11.4964 53.0649 11.2621C52.6956 11.0277 52.4068 10.6998 52.1984 10.2784C51.9925 9.85701 51.8895 9.36458 51.8895 8.80114C51.8895 8.23295 51.9925 7.73698 52.1984 7.31321C52.4068 6.88944 52.6956 6.56037 53.0649 6.32599C53.4366 6.09162 53.8687 5.97443 54.3611 5.97443C54.8535 5.97443 55.2844 6.09162 55.6537 6.32599C56.0254 6.56037 56.3142 6.88944 56.5202 7.31321C56.7285 7.73698 56.8327 8.23295 56.8327 8.80114C56.8327 9.36458 56.7285 9.85701 56.5202 10.2784C56.3142 10.6998 56.0254 11.0277 55.6537 11.2621C55.2844 11.4964 54.8535 11.6136 54.3611 11.6136ZM54.3611 10.8608C54.7351 10.8608 55.0429 10.7649 55.2844 10.5732C55.5259 10.3814 55.7046 10.1293 55.8206 9.81676C55.9366 9.50426 55.9946 9.16572 55.9946 8.80114C55.9946 8.43655 55.9366 8.09683 55.8206 7.78196C55.7046 7.46709 55.5259 7.21259 55.2844 7.01847C55.0429 6.82434 54.7351 6.72727 54.3611 6.72727C53.987 6.72727 53.6793 6.82434 53.4378 7.01847C53.1963 7.21259 53.0176 7.46709 52.9016 7.78196C52.7856 8.09683 52.7276 8.43655 52.7276 8.80114C52.7276 9.16572 52.7856 9.50426 52.9016 9.81676C53.0176 10.1293 53.1963 10.3814 53.4378 10.5732C53.6793 10.7649 53.987 10.8608 54.3611 10.8608ZM60.1779 11.6136C59.6855 11.6136 59.2534 11.4964 58.8817 11.2621C58.5124 11.0277 58.2236 10.6998 58.0152 10.2784C57.8093 9.85701 57.7063 9.36458 57.7063 8.80114C57.7063 8.23295 57.8093 7.73698 58.0152 7.31321C58.2236 6.88944 58.5124 6.56037 58.8817 6.32599C59.2534 6.09162 59.6855 5.97443 60.1779 5.97443C60.6703 5.97443 61.1012 6.09162 61.4705 6.32599C61.8422 6.56037 62.131 6.88944 62.337 7.31321C62.5453 7.73698 62.6495 8.23295 62.6495 8.80114C62.6495 9.36458 62.5453 9.85701 62.337 10.2784C62.131 10.6998 61.8422 11.0277 61.4705 11.2621C61.1012 11.4964 60.6703 11.6136 60.1779 11.6136ZM60.1779 10.8608C60.5519 10.8608 60.8597 10.7649 61.1012 10.5732C61.3427 10.3814 61.5214 10.1293 61.6374 9.81676C61.7534 9.50426 61.8114 9.16572 61.8114 8.80114C61.8114 8.43655 61.7534 8.09683 61.6374 7.78196C61.5214 7.46709 61.3427 7.21259 61.1012 7.01847C60.8597 6.82434 60.5519 6.72727 60.1779 6.72727C59.8038 6.72727 59.4961 6.82434 59.2546 7.01847C59.0131 7.21259 58.8344 7.46709 58.7184 7.78196C58.6024 8.09683 58.5444 8.43655 58.5444 8.80114C58.5444 9.16572 58.6024 9.50426 58.7184 9.81676C58.8344 10.1293 59.0131 10.3814 59.2546 10.5732C59.4961 10.7649 59.8038 10.8608 60.1779 10.8608ZM64.6168 8.21875V11.5H63.7788V6.04545H64.5884V6.89773H64.6594C64.7873 6.62074 64.9814 6.3982 65.2418 6.23011C65.5022 6.05966 65.8384 5.97443 66.2504 5.97443C66.6197 5.97443 66.9428 6.05019 67.2198 6.2017C67.4968 6.35085 67.7122 6.57812 67.8661 6.88352C68.02 7.18655 68.0969 7.57008 68.0969 8.03409V11.5H67.2589V8.09091C67.2589 7.66241 67.1476 7.3286 66.9251 7.08949C66.7025 6.84801 66.3971 6.72727 66.0089 6.72727C65.7414 6.72727 65.5022 6.78527 65.2915 6.90128C65.0832 7.01728 64.9187 7.18655 64.7979 7.40909C64.6772 7.63163 64.6168 7.90152 64.6168 8.21875Z" fill="black"/>
</svg>
