<svg width="24" height="22" viewBox="0 0 24 22" fill="none" xmlns="http://www.w3.org/2000/svg">
<path d="M12.2866 12.2991H19.2617C19.4104 12.2991 19.4806 12.2991 19.4914 12.1042C19.5484 11.3946 19.5484 10.6809 19.4914 9.97048C19.4914 9.83253 19.4228 9.77553 19.2733 9.77553H5.3916C5.21978 9.77553 5.17352 9.83253 5.17352 9.99361V12.0356C5.17352 12.2991 5.17352 12.2991 5.44859 12.2991H12.2866ZM18.7124 7.38909C18.7322 7.33705 18.7322 7.28005 18.7124 7.22884C18.5959 6.97524 18.458 6.73321 18.2977 6.50605C18.0565 6.11781 17.7724 5.76013 17.4485 5.4388C17.2957 5.24468 17.119 5.07038 16.9207 4.92252C15.9278 4.07747 14.7474 3.47942 13.4786 3.17874C12.8384 3.03501 12.1842 2.96644 11.5283 2.97223H5.36764C5.19582 2.97223 5.17269 3.04079 5.17269 3.1903V7.2627C5.17269 7.43452 5.17269 7.48078 5.39077 7.48078H18.6298C18.6298 7.48078 18.7446 7.45765 18.7677 7.38909H18.7116H18.7124ZM18.7124 14.6855C18.5175 14.6641 18.3209 14.6641 18.1259 14.6855H5.40316C5.23134 14.6855 5.17352 14.6855 5.17352 14.9152V18.8967C5.17352 19.0801 5.17352 19.1264 5.40316 19.1264H11.2772C11.558 19.1478 11.8389 19.128 12.1139 19.0694C12.9664 19.0082 13.8049 18.8232 14.6045 18.5184C14.8952 18.4176 15.1761 18.2863 15.4413 18.1285H15.5214C16.8984 17.4123 18.0169 16.2872 18.7223 14.9061C18.7223 14.9061 18.8024 14.7326 18.7124 14.6872V14.6855ZM2.86803 21.1906V21.1221V18.449V17.5428V14.8466C2.86803 14.6971 2.86803 14.6748 2.68465 14.6748H0.194947C0.0569972 14.6748 0 14.6748 0 14.4914V12.3115H2.66152C2.8102 12.3115 2.86803 12.3115 2.86803 12.1165V9.95974C2.86803 9.82179 2.86803 9.78792 2.68465 9.78792H0.194947C0.0569972 9.78792 0 9.78792 0 9.60454V7.58569C0 7.4593 9.84722e-08 7.42544 0.183382 7.42544H2.64995C2.82177 7.42544 2.86803 7.42544 2.86803 7.20736V1.02359C2.86803 0.840204 2.86803 0.793945 3.09767 0.793945H11.7018C12.3262 0.818727 12.9466 0.887288 13.5604 1.00046C14.825 1.23423 16.0401 1.68607 17.1512 2.33122C17.888 2.76489 18.5662 3.2886 19.17 3.89161C19.6243 4.36329 20.0341 4.87378 20.3975 5.41732C20.7585 5.96829 21.0584 6.55726 21.2938 7.17267C21.3227 7.33292 21.4763 7.44113 21.6366 7.41387H23.6901C23.9536 7.41387 23.9536 7.41387 23.9652 7.66664V9.54837C23.9652 9.73175 23.8967 9.77801 23.7124 9.77801H22.1289C21.9687 9.77801 21.9224 9.77801 21.934 9.98452C21.9968 10.6834 21.9968 11.3847 21.934 12.0835C21.934 12.2785 21.934 12.3016 22.1529 12.3016H23.9644C24.0445 12.4048 23.9644 12.5081 23.9644 12.6122C23.976 12.7452 23.976 12.8798 23.9644 13.0128V14.4014C23.9644 14.5963 23.9074 14.6542 23.7347 14.6542H21.5664C21.4152 14.6252 21.2682 14.7219 21.2335 14.8722C20.7172 16.2146 19.8912 17.4181 18.8239 18.3829C18.434 18.734 18.0243 19.0644 17.5964 19.3692C17.1371 19.6336 16.6902 19.9086 16.2194 20.1267C15.3529 20.5166 14.4442 20.8041 13.5116 20.9866C12.6261 21.1452 11.7282 21.2171 10.827 21.2047H2.86472V21.1931L2.86803 21.1906Z" fill="#F5AC37"/>
</svg>
