<svg width="64" height="18" viewBox="0 0 64 18" fill="none" xmlns="http://www.w3.org/2000/svg">
<rect width="64" height="18" rx="9" fill="#F5AC37"/>
<path d="M20.6834 9.35374H23.626C23.6888 9.35374 23.7184 9.35374 23.7229 9.27149C23.747 8.97214 23.747 8.67105 23.7229 8.37135C23.7229 8.31315 23.694 8.28911 23.6309 8.28911H17.7746C17.7021 8.28911 17.6826 8.31315 17.6826 8.38111V9.24257C17.6826 9.35374 17.6826 9.35374 17.7986 9.35374H20.6834ZM23.3943 7.28233C23.4027 7.26037 23.4027 7.23633 23.3943 7.21472C23.3452 7.10773 23.287 7.00563 23.2194 6.90979C23.1176 6.746 22.9977 6.59511 22.8611 6.45955C22.7966 6.37765 22.7221 6.30412 22.6384 6.24174C22.2195 5.88524 21.7216 5.63293 21.1863 5.50608C20.9162 5.44545 20.6402 5.41652 20.3635 5.41896H17.7645C17.692 5.41896 17.6822 5.44789 17.6822 5.51096V7.22901C17.6822 7.30149 17.6822 7.32101 17.7742 7.32101H23.3594C23.3594 7.32101 23.4079 7.31125 23.4176 7.28233H23.3939H23.3943ZM23.3943 10.3605C23.312 10.3515 23.2291 10.3515 23.1469 10.3605H17.7795C17.707 10.3605 17.6826 10.3605 17.6826 10.4574V12.1371C17.6826 12.2145 17.6826 12.234 17.7795 12.234H20.2576C20.376 12.243 20.4945 12.2347 20.6106 12.2099C20.9702 12.1842 21.3239 12.1061 21.6613 11.9775C21.7839 11.935 21.9024 11.8796 22.0143 11.813H22.0481C22.629 11.5109 23.1009 11.0362 23.3985 10.4536C23.3985 10.4536 23.4323 10.3804 23.3943 10.3612V10.3605ZM16.7099 13.1049V13.0759V11.9482V11.5659V10.4285C16.7099 10.3654 16.7099 10.356 16.6326 10.356H15.5822C15.524 10.356 15.5 10.356 15.5 10.2786V9.35896H16.6228C16.6856 9.35896 16.7099 9.35896 16.7099 9.27672V8.36682C16.7099 8.30862 16.7099 8.29433 16.6326 8.29433H15.5822C15.524 8.29433 15.5 8.29433 15.5 8.21697V7.36527C15.5 7.31195 15.5 7.29766 15.5774 7.29766H16.6179C16.6904 7.29766 16.7099 7.29766 16.7099 7.20566V4.59688C16.7099 4.51952 16.7099 4.5 16.8068 4.5H20.4367C20.7001 4.51045 20.9618 4.53938 21.2208 4.58712C21.7543 4.68574 22.2669 4.87637 22.7356 5.14854C23.0465 5.33149 23.3326 5.55243 23.5874 5.80683C23.779 6.00582 23.9519 6.22118 24.1052 6.45049C24.2575 6.68293 24.384 6.9314 24.4833 7.19102C24.4955 7.25863 24.5603 7.30428 24.6279 7.29278H25.4943C25.6054 7.29278 25.6054 7.29278 25.6103 7.39942V8.19327C25.6103 8.27064 25.5814 8.29015 25.5037 8.29015H24.8356C24.768 8.29015 24.7485 8.29015 24.7534 8.37727C24.7799 8.6721 24.7799 8.96796 24.7534 9.26278C24.7534 9.34503 24.7534 9.35478 24.8457 9.35478H25.61C25.6438 9.39834 25.61 9.44191 25.61 9.48581C25.6149 9.54192 25.6149 9.59872 25.61 9.65483V10.2406C25.61 10.3229 25.5859 10.3473 25.5131 10.3473H24.5983C24.5345 10.3351 24.4725 10.3759 24.4579 10.4393C24.2401 11.0056 23.8916 11.5133 23.4413 11.9203C23.2769 12.0685 23.104 12.2079 22.9235 12.3364C22.7297 12.448 22.5412 12.564 22.3426 12.656C21.977 12.8205 21.5937 12.9418 21.2002 13.0188C20.8266 13.0857 20.4478 13.116 20.0676 13.1108H16.7086V13.1059L16.7099 13.1049Z" fill="white"/>
<path d="M36.0024 13H33.1772V4.27273H36.0919C36.9471 4.27273 37.6814 4.44744 38.2951 4.79688C38.9087 5.14347 39.3789 5.64205 39.7056 6.29261C40.0351 6.94034 40.1999 7.71733 40.1999 8.62358C40.1999 9.53267 40.0337 10.3139 39.7013 10.9673C39.3718 11.6207 38.8945 12.1236 38.2695 12.4759C37.6445 12.8253 36.8888 13 36.0024 13ZM34.4939 11.8494H35.93C36.5948 11.8494 37.1473 11.7244 37.5877 11.4744C38.028 11.2216 38.3576 10.8565 38.5763 10.3793C38.7951 9.89915 38.9044 9.31392 38.9044 8.62358C38.9044 7.93892 38.7951 7.35795 38.5763 6.88068C38.3604 6.40341 38.038 6.04119 37.609 5.79403C37.18 5.54687 36.6473 5.4233 36.011 5.4233H34.4939V11.8494ZM41.9909 13H40.5932L43.7338 4.27273H45.2551L48.3958 13H46.998L44.5307 5.85795H44.4625L41.9909 13ZM42.2253 9.58239H46.7594V10.6903H42.2253V9.58239ZM50.8228 4.27273V13H49.5061V4.27273H50.8228Z" fill="white"/>
</svg>
