<svg width="32" height="32" viewBox="0 0 32 32" fill="none" xmlns="http://www.w3.org/2000/svg">
<circle cx="16" cy="16" r="16" fill="#3E415C" fill-opacity="0.6"/>
<path d="M17.2149 17.6289H22.4463C22.5578 17.6289 22.6105 17.6289 22.6185 17.4827C22.6613 16.9505 22.6613 16.4152 22.6185 15.8824C22.6185 15.7789 22.5671 15.7362 22.455 15.7362H12.0437C11.9148 15.7362 11.8801 15.7789 11.8801 15.8997V17.4312C11.8801 17.6289 11.8801 17.6289 12.0864 17.6289H17.2149ZM22.0343 13.9464C22.0492 13.9073 22.0492 13.8646 22.0343 13.8262C21.9469 13.636 21.8435 13.4544 21.7233 13.2841C21.5424 12.9929 21.3293 12.7246 21.0864 12.4836C20.9718 12.338 20.8392 12.2073 20.6905 12.0964C19.9458 11.4626 19.0605 11.0141 18.1089 10.7886C17.6288 10.6808 17.1381 10.6294 16.6462 10.6337H12.0257C11.8969 10.6337 11.8795 10.6851 11.8795 10.7973V13.8516C11.8795 13.9804 11.8795 14.0151 12.0431 14.0151H21.9723C21.9723 14.0151 22.0585 13.9978 22.0758 13.9464H22.0337H22.0343ZM22.0343 19.4187C21.8881 19.4026 21.7406 19.4026 21.5944 19.4187H12.0524C11.9235 19.4187 11.8801 19.4187 11.8801 19.5909V22.5771C11.8801 22.7146 11.8801 22.7493 12.0524 22.7493H16.4579C16.6685 22.7654 16.8792 22.7506 17.0855 22.7066C17.7248 22.6607 18.3536 22.5219 18.9534 22.2933C19.1714 22.2178 19.3821 22.1192 19.5809 22.0009H19.641C20.6738 21.4638 21.5126 20.62 22.0417 19.5841C22.0417 19.5841 22.1018 19.454 22.0343 19.4199V19.4187ZM10.151 24.2975V24.2461V22.2413V21.5617V19.5395C10.151 19.4274 10.151 19.4106 10.0135 19.4106H8.14621C8.04275 19.4106 8 19.4106 8 19.2731V17.6382H9.99614C10.1077 17.6382 10.151 17.6382 10.151 17.492V15.8743C10.151 15.7709 10.151 15.7455 10.0135 15.7455H8.14621C8.04275 15.7455 8 15.7455 8 15.6079V14.0938C8 13.999 8 13.9736 8.13754 13.9736H9.98746C10.1163 13.9736 10.151 13.9736 10.151 13.8101V9.17223C10.151 9.03469 10.151 9 10.3233 9H16.7763C17.2447 9.01859 17.71 9.07001 18.1703 9.15488C19.1188 9.33021 20.0301 9.6691 20.8634 10.153C21.416 10.4782 21.9246 10.871 22.3775 11.3233C22.7183 11.677 23.0255 12.0599 23.2981 12.4675C23.5689 12.8808 23.7938 13.3225 23.9703 13.784C23.992 13.9042 24.1073 13.9854 24.2274 13.9649H25.7676C25.9652 13.9649 25.9652 13.9649 25.9739 14.1545V15.5658C25.9739 15.7034 25.9225 15.738 25.7843 15.738H24.5967C24.4765 15.738 24.4418 15.738 24.4505 15.8929C24.4976 16.4171 24.4976 16.943 24.4505 17.4672C24.4505 17.6134 24.4505 17.6307 24.6147 17.6307H25.9733C26.0334 17.7082 25.9733 17.7856 25.9733 17.8637C25.982 17.9634 25.982 18.0644 25.9733 18.1641V19.2056C25.9733 19.3518 25.9305 19.3952 25.8011 19.3952H24.1748C24.0614 19.3735 23.9511 19.446 23.9251 19.5587C23.5379 20.5655 22.9184 21.4681 22.1179 22.1917C21.8255 22.455 21.5182 22.7028 21.1973 22.9315C20.8528 23.1297 20.5177 23.336 20.1645 23.4996C19.5147 23.792 18.8332 24.0076 18.1337 24.1445C17.4696 24.2635 16.7961 24.3174 16.1202 24.3081H10.1485V24.2994L10.151 24.2975Z" fill="#3E415C"/>
</svg>
