<svg width="1604" height="210" viewBox="0 0 1604 210" fill="none" xmlns="http://www.w3.org/2000/svg">
<g clip-path="url(#clip0_694_22554)">
<rect width="1604" height="210" fill="#120026"/>
<path opacity="0.1" d="M-74.5 1201C290.836 1201 587 904.836 587 539.5C587 174.164 290.836 -122 -74.5 -122C-439.836 -122 -736 174.164 -736 539.5C-736 904.836 -439.836 1201 -74.5 1201Z" fill="url(#paint0_radial_694_22554)"/>
<g opacity="0.47">
<path d="M1190.25 155.198C1131.57 155.198 1068.84 137.738 1013.59 102.148C946.173 58.7523 901.418 -3.95096 890.769 -69.8601C882.872 -118.744 894.427 -164.096 924.167 -201.008C995.945 -290.065 1152.83 -299.084 1273.89 -221.131C1341.3 -177.735 1386.06 -115.031 1396.71 -49.1219C1404.6 -0.237885 1393.05 45.1141 1363.31 82.0262C1324.29 130.421 1260.12 155.198 1190.25 155.198ZM1097.21 -272.26C1027.91 -272.26 964.339 -247.737 925.688 -199.795C896.293 -163.336 884.882 -118.509 892.688 -70.186C903.248 -4.82019 947.694 57.3941 1014.64 100.5C1134.88 177.947 1290.62 169.09 1361.8 80.7947C1391.2 44.3354 1402.61 -0.491608 1394.8 -48.8322C1384.25 -114.198 1339.8 -176.412 1272.86 -219.519C1217.91 -254.909 1155.53 -272.279 1097.21 -272.279V-272.26Z" fill="url(#paint1_linear_694_22554)" fill-opacity="0.8" stroke="#120026" stroke-width="0.75" stroke-miterlimit="10"/>
<path d="M1170.91 166.011C1130.03 166.011 1087.54 157.626 1046.77 139.912C974.808 108.669 919.658 53.1924 895.46 -12.2639C876.37 -63.9191 878.38 -118.128 901.147 -164.911C954.631 -274.832 1106.95 -317.015 1240.71 -258.912C1312.67 -227.669 1367.82 -172.192 1392.02 -106.736C1411.11 -55.0805 1409.1 -0.871582 1386.33 45.9114C1349.14 122.344 1264.18 166.011 1170.91 166.011ZM902.958 -164.024C880.445 -117.748 878.453 -64.1002 897.362 -12.9703C921.378 51.9789 976.13 107.021 1047.58 138.047C1180.36 195.715 1331.5 153.967 1384.52 45.0058C1407.03 -1.27005 1409.02 -54.9175 1390.11 -106.047C1366.1 -170.997 1311.35 -226.039 1239.89 -257.064C1107.12 -314.733 955.972 -272.985 902.958 -164.024Z" fill="url(#paint2_linear_694_22554)" fill-opacity="0.8"/>
<path d="M902.053 -164.458L902.958 -164.024M902.958 -164.024C880.445 -117.748 878.453 -64.1002 897.362 -12.9703C921.378 51.9789 976.13 107.021 1047.58 138.047C1180.36 195.715 1331.5 153.967 1384.52 45.0058C1407.03 -1.27004 1409.02 -54.9175 1390.11 -106.047C1366.1 -170.997 1311.35 -226.039 1239.89 -257.064C1107.12 -314.733 955.972 -272.985 902.958 -164.024ZM1170.91 166.011C1130.03 166.011 1087.54 157.626 1046.77 139.912C974.808 108.669 919.658 53.1924 895.46 -12.2639C876.37 -63.9191 878.38 -118.128 901.147 -164.911C954.631 -274.832 1106.95 -317.015 1240.71 -258.912C1312.67 -227.669 1367.82 -172.192 1392.02 -106.736C1411.11 -55.0805 1409.1 -0.871575 1386.33 45.9114C1349.14 122.344 1264.18 166.011 1170.91 166.011Z" stroke="#120026" stroke-width="0.75" stroke-miterlimit="10"/>
<path d="M1155.04 181.515C1132.55 181.515 1109.58 178.87 1086.6 173.346C1013.62 155.796 950.593 110.951 913.663 50.3302C881.297 -2.81009 871.281 -63.8651 885.463 -121.606C916.977 -249.983 1058.5 -326.578 1200.92 -292.31C1273.89 -274.76 1336.92 -229.915 1373.85 -169.295C1406.22 -116.154 1416.21 -55.099 1402.05 2.64169C1375.62 110.281 1271.84 181.515 1155.04 181.515ZM1132.45 -298.378C1016.61 -298.378 913.699 -227.796 887.509 -121.099C873.473 -63.9015 883.398 -3.42584 915.456 49.2254C952.096 109.375 1014.65 153.876 1087.08 171.3C1228.38 205.277 1368.76 129.389 1400 2.13449C1414.04 -55.0447 1404.11 -115.539 1372.06 -168.19C1335.42 -228.339 1272.86 -272.84 1200.43 -290.264C1177.61 -295.752 1154.79 -298.378 1132.45 -298.378Z" fill="url(#paint3_linear_694_22554)" fill-opacity="0.8"/>
<path d="M885.463 -121.606C871.281 -63.8651 881.297 -2.81008 913.663 50.3302C950.593 110.951 1013.62 155.796 1086.6 173.346C1109.58 178.87 1132.55 181.515 1155.04 181.515C1271.84 181.515 1375.62 110.281 1402.05 2.64168C1416.21 -55.099 1406.22 -116.154 1373.85 -169.295C1336.92 -229.915 1273.89 -274.76 1200.92 -292.31C1058.5 -326.578 916.977 -249.983 885.463 -121.606ZM885.463 -121.606L886.477 -121.352M1132.45 -298.378C1016.61 -298.378 913.699 -227.796 887.509 -121.099C873.473 -63.9015 883.398 -3.42586 915.456 49.2254C952.096 109.375 1014.65 153.876 1087.08 171.3C1228.38 205.277 1368.76 129.389 1400 2.13449C1414.04 -55.0447 1404.11 -115.539 1372.06 -168.19C1335.42 -228.339 1272.86 -272.84 1200.43 -290.264C1177.61 -295.752 1154.79 -298.378 1132.45 -298.378Z" stroke="#120026" stroke-width="0.75" stroke-miterlimit="10"/>
<path d="M1145.37 201.057C1140.95 201.057 1136.51 200.949 1132.06 200.731C985.694 193.722 871.86 71.2858 878.308 -72.2147C881.387 -140.75 911.236 -204.16 962.365 -250.744C1014.96 -298.686 1083.55 -323.191 1155.46 -319.75C1301.82 -312.741 1415.65 -190.304 1409.2 -46.8039C1406.12 21.7315 1376.28 85.1414 1325.15 131.725C1275.81 176.697 1212.4 201.039 1145.37 201.039V201.057ZM1142.14 -317.866C1075.67 -317.866 1012.79 -293.723 963.851 -249.114C913.156 -202.91 883.561 -140.062 880.5 -72.1062C874.106 70.1808 986.998 191.603 1132.16 198.54C1203.47 201.945 1271.5 177.657 1323.66 130.113C1374.36 83.9097 1403.95 21.0615 1407.01 -46.8943C1413.41 -189.181 1300.51 -310.604 1155.35 -317.54C1150.93 -317.758 1146.53 -317.848 1142.14 -317.848V-317.866Z" fill="url(#paint4_linear_694_22554)" fill-opacity="0.8" stroke="#120026" stroke-width="0.75" stroke-miterlimit="10"/>
<path d="M1142.65 223.643C1088.7 223.643 1036.03 206.165 991.2 172.821C930.579 127.741 891.331 59.966 880.699 -18.0056C859.653 -172.41 960.518 -316.653 1105.54 -339.528C1172.86 -350.16 1240.6 -333.207 1296.28 -291.803C1356.9 -246.723 1396.15 -178.948 1406.78 -100.976C1427.82 53.4277 1326.96 197.671 1181.94 220.546C1168.82 222.611 1155.69 223.643 1142.63 223.643H1142.65ZM1144.84 -340.343C1131.91 -340.343 1118.91 -339.329 1105.92 -337.282C962.112 -314.588 862.116 -171.504 882.981 -18.3315C893.522 59.0243 932.445 126.255 992.576 170.974C1047.76 212.015 1114.89 228.805 1181.59 218.282C1325.4 195.588 1425.4 52.5039 1404.53 -100.668C1393.99 -178.024 1355.07 -245.256 1294.94 -289.974C1250.51 -323.01 1198.33 -340.343 1144.84 -340.343Z" fill="url(#paint5_linear_694_22554)" fill-opacity="0.8" stroke="#120026" stroke-width="0.75" stroke-miterlimit="10"/>
<path d="M1149.26 247.695C1114.32 247.695 1079.33 239.762 1046.28 223.951C975.17 189.973 919.458 122.651 893.395 39.2637C843.28 -121.063 914.786 -295.842 1052.76 -350.323C1113.85 -374.448 1180.78 -371.84 1241.22 -342.952C1312.32 -308.974 1368.04 -241.652 1394.1 -158.264C1444.2 2.06204 1372.71 176.842 1234.73 231.322C1207.06 242.244 1178.19 247.695 1149.28 247.695H1149.26ZM1138.21 -364.305C1109.6 -364.305 1081.03 -358.926 1053.65 -348.113C916.796 -294.067 845.942 -120.61 895.678 38.5392C921.541 121.292 976.801 188.071 1047.31 221.777C1107.13 250.376 1173.37 252.966 1233.84 229.076C1370.7 175.031 1441.55 1.59113 1391.82 -157.576C1365.95 -240.329 1310.69 -307.108 1240.18 -340.814C1207.46 -356.463 1172.79 -364.323 1138.21 -364.323V-364.305Z" fill="url(#paint6_linear_694_22554)" fill-opacity="0.8" stroke="#120026" stroke-width="0.75" stroke-miterlimit="10"/>
<path d="M1163.26 271.676C1144.73 271.676 1126.04 269.303 1107.44 264.522C1028.87 244.309 959.377 183.526 916.778 97.7296C837.031 -62.9048 873.853 -264.146 998.879 -350.884C1052.62 -388.176 1116.97 -399.768 1180.05 -383.558C1258.62 -363.345 1328.12 -302.561 1370.72 -216.765C1450.46 -56.1491 1413.64 145.11 1288.61 231.848C1250.72 258.147 1207.55 271.658 1163.28 271.658L1163.26 271.676ZM919.005 96.6429C961.279 181.787 1030.18 242.099 1108.06 262.131C1170.43 278.178 1234.04 266.695 1287.18 229.838C1411.23 143.77 1447.69 -56.0585 1368.47 -215.624C1326.2 -300.768 1257.3 -361.081 1179.42 -381.113C1117.04 -397.16 1053.43 -385.677 1000.29 -348.819C876.244 -262.751 839.784 -62.9228 919.005 96.6429Z" fill="url(#paint7_linear_694_22554)" fill-opacity="0.8" stroke="#120026" stroke-width="0.75" stroke-miterlimit="10"/>
<path d="M1183.71 294.171C1179.58 294.171 1175.43 294.044 1171.25 293.809C1089.76 289.009 1009.44 238.531 950.882 155.289C841.976 0.486572 839.73 -221.801 945.884 -340.253C991.199 -390.821 1051.69 -416.594 1116.26 -412.791C1197.75 -407.991 1278.07 -357.513 1336.63 -274.271C1445.54 -119.469 1447.78 102.819 1341.63 221.27C1299.23 268.579 1243.55 294.171 1183.71 294.171ZM1103.8 -410.545C1044.7 -410.545 989.696 -385.26 947.803 -338.514C842.428 -220.913 844.747 -0.0750427 953.001 153.804C1011.1 236.376 1090.71 286.473 1171.39 291.219C1235.13 294.968 1294.9 269.521 1339.69 219.55C1445.07 101.967 1442.75 -118.889 1334.49 -272.768C1276.39 -355.34 1196.79 -405.437 1116.1 -410.183C1111.99 -410.418 1107.88 -410.545 1103.8 -410.545Z" fill="url(#paint8_linear_694_22554)" fill-opacity="0.8" stroke="#120026" stroke-width="0.75" stroke-miterlimit="10"/>
<path d="M1208.42 313.84C1135.97 313.84 1059.68 276.856 995.329 209.589C858.928 67.048 814.301 -169.62 895.877 -317.956C931.286 -382.344 986.78 -422.516 1052.18 -431.083C1132.33 -441.588 1219.79 -404.223 1292.18 -328.57C1428.58 -186.029 1473.21 50.6386 1391.64 198.975C1356.23 263.363 1300.73 303.535 1235.33 312.102C1226.44 313.261 1217.45 313.84 1208.42 313.84ZM1079.08 -430.105C1070.15 -430.105 1061.29 -429.544 1052.51 -428.385C987.994 -419.926 933.206 -380.243 898.231 -316.634C817.199 -169.258 861.627 65.9612 997.267 207.723C1069.04 282.742 1155.69 319.799 1234.97 309.421C1299.48 300.963 1354.27 261.28 1389.24 197.671C1470.28 50.2943 1425.85 -184.925 1290.21 -326.686C1226.36 -393.392 1150.78 -430.105 1079.08 -430.105Z" fill="url(#paint9_linear_694_22554)" fill-opacity="0.8" stroke="#120026" stroke-width="0.75" stroke-miterlimit="10"/>
<path d="M1235.69 329.724C1175.47 329.724 1110.27 305.165 1049.3 258.309C888.233 134.514 799.286 -108.674 851.031 -283.798C874.305 -362.548 923.316 -417.663 989.062 -439.035C1064.46 -463.522 1155.26 -441.027 1238.17 -377.31C1399.24 -253.515 1488.19 -10.3264 1436.44 164.797C1413.19 243.548 1364.16 298.662 1298.41 320.034C1278.44 326.518 1257.39 329.706 1235.67 329.706L1235.69 329.724ZM1051.8 -445.881C1030.39 -445.881 1009.62 -442.73 989.931 -436.336C925.109 -415.272 876.732 -360.81 853.748 -282.983C802.31 -108.873 890.805 132.957 1051.04 256.099C1133.21 319.255 1223.07 341.588 1297.56 317.39C1362.38 296.326 1410.76 241.863 1433.75 164.037C1485.18 -10.0729 1396.69 -251.903 1236.45 -375.046C1176 -421.503 1111.39 -445.863 1051.8 -445.863V-445.881Z" fill="url(#paint10_linear_694_22554)" fill-opacity="0.8" stroke="#120026" stroke-width="0.75" stroke-miterlimit="10"/>
<path d="M1262.28 341.66C1214.99 341.66 1163.75 327.406 1111.63 299.097C929.891 200.423 796.189 -40.5552 813.558 -238.102C821.745 -331.233 862.206 -401.833 927.5 -436.898C996.796 -474.117 1085 -467.434 1175.87 -418.098C1357.6 -319.424 1491.3 -78.4453 1473.94 119.119C1465.75 212.25 1425.29 282.851 1359.99 317.915C1330.43 333.781 1297.45 341.678 1262.28 341.678V341.66ZM1025.23 -457.708C990.529 -457.708 958.018 -449.938 928.894 -434.308C864.507 -399.732 824.588 -329.965 816.492 -237.848C799.213 -41.3521 932.245 198.359 1113.04 296.525C1203.02 345.373 1290.23 352.056 1358.62 315.325C1423 280.75 1462.92 210.983 1471.02 118.866C1488.3 -77.6301 1355.27 -317.341 1174.47 -415.507C1122.8 -443.563 1072.03 -457.708 1025.23 -457.708Z" fill="url(#paint11_linear_694_22554)" fill-opacity="0.8" stroke="#120026" stroke-width="0.75" stroke-miterlimit="10"/>
<path d="M1286.95 348.778C1253.51 348.778 1217.74 342.457 1180.58 329.724C983.357 262.131 806.114 32.7621 785.485 -181.592C775.233 -288.09 804.484 -374.303 867.876 -424.346C928.406 -472.125 1013.3 -480.783 1106.92 -448.706C1304.14 -381.113 1481.38 -151.744 1502.03 62.6104C1512.28 169.108 1483.03 255.321 1419.64 305.364C1383.14 334.18 1337.77 348.76 1286.97 348.76L1286.95 348.778ZM1000.55 -464.681C950.43 -464.681 905.711 -450.318 869.759 -421.937C807.219 -372.564 778.367 -287.311 788.527 -181.882C809.066 31.3855 985.385 259.595 1181.57 326.827C1274.18 358.559 1358.04 350.082 1417.72 302.973C1480.26 253.6 1509.11 168.348 1498.95 62.9183C1478.41 -150.349 1302.09 -378.559 1105.9 -445.79C1069.08 -458.414 1033.62 -464.681 1000.55 -464.681Z" fill="url(#paint12_linear_694_22554)" fill-opacity="0.8" stroke="#120026" stroke-width="0.75" stroke-miterlimit="10"/>
<path d="M1304.99 352.02C1288.6 352.02 1271.63 350.716 1254.15 348.071C1047.62 316.847 829.859 108.886 768.695 -115.538C737.18 -231.183 752.521 -335.037 810.769 -400.475C861.5 -457.455 940.541 -481.109 1033.35 -467.072C1239.88 -435.847 1457.63 -227.887 1518.8 -3.46213C1550.31 112.182 1534.97 216.036 1476.72 281.474C1435.56 327.732 1375.7 352.02 1304.99 352.02ZM982.542 -467.815C912.739 -467.815 853.73 -443.889 813.178 -398.338C755.654 -333.714 740.567 -230.947 771.792 -116.372C832.648 106.948 1049.25 313.876 1254.64 344.92C1346.34 358.776 1424.36 335.502 1474.35 279.355C1531.88 214.732 1546.96 111.965 1515.74 -2.61093C1454.88 -225.931 1238.28 -432.859 1032.89 -463.903C1015.6 -466.511 998.789 -467.815 982.56 -467.815H982.542Z" fill="url(#paint13_linear_694_22554)" fill-opacity="0.8" stroke="#120026" stroke-width="0.75" stroke-miterlimit="10"/>
<path d="M1313.64 352.781C1108.18 352.781 865.014 179.341 764.819 -41.5695C709.433 -163.698 706.698 -281.136 757.32 -363.762C797.348 -429.11 868.491 -467.326 957.62 -471.401C1166.3 -480.928 1419.85 -304.192 1522.71 -77.4128C1578.1 44.7156 1580.83 162.153 1530.21 244.779C1490.18 310.127 1419.04 348.343 1329.91 352.418C1324.51 352.672 1319.1 352.781 1313.66 352.781H1313.64ZM1329.75 349.086C1417.73 345.065 1487.92 307.41 1527.35 243.041C1577.39 161.374 1574.58 45.0776 1519.65 -76.0365C1417.32 -301.674 1165.29 -477.541 957.746 -468.068C869.759 -464.047 799.575 -426.393 760.146 -362.023C710.103 -280.357 712.91 -164.06 767.843 -42.9461C870.194 182.692 1122.26 358.577 1329.75 349.086Z" fill="url(#paint14_linear_694_22554)" fill-opacity="0.8"/>
<path d="M1329.75 349.086L1329.82 350.752M1329.75 349.086C1417.73 345.065 1487.92 307.41 1527.35 243.041C1577.39 161.374 1574.58 45.0777 1519.65 -76.0365C1417.32 -301.674 1165.29 -477.541 957.746 -468.068C869.759 -464.047 799.575 -426.393 760.146 -362.023C710.103 -280.357 712.91 -164.06 767.843 -42.9461C870.194 182.692 1122.26 358.577 1329.75 349.086ZM1313.64 352.781C1108.18 352.781 865.014 179.341 764.819 -41.5696C709.433 -163.698 706.698 -281.136 757.32 -363.762C797.348 -429.11 868.491 -467.326 957.62 -471.401C1166.3 -480.928 1419.85 -304.192 1522.71 -77.4128C1578.1 44.7156 1580.83 162.153 1530.21 244.779C1490.18 310.127 1419.04 348.343 1329.91 352.418C1324.51 352.672 1319.1 352.781 1313.66 352.781H1313.64Z" stroke="#120026" stroke-width="0.75" stroke-miterlimit="10"/>
<path d="M1311.02 352.944C1121.82 352.944 898.14 226.324 775.088 38.1049C694.835 -84.6393 670.872 -212.401 709.324 -312.378C737.995 -386.909 797.837 -438.075 882.365 -460.316C1085.51 -513.8 1368.14 -377.78 1512.39 -157.123C1592.64 -34.3787 1616.6 93.3826 1578.15 193.36C1549.48 267.891 1489.64 319.057 1405.11 341.298C1375.24 349.159 1343.62 352.926 1311 352.926L1311.02 352.944ZM976.637 -468.484C944.253 -468.484 912.92 -464.753 883.271 -456.947C799.865 -434.996 740.839 -384.554 712.584 -311.11C674.531 -212.183 698.384 -85.581 778.004 36.2215C921.505 255.719 1202.42 391.088 1404.24 337.965C1487.65 316.014 1546.67 265.572 1574.93 192.128C1612.98 93.2014 1589.13 -33.4008 1509.51 -155.203C1387.09 -342.462 1164.64 -468.484 976.637 -468.484Z" fill="url(#paint15_linear_694_22554)" fill-opacity="0.8" stroke="#120026" stroke-width="0.75" stroke-miterlimit="10"/>
<path d="M1295.24 354.991C1126.35 354.991 932.444 268.742 800.39 121.003C696.446 4.72482 648.866 -128.398 669.858 -244.223C684.909 -327.248 733.576 -392.469 810.624 -432.858C999.893 -532.075 1303.38 -445.573 1487.12 -240.003C1591.06 -123.725 1638.64 9.39758 1617.65 125.223C1602.6 208.248 1553.94 273.469 1476.89 313.858C1423.64 341.769 1361.35 354.991 1295.24 354.991ZM992.376 -470.404C926.811 -470.404 865.086 -457.309 812.29 -429.634C736.274 -389.788 688.26 -325.437 673.408 -243.571C652.615 -128.85 699.888 3.14914 803.071 118.594C934.455 265.572 1127.27 351.404 1295.1 351.422C1360.66 351.422 1422.39 338.328 1475.19 310.653C1551.2 270.806 1599.22 206.455 1614.07 124.589C1634.86 9.86856 1587.59 -122.131 1484.4 -237.576C1353.02 -384.554 1160.2 -470.404 992.376 -470.404Z" fill="url(#paint16_linear_694_22554)" fill-opacity="0.8"/>
<path d="M1476.89 313.858C1553.94 273.469 1602.6 208.248 1617.65 125.223C1638.64 9.39759 1591.06 -123.725 1487.12 -240.003C1303.38 -445.573 999.893 -532.075 810.623 -432.858C733.576 -392.469 684.909 -327.248 669.858 -244.223C648.866 -128.398 696.446 4.72481 800.39 121.003C932.444 268.742 1126.35 354.991 1295.24 354.991C1361.35 354.991 1423.64 341.769 1476.89 313.858ZM1476.89 313.858L1476.05 312.246M992.376 -470.404C926.811 -470.404 865.086 -457.309 812.29 -429.634C736.274 -389.788 688.26 -325.437 673.408 -243.571C652.615 -128.85 699.888 3.14915 803.071 118.594C934.455 265.572 1127.27 351.404 1295.1 351.423C1360.66 351.423 1422.39 338.328 1475.19 310.653C1551.2 270.806 1599.22 206.455 1614.07 124.589C1634.86 9.86855 1587.59 -122.131 1484.4 -237.576C1353.02 -384.554 1160.2 -470.404 992.376 -470.404Z" stroke="#120026" stroke-width="0.75" stroke-miterlimit="10"/>
<path d="M1265.88 361.927C1123.49 361.927 966.73 307.936 841.034 204.191C716.985 101.822 644.9 -30.1591 643.252 -157.902C642.057 -249.711 677.393 -329.512 745.403 -388.666C912.322 -533.851 1226.84 -504.473 1446.48 -323.191C1570.53 -220.823 1642.61 -88.8416 1644.26 38.9016C1645.46 130.711 1610.12 210.512 1542.11 269.665C1470.71 331.753 1372.31 361.927 1265.88 361.927ZM1021.63 -477.197C916.107 -477.197 818.611 -447.33 747.866 -385.804C680.726 -327.411 645.842 -248.607 647.019 -157.939C648.649 -31.3002 720.246 99.6306 843.425 201.293C1061.71 381.452 1374.03 410.847 1539.63 266.822C1606.77 208.429 1641.65 129.624 1640.47 38.956C1638.84 -87.6823 1567.25 -218.613 1444.07 -320.275C1319.02 -423.477 1163.12 -477.197 1021.63 -477.197Z" fill="url(#paint17_linear_694_22554)" fill-opacity="0.8"/>
<path d="M1539.63 266.822C1374.03 410.847 1061.71 381.452 843.425 201.293C720.246 99.6306 648.649 -31.3002 647.019 -157.939C645.842 -248.607 680.726 -327.411 747.866 -385.804C818.611 -447.33 916.107 -477.197 1021.63 -477.197C1163.12 -477.197 1319.02 -423.477 1444.07 -320.275C1567.25 -218.613 1638.84 -87.6824 1640.47 38.956C1641.65 129.624 1606.77 208.429 1539.63 266.822ZM1539.63 266.822L1540.86 268.252M1265.88 361.927C1123.49 361.927 966.73 307.936 841.034 204.191C716.985 101.822 644.9 -30.1591 643.252 -157.902C642.057 -249.711 677.393 -329.513 745.403 -388.666C912.322 -533.851 1226.84 -504.473 1446.48 -323.191C1570.53 -220.823 1642.61 -88.8416 1644.26 38.9016C1645.46 130.711 1610.12 210.512 1542.11 269.665C1470.71 331.753 1372.31 361.927 1265.88 361.927Z" stroke="#120026" stroke-width="0.75" stroke-miterlimit="10"/>
<path d="M1227.7 376.634C1118.04 376.634 1001.79 346.587 896.818 284.535C758.407 202.742 662.975 79.4726 635.011 -53.6679C614.254 -152.486 633.707 -249.892 689.799 -327.973C825.982 -517.55 1140.4 -551.437 1390.69 -403.535C1529.1 -321.742 1624.54 -198.473 1652.5 -65.3321C1673.26 33.4864 1653.8 130.892 1597.71 208.973C1518.64 319.039 1379.5 376.616 1227.7 376.616V376.634ZM1059.73 -491.722C909.206 -491.722 771.321 -434.706 693.005 -325.672C636.767 -247.393 618.04 -153.609 638.869 -54.4831C666.598 77.5707 761.359 199.898 898.829 281.148C1003.21 342.838 1118.82 372.722 1227.79 372.74C1378.32 372.74 1516.21 315.724 1594.52 206.69C1650.76 128.411 1669.49 34.6274 1648.66 -64.499C1620.93 -196.553 1526.17 -318.88 1388.7 -400.13C1284.32 -461.819 1168.71 -491.722 1059.73 -491.722Z" fill="url(#paint18_linear_694_22554)" fill-opacity="0.8"/>
<path d="M1597.71 208.973C1653.8 130.892 1673.26 33.4864 1652.5 -65.3321C1624.54 -198.473 1529.1 -321.742 1390.69 -403.535C1140.4 -551.437 825.982 -517.55 689.799 -327.973C633.707 -249.892 614.254 -152.486 635.011 -53.6679C662.975 79.4726 758.407 202.742 896.818 284.535C1001.79 346.587 1118.04 376.634 1227.7 376.634V376.616C1379.5 376.616 1518.64 319.039 1597.71 208.973ZM1597.71 208.973L1596.12 207.832M1059.73 -491.722C909.206 -491.722 771.321 -434.706 693.005 -325.672C636.767 -247.393 618.04 -153.609 638.869 -54.4831C666.598 77.5707 761.359 199.899 898.829 281.148C1003.21 342.838 1118.82 372.722 1227.79 372.74C1378.32 372.74 1516.21 315.724 1594.52 206.69C1650.76 128.411 1669.49 34.6274 1648.66 -64.499C1620.93 -196.553 1526.17 -318.88 1388.7 -400.13C1284.32 -461.819 1168.71 -491.722 1059.73 -491.722Z" stroke="#120026" stroke-width="0.75" stroke-miterlimit="10"/>
<path d="M1189.76 400.705C1116.46 400.705 1040.66 387.212 966.911 358.685C821.074 302.303 705.81 195.334 650.678 65.2365C606.159 -39.8305 604.782 -152.396 646.802 -251.722C744.334 -482.268 1046.59 -583.64 1320.58 -477.703C1466.42 -421.321 1581.68 -314.352 1636.82 -184.255C1681.33 -79.1877 1682.71 33.3777 1640.69 132.703C1569.42 301.198 1388.79 400.687 1189.76 400.687V400.705ZM1097.7 -515.612C900.277 -515.612 721.223 -417.065 650.587 -250.11C609.002 -151.798 610.379 -40.3739 654.463 63.6608C709.161 192.744 823.592 298.88 968.396 354.882C1240.35 460.04 1540.24 359.663 1636.92 131.128C1678.51 32.8162 1677.13 -78.6081 1633.05 -182.643C1578.35 -311.726 1463.92 -417.862 1319.11 -473.864C1245.83 -502.191 1170.51 -515.612 1097.7 -515.612Z" fill="url(#paint19_linear_694_22554)" fill-opacity="0.8" stroke="#120026" stroke-width="0.75" stroke-miterlimit="10"/>
<path d="M1160.46 433.995C1124.09 433.995 1087.1 430.517 1049.9 423.29C909.805 396.068 787.857 320.27 706.499 209.86C625.104 99.3956 594.078 -32.4771 619.163 -161.452C670.909 -427.66 948.329 -598.492 1237.59 -542.272C1526.86 -486.053 1720.08 -223.721 1668.33 42.488C1623.25 274.447 1406.76 434.013 1160.46 434.013V433.995ZM1127.02 -548.72C882.691 -548.72 668.047 -390.604 623.365 -160.655C598.516 -32.8575 629.27 97.8198 709.958 207.306C790.683 316.847 911.688 392.048 1050.73 419.07C1087.65 426.243 1124.41 429.702 1160.47 429.702C1404.8 429.702 1619.45 271.585 1664.13 41.6368C1715.42 -222.253 1523.71 -482.322 1236.78 -538.107C1199.87 -545.279 1163.1 -548.738 1127.04 -548.738L1127.02 -548.72Z" fill="url(#paint20_linear_694_22554)" fill-opacity="0.8"/>
<path d="M1668.33 42.488C1720.08 -223.721 1526.86 -486.053 1237.59 -542.272C948.329 -598.492 670.909 -427.66 619.163 -161.452C594.078 -32.4771 625.104 99.3956 706.499 209.86C787.857 320.27 909.805 396.068 1049.9 423.29C1087.1 430.517 1124.09 433.995 1160.46 433.995V434.013C1406.76 434.013 1623.25 274.447 1668.33 42.488ZM1668.33 42.488L1666.23 42.0714M1127.02 -548.72C882.691 -548.72 668.047 -390.604 623.365 -160.655C598.516 -32.8576 629.27 97.8198 709.958 207.306C790.683 316.847 911.688 392.048 1050.73 419.07C1087.65 426.243 1124.41 429.702 1160.47 429.702C1404.8 429.702 1619.45 271.585 1664.13 41.6368C1715.42 -222.253 1523.71 -482.322 1236.78 -538.107C1199.87 -545.279 1163.1 -548.738 1127.04 -548.738L1127.02 -548.72Z" stroke="#120026" stroke-width="0.75" stroke-miterlimit="10"/>
<path d="M1143.74 475C849.021 475 609.238 235.235 609.238 -59.5002C609.238 -354.235 849.003 -594 1143.74 -594C1438.47 -594 1678.24 -354.235 1678.24 -59.5002C1678.24 235.235 1438.47 475 1143.74 475ZM1143.74 -589.526C851.485 -589.526 613.711 -351.754 613.711 -59.5002C613.711 232.753 851.485 470.526 1143.74 470.526C1435.99 470.526 1673.76 232.753 1673.76 -59.5002C1673.76 -351.754 1435.99 -589.526 1143.74 -589.526Z" fill="url(#paint21_linear_694_22554)" fill-opacity="0.8" stroke="#120026" stroke-width="0.75" stroke-miterlimit="10"/>
</g>
<g opacity="0.47">
<path d="M1107.92 155.131C1096.59 155.131 1084.48 151.76 1073.81 144.888C1060.79 136.509 1052.15 124.402 1050.1 111.676C1048.57 102.237 1050.8 93.4807 1056.54 86.3536C1070.4 69.1584 1100.69 67.4169 1124.07 82.4684C1137.09 90.8474 1145.73 102.954 1147.78 115.68C1149.31 125.119 1147.08 133.876 1141.33 141.003C1133.8 150.347 1121.41 155.131 1107.92 155.131ZM1089.96 72.5961C1076.58 72.5961 1064.3 77.3312 1056.84 86.5879C1051.16 93.6276 1048.96 102.283 1050.47 111.613C1052.5 124.234 1061.09 136.247 1074.01 144.57C1097.23 159.523 1127.3 157.813 1141.04 140.765C1146.72 133.725 1148.92 125.07 1147.42 115.736C1145.38 103.115 1136.8 91.1027 1123.87 82.7796C1113.26 75.9463 1101.22 72.5926 1089.96 72.5926V72.5961Z" fill="#42E3B9" stroke="#120026" stroke-width="0.75" stroke-miterlimit="10"/>
<path d="M1104.18 157.219C1096.29 157.219 1088.09 155.599 1080.22 152.179C1066.32 146.147 1055.67 135.435 1051 122.797C1047.31 112.823 1047.7 102.356 1052.1 93.3232C1062.43 72.0994 1091.84 63.9547 1117.66 75.1733C1131.56 81.2058 1142.2 91.9174 1146.88 104.556C1150.56 114.53 1150.17 124.996 1145.78 134.029C1138.6 148.787 1122.19 157.219 1104.18 157.219ZM1052.45 93.4946C1048.1 102.43 1047.72 112.788 1051.37 122.66C1056.01 135.201 1066.58 145.829 1080.37 151.819C1106.01 162.954 1135.19 154.893 1145.43 133.854C1149.78 124.919 1150.16 114.561 1146.51 104.689C1141.87 92.1482 1131.3 81.5206 1117.51 75.53C1091.87 64.3953 1062.68 72.4561 1052.45 93.4946Z" fill="#42E3B9"/>
<path d="M1052.27 93.4107L1052.45 93.4946M1052.45 93.4946C1048.1 102.43 1047.72 112.788 1051.37 122.66C1056.01 135.201 1066.58 145.829 1080.37 151.819C1106.01 162.954 1135.19 154.893 1145.43 133.854C1149.78 124.919 1150.16 114.561 1146.51 104.689C1141.87 92.1482 1131.3 81.5206 1117.51 75.53C1091.87 64.3953 1062.68 72.4561 1052.45 93.4946ZM1104.18 157.219C1096.29 157.219 1088.09 155.599 1080.22 152.179C1066.32 146.147 1055.67 135.435 1051 122.797C1047.31 112.823 1047.7 102.356 1052.1 93.3232C1062.43 72.0994 1091.84 63.9547 1117.66 75.1733C1131.56 81.2058 1142.2 91.9174 1146.88 104.556C1150.56 114.53 1150.17 124.996 1145.78 134.029C1138.6 148.787 1122.19 157.219 1104.18 157.219Z" stroke="#120026" stroke-width="0.75" stroke-miterlimit="10"/>
<path d="M1101.12 160.212C1096.78 160.212 1092.34 159.702 1087.91 158.635C1073.82 155.246 1061.65 146.587 1054.52 134.883C1048.27 124.622 1046.33 112.834 1049.07 101.685C1055.16 76.8975 1082.48 62.1083 1109.98 68.7248C1124.07 72.1135 1136.24 80.7723 1143.37 92.477C1149.62 102.737 1151.55 114.526 1148.81 125.675C1143.71 146.458 1123.67 160.212 1101.12 160.212ZM1096.76 67.5533C1074.39 67.5533 1054.52 81.1814 1049.47 101.783C1046.76 112.827 1048.67 124.503 1054.86 134.669C1061.94 146.283 1074.02 154.876 1088 158.24C1115.28 164.8 1142.39 150.147 1148.42 125.577C1151.13 114.537 1149.21 102.856 1143.02 92.6903C1135.95 81.0765 1123.87 72.4842 1109.89 69.12C1105.48 68.0604 1101.07 67.5533 1096.76 67.5533Z" fill="#42E3B9"/>
<path d="M1049.07 101.685C1046.33 112.834 1048.27 124.622 1054.52 134.883C1061.65 146.587 1073.82 155.246 1087.91 158.635C1092.34 159.702 1096.78 160.212 1101.12 160.212C1123.67 160.212 1143.71 146.458 1148.81 125.675C1151.55 114.526 1149.62 102.737 1143.37 92.477C1136.24 80.7723 1124.07 72.1135 1109.98 68.7248C1082.48 62.1083 1055.16 76.8975 1049.07 101.685ZM1049.07 101.685L1049.27 101.734M1096.76 67.5533C1074.39 67.5533 1054.52 81.1814 1049.47 101.783C1046.76 112.827 1048.67 124.503 1054.86 134.669C1061.94 146.283 1074.02 154.876 1088 158.24C1115.28 164.8 1142.39 150.148 1148.42 125.577C1151.13 114.537 1149.21 102.856 1143.02 92.6903C1135.95 81.0765 1123.87 72.4842 1109.89 69.12C1105.48 68.0604 1101.07 67.5533 1096.76 67.5533Z" stroke="#120026" stroke-width="0.75" stroke-miterlimit="10"/>
<path d="M1099.25 163.985C1098.4 163.985 1097.54 163.964 1096.68 163.922C1068.42 162.569 1046.44 138.928 1047.69 111.221C1048.28 97.988 1054.05 85.7447 1063.92 76.7502C1074.07 67.4934 1087.32 62.7619 1101.2 63.4263C1129.46 64.7797 1151.44 88.42 1150.2 116.127C1149.6 129.36 1143.84 141.604 1133.97 150.598C1124.44 159.282 1112.2 163.982 1099.25 163.982V163.985ZM1098.63 63.79C1085.8 63.79 1073.65 68.4516 1064.21 77.065C1054.42 85.986 1048.7 98.1209 1048.11 111.242C1046.88 138.715 1068.68 162.16 1096.7 163.499C1110.47 164.156 1123.61 159.467 1133.68 150.287C1143.47 141.366 1149.18 129.231 1149.77 116.11C1151.01 88.6368 1129.21 65.1923 1101.18 63.8529C1100.33 63.811 1099.48 63.7935 1098.63 63.7935V63.79Z" fill="#42E3B9" stroke="#120026" stroke-width="0.75" stroke-miterlimit="10"/>
<path d="M1098.73 168.346C1088.31 168.346 1078.14 164.971 1069.49 158.533C1057.78 149.829 1050.2 136.743 1048.15 121.688C1044.09 91.8752 1063.56 64.0244 1091.56 59.6076C1104.56 57.5548 1117.64 60.828 1128.39 68.8224C1140.1 77.5266 1147.67 90.6128 1149.73 105.668C1153.79 135.48 1134.32 163.331 1106.31 167.748C1103.78 168.147 1101.25 168.346 1098.73 168.346H1098.73ZM1099.15 59.4502C1096.66 59.4502 1094.14 59.646 1091.64 60.0412C1063.87 64.4231 1044.56 92.0501 1048.59 121.625C1050.63 136.561 1058.14 149.542 1069.75 158.176C1080.41 166.101 1093.37 169.343 1106.25 167.311C1134.01 162.929 1153.32 135.302 1149.29 105.727C1147.26 90.7911 1139.74 77.8099 1128.13 69.1756C1119.55 62.7969 1109.48 59.4502 1099.15 59.4502Z" fill="#42E3B9" stroke="#120026" stroke-width="0.75" stroke-miterlimit="10"/>
<path d="M1100.01 172.991C1093.26 172.991 1086.5 171.459 1080.12 168.406C1066.39 161.845 1055.63 148.847 1050.6 132.746C1040.93 101.79 1054.73 68.0429 1081.37 57.5236C1093.17 52.8655 1106.09 53.3691 1117.76 58.9469C1131.49 65.5075 1142.25 78.5062 1147.28 94.6068C1156.95 125.563 1143.15 159.31 1116.51 169.829C1111.16 171.938 1105.59 172.991 1100.01 172.991H1100.01ZM1097.87 54.8239C1092.35 54.8239 1086.83 55.8625 1081.54 57.9503C1055.12 68.3856 1041.44 101.877 1051.04 132.606C1056.04 148.584 1066.71 161.478 1080.32 167.986C1091.87 173.508 1104.66 174.008 1116.34 169.395C1142.76 158.96 1156.44 125.472 1146.84 94.7397C1141.84 78.7615 1131.17 65.8677 1117.56 59.3596C1111.24 56.3381 1104.55 54.8204 1097.87 54.8204V54.8239Z" fill="#42E3B9" stroke="#120026" stroke-width="0.75" stroke-miterlimit="10"/>
<path d="M1102.71 177.621C1099.13 177.621 1095.52 177.162 1091.93 176.239C1076.76 172.337 1063.34 160.6 1055.12 144.035C1039.72 113.019 1046.83 74.1627 1070.97 57.4152C1081.35 50.2147 1093.77 47.9766 1105.95 51.1065C1121.12 55.0092 1134.54 66.7454 1142.76 83.3111C1158.16 114.323 1151.05 153.183 1126.91 169.931C1119.6 175.008 1111.26 177.617 1102.71 177.617L1102.71 177.621ZM1055.55 143.825C1063.71 160.265 1077.01 171.91 1092.05 175.778C1104.09 178.876 1116.38 176.659 1126.64 169.542C1150.59 152.924 1157.63 114.341 1142.33 83.5314C1134.17 67.0916 1120.87 55.4463 1105.83 51.5786C1093.78 48.4801 1081.5 50.6973 1071.24 57.8138C1047.29 74.432 1040.25 113.015 1055.55 143.825Z" fill="#42E3B9" stroke="#120026" stroke-width="0.75" stroke-miterlimit="10"/>
<path d="M1106.66 181.964C1105.86 181.964 1105.06 181.94 1104.25 181.894C1088.52 180.967 1073.01 171.221 1061.7 155.148C1040.67 125.259 1040.24 82.339 1060.74 59.468C1069.49 49.7041 1081.17 44.7278 1093.63 45.4622C1109.37 46.3889 1124.88 56.1353 1136.18 72.2079C1157.21 102.098 1157.64 145.017 1137.15 167.888C1128.96 177.023 1118.21 181.964 1106.66 181.964ZM1091.23 45.8958C1079.82 45.8958 1069.2 50.7778 1061.11 59.8038C1040.76 82.5103 1041.21 125.15 1062.11 154.862C1073.33 170.805 1088.7 180.478 1104.28 181.394C1116.59 182.118 1128.13 177.204 1136.77 167.556C1157.12 144.853 1156.67 102.209 1135.77 72.4982C1124.55 56.5549 1109.18 46.882 1093.6 45.9658C1092.81 45.9203 1092.01 45.8958 1091.23 45.8958Z" fill="#42E3B9" stroke="#120026" stroke-width="0.75" stroke-miterlimit="10"/>
<path d="M1111.43 185.762C1097.44 185.762 1082.71 178.621 1070.28 165.633C1043.95 138.11 1035.33 92.414 1051.08 63.7729C1057.92 51.3407 1068.63 43.5842 1081.26 41.9301C1096.74 39.9018 1113.62 47.1163 1127.6 61.7236C1153.94 89.2457 1162.55 134.942 1146.8 163.583C1139.97 176.015 1129.25 183.772 1116.62 185.426C1114.91 185.65 1113.17 185.762 1111.43 185.762ZM1086.45 42.1189C1084.73 42.1189 1083.02 42.2273 1081.32 42.4511C1068.87 44.0843 1058.29 51.7464 1051.54 64.0282C1035.89 92.484 1044.47 137.901 1070.66 165.272C1084.52 179.757 1101.25 186.912 1116.55 184.909C1129.01 183.275 1139.59 175.613 1146.34 163.331C1161.99 134.876 1153.41 89.459 1127.22 62.0873C1114.89 49.2075 1100.3 42.1189 1086.45 42.1189Z" fill="#42E3B9" stroke="#120026" stroke-width="0.75" stroke-miterlimit="10"/>
<path d="M1116.69 188.829C1105.07 188.829 1092.48 184.087 1080.71 175.04C1049.61 151.137 1032.43 104.182 1042.42 70.3683C1046.92 55.1629 1056.38 44.5213 1069.07 40.3947C1083.63 35.6667 1101.16 40.0101 1117.17 52.3128C1148.27 76.2154 1165.45 123.171 1155.46 156.984C1150.97 172.19 1141.5 182.831 1128.8 186.958C1124.95 188.21 1120.88 188.825 1116.69 188.825L1116.69 188.829ZM1081.19 39.0728C1077.05 39.0728 1073.04 39.6813 1069.24 40.9158C1056.73 44.9829 1047.38 55.4987 1042.95 70.5257C1033.02 104.143 1050.1 150.836 1081.04 174.613C1096.91 186.807 1114.26 191.119 1128.64 186.447C1141.16 182.38 1150.5 171.864 1154.93 156.837C1164.87 123.22 1147.78 76.5266 1116.84 52.7499C1105.17 43.7799 1092.69 39.0763 1081.19 39.0763V39.0728Z" fill="#42E3B9" stroke="#120026" stroke-width="0.75" stroke-miterlimit="10"/>
<path d="M1121.83 191.133C1112.7 191.133 1102.8 188.381 1092.74 182.915C1057.65 163.863 1031.83 117.334 1035.19 79.1912C1036.77 61.2092 1044.58 47.5776 1057.19 40.8072C1070.57 33.6207 1087.6 34.9111 1105.14 44.4371C1140.23 63.4893 1166.05 110.018 1162.69 148.164C1161.11 166.146 1153.3 179.778 1140.69 186.548C1134.99 189.612 1128.62 191.136 1121.83 191.136V191.133ZM1076.06 36.789C1069.36 36.789 1063.08 38.2893 1057.46 41.3073C1045.02 47.9832 1037.32 61.454 1035.75 79.2402C1032.42 117.18 1058.1 163.464 1093.01 182.418C1110.39 191.85 1127.22 193.14 1140.43 186.048C1152.86 179.372 1160.57 165.902 1162.13 148.115C1165.47 110.175 1139.78 63.8915 1104.87 44.9372C1094.9 39.5203 1085.09 36.789 1076.06 36.789Z" fill="#42E3B9" stroke="#120026" stroke-width="0.75" stroke-miterlimit="10"/>
<path d="M1126.59 192.507C1120.13 192.507 1113.23 191.287 1106.05 188.828C1067.97 175.777 1033.75 131.49 1029.77 90.1022C1027.79 69.5393 1033.43 52.8931 1045.67 43.2307C1057.36 34.0054 1073.75 32.3337 1091.83 38.5271C1129.91 51.5782 1164.13 95.8653 1168.12 137.253C1170.1 157.816 1164.45 174.462 1152.21 184.125C1145.16 189.689 1136.4 192.504 1126.59 192.504L1126.59 192.507ZM1071.29 35.4426C1061.61 35.4426 1052.98 38.2159 1046.04 43.6958C1033.96 53.2289 1028.39 69.6896 1030.35 90.0462C1034.32 131.224 1068.36 175.288 1106.24 188.269C1124.12 194.396 1140.32 192.759 1151.84 183.663C1163.91 174.13 1169.49 157.669 1167.52 137.313C1163.56 96.1346 1129.51 52.0713 1091.63 39.0901C1084.52 36.6526 1077.68 35.4426 1071.29 35.4426Z" fill="#42E3B9" stroke="#120026" stroke-width="0.75" stroke-miterlimit="10"/>
<path d="M1130.07 193.134C1126.91 193.134 1123.63 192.882 1120.26 192.371C1080.38 186.342 1038.33 146.189 1026.52 102.856C1020.44 80.5274 1023.4 60.475 1034.65 47.8401C1044.44 36.8382 1059.71 32.271 1077.62 34.9813C1117.5 41.0103 1159.55 81.1638 1171.36 124.496C1177.44 146.825 1174.48 166.877 1163.23 179.512C1155.28 188.444 1143.73 193.134 1130.07 193.134ZM1067.82 34.8379C1054.34 34.8379 1042.94 39.4576 1035.11 48.2527C1024.01 60.7304 1021.09 80.5728 1027.12 102.695C1038.87 145.815 1080.69 185.769 1120.35 191.763C1138.06 194.438 1153.12 189.944 1162.78 179.103C1173.88 166.626 1176.79 146.783 1170.77 124.661C1159.02 81.5415 1117.19 41.5873 1077.54 35.5933C1074.2 35.0897 1070.95 34.8379 1067.82 34.8379H1067.82Z" fill="#42E3B9" stroke="#120026" stroke-width="0.75" stroke-miterlimit="10"/>
<path d="M1131.75 193.28C1092.07 193.28 1045.12 159.792 1025.78 117.138C1015.08 93.5572 1014.55 70.8821 1024.33 54.9284C1032.06 42.3109 1045.79 34.9321 1063 34.1452C1103.3 32.3058 1152.25 66.4304 1172.11 110.217C1182.81 133.798 1183.33 156.473 1173.56 172.427C1165.83 185.045 1152.09 192.423 1134.89 193.21C1133.84 193.259 1132.8 193.28 1131.75 193.28H1131.75ZM1134.85 192.567C1151.84 191.79 1165.39 184.52 1173.01 172.091C1182.67 156.323 1182.13 133.868 1171.52 110.483C1151.76 66.9164 1103.1 32.9597 1063.03 34.7887C1046.04 35.565 1032.49 42.8355 1024.87 55.2641C1015.21 71.0325 1015.75 93.4873 1026.36 116.872C1046.12 160.439 1094.79 194.399 1134.85 192.567Z" fill="#42E3B9"/>
<path d="M1134.85 192.567L1134.87 192.889M1134.85 192.567C1151.84 191.79 1165.39 184.52 1173.01 172.091C1182.67 156.323 1182.13 133.868 1171.52 110.483C1151.76 66.9164 1103.1 32.9597 1063.03 34.7887C1046.04 35.565 1032.49 42.8355 1024.87 55.2641C1015.21 71.0325 1015.75 93.4873 1026.36 116.872C1046.12 160.439 1094.79 194.399 1134.85 192.567ZM1131.75 193.28C1092.07 193.28 1045.12 159.792 1025.78 117.138C1015.08 93.5572 1014.55 70.8821 1024.33 54.9284C1032.06 42.3109 1045.79 34.9321 1063 34.1452C1103.3 32.3058 1152.25 66.4304 1172.11 110.217C1182.81 133.798 1183.33 156.473 1173.56 172.427C1165.83 185.045 1152.09 192.423 1134.89 193.21C1133.84 193.259 1132.8 193.28 1131.75 193.28H1131.75Z" stroke="#120026" stroke-width="0.75" stroke-miterlimit="10"/>
<path d="M1131.24 193.312C1094.71 193.312 1051.52 168.864 1027.76 132.522C1012.26 108.822 1007.64 84.1536 1015.06 64.8497C1020.6 50.4592 1032.15 40.5799 1048.47 36.2855C1087.7 25.9586 1142.27 52.2218 1170.12 94.8268C1185.61 118.527 1190.24 143.195 1182.82 162.499C1177.28 176.889 1165.73 186.769 1149.41 191.063C1143.64 192.581 1137.53 193.308 1131.23 193.308L1131.24 193.312ZM1066.67 34.7083C1060.42 34.7083 1054.37 35.4287 1048.65 36.936C1032.54 41.1744 1021.15 50.9138 1015.69 65.0945C1008.34 84.1956 1012.95 108.64 1028.32 132.158C1056.03 174.539 1110.27 200.677 1149.24 190.42C1165.34 186.181 1176.74 176.442 1182.19 162.261C1189.54 143.16 1184.94 118.715 1169.56 95.1975C1145.93 59.0411 1102.97 34.7083 1066.67 34.7083Z" fill="#42E3B9" stroke="#120026" stroke-width="0.75" stroke-miterlimit="10"/>
<path d="M1128.19 193.707C1095.58 193.707 1058.14 177.054 1032.64 148.528C1012.57 126.077 1003.39 100.373 1007.44 78.0092C1010.35 61.9785 1019.74 49.3855 1034.62 41.587C1071.17 22.43 1129.76 39.1321 1165.24 78.824C1185.31 101.275 1194.5 126.979 1190.44 149.343C1187.54 165.373 1178.14 177.966 1163.26 185.765C1152.98 191.154 1140.96 193.707 1128.19 193.707ZM1069.71 34.3375C1057.05 34.3375 1045.14 36.8659 1034.94 42.2095C1020.27 49.9031 1010.99 62.3282 1008.13 78.1351C1004.11 100.286 1013.24 125.772 1033.16 148.063C1058.53 176.442 1095.76 193.014 1128.16 193.018C1140.82 193.018 1152.74 190.489 1162.94 185.146C1177.61 177.452 1186.88 165.027 1189.75 149.22C1193.77 127.07 1184.64 101.583 1164.72 79.2926C1139.35 50.9137 1102.12 34.3375 1069.71 34.3375Z" fill="#42E3B9"/>
<path d="M1163.26 185.765C1178.14 177.966 1187.54 165.373 1190.44 149.343C1194.5 126.979 1185.31 101.275 1165.24 78.824C1129.76 39.1321 1071.17 22.43 1034.62 41.587C1019.74 49.3855 1010.35 61.9785 1007.44 78.0092C1003.39 100.373 1012.57 126.077 1032.64 148.528C1058.14 177.054 1095.58 193.707 1128.19 193.707C1140.96 193.707 1152.98 191.154 1163.26 185.765ZM1163.26 185.765L1163.1 185.454M1069.71 34.3375C1057.05 34.3375 1045.14 36.8659 1034.94 42.2095C1020.27 49.9031 1010.99 62.3282 1008.13 78.1351C1004.11 100.286 1013.24 125.772 1033.16 148.063C1058.53 176.442 1095.76 193.014 1128.16 193.018C1140.82 193.018 1152.74 190.489 1162.94 185.146C1177.61 177.452 1186.88 165.027 1189.75 149.22C1193.77 127.07 1184.64 101.583 1164.72 79.2926C1139.35 50.9137 1102.12 34.3375 1069.71 34.3375Z" stroke="#120026" stroke-width="0.75" stroke-miterlimit="10"/>
<path d="M1122.52 195.046C1095.03 195.046 1064.76 184.622 1040.49 164.59C1016.54 144.825 1002.62 119.341 1002.3 94.6764C1002.07 76.9497 1008.9 61.5415 1022.03 50.12C1054.26 22.0873 1114.98 27.7596 1157.39 62.762C1181.34 82.5275 1195.26 108.011 1195.58 132.676C1195.81 150.403 1188.99 165.811 1175.86 177.232C1162.07 189.22 1143.07 195.046 1122.52 195.046ZM1075.36 33.0262C1054.99 33.0262 1036.16 38.7929 1022.5 50.6726C1009.54 61.9472 1002.8 77.163 1003.03 94.6694C1003.35 119.121 1017.17 144.401 1040.95 164.031C1083.1 198.816 1143.4 204.492 1175.38 176.683C1188.34 165.409 1195.08 150.193 1194.85 132.686C1194.54 108.235 1180.71 82.9541 1156.93 63.325C1132.78 43.3986 1102.68 33.0262 1075.36 33.0262Z" fill="#42E3B9"/>
<path d="M1175.38 176.683C1143.4 204.492 1083.1 198.816 1040.95 164.031C1017.17 144.401 1003.35 119.121 1003.03 94.6694C1002.8 77.163 1009.54 61.9472 1022.5 50.6726C1036.16 38.7929 1054.99 33.0262 1075.36 33.0262C1102.68 33.0262 1132.78 43.3986 1156.93 63.325C1180.71 82.9541 1194.54 108.235 1194.85 132.686C1195.08 150.193 1188.34 165.409 1175.38 176.683ZM1175.38 176.683L1175.62 176.959M1122.52 195.046C1095.03 195.046 1064.76 184.622 1040.49 164.59C1016.54 144.825 1002.62 119.341 1002.3 94.6764C1002.07 76.9497 1008.9 61.5415 1022.03 50.12C1054.26 22.0873 1114.98 27.7596 1157.39 62.762C1181.34 82.5275 1195.26 108.011 1195.58 132.676C1195.81 150.403 1188.99 165.811 1175.86 177.232C1162.07 189.22 1143.07 195.046 1122.52 195.046Z" stroke="#120026" stroke-width="0.75" stroke-miterlimit="10"/>
<path d="M1115.15 197.886C1093.98 197.886 1071.53 192.085 1051.26 180.104C1024.54 164.311 1006.11 140.51 1000.71 114.802C996.705 95.7223 1000.46 76.915 1011.29 61.839C1037.59 25.235 1098.3 18.6919 1146.62 47.2492C1173.35 63.042 1191.77 86.8432 1197.17 112.55C1201.18 131.63 1197.42 150.438 1186.59 165.514C1171.33 186.766 1144.46 197.883 1115.15 197.883V197.886ZM1082.72 30.2219C1053.66 30.2219 1027.03 41.2307 1011.91 62.2832C1001.05 77.3976 997.436 95.5055 1001.46 114.645C1006.81 140.142 1025.11 163.762 1051.65 179.45C1071.8 191.361 1094.13 197.131 1115.17 197.134C1144.23 197.134 1170.86 186.126 1185.98 165.073C1196.84 149.959 1200.45 131.851 1196.43 112.711C1191.08 87.2139 1172.78 63.5946 1146.24 47.9066C1126.08 35.9955 1103.76 30.2219 1082.72 30.2219Z" fill="#42E3B9"/>
<path d="M1186.59 165.514C1197.42 150.438 1201.18 131.63 1197.17 112.55C1191.77 86.8432 1173.35 63.042 1146.62 47.2492C1098.3 18.692 1037.59 25.235 1011.29 61.839C1000.46 76.915 996.705 95.7223 1000.71 114.802C1006.11 140.51 1024.54 164.311 1051.26 180.104C1071.53 192.085 1093.98 197.886 1115.15 197.886V197.883C1144.46 197.883 1171.33 186.766 1186.59 165.514ZM1186.59 165.514L1186.29 165.293M1082.72 30.2219C1053.66 30.2219 1027.03 41.2307 1011.91 62.2832C1001.05 77.3976 997.436 95.5055 1001.46 114.645C1006.81 140.142 1025.11 163.762 1051.65 179.45C1071.8 191.361 1094.13 197.131 1115.17 197.134C1144.23 197.134 1170.86 186.126 1185.98 165.073C1196.84 149.959 1200.45 131.851 1196.43 112.711C1191.08 87.2139 1172.78 63.5946 1146.24 47.9066C1126.08 35.9955 1103.76 30.2219 1082.72 30.2219Z" stroke="#120026" stroke-width="0.75" stroke-miterlimit="10"/>
<path d="M1107.82 202.534C1093.67 202.534 1079.04 199.928 1064.8 194.42C1036.64 183.534 1014.38 162.88 1003.74 137.761C995.142 117.474 994.876 95.7397 1002.99 76.5616C1021.82 32.0472 1080.18 12.474 1133.08 32.9285C1161.24 43.8149 1183.5 64.4687 1194.14 89.5883C1202.74 109.875 1203.01 131.609 1194.89 150.787C1181.13 183.321 1146.25 202.53 1107.82 202.53V202.534ZM1090.05 25.6091C1051.93 25.6091 1017.36 44.6367 1003.72 76.8729C995.691 95.8551 995.957 117.369 1004.47 137.456C1015.03 162.38 1037.12 182.873 1065.08 193.686C1117.59 213.99 1175.5 194.609 1194.16 150.483C1202.19 131.501 1201.93 109.987 1193.42 89.8995C1182.86 64.9758 1160.76 44.4829 1132.8 33.6699C1118.65 28.2004 1104.11 25.6091 1090.05 25.6091Z" fill="#42E3B9" stroke="#120026" stroke-width="0.75" stroke-miterlimit="10"/>
<path d="M1102.17 208.961C1095.14 208.961 1088 208.29 1080.82 206.895C1053.77 201.639 1030.22 187.003 1014.52 165.685C998.8 144.356 992.809 118.894 997.653 93.9912C1007.64 42.591 1061.21 9.60644 1117.06 20.4614C1172.91 31.3164 1210.22 81.9682 1200.23 133.368C1191.52 178.156 1149.72 208.965 1102.17 208.965V208.961ZM1095.71 19.2164C1048.54 19.2164 1007.09 49.746 998.464 94.145C993.666 118.82 999.604 144.052 1015.18 165.192C1030.77 186.342 1054.13 200.862 1080.98 206.08C1088.11 207.465 1095.21 208.133 1102.17 208.133C1149.35 208.133 1190.79 177.603 1199.42 133.204C1209.32 82.2515 1172.3 32.0368 1116.9 21.2657C1109.78 19.8809 1102.68 19.2129 1095.71 19.2129L1095.71 19.2164Z" fill="#42E3B9"/>
<path d="M1200.23 133.368C1210.22 81.9682 1172.91 31.3164 1117.06 20.4614C1061.21 9.60644 1007.64 42.591 997.653 93.9912C992.809 118.894 998.8 144.356 1014.52 165.685C1030.22 187.003 1053.77 201.639 1080.82 206.895C1088 208.29 1095.14 208.961 1102.17 208.961V208.965C1149.72 208.965 1191.52 178.156 1200.23 133.368ZM1200.23 133.368L1199.82 133.288M1095.71 19.2164C1048.54 19.2164 1007.09 49.746 998.464 94.145C993.666 118.82 999.604 144.052 1015.18 165.192C1030.77 186.342 1054.13 200.862 1080.98 206.08C1088.11 207.465 1095.21 208.133 1102.17 208.133C1149.35 208.133 1190.79 177.603 1199.42 133.204C1209.32 82.2515 1172.3 32.0368 1116.9 21.2657C1109.78 19.8809 1102.68 19.2129 1095.71 19.2129L1095.71 19.2164Z" stroke="#120026" stroke-width="0.75" stroke-miterlimit="10"/>
<path d="M1098.94 216.879C1042.03 216.879 995.736 170.584 995.736 113.676C995.736 56.7681 1042.03 10.4736 1098.94 10.4736C1155.85 10.4736 1202.14 56.7681 1202.14 113.676C1202.14 170.584 1155.85 216.879 1098.94 216.879ZM1098.94 11.3374C1042.51 11.3374 996.6 57.2472 996.6 113.676C996.6 170.105 1042.51 216.015 1098.94 216.015C1155.37 216.015 1201.28 170.105 1201.28 113.676C1201.28 57.2472 1155.37 11.3374 1098.94 11.3374Z" fill="#42E3B9" stroke="#120026" stroke-width="0.75" stroke-miterlimit="10"/>
</g>
<g opacity="0.4">
<path d="M1219.43 238.141C1295.99 238.141 1358.05 176.08 1358.05 99.5244C1358.05 22.9685 1295.99 -39.0923 1219.43 -39.0923C1142.87 -39.0923 1080.81 22.9685 1080.81 99.5244C1080.81 176.08 1142.87 238.141 1219.43 238.141Z" stroke="#42E3B9" stroke-miterlimit="10"/>
<path d="M1375.11 123.179C1368.44 166.972 1343.43 207.676 1303.01 232.98L1310.37 244.93C1354.46 217.364 1381.74 172.971 1389 125.214L1375.11 123.175V123.179Z" fill="#42E3B9"/>
<path d="M1063.88 75.0398C1070.74 31.564 1095.69 -8.78566 1135.85 -33.9273L1128.5 -45.877C1084.66 -18.47 1057.45 25.5683 1049.99 73.0047L1063.88 75.0436L1063.88 75.0398Z" fill="#42E3B9"/>
</g>
<path d="M1229.4 193.879C1276.81 193.879 1315.25 155.445 1315.25 108.035C1315.25 60.624 1276.81 22.1899 1229.4 22.1899C1181.99 22.1899 1143.56 60.624 1143.56 108.035C1143.56 155.445 1181.99 193.879 1229.4 193.879Z" fill="#180F3D" stroke="#42E2B8" stroke-miterlimit="10"/>
<path d="M1219.81 184.626C1267.23 184.626 1305.66 146.192 1305.66 98.7812C1305.66 51.3705 1267.23 12.9365 1219.81 12.9365C1172.4 12.9365 1133.97 51.3705 1133.97 98.7812C1133.97 146.192 1172.4 184.626 1219.81 184.626Z" fill="#5330C7"/>
<path d="M1219.81 184.626C1267.23 184.626 1305.66 146.192 1305.66 98.7812C1305.66 51.3705 1267.23 12.9365 1219.81 12.9365C1172.4 12.9365 1133.97 51.3705 1133.97 98.7812C1133.97 146.192 1172.4 184.626 1219.81 184.626Z" stroke="#180F3D" stroke-width="20" stroke-miterlimit="10"/>
<path d="M1219.81 184.626C1267.23 184.626 1305.66 146.192 1305.66 98.7812C1305.66 51.3705 1267.23 12.9365 1219.81 12.9365C1172.4 12.9365 1133.97 51.3705 1133.97 98.7812C1133.97 146.192 1172.4 184.626 1219.81 184.626Z" fill="#5330C7" stroke="#42E2B8" stroke-miterlimit="10"/>
<path fill-rule="evenodd" clip-rule="evenodd" d="M1219.81 163.578C1255.51 163.578 1284.61 134.474 1284.61 98.781C1284.61 63.0883 1255.5 33.9839 1219.81 33.9839C1184.13 33.9839 1155.02 63.093 1155.02 98.781C1155.02 134.469 1184.13 163.578 1219.81 163.578Z" fill="#38227A"/>
<path d="M1219.81 164.298C1183.69 164.298 1154.3 134.908 1154.3 98.7812C1154.3 62.6546 1183.69 33.2642 1219.81 33.2642C1255.94 33.2642 1285.33 62.6546 1285.33 98.7812C1285.33 134.908 1255.94 164.298 1219.81 164.298ZM1219.81 34.7039C1184.48 34.7039 1155.74 63.4507 1155.74 98.7812C1155.74 134.112 1184.48 162.858 1219.81 162.858C1255.15 162.858 1283.89 134.112 1283.89 98.7812C1283.89 63.4507 1255.15 34.7039 1219.81 34.7039Z" fill="#12006C"/>
<path d="M1171.33 98.0615C1171.33 124.839 1193.04 146.545 1219.81 146.545C1246.59 146.545 1268.3 124.839 1268.3 98.0615C1268.3 71.2836 1246.59 49.5781 1219.81 49.5781C1193.04 49.5781 1171.33 71.2836 1171.33 98.0615Z" fill="#0C0C4F" stroke="#42E2B8"/>
<path fill-rule="evenodd" clip-rule="evenodd" d="M1197.87 86.3434L1199.1 82.5486C1199.35 81.7763 1199.96 81.1756 1200.74 80.942L1204.55 79.7693C1205.08 79.6072 1205.08 78.8635 1204.56 78.6918L1200.76 77.4619C1199.99 77.214 1199.4 76.6038 1199.16 75.8267L1197.99 72.0129C1197.82 71.4884 1197.08 71.4789 1196.91 72.0033L1195.68 75.7981C1195.43 76.5704 1194.82 77.1663 1194.05 77.4047L1190.23 78.5774C1189.7 78.7395 1189.7 79.4832 1190.22 79.6548L1194.02 80.8848C1194.79 81.1327 1195.39 81.7429 1195.63 82.52L1196.8 86.3291C1196.96 86.8582 1197.7 86.863 1197.88 86.3386L1197.87 86.3434Z" fill="#FAFAFA"/>
<path fill-rule="evenodd" clip-rule="evenodd" d="M1258.13 84.1364C1256.56 82.3772 1254.11 81.3904 1251.72 80.9852C1249.32 80.5943 1246.8 80.6324 1244.42 81.0519C1239.62 81.8624 1235.26 83.8503 1231.46 86.3055C1229.48 87.5068 1227.8 88.9037 1226.05 90.3195C1225.21 91.0346 1224.44 91.8021 1223.64 92.5554L1221.46 94.7245C1219.09 97.2035 1216.75 99.4584 1214.49 101.332C1212.22 103.196 1210.1 104.607 1208.01 105.599C1205.91 106.59 1203.68 107.177 1200.76 107.267C1197.88 107.367 1194.46 106.848 1190.8 105.985C1187.13 105.127 1183.26 103.906 1178.95 102.853C1180.46 107.029 1182.72 110.719 1185.63 114.094C1188.58 117.407 1192.26 120.43 1196.98 122.418C1201.64 124.449 1207.49 125.178 1212.95 124.077C1218.44 123.018 1223.25 120.482 1227.14 117.546C1231.04 114.58 1234.2 111.205 1236.86 107.692C1237.59 106.719 1237.98 106.18 1238.51 105.422L1239.98 103.248C1241 101.904 1241.93 100.369 1242.94 99.0389C1244.92 96.2453 1246.87 93.4564 1249.14 90.8868C1250.29 89.5853 1251.49 88.3363 1252.91 87.1397C1253.62 86.5534 1254.39 85.9813 1255.24 85.4664C1256.1 84.9086 1257.01 84.4748 1258.13 84.1364H1258.13Z" fill="#42E2B8"/>
<path fill-rule="evenodd" clip-rule="evenodd" d="M1258.13 84.1364C1256.44 79.8744 1253.3 76.2894 1249.09 73.6435C1244.91 71.0263 1239.09 69.6914 1233.33 70.8308C1230.48 71.3838 1227.72 72.4421 1225.3 73.8533C1222.89 75.2596 1220.73 76.952 1218.86 78.7684C1217.92 79.6789 1217.08 80.6276 1216.23 81.5859L1214.05 84.3652L1210.68 88.8417C1206.39 94.6006 1201.76 101.351 1194.17 103.349C1186.72 105.313 1183.49 103.573 1178.94 102.853C1179.77 104.998 1180.8 107.086 1182.2 108.917C1183.56 110.786 1185.19 112.545 1187.2 114.051C1188.21 114.776 1189.29 115.491 1190.48 116.096C1191.67 116.683 1192.95 117.198 1194.31 117.584C1197.03 118.327 1200.09 118.59 1203.05 118.189C1206.02 117.793 1208.85 116.854 1211.32 115.605C1213.82 114.371 1215.99 112.864 1217.93 111.277C1221.79 108.073 1224.79 104.536 1227.32 100.955C1228.6 99.1677 1229.76 97.3465 1230.83 95.5207L1232.09 93.3515C1232.47 92.7175 1232.86 92.0786 1233.25 91.4827C1234.85 89.0943 1236.41 87.1779 1238.31 85.7429C1240.18 84.2698 1242.78 83.1781 1246.26 82.9254C1249.73 82.668 1253.73 83.1448 1258.12 84.1316L1258.13 84.1364Z" fill="#FAFAFA"/>
<path fill-rule="evenodd" clip-rule="evenodd" d="M1239.38 119.534C1239.38 122.661 1241.92 125.202 1245.05 125.202C1248.19 125.202 1250.72 122.666 1250.72 119.534C1250.72 116.401 1248.18 113.865 1245.05 113.865C1241.93 113.865 1239.38 116.401 1239.38 119.534Z" fill="#42E2B8"/>
<path d="M1141.25 99.501C1140.85 99.501 1140.53 99.1816 1140.53 98.7859C1140.53 96.7455 1140.61 94.6765 1140.76 92.6266C1140.79 92.2309 1141.14 91.9448 1141.54 91.9687C1141.93 91.9973 1142.23 92.3405 1142.2 92.741C1142.05 94.7528 1141.97 96.7884 1141.97 98.7907C1141.97 99.1864 1141.65 99.5058 1141.25 99.5058L1141.25 99.501ZM1142.17 87.3635C1142.13 87.3635 1142.1 87.3635 1142.06 87.354C1141.66 87.292 1141.4 86.9297 1141.46 86.534C1147.35 47.7663 1180.31 19.5725 1219.81 19.501C1220.21 19.501 1220.53 19.8204 1220.53 20.2161C1220.53 20.6118 1220.22 20.9359 1219.81 20.9359C1181.02 21.0122 1148.67 48.6864 1142.88 86.7485C1142.82 87.106 1142.52 87.3587 1142.17 87.3587L1142.17 87.3635Z" fill="white"/>
<path d="M1219.82 178.061C1219.42 178.061 1219.1 177.742 1219.1 177.346C1219.1 176.95 1219.42 176.626 1219.82 176.626C1258.81 176.626 1291.99 147.407 1297 108.664C1297.05 108.268 1297.41 107.987 1297.81 108.044C1298.2 108.096 1298.48 108.459 1298.43 108.85C1293.32 148.308 1259.53 178.066 1219.82 178.066V178.061ZM1298.27 103.439C1298.27 103.439 1298.24 103.439 1298.23 103.439C1297.83 103.415 1297.53 103.081 1297.55 102.681C1297.62 101.389 1297.66 100.087 1297.66 98.781C1297.66 98.3853 1297.98 98.0659 1298.38 98.0659C1298.78 98.0659 1299.1 98.3949 1299.1 98.7906C1299.09 100.121 1299.05 101.446 1298.98 102.762C1298.96 103.143 1298.64 103.443 1298.27 103.443V103.439Z" fill="#42E2B8"/>
<path d="M1219.76 153.91C1207.01 153.91 1194.25 149.567 1183.98 140.781C1183.68 140.524 1183.64 140.071 1183.9 139.766C1184.16 139.465 1184.61 139.427 1184.91 139.685C1206.08 157.791 1238.11 156.518 1257.83 136.8C1275.43 119.204 1278.7 92.0831 1265.78 70.8591C1265.58 70.5206 1265.68 70.0772 1266.02 69.8722C1266.36 69.6625 1266.8 69.7721 1267.01 70.1106C1280.27 91.9067 1276.91 119.748 1258.85 137.816C1248.17 148.495 1233.97 153.905 1219.75 153.905L1219.76 153.91ZM1173.23 127.795C1172.99 127.795 1172.75 127.671 1172.62 127.447C1159.36 105.651 1162.71 77.8098 1180.78 59.7465C1201.03 39.495 1233.92 38.1936 1255.66 56.7813C1255.96 57.0387 1255.99 57.4916 1255.74 57.7967C1255.48 58.097 1255.03 58.1351 1254.72 57.8777C1233.55 39.7715 1201.51 41.0396 1181.8 60.7619C1164.2 78.3628 1160.93 105.474 1173.85 126.703C1174.06 127.042 1173.95 127.485 1173.61 127.69C1173.49 127.762 1173.36 127.795 1173.23 127.795Z" fill="#2B1C56"/>
<path d="M1258.34 65.2767C1257 65.2767 1255.74 64.7524 1254.79 63.8037C1252.83 61.8443 1252.83 58.6597 1254.79 56.7004C1256.69 54.803 1260 54.803 1261.9 56.7004C1262.85 57.6491 1263.37 58.9124 1263.37 60.2521C1263.37 61.5917 1262.85 62.855 1261.9 63.8037C1260.95 64.7524 1259.69 65.2767 1258.35 65.2767H1258.34ZM1258.34 56.667C1257.39 56.667 1256.49 57.0389 1255.81 57.7158C1254.41 59.1126 1254.41 61.3866 1255.81 62.7882C1257.16 64.1469 1259.53 64.1469 1260.88 62.7882C1261.56 62.1113 1261.93 61.215 1261.93 60.2568C1261.93 59.2985 1261.55 58.3975 1260.88 57.7206C1260.2 57.0436 1259.3 56.6718 1258.34 56.6718L1258.34 56.667Z" fill="#2B1C56"/>
<path d="M1181.28 142.34C1179.94 142.34 1178.68 141.815 1177.73 140.867C1175.77 138.907 1175.77 135.718 1177.73 133.759C1178.68 132.81 1179.94 132.286 1181.28 132.286C1182.63 132.286 1183.89 132.81 1184.84 133.759C1186.8 135.718 1186.8 138.907 1184.84 140.867C1183.89 141.815 1182.63 142.34 1181.28 142.34ZM1181.28 133.73C1180.32 133.73 1179.43 134.102 1178.74 134.779C1177.35 136.181 1177.35 138.455 1178.74 139.851C1180.1 141.21 1182.46 141.205 1183.82 139.851C1185.21 138.455 1185.21 136.181 1183.82 134.779C1183.14 134.102 1182.24 133.73 1181.28 133.73Z" fill="#2B1C56"/>
<g opacity="0.7">
<g opacity="0.47">
<path d="M1525.25 37.1696C1525.25 46.8485 1522.37 57.1936 1516.5 66.308C1509.35 77.4268 1499 84.8085 1488.13 86.5651C1480.07 87.8675 1472.59 85.9616 1466.5 81.0564C1451.81 69.2176 1450.32 43.3414 1463.18 23.3741C1470.34 12.2553 1480.68 4.8736 1491.55 3.11705C1499.62 1.81457 1507.1 3.72046 1513.18 8.62565C1521.17 15.0604 1525.25 25.6445 1525.25 37.1696ZM1454.75 52.5155C1454.75 63.945 1458.79 74.4305 1466.7 80.8055C1472.71 85.6539 1480.11 87.5359 1488.08 86.2484C1498.86 84.5068 1509.12 77.1758 1516.23 66.1347C1529 46.3018 1527.54 20.6138 1512.98 8.87363C1506.97 4.0252 1499.57 2.14319 1491.6 3.43073C1480.82 5.17234 1470.56 12.5032 1463.45 23.5444C1457.61 32.6079 1454.75 42.8963 1454.75 52.5155L1454.75 52.5155Z" fill="#42E3B9" stroke="#120026" stroke-width="0.75" stroke-miterlimit="10"/>
<path d="M1527.04 40.36C1527.04 47.1024 1525.65 54.1107 1522.73 60.8352C1517.58 72.7038 1508.43 81.8003 1497.63 85.7913C1489.11 88.94 1480.17 88.6084 1472.45 84.8533C1454.32 76.0318 1447.37 50.9083 1456.95 28.8469C1462.1 16.9782 1471.25 7.88187 1482.05 3.8908C1490.57 0.742155 1499.51 1.07372 1507.23 4.82879C1519.83 10.9618 1527.04 24.9753 1527.04 40.36ZM1472.6 84.5546C1480.23 88.2679 1489.08 88.5964 1497.52 85.4776C1508.23 81.5164 1517.31 72.4858 1522.42 60.7008C1531.94 38.8007 1525.05 13.8714 1507.08 5.12752C1499.45 1.41427 1490.6 1.08565 1482.16 4.20441C1471.45 8.16561 1462.37 17.1963 1457.26 28.9814C1447.74 50.8814 1454.63 75.8107 1472.6 84.5546Z" fill="#42E3B9"/>
<path d="M1472.53 84.704L1472.6 84.5546M1472.6 84.5546C1480.23 88.2679 1489.08 88.5964 1497.52 85.4776C1508.23 81.5164 1517.31 72.4858 1522.42 60.7008C1531.94 38.8007 1525.05 13.8714 1507.08 5.12752C1499.45 1.41427 1490.6 1.08564 1482.16 4.20441C1471.45 8.16561 1462.37 17.1964 1457.26 28.9814C1447.74 50.8814 1454.63 75.8107 1472.6 84.5546ZM1527.04 40.36C1527.04 47.1024 1525.65 54.1107 1522.73 60.8352C1517.58 72.7038 1508.43 81.8003 1497.63 85.7913C1489.11 88.94 1480.17 88.6084 1472.45 84.8533C1454.32 76.0318 1447.37 50.9083 1456.95 28.8469C1462.1 16.9782 1471.25 7.88187 1482.05 3.8908C1490.57 0.742159 1499.51 1.07372 1507.23 4.82879C1519.83 10.9618 1527.04 24.9753 1527.04 40.36Z" stroke="#120026" stroke-width="0.75" stroke-miterlimit="10"/>
<path d="M1529.59 42.9767C1529.59 46.687 1529.16 50.4749 1528.25 54.2658C1525.35 66.3018 1517.95 76.6977 1507.96 82.7888C1499.19 88.1272 1489.12 89.7792 1479.6 87.4401C1458.42 82.2422 1445.79 58.8992 1451.44 35.4099C1454.34 23.3739 1461.73 12.978 1471.73 6.88682C1480.5 1.54847 1490.57 -0.100489 1500.09 2.2356C1517.84 6.59411 1529.59 23.7115 1529.59 42.9767ZM1450.44 46.7019C1450.44 65.8089 1462.08 82.7828 1479.68 87.1025C1489.12 89.4177 1499.09 87.7807 1507.77 82.4931C1517.69 76.4497 1525.03 66.1315 1527.91 54.1852C1533.51 30.881 1521 7.72627 1500.01 2.57313C1490.58 0.257956 1480.6 1.89506 1471.91 7.18263C1461.99 13.226 1454.65 23.5442 1451.78 35.4905C1450.87 39.2545 1450.44 43.0185 1450.44 46.7019Z" fill="#42E3B9"/>
<path d="M1479.6 87.4401C1489.12 89.7792 1499.19 88.1272 1507.96 82.7888C1517.95 76.6977 1525.35 66.3018 1528.25 54.2658C1529.16 50.4749 1529.59 46.687 1529.59 42.9767C1529.59 23.7115 1517.84 6.59411 1500.09 2.2356C1490.57 -0.100487 1480.5 1.54847 1471.73 6.88682C1461.73 12.978 1454.34 23.3739 1451.44 35.4099C1445.79 58.8992 1458.42 82.2422 1479.6 87.4401ZM1479.6 87.4401L1479.64 87.2728M1450.44 46.7019C1450.44 65.8089 1462.08 82.7828 1479.68 87.1025C1489.12 89.4177 1499.09 87.7807 1507.77 82.4931C1517.69 76.4497 1525.03 66.1315 1527.91 54.1852C1533.51 30.881 1521 7.72627 1500.01 2.57314C1490.58 0.257958 1480.6 1.89507 1471.91 7.18263C1461.99 13.226 1454.65 23.5442 1451.78 35.4905C1450.87 39.2545 1450.44 43.0185 1450.44 46.7019Z" stroke="#120026" stroke-width="0.75" stroke-miterlimit="10"/>
<path d="M1532.82 44.5719C1532.82 45.3008 1532.8 46.0327 1532.76 46.7676C1531.61 70.9082 1511.41 89.6835 1487.74 88.62C1476.44 88.1122 1465.98 83.1891 1458.3 74.7559C1450.39 66.0807 1446.35 54.7677 1446.92 42.908C1448.07 18.7674 1468.27 -0.00792788 1491.94 1.05556C1503.24 1.56341 1513.7 6.48649 1521.38 14.9197C1528.8 23.0572 1532.81 33.5158 1532.81 44.5719L1532.82 44.5719ZM1447.23 45.1037C1447.23 56.0672 1451.21 66.4391 1458.57 74.5109C1466.19 82.8724 1476.55 87.7537 1487.76 88.2586C1511.23 89.3131 1531.26 70.6931 1532.4 46.7497C1532.96 34.9886 1528.96 23.7682 1521.12 15.1647C1513.49 6.80317 1503.13 1.92187 1491.92 1.41702C1468.45 0.362494 1448.42 18.9825 1447.28 42.9259C1447.24 43.6548 1447.23 44.3807 1447.23 45.1037L1447.23 45.1037Z" fill="#42E3B9" stroke="#120026" stroke-width="0.75" stroke-miterlimit="10"/>
<path d="M1536.54 45.0204C1536.54 53.9196 1533.66 62.6067 1528.16 70.0003C1520.72 79.9989 1509.55 86.4725 1496.69 88.226C1471.22 91.6973 1447.43 75.0609 1443.65 51.1414C1441.9 40.0375 1444.7 28.8649 1451.53 19.6818C1458.96 9.68326 1470.14 3.20972 1483 1.45615C1508.47 -2.01512 1532.26 14.6213 1536.03 38.5409C1536.37 40.7037 1536.54 42.8695 1536.54 45.0233L1536.54 45.0204ZM1443.52 44.6589C1443.52 46.7919 1443.69 48.9368 1444.02 51.0787C1447.77 74.798 1471.37 91.291 1496.63 87.8496C1509.39 86.111 1520.48 79.6912 1527.85 69.7733C1534.62 60.6709 1537.39 49.5999 1535.66 38.5976C1531.91 14.8782 1508.31 -1.61482 1483.05 1.82658C1470.29 3.56521 1459.2 9.98497 1451.83 19.9029C1446.38 27.2308 1443.52 35.8373 1443.52 44.6589Z" fill="#42E3B9" stroke="#120026" stroke-width="0.75" stroke-miterlimit="10"/>
<path d="M1540.51 43.9297C1540.51 49.6923 1539.2 55.4638 1536.59 60.9157C1530.99 72.6439 1519.88 81.8329 1506.13 86.1317C1479.69 94.3976 1450.86 82.6037 1441.87 59.8462C1437.89 49.77 1438.32 38.7318 1443.09 28.7631C1448.69 17.0349 1459.8 7.84583 1473.55 3.54707C1499.99 -4.71588 1528.82 7.0751 1537.81 29.8325C1539.61 34.3972 1540.51 39.159 1540.51 43.9268L1540.51 43.9297ZM1439.57 45.752C1439.57 50.472 1440.45 55.183 1442.24 59.6998C1451.15 82.2721 1479.76 93.9585 1506.01 85.7553C1519.66 81.4894 1530.67 72.3751 1536.23 60.7454C1540.95 50.8783 1541.38 39.9536 1537.44 29.9789C1528.52 7.40669 1499.92 -4.27972 1473.66 3.92348C1460.02 8.18938 1449 17.3037 1443.44 28.9334C1440.86 34.3315 1439.56 40.0492 1439.56 45.752L1439.57 45.752Z" fill="#42E3B9" stroke="#120026" stroke-width="0.75" stroke-miterlimit="10"/>
<path d="M1544.46 41.6208C1544.46 44.6768 1544.07 47.7598 1543.28 50.8278C1539.95 63.7868 1529.92 75.2492 1515.77 82.2753C1489.28 95.4285 1456.09 89.3553 1441.78 68.7338C1435.63 59.8704 1433.72 49.2564 1436.39 38.8515C1439.73 25.8925 1449.75 14.4302 1463.9 7.40402C1490.39 -5.74918 1523.59 0.324009 1537.9 20.9455C1542.23 27.195 1544.46 34.3168 1544.46 41.6178L1544.46 41.6208ZM1515.59 81.9079C1529.64 74.9355 1539.59 63.5717 1542.89 50.7262C1545.54 40.4378 1543.64 29.9463 1537.56 21.1815C1523.37 0.721333 1490.41 -5.29212 1464.09 7.77445C1450.05 14.7469 1440.1 26.1106 1436.8 38.9561C1434.15 49.2445 1436.04 59.7359 1442.12 68.5008C1456.32 88.961 1489.28 94.9745 1515.59 81.9079Z" fill="#42E3B9" stroke="#120026" stroke-width="0.75" stroke-miterlimit="10"/>
<path d="M1548.17 38.2478C1548.17 38.9289 1548.15 39.613 1548.11 40.303C1547.32 53.743 1539 66.9918 1525.27 76.6498C1499.73 94.6126 1463.07 94.9831 1443.53 77.4743C1435.19 70 1430.94 60.0224 1431.57 49.3726C1432.36 35.9326 1440.69 22.6838 1454.42 13.0258C1479.95 -4.93704 1516.61 -5.30747 1536.15 12.2013C1543.95 19.1946 1548.17 28.3777 1548.17 38.2478ZM1431.94 51.4279C1431.94 61.1755 1436.11 70.248 1443.82 77.1577C1463.22 94.538 1499.64 94.1556 1525.02 76.3003C1538.64 66.717 1546.9 53.5877 1547.69 40.2791C1548.31 29.7667 1544.11 19.9086 1535.87 12.5209C1516.47 -4.85935 1480.05 -4.47693 1454.66 13.3783C1441.05 22.9617 1432.78 36.0909 1432 49.3994C1431.96 50.0776 1431.94 50.7557 1431.94 51.4279Z" fill="#42E3B9" stroke="#120026" stroke-width="0.75" stroke-miterlimit="10"/>
<path d="M1551.42 34.1734C1551.42 46.1227 1545.32 58.7054 1534.22 69.3194C1510.71 91.8169 1471.68 99.1777 1447.21 85.7228C1436.59 79.8825 1429.97 70.7293 1428.55 59.9421C1426.82 46.7232 1432.98 32.2974 1445.46 20.357C1468.97 -2.14051 1508.01 -9.50126 1532.47 3.95365C1543.09 9.79388 1549.72 18.9471 1551.13 29.7343C1551.32 31.2011 1551.42 32.6827 1551.42 34.1734ZM1428.71 55.5059C1428.71 56.9787 1428.81 58.4395 1429 59.8884C1430.39 70.5292 1436.94 79.5659 1447.43 85.3344C1471.74 98.6997 1510.53 91.3718 1533.92 68.9997C1546.29 57.1609 1552.4 42.8696 1550.69 29.794C1549.29 19.1532 1542.75 10.1165 1532.26 4.34793C1507.95 -9.01737 1469.15 -1.6894 1445.77 20.6827C1434.77 31.213 1428.71 43.6791 1428.71 55.5059Z" fill="#42E3B9" stroke="#120026" stroke-width="0.75" stroke-miterlimit="10"/>
<path d="M1554.04 29.6741C1554.04 39.607 1549.99 50.3614 1542.26 60.4168C1521.84 86.9831 1481.73 101.654 1452.85 93.119C1439.86 89.2803 1430.77 81.1966 1427.24 70.3526C1423.2 57.9164 1426.91 42.9409 1437.42 29.2649C1457.84 2.69862 1497.95 -11.9721 1526.84 -3.43734C1539.82 0.398387 1548.92 8.48506 1552.44 19.3291C1553.51 22.6241 1554.04 26.0953 1554.04 29.6771L1554.04 29.6741ZM1426.11 60.0045C1426.11 63.5355 1426.63 66.962 1427.69 70.2092C1431.16 80.9009 1440.14 88.88 1452.98 92.6709C1481.7 101.155 1521.58 86.5589 1541.9 60.13C1552.31 46.5765 1556 31.7563 1552 19.4695C1548.53 8.77782 1539.55 0.798686 1526.71 -2.99223C1497.99 -11.4762 1458.11 3.11982 1437.8 29.5487C1430.13 39.5204 1426.12 50.1762 1426.12 60.0045L1426.11 60.0045Z" fill="#42E3B9" stroke="#120026" stroke-width="0.75" stroke-miterlimit="10"/>
<path d="M1556.01 25.2889C1556.01 33.0888 1553.66 41.5399 1548.99 50.1375C1532.71 80.1123 1492.97 102.165 1460.38 99.2999C1445.02 97.9497 1433.38 91.276 1427.59 80.5067C1421.46 69.0772 1422.56 54.5289 1430.69 39.5414C1446.97 9.5666 1486.72 -12.4858 1519.3 -9.62095C1534.66 -8.27067 1546.31 -1.59701 1552.09 9.1723C1554.71 14.0476 1556.01 19.4875 1556.01 25.2889L1556.01 25.2889ZM1424.16 64.3871C1424.16 70.1108 1425.44 75.473 1428.02 80.2767C1433.72 90.8966 1445.23 97.4807 1460.42 98.816C1492.83 101.666 1532.37 79.7239 1548.56 49.9045C1556.62 35.0634 1557.72 20.6795 1551.66 9.39933C1545.96 -1.22061 1534.45 -7.80469 1519.26 -9.14003C1486.85 -11.9899 1447.31 9.95198 1431.12 39.7715C1426.49 48.2943 1424.16 56.6678 1424.16 64.3871Z" fill="#42E3B9" stroke="#120026" stroke-width="0.75" stroke-miterlimit="10"/>
<path d="M1557.18 21.2201C1557.18 26.7347 1556.14 32.6347 1554.04 38.7647C1542.89 71.2937 1505.06 100.528 1469.7 103.93C1452.14 105.621 1437.92 100.796 1429.66 90.3408C1421.78 80.3572 1420.36 66.3556 1425.65 50.9141C1436.8 18.3851 1474.63 -10.8488 1509.98 -14.2544C1527.55 -15.9452 1541.77 -11.1207 1550.02 -0.665037C1554.77 5.35443 1557.18 12.8377 1557.18 21.2171L1557.18 21.2201ZM1423.01 68.4587C1423.01 76.7246 1425.38 84.1003 1430.06 90.0301C1438.21 100.345 1452.27 105.104 1469.66 103.428C1504.83 100.041 1542.47 70.9591 1553.56 38.6004C1558.79 23.3262 1557.4 9.4948 1549.63 -0.34844C1541.48 -10.6637 1527.42 -15.4224 1510.03 -13.7465C1474.86 -10.3589 1437.22 18.7227 1426.13 51.0814C1424.05 57.1547 1423.01 63.0038 1423.01 68.4587Z" fill="#42E3B9" stroke="#120026" stroke-width="0.75" stroke-miterlimit="10"/>
<path d="M1557.72 18.245C1557.72 20.9485 1557.5 23.7477 1557.06 26.6304C1551.91 60.6949 1517.61 96.6116 1480.6 106.7C1461.52 111.898 1444.39 109.367 1433.6 99.7602C1424.2 91.3927 1420.3 78.356 1422.62 63.0489C1427.77 28.9844 1462.07 -6.93212 1499.08 -17.0203C1518.16 -22.2183 1535.29 -19.688 1546.08 -10.0808C1553.71 -3.29058 1557.72 6.58248 1557.72 18.245ZM1422.49 71.4284C1422.49 82.9415 1426.44 92.6743 1433.95 99.3629C1444.61 108.851 1461.56 111.339 1480.46 106.189C1517.29 96.1515 1551.42 60.4261 1556.55 26.5498C1558.83 11.425 1554.99 -1.44447 1545.73 -9.68949C1535.07 -19.1772 1518.12 -21.6656 1499.22 -16.5155C1462.39 -6.47807 1428.26 29.2473 1423.14 63.1236C1422.71 65.9765 1422.49 68.7488 1422.49 71.4254L1422.49 71.4284Z" fill="#42E3B9" stroke="#120026" stroke-width="0.75" stroke-miterlimit="10"/>
<path d="M1557.84 16.8169C1557.84 50.7051 1529.24 90.8129 1492.8 107.339C1472.66 116.474 1453.29 116.925 1439.66 108.576C1428.88 101.974 1422.58 90.2394 1421.9 75.5387C1420.33 41.1188 1449.48 -0.700822 1486.89 -17.6659C1507.03 -26.8011 1526.4 -27.2522 1540.03 -18.9026C1550.81 -12.3006 1557.11 -0.566412 1557.78 14.1342C1557.82 15.0244 1557.84 15.9177 1557.84 16.8139L1557.84 16.8169ZM1557.23 14.1611C1556.57 -0.351301 1550.36 -11.9272 1539.74 -18.4306C1526.27 -26.6846 1507.09 -26.2216 1487.11 -17.161C1449.9 -0.282617 1420.89 41.2861 1422.45 75.5179C1423.12 90.0303 1429.33 101.606 1439.94 108.11C1453.41 116.364 1472.6 115.901 1492.57 106.84C1529.79 89.9586 1558.8 48.3839 1557.23 14.1611Z" fill="#42E3B9"/>
<path d="M1557.23 14.1611L1557.51 14.1492M1557.23 14.1611C1556.57 -0.351302 1550.36 -11.9272 1539.74 -18.4306C1526.27 -26.6846 1507.09 -26.2216 1487.11 -17.161C1449.9 -0.282618 1420.89 41.2861 1422.45 75.5179C1423.12 90.0303 1429.33 101.606 1439.94 108.11C1453.41 116.364 1472.6 115.901 1492.57 106.84C1529.79 89.9586 1558.8 48.3839 1557.23 14.1611ZM1557.84 16.8169C1557.84 50.7051 1529.24 90.8129 1492.8 107.339C1472.66 116.474 1453.29 116.925 1439.66 108.576C1428.88 101.974 1422.58 90.2394 1421.9 75.5387C1420.33 41.1188 1449.48 -0.700826 1486.89 -17.6659C1507.03 -26.8011 1526.4 -27.2522 1540.03 -18.9026C1550.81 -12.3006 1557.11 -0.566415 1557.78 14.1342C1557.82 15.0244 1557.84 15.9177 1557.84 16.8139L1557.84 16.8169Z" stroke="#120026" stroke-width="0.75" stroke-miterlimit="10"/>
<path d="M1557.87 17.25C1557.87 48.4557 1536.98 85.3491 1505.94 105.645C1485.69 118.882 1464.62 122.834 1448.13 116.492C1435.84 111.763 1427.4 101.893 1423.73 87.9511C1414.91 54.4452 1437.34 7.82797 1473.74 -15.9631C1493.98 -29.1999 1515.06 -33.1521 1531.55 -26.81C1543.84 -22.0811 1552.28 -12.211 1555.95 1.7309C1557.24 6.657 1557.87 11.8729 1557.87 17.253L1557.87 17.25ZM1422.38 72.402C1422.38 77.7434 1423 82.9115 1424.29 87.8017C1427.91 101.558 1436.23 111.294 1448.34 115.954C1464.66 122.231 1485.54 118.296 1505.63 105.164C1541.83 81.4955 1564.16 35.1621 1555.4 1.87428C1551.78 -11.8824 1543.46 -21.618 1531.34 -26.2783C1515.03 -32.5546 1494.15 -28.6204 1474.06 -15.4881C1443.17 4.70325 1422.38 41.3936 1422.38 72.402Z" fill="#42E3B9" stroke="#120026" stroke-width="0.75" stroke-miterlimit="10"/>
<path d="M1558.21 19.852C1558.21 47.7088 1543.98 79.6911 1519.61 101.472C1500.43 118.616 1478.48 126.464 1459.37 123.001C1445.68 120.519 1434.92 112.492 1428.26 99.7839C1411.9 68.5663 1426.16 18.5107 1460.07 -11.7957C1479.25 -28.94 1501.2 -36.7877 1520.31 -33.3254C1534 -30.8429 1544.76 -22.816 1551.42 -10.1079C1556.03 -1.32519 1558.21 8.94824 1558.21 19.852ZM1422.07 69.8061C1422.07 80.6202 1424.23 90.801 1428.79 99.509C1435.36 112.047 1445.98 119.966 1459.48 122.416C1478.4 125.845 1500.17 118.048 1519.22 101.03C1543.46 79.3595 1557.61 47.5565 1557.62 19.8759C1557.62 9.06178 1555.46 -1.11908 1550.89 -9.82714C1544.32 -22.3649 1533.71 -30.2843 1520.2 -32.7339C1501.28 -36.1634 1479.51 -28.3664 1460.47 -11.3476C1436.23 10.3224 1422.07 42.1255 1422.07 69.8061Z" fill="#42E3B9"/>
<path d="M1551.42 -10.1079C1544.76 -22.816 1534 -30.8429 1520.31 -33.3254C1501.2 -36.7877 1479.25 -28.94 1460.07 -11.7957C1426.16 18.5107 1411.9 68.5663 1428.26 99.7839C1434.92 112.492 1445.68 120.519 1459.37 123.001C1478.48 126.464 1500.43 118.616 1519.61 101.472C1543.98 79.6911 1558.21 47.7088 1558.21 19.852C1558.21 8.94824 1556.03 -1.32519 1551.42 -10.1079ZM1551.42 -10.1079L1551.16 -9.97052M1422.07 69.8061C1422.07 80.6202 1424.23 90.801 1428.79 99.509C1435.36 112.047 1445.98 119.966 1459.48 122.416C1478.4 125.845 1500.17 118.048 1519.22 101.03C1543.46 79.3595 1557.61 47.5565 1557.62 19.8759C1557.62 9.06178 1555.46 -1.11908 1550.89 -9.82714C1544.32 -22.3649 1533.71 -30.2843 1520.2 -32.7339C1501.28 -36.1634 1479.51 -28.3664 1460.47 -11.3476C1436.23 10.3224 1422.07 42.1255 1422.07 69.8061Z" stroke="#120026" stroke-width="0.75" stroke-miterlimit="10"/>
<path d="M1559.35 24.6944C1559.35 48.1807 1550.44 74.0361 1533.33 94.7681C1516.45 115.228 1494.68 127.118 1473.61 127.39C1458.47 127.587 1445.31 121.759 1435.55 110.541C1411.6 83.01 1416.45 31.1351 1446.35 -5.09226C1463.23 -25.5524 1485 -37.442 1506.07 -37.7139C1521.21 -37.911 1534.38 -32.0828 1544.13 -20.8654C1554.37 -9.08932 1559.35 7.14083 1559.35 24.6944ZM1420.95 64.9815C1420.95 82.3856 1425.87 98.4664 1436.02 110.135C1445.65 121.209 1458.65 126.962 1473.6 126.768C1494.49 126.499 1516.09 114.691 1532.86 94.3737C1562.57 58.3705 1567.42 6.85706 1543.66 -20.4561C1534.03 -31.5301 1521.03 -37.2837 1506.08 -37.0896C1485.19 -36.8207 1463.6 -25.0117 1446.83 -4.69492C1429.81 15.9296 1420.95 41.6445 1420.95 64.9815Z" fill="#42E3B9"/>
<path d="M1543.66 -20.4561C1567.42 6.85707 1562.57 58.3705 1532.86 94.3737C1516.09 114.691 1494.49 126.499 1473.6 126.768C1458.65 126.962 1445.65 121.209 1436.02 110.135C1425.87 98.4664 1420.95 82.3856 1420.95 64.9815C1420.95 41.6445 1429.81 15.9296 1446.83 -4.69492C1463.6 -25.0117 1485.19 -36.8207 1506.08 -37.0896C1521.03 -37.2837 1534.03 -31.5301 1543.66 -20.4561ZM1543.66 -20.4561L1543.9 -20.6592M1559.35 24.6944C1559.35 48.1807 1550.44 74.036 1533.33 94.7681C1516.45 115.228 1494.68 127.118 1473.61 127.39C1458.47 127.587 1445.31 121.759 1435.55 110.541C1411.6 83.01 1416.45 31.1351 1446.35 -5.09226C1463.23 -25.5525 1485 -37.442 1506.07 -37.7139C1521.21 -37.911 1534.38 -32.0828 1544.13 -20.8654C1554.37 -9.08932 1559.35 7.14083 1559.35 24.6944Z" stroke="#120026" stroke-width="0.75" stroke-miterlimit="10"/>
<path d="M1561.78 30.9919C1561.78 49.0802 1556.82 68.2529 1546.59 85.5674C1533.09 108.397 1512.76 124.137 1490.8 128.749C1474.5 132.173 1458.44 128.964 1445.56 119.713C1414.29 97.2509 1408.7 45.3909 1433.1 4.109C1446.59 -18.7202 1466.92 -34.4604 1488.88 -39.0728C1505.18 -42.4963 1521.24 -39.2879 1534.12 -30.0362C1552.28 -16.9935 1561.77 5.95516 1561.77 30.9919L1561.78 30.9919ZM1418.55 58.6964C1418.55 83.5241 1427.96 106.267 1445.94 119.184C1458.85 128.459 1474.32 131.548 1490.67 128.113C1512.45 123.539 1532.63 107.91 1546.03 85.2358C1556.2 68.0198 1561.13 48.9517 1561.13 30.977C1561.13 6.14932 1551.73 -16.5932 1533.75 -29.5104C1520.83 -38.786 1505.37 -41.875 1489.02 -38.4396C1467.24 -33.866 1447.06 -18.2363 1433.66 4.43756C1423.48 21.6535 1418.55 40.7217 1418.55 58.6964Z" fill="#42E3B9"/>
<path d="M1534.12 -30.0362C1521.24 -39.2879 1505.18 -42.4963 1488.88 -39.0728C1466.92 -34.4604 1446.59 -18.7202 1433.1 4.109C1408.7 45.3909 1414.29 97.2509 1445.56 119.713C1458.44 128.964 1474.5 132.173 1490.8 128.749C1512.76 124.137 1533.09 108.397 1546.59 85.5674C1556.82 68.2529 1561.78 49.0802 1561.78 30.9919L1561.77 30.9919C1561.77 5.95516 1552.28 -16.9935 1534.12 -30.0362ZM1534.12 -30.0362L1533.93 -29.7733M1418.55 58.6964C1418.55 83.5241 1427.96 106.267 1445.94 119.184C1458.85 128.459 1474.32 131.548 1490.67 128.113C1512.45 123.539 1532.63 107.91 1546.03 85.2358C1556.2 68.0198 1561.13 48.9517 1561.13 30.977C1561.13 6.14932 1551.73 -16.5932 1533.75 -29.5104C1520.83 -38.786 1505.37 -41.875 1489.02 -38.4396C1467.24 -33.866 1447.06 -18.2362 1433.66 4.43756C1423.48 21.6535 1418.55 40.7217 1418.55 58.6964Z" stroke="#120026" stroke-width="0.75" stroke-miterlimit="10"/>
<path d="M1565.75 37.2504C1565.75 49.3401 1563.52 61.8421 1558.82 74.0065C1549.52 98.0604 1531.87 117.072 1510.41 126.165C1493.09 133.508 1474.52 133.735 1458.14 126.804C1420.11 110.718 1403.39 60.8652 1420.86 15.673C1430.16 -8.381 1447.81 -27.3924 1469.26 -36.4858C1486.59 -43.8287 1505.16 -44.0557 1521.54 -37.1251C1549.33 -25.3699 1565.74 4.42267 1565.74 37.2504L1565.75 37.2504ZM1414.61 52.435C1414.61 84.9969 1430.87 114.53 1458.4 126.18C1474.62 133.039 1493 132.812 1510.15 125.541C1531.45 116.519 1548.95 97.6452 1558.19 73.7615C1575.53 28.9068 1558.98 -20.5574 1521.28 -36.5038C1505.07 -43.3627 1486.69 -43.1356 1469.53 -35.8644C1448.24 -26.8427 1430.73 -7.96874 1421.5 15.9149C1416.82 28.0017 1414.61 40.426 1414.61 52.435Z" fill="#42E3B9" stroke="#120026" stroke-width="0.75" stroke-miterlimit="10"/>
<path d="M1571.24 42.0839C1571.24 48.0825 1570.66 54.1826 1569.47 60.3186C1564.98 83.4255 1552.48 103.539 1534.27 116.958C1516.05 130.383 1494.3 135.501 1473.03 131.363C1429.12 122.828 1400.94 77.0715 1410.21 29.361C1419.49 -18.3496 1462.75 -50.2184 1506.66 -41.6836C1544.92 -34.2482 1571.24 1.45928 1571.24 42.0839L1571.24 42.0839ZM1409.15 47.5985C1409.15 87.8976 1435.23 123.3 1473.16 130.67C1494.24 134.769 1515.79 129.696 1533.85 116.388C1551.91 103.073 1564.32 83.1149 1568.78 60.1812C1569.96 54.093 1570.53 48.0287 1570.53 42.0809C1570.53 1.78191 1544.45 -33.6208 1506.52 -40.9906C1463 -49.4507 1420.1 -17.8298 1410.9 29.4954C1409.72 35.5835 1409.15 41.6478 1409.15 47.5955L1409.15 47.5985Z" fill="#42E3B9"/>
<path d="M1506.66 -41.6836C1462.75 -50.2184 1419.49 -18.3496 1410.21 29.361C1400.94 77.0715 1429.12 122.828 1473.03 131.363C1494.3 135.501 1516.05 130.383 1534.27 116.958C1552.48 103.539 1564.98 83.4255 1569.47 60.3186C1570.66 54.1826 1571.24 48.0825 1571.24 42.0839L1571.24 42.0839C1571.24 1.45928 1544.92 -34.2482 1506.66 -41.6836ZM1506.66 -41.6836L1506.59 -41.3371M1409.15 47.5985C1409.15 87.8976 1435.23 123.3 1473.16 130.67C1494.24 134.769 1515.79 129.696 1533.85 116.388C1551.91 103.073 1564.32 83.1149 1568.78 60.1812C1569.96 54.093 1570.53 48.0287 1570.53 42.0809C1570.53 1.78191 1544.45 -33.6208 1506.52 -40.9906C1463 -49.4507 1420.1 -17.8298 1410.9 29.4954C1409.72 35.5835 1409.15 41.6478 1409.15 47.5955L1409.15 47.5985Z" stroke="#120026" stroke-width="0.75" stroke-miterlimit="10"/>
<path d="M1578 44.841C1578 93.4507 1538.45 133 1489.84 133C1441.23 133 1401.68 93.4537 1401.68 44.841C1401.68 -3.77179 1441.23 -43.318 1489.84 -43.318C1538.45 -43.318 1578 -3.7718 1578 44.841ZM1402.42 44.841C1402.42 93.0445 1441.64 132.262 1489.84 132.262C1538.04 132.262 1577.26 93.0445 1577.26 44.841C1577.26 -3.36254 1538.04 -42.5801 1489.84 -42.5801C1441.64 -42.5801 1402.42 -3.36253 1402.42 44.841Z" fill="#42E3B9" stroke="#120026" stroke-width="0.75" stroke-miterlimit="10"/>
</g>
<path fill-rule="evenodd" clip-rule="evenodd" d="M1525.69 -4.34193C1549.79 9.5747 1555.7 44.4513 1538.9 73.56C1522.09 102.669 1488.93 114.991 1464.83 101.074L1454.26 94.9664L1455.16 93.4005C1439.48 76.7274 1437.38 47.8738 1451.64 23.1725C1465.9 -1.52884 1491.94 -14.1346 1514.22 -8.89105L1515.12 -10.457L1525.7 -4.34902L1525.69 -4.34193Z" fill="#180F3D" stroke="#42E2B8" stroke-width="0.714459" stroke-miterlimit="10"/>
<path fill-rule="evenodd" clip-rule="evenodd" d="M1532.03 83.4876C1523.38 94.003 1512.37 101.301 1500.92 104.681L1461.71 82.0491L1478.67 52.6782L1532.03 83.4876Z" fill="#38227A"/>
<path fill-rule="evenodd" clip-rule="evenodd" d="M1515.12 -10.4498C1539.21 3.45973 1545.12 38.3363 1528.32 67.4521C1511.51 96.5609 1478.35 108.883 1454.26 94.9736C1430.15 81.057 1424.25 46.1804 1441.05 17.0717C1457.86 -12.0441 1491.02 -24.3665 1515.12 -10.4498Z" fill="#5330C7" stroke="#42E2B8" stroke-width="0.714459" stroke-miterlimit="10"/>
<path fill-rule="evenodd" clip-rule="evenodd" d="M1507.65 2.47499C1525.84 12.9762 1530.3 39.3002 1517.61 61.2735C1504.93 83.2467 1479.9 92.5434 1461.71 82.0492C1443.52 71.548 1439.06 45.224 1451.75 23.2507C1464.43 1.27748 1489.46 -8.01918 1507.65 2.48207V2.47499Z" fill="#38227A"/>
<path d="M1478.13 87.2074C1472.05 87.2074 1466.38 85.7194 1461.28 82.7717C1452.26 77.5635 1446.24 68.444 1444.31 57.0854C1442.4 45.7835 1444.77 33.617 1451.01 22.8182C1459.96 7.3214 1475.75 -2.69092 1491.23 -2.69092C1497.31 -2.69092 1502.97 -1.20289 1508.07 1.73775C1526.63 12.4587 1531.24 39.3566 1518.34 61.6912C1509.39 77.1951 1493.6 87.2074 1478.12 87.2074H1478.13ZM1491.24 -1.00448C1476.34 -1.00448 1461.14 8.6748 1452.48 23.6685C1446.45 34.1272 1444.14 45.8897 1445.99 56.802C1447.83 67.6575 1453.56 76.366 1462.14 81.312C1466.97 84.1038 1472.35 85.521 1478.13 85.521C1493.02 85.521 1508.23 75.8346 1516.88 60.848C1529.32 39.3141 1524.98 13.4507 1507.23 3.20452C1502.4 0.412689 1497.01 -1.00448 1491.24 -1.00448Z" fill="#38227A"/>
<path d="M1444.75 20.0479C1444.61 20.0479 1444.46 20.0125 1444.33 19.9346C1443.92 19.7007 1443.79 19.1834 1444.02 18.7796C1444.76 17.5041 1445.53 16.2641 1446.33 15.0524C1446.6 14.6627 1447.11 14.5564 1447.5 14.8186C1447.89 15.0807 1448 15.6051 1447.74 15.9877C1446.96 17.164 1446.21 18.3757 1445.48 19.6228C1445.33 19.892 1445.04 20.0479 1444.75 20.0479H1444.75ZM1449.52 12.8629C1449.34 12.8629 1449.16 12.8062 1449.01 12.6928C1448.64 12.4094 1448.57 11.8779 1448.85 11.5024C1465.7 -10.7047 1492.65 -18.3716 1512.95 -6.72246C1513.36 -6.48863 1513.5 -5.97136 1513.27 -5.56747C1513.03 -5.16357 1512.52 -5.02186 1512.11 -5.25569C1492.56 -16.4797 1466.52 -9.00411 1450.2 12.5227C1450.03 12.7424 1449.78 12.8558 1449.52 12.8558V12.8629Z" fill="white"/>
<path d="M1476.64 96.5255C1469.55 96.5255 1462.63 94.8178 1456.41 91.2253C1456.01 90.9915 1455.86 90.4742 1456.1 90.0703C1456.33 89.6664 1456.85 89.5318 1457.25 89.7656C1476.87 101.096 1503.88 92.9188 1520.05 70.7471C1520.33 70.3645 1520.86 70.2866 1521.24 70.5629C1521.61 70.8393 1521.7 71.3707 1521.42 71.7462C1509.82 87.6398 1492.79 96.5326 1476.63 96.5326L1476.64 96.5255ZM1523.16 68.5364C1523 68.5364 1522.85 68.4938 1522.7 68.4017C1522.32 68.1466 1522.19 67.6294 1522.44 67.2326C1522.94 66.4602 1523.41 65.6737 1523.88 64.88C1524.11 64.4762 1524.63 64.3344 1525.04 64.5754C1525.44 64.8092 1525.57 65.3265 1525.34 65.7304C1524.87 66.5523 1524.37 67.353 1523.87 68.1466C1523.7 68.3946 1523.43 68.5364 1523.16 68.5364Z" fill="#42E2B8"/>
<path d="M1479.18 80.1999C1474.49 80.1999 1469.96 79.1158 1465.88 76.9688C1458.58 73.1282 1453.37 66.2266 1451.19 57.5393C1451.08 57.0858 1451.36 56.6323 1451.81 56.5119C1452.26 56.3985 1452.72 56.6749 1452.84 57.1284C1454.89 65.3409 1459.81 71.8528 1466.68 75.4666C1473.68 79.1512 1482.07 79.4913 1490.32 76.4302C1505.4 70.8324 1516.6 55.2364 1517.55 38.5067C1517.58 38.0461 1517.99 37.706 1518.45 37.7131C1518.91 37.7414 1519.27 38.1382 1519.25 38.6059C1518.25 55.9804 1506.61 72.1858 1490.92 78.0175C1487 79.4701 1483.05 80.1999 1479.2 80.1999H1479.18ZM1450.97 46.8113C1450.97 46.8113 1450.95 46.8113 1450.93 46.8113C1450.46 46.783 1450.1 46.3862 1450.13 45.9185C1451.12 28.544 1462.77 12.3386 1478.46 6.50696C1487.16 3.2758 1496.05 3.64427 1503.48 7.56275C1510.78 11.4033 1515.99 18.2978 1518.17 26.9851C1518.28 27.4386 1518.01 27.8992 1517.55 28.0126C1517.1 28.1259 1516.64 27.8496 1516.53 27.3961C1514.47 19.1836 1509.55 12.6717 1502.69 9.05787C1495.69 5.37322 1487.29 5.0331 1479.04 8.10127C1463.96 13.6991 1452.76 29.2951 1451.81 46.0248C1451.78 46.4783 1451.41 46.8255 1450.97 46.8255L1450.97 46.8113Z" fill="#2B1C56"/>
<path d="M1517.49 33.6814C1515.95 33.6814 1514.73 32.6114 1514.46 31.0242C1514.14 29.0897 1515.32 27.0419 1517.16 26.3546C1519.06 25.6531 1521.05 26.8152 1521.39 28.7921C1521.71 30.7266 1520.53 32.7815 1518.69 33.4688C1518.29 33.6105 1517.89 33.6885 1517.49 33.6885V33.6814ZM1518.35 27.8214C1518.16 27.8214 1517.95 27.8639 1517.74 27.9347C1516.67 28.3315 1515.94 29.6141 1516.13 30.7407C1516.29 31.7186 1517.16 32.2217 1518.09 31.8745C1519.16 31.4777 1519.9 30.1951 1519.71 29.0685C1519.58 28.3032 1519.05 27.8143 1518.35 27.8143L1518.35 27.8214Z" fill="#2B1C56"/>
<path d="M1451.01 58.3826C1449.47 58.3826 1448.25 57.3127 1447.98 55.7254C1447.66 53.791 1448.84 51.7361 1450.68 51.0559C1452.6 50.3473 1454.57 51.4881 1454.91 53.4934C1455.23 55.4278 1454.05 57.4827 1452.21 58.1701C1451.82 58.3189 1451.41 58.3897 1451.01 58.3897V58.3826ZM1451.87 52.5226C1451.68 52.5226 1451.48 52.5652 1451.27 52.6431C1450.2 53.0399 1449.47 54.3224 1449.65 55.4491C1449.81 56.4269 1450.68 56.93 1451.62 56.5828C1452.69 56.186 1453.43 54.9035 1453.24 53.7768C1453.11 53.0186 1452.58 52.5226 1451.87 52.5226Z" fill="#2B1C56"/>
<path fill-rule="evenodd" clip-rule="evenodd" d="M1484.02 12.2109L1498.71 20.6927C1501.62 22.3792 1503.71 23.768 1504.98 24.8875C1506.24 26.0142 1507.16 27.3605 1507.76 28.9336C1508.35 30.5137 1508.58 32.2923 1508.45 34.2621C1508.31 36.2391 1507.68 38.1948 1506.58 40.108C1505.39 42.17 1503.82 43.821 1501.9 45.0114C1499.97 46.216 1497.97 46.7829 1495.88 46.7333C1497.66 48.8165 1498.59 51.1478 1498.7 53.7483C1498.8 56.3417 1498.11 58.9209 1496.62 61.4931C1495.45 63.5197 1493.93 65.2628 1492.05 66.7225C1490.17 68.1892 1488.22 69.1033 1486.21 69.4718C1484.21 69.8332 1482.15 69.5781 1480.02 68.7065C1478.7 68.1467 1475.65 66.5312 1470.9 63.8385L1458.39 56.6109L1484.02 12.2109H1484.02ZM1487.2 23.8884L1481.29 34.1204L1486.15 36.9264C1489.03 38.5916 1490.86 39.5765 1491.62 39.8741C1492.99 40.4268 1494.29 40.4835 1495.53 40.0159C1496.76 39.5553 1497.79 38.6199 1498.61 37.1957C1499.41 35.821 1499.73 34.5314 1499.6 33.3126C1499.47 32.101 1498.83 31.0381 1497.71 30.1523C1497.03 29.628 1494.95 28.3525 1491.46 26.3472L1487.2 23.8884H1487.2ZM1477.03 41.4968L1470.16 53.4011L1477.04 57.3691C1479.71 58.9068 1481.46 59.7996 1482.28 60.0405C1483.53 60.4302 1484.77 60.3594 1486 59.8208C1487.24 59.2681 1488.32 58.2265 1489.23 56.6393C1490 55.293 1490.39 54.0104 1490.39 52.7704C1490.39 51.5375 1490.01 50.4037 1489.25 49.3975C1488.48 48.3914 1486.41 46.9033 1483.02 44.9476L1477.03 41.4897V41.4968Z" fill="#C0FFED"/>
<path d="M1491.94 11.3683L1487.25 19.5078L1490.97 21.6529L1495.66 13.5134L1491.94 11.3683Z" fill="#C0FFED"/>
<path d="M1499.38 15.6538L1494.69 23.79L1498.41 25.9412L1503.11 17.805L1499.38 15.6538Z" fill="#C0FFED"/>
<path d="M1466.32 55.7437L1461.62 63.8799L1465.34 66.0275L1470.04 57.8913L1466.32 55.7437Z" fill="#C0FFED"/>
<path d="M1473.76 60.0483L1469.07 68.187L1472.79 70.3327L1477.48 62.194L1473.76 60.0483Z" fill="#C0FFED"/>
</g>
<g opacity="0.6" clip-path="url(#clip1_694_22554)">
<path fill-rule="evenodd" clip-rule="evenodd" d="M981.257 224.122C962.445 244.671 921.347 237.68 889.46 208.497C857.574 179.315 846.981 138.998 865.792 118.439L874.058 109.41L875.767 110.984C896.848 100.526 930.53 109.304 957.588 134.073C984.636 158.833 996.36 191.617 987.804 213.538L989.513 215.112L981.247 224.131L981.257 224.122Z" fill="#180F3D" stroke="#42E2B8" stroke-width="0.847455" stroke-miterlimit="10"/>
<path fill-rule="evenodd" clip-rule="evenodd" d="M878.722 197.334C867.482 184.027 860.249 169.407 857.603 155.811L888.215 122.37L920.381 151.813L878.722 197.334Z" fill="#36227A"/>
<path fill-rule="evenodd" clip-rule="evenodd" d="M989.513 215.102C970.702 235.652 929.603 228.66 897.726 199.468C865.84 170.286 855.247 129.969 874.058 109.42C892.879 88.8609 933.968 95.862 965.854 125.044C997.74 154.227 1008.33 194.543 989.523 215.102H989.513Z" fill="#5330C7" stroke="#42E2B8" stroke-width="0.847455" stroke-miterlimit="10"/>
<path fill-rule="evenodd" clip-rule="evenodd" d="M975.366 202.143C961.171 217.652 930.144 212.379 906.08 190.343C882.006 168.316 874.01 137.888 888.215 122.369C902.41 106.861 933.437 112.133 957.501 134.17C981.566 156.197 989.561 186.635 975.366 202.143Z" fill="#38227A"/>
<path d="M952.644 212.167C937.367 212.167 919.666 204.326 905.317 191.173C893.516 180.377 885.134 167.244 881.706 154.198C878.23 140.978 880.248 129.4 887.384 121.607C892.937 115.542 901.077 112.336 910.927 112.336C926.204 112.336 943.895 120.187 958.264 133.33C970.055 144.126 978.447 157.259 981.875 170.305C985.351 183.525 983.333 195.104 976.197 202.897C970.644 208.961 962.503 212.157 952.654 212.157L952.644 212.167ZM910.927 114.596C901.724 114.596 894.154 117.551 889.045 123.133C882.44 130.336 880.615 141.171 883.879 153.628C887.201 166.259 895.351 179.006 906.833 189.512C920.787 202.288 937.918 209.917 952.644 209.917C961.847 209.917 969.418 206.962 974.526 201.38C981.131 194.177 982.956 183.342 979.683 170.885C976.361 158.254 968.21 145.507 956.729 135.001C942.775 122.225 925.644 114.596 910.918 114.596H910.927Z" fill="#36227A"/>
<path d="M984.617 211.742C984.346 211.742 984.076 211.645 983.854 211.452C983.4 211.037 983.362 210.322 983.777 209.859C998.86 193.278 993.037 162.56 969.919 136.825C969.504 136.362 969.543 135.647 970.006 135.232C970.47 134.817 971.175 134.855 971.59 135.319C995.5 161.933 1001.32 193.925 985.447 211.375C985.225 211.616 984.916 211.742 984.617 211.742ZM966.974 133.185C966.684 133.185 966.395 133.069 966.173 132.847C964.888 131.553 963.565 130.278 962.194 129.023C961.74 128.608 961.702 127.893 962.127 127.429C962.551 126.976 963.266 126.937 963.72 127.362C965.11 128.637 966.462 129.94 967.766 131.254C968.201 131.698 968.201 132.412 967.766 132.847C967.544 133.059 967.254 133.175 966.974 133.175V133.185Z" fill="#42E2B8"/>
<path d="M900.614 197.441C900.343 197.441 900.073 197.344 899.851 197.151C898.953 196.33 898.084 195.5 897.224 194.65C896.78 194.215 896.77 193.501 897.205 193.056C897.639 192.612 898.354 192.603 898.798 193.037C899.638 193.858 900.498 194.679 901.376 195.49C901.83 195.915 901.869 196.62 901.444 197.083C901.212 197.325 900.923 197.45 900.614 197.45V197.441ZM894.163 191.019C893.864 191.019 893.555 190.893 893.332 190.662C868.65 163.961 862.113 130.636 878.123 113.138C878.538 112.674 879.253 112.645 879.717 113.07C880.18 113.486 880.209 114.2 879.784 114.654C864.565 131.283 871.103 163.295 894.993 189.126C895.418 189.58 895.389 190.295 894.926 190.71C894.713 190.913 894.433 191.009 894.163 191.009V191.019Z" fill="#5131C7"/>
<path d="M949.332 204.413C948.096 204.413 946.821 204.345 945.517 204.229C944.899 204.171 944.445 203.621 944.503 203.003C944.561 202.385 945.121 201.921 945.73 201.989C955.251 202.897 963.189 200.241 968.066 194.495C973.174 188.479 974.536 179.624 971.89 169.552C967.061 151.176 950.172 133.137 930.83 125.692C930.25 125.47 929.961 124.813 930.183 124.234C930.405 123.654 931.061 123.374 931.641 123.587C951.62 131.273 969.07 149.94 974.062 168.983C976.902 179.788 975.376 189.358 969.785 195.954C965.091 201.468 957.926 204.413 949.322 204.413H949.332ZM932.326 200.994C932.191 200.994 932.056 200.965 931.921 200.917C911.941 193.23 894.492 174.554 889.499 155.531C886.66 144.725 888.186 135.146 893.787 128.56C899.156 122.244 907.77 119.309 918.054 120.284C918.672 120.342 919.126 120.892 919.068 121.51C919.01 122.128 918.45 122.592 917.841 122.524C908.31 121.626 900.373 124.272 895.496 130.018C890.388 136.034 889.036 144.889 891.672 154.961C896.5 173.338 913.39 191.376 932.722 198.822C933.311 199.044 933.591 199.7 933.369 200.28C933.195 200.734 932.771 201.004 932.317 201.004L932.326 200.994Z" fill="#2B1C56"/>
<path d="M943.799 207.049C943.557 207.049 943.316 207.03 943.055 206.982C940.834 206.605 938.632 204.596 938.063 202.414C937.763 201.284 937.927 200.232 938.536 199.449C939.231 198.551 940.361 198.126 941.761 198.377C943.992 198.754 946.174 200.763 946.754 202.945C947.053 204.085 946.889 205.137 946.29 205.91C945.72 206.644 944.842 207.039 943.799 207.039V207.049ZM941.027 200.57C940.795 200.57 940.486 200.618 940.322 200.83C940.158 201.043 940.139 201.41 940.255 201.844C940.602 203.167 942.089 204.538 943.441 204.77C943.818 204.828 944.262 204.857 944.504 204.548C944.668 204.336 944.697 203.969 944.581 203.534C944.233 202.201 942.736 200.84 941.385 200.608C941.259 200.589 941.143 200.579 941.027 200.579V200.57Z" fill="#2B1C56"/>
<path d="M922.554 126.213C922.322 126.213 922.081 126.194 921.82 126.145C919.589 125.769 917.397 123.751 916.818 121.568C916.528 120.438 916.692 119.386 917.291 118.604C917.986 117.706 919.116 117.281 920.517 117.532C922.738 117.908 924.93 119.917 925.509 122.099C925.808 123.229 925.644 124.291 925.036 125.064C924.466 125.798 923.587 126.203 922.544 126.203L922.554 126.213ZM919.783 119.724C919.551 119.724 919.242 119.772 919.078 119.985C918.923 120.197 918.885 120.564 919 121.008C919.348 122.331 920.845 123.702 922.197 123.934C922.573 124.002 923.008 124.021 923.259 123.712C923.423 123.5 923.442 123.133 923.327 122.698C922.979 121.375 921.482 120.004 920.13 119.772C920.005 119.753 919.879 119.743 919.773 119.743L919.783 119.724Z" fill="#2B1C56"/>
<path d="M907.615 138.071L927.633 155.415L949.013 149.775L907.615 138.071Z" fill="#C0FFED"/>
<path d="M907.615 138.071L921.375 174.149L927.633 155.415L907.615 138.071Z" fill="#E3FFF6"/>
<path d="M948.163 173.202L961.769 184.984L952.171 152.499L948.163 173.202Z" fill="#A3E8CF"/>
<path d="M961.769 184.983L948.163 173.202L924.523 176.872L961.769 184.983Z" fill="#E3FFF6"/>
<path d="M945.015 170.47L949.013 149.775L927.633 155.415L945.015 170.47Z" fill="#7DD1B5"/>
<path d="M921.375 174.148L945.015 170.469L927.633 155.415L921.375 174.148Z" fill="#A3E8CF"/>
<path d="M891.479 179.093C881.532 179.913 880.866 180.58 880.045 190.526C879.224 180.58 878.558 179.913 868.612 179.093C878.558 178.272 879.224 177.606 880.045 167.659C880.866 177.606 881.532 178.272 891.479 179.093Z" fill="#42E2B8"/>
</g>
</g>
<defs>
<radialGradient id="paint0_radial_694_22554" cx="0" cy="0" r="1" gradientUnits="userSpaceOnUse" gradientTransform="translate(-74.5 539.5) scale(661.5)">
<stop stop-color="#1F152E"/>
<stop offset="0.23" stop-color="#1F1530"/>
<stop offset="0.38" stop-color="#231639"/>
<stop offset="0.51" stop-color="#281948"/>
<stop offset="0.63" stop-color="#301D5E"/>
<stop offset="0.74" stop-color="#392279"/>
<stop offset="0.85" stop-color="#45279B"/>
<stop offset="0.95" stop-color="#542EC3"/>
<stop offset="1" stop-color="#5D33DD"/>
</radialGradient>
<linearGradient id="paint1_linear_694_22554" x1="1143.74" y1="-274.174" x2="1143.74" y2="155.198" gradientUnits="userSpaceOnUse">
<stop stop-color="#42E3B9"/>
<stop offset="1" stop-color="#120026"/>
</linearGradient>
<linearGradient id="paint2_linear_694_22554" x1="1143.74" y1="-285.012" x2="1143.74" y2="166.011" gradientUnits="userSpaceOnUse">
<stop stop-color="#42E3B9"/>
<stop offset="1" stop-color="#120026"/>
</linearGradient>
<linearGradient id="paint3_linear_694_22554" x1="1143.75" y1="-300.487" x2="1143.75" y2="181.515" gradientUnits="userSpaceOnUse">
<stop stop-color="#42E3B9"/>
<stop offset="1" stop-color="#120026"/>
</linearGradient>
<linearGradient id="paint4_linear_694_22554" x1="1143.76" y1="-320.069" x2="1143.76" y2="201.057" gradientUnits="userSpaceOnUse">
<stop stop-color="#42E3B9"/>
<stop offset="1" stop-color="#120026"/>
</linearGradient>
<linearGradient id="paint5_linear_694_22554" x1="1143.74" y1="-342.624" x2="1143.74" y2="223.643" gradientUnits="userSpaceOnUse">
<stop stop-color="#42E3B9"/>
<stop offset="1" stop-color="#120026"/>
</linearGradient>
<linearGradient id="paint6_linear_694_22554" x1="1143.74" y1="-366.693" x2="1143.74" y2="247.695" gradientUnits="userSpaceOnUse">
<stop stop-color="#42E3B9"/>
<stop offset="1" stop-color="#120026"/>
</linearGradient>
<linearGradient id="paint7_linear_694_22554" x1="1143.75" y1="-390.699" x2="1143.75" y2="271.676" gradientUnits="userSpaceOnUse">
<stop stop-color="#42E3B9"/>
<stop offset="1" stop-color="#120026"/>
</linearGradient>
<linearGradient id="paint8_linear_694_22554" x1="1143.76" y1="-413.159" x2="1143.76" y2="294.171" gradientUnits="userSpaceOnUse">
<stop stop-color="#42E3B9"/>
<stop offset="1" stop-color="#120026"/>
</linearGradient>
<linearGradient id="paint9_linear_694_22554" x1="1143.76" y1="-432.825" x2="1143.76" y2="313.84" gradientUnits="userSpaceOnUse">
<stop stop-color="#42E3B9"/>
<stop offset="1" stop-color="#120026"/>
</linearGradient>
<linearGradient id="paint10_linear_694_22554" x1="1143.74" y1="-448.711" x2="1143.74" y2="329.724" gradientUnits="userSpaceOnUse">
<stop stop-color="#42E3B9"/>
<stop offset="1" stop-color="#120026"/>
</linearGradient>
<linearGradient id="paint11_linear_694_22554" x1="1143.75" y1="-460.659" x2="1143.75" y2="341.678" gradientUnits="userSpaceOnUse">
<stop stop-color="#42E3B9"/>
<stop offset="1" stop-color="#120026"/>
</linearGradient>
<linearGradient id="paint12_linear_694_22554" x1="1143.76" y1="-467.75" x2="1143.76" y2="348.778" gradientUnits="userSpaceOnUse">
<stop stop-color="#42E3B9"/>
<stop offset="1" stop-color="#120026"/>
</linearGradient>
<linearGradient id="paint13_linear_694_22554" x1="1143.75" y1="-471.021" x2="1143.75" y2="352.02" gradientUnits="userSpaceOnUse">
<stop stop-color="#42E3B9"/>
<stop offset="1" stop-color="#120026"/>
</linearGradient>
<linearGradient id="paint14_linear_694_22554" x1="1143.76" y1="-471.769" x2="1143.76" y2="352.781" gradientUnits="userSpaceOnUse">
<stop stop-color="#42E3B9"/>
<stop offset="1" stop-color="#120026"/>
</linearGradient>
<linearGradient id="paint15_linear_694_22554" x1="1143.74" y1="-471.951" x2="1143.74" y2="352.944" gradientUnits="userSpaceOnUse">
<stop stop-color="#42E3B9"/>
<stop offset="1" stop-color="#120026"/>
</linearGradient>
<linearGradient id="paint16_linear_694_22554" x1="1143.76" y1="-473.983" x2="1143.76" y2="354.991" gradientUnits="userSpaceOnUse">
<stop stop-color="#42E3B9"/>
<stop offset="1" stop-color="#120026"/>
</linearGradient>
<linearGradient id="paint17_linear_694_22554" x1="1143.76" y1="-480.929" x2="1143.76" y2="361.927" gradientUnits="userSpaceOnUse">
<stop stop-color="#42E3B9"/>
<stop offset="1" stop-color="#120026"/>
</linearGradient>
<linearGradient id="paint18_linear_694_22554" x1="1143.76" y1="-495.623" x2="1143.76" y2="376.634" gradientUnits="userSpaceOnUse">
<stop stop-color="#42E3B9"/>
<stop offset="1" stop-color="#120026"/>
</linearGradient>
<linearGradient id="paint19_linear_694_22554" x1="1143.75" y1="-519.712" x2="1143.75" y2="400.705" gradientUnits="userSpaceOnUse">
<stop stop-color="#42E3B9"/>
<stop offset="1" stop-color="#120026"/>
</linearGradient>
<linearGradient id="paint20_linear_694_22554" x1="1143.7" y1="-552.977" x2="1143.7" y2="434.013" gradientUnits="userSpaceOnUse">
<stop stop-color="#42E3B9"/>
<stop offset="1" stop-color="#120026"/>
</linearGradient>
<linearGradient id="paint21_linear_694_22554" x1="1143.74" y1="-594" x2="1143.74" y2="475" gradientUnits="userSpaceOnUse">
<stop stop-color="#42E3B9"/>
<stop offset="1" stop-color="#120026"/>
</linearGradient>
<clipPath id="clip0_694_22554">
<rect width="1604" height="210" fill="white"/>
</clipPath>
<clipPath id="clip1_694_22554">
<rect width="143.314" height="139.268" fill="white" transform="translate(856 97.1367)"/>
</clipPath>
</defs>
</svg>
