<svg width="24" height="22" viewBox="0 0 24 22" fill="none" xmlns="http://www.w3.org/2000/svg">
  <path fill-rule="evenodd" clip-rule="evenodd"
    d="M12 24C18.6274 24 24 18.6274 24 12C24 5.37258 18.6274 0 12 0C5.37258 0 0 5.37258 0 12C0 18.6274 5.37258 24 12 24ZM13.6895 7.5C14.5444 7.64712 15.3767 7.90756 16.1651 8.27467C17.5233 10.2944 18.1982 12.5723 17.949 15.2006C17.0313 15.8908 16.0035 16.4149 14.9108 16.75C14.6647 16.4142 14.4472 16.0577 14.2605 15.6844C14.6161 15.5493 14.9594 15.3825 15.2864 15.1862C15.2015 15.1277 15.1175 15.0624 15.0354 14.9943C14.0858 15.4484 13.0493 15.6839 12 15.6839C10.9506 15.6839 9.91419 15.4484 8.96459 14.9943C8.88342 15.0576 8.79942 15.1229 8.71353 15.1862C9.03988 15.3822 9.38256 15.5486 9.7376 15.6835C9.55067 16.0569 9.33313 16.4137 9.08729 16.75C7.99549 16.4135 6.9685 15.8892 6.05096 15.1997C5.83859 12.9333 6.26332 10.6342 7.8301 8.27659C8.6193 7.90942 9.45217 7.64836 10.3077 7.5C10.4246 7.71274 10.5305 7.93159 10.6248 8.15564C11.5355 8.01607 12.4616 8.01607 13.3723 8.15564C13.4666 7.93156 13.5725 7.71271 13.6895 7.5ZM8.92589 12.5877C8.92589 13.2596 9.4148 13.8058 10.0066 13.8058C10.6097 13.8058 11.076 13.2596 11.0863 12.5877C11.0967 11.9157 10.6116 11.3647 10.0047 11.3647C9.39781 11.3647 8.92589 11.9157 8.92589 12.5877ZM12.9136 12.5877C12.9136 13.2596 13.4006 13.8058 13.9934 13.8058C14.5965 13.8058 15.0618 13.2596 15.0722 12.5877C15.0826 11.9157 14.6012 11.3647 13.9934 11.3647C13.3855 11.3647 12.9136 11.9157 12.9136 12.5877Z"
    fill="currentColor"></path>
</svg>