<svg width="37" height="36" viewBox="0 0 37 36" fill="none" xmlns="http://www.w3.org/2000/svg">
<path d="M25.8506 25.35C29.9006 21.3 29.9006 14.55 25.8506 10.5" stroke="#231F20" stroke-width="1.5" stroke-miterlimit="10" stroke-linecap="round" stroke-linejoin="round"/>
<path d="M11.1508 10.6494C7.10078 14.6994 7.10078 21.4494 11.1508 25.4994" stroke="#231F20" stroke-width="1.5" stroke-miterlimit="10" stroke-linecap="round" stroke-linejoin="round"/>
<path d="M15.0498 20.4012C15.0498 21.7512 16.0998 22.8012 17.4498 22.8012H19.9998C21.0498 22.8012 22.0998 21.9012 22.0998 20.7012C22.0998 19.3512 21.4998 18.9012 20.7498 18.6012L16.5498 17.1012C15.4998 16.9512 15.0498 16.5012 15.0498 15.3012C15.0498 14.1012 15.9498 13.2012 17.1498 13.2012H19.8498C21.1998 13.2012 22.2498 14.2512 22.2498 15.6012" stroke="#231F20" stroke-width="1.5" stroke-linecap="round" stroke-linejoin="round"/>
<path d="M18.5 11.7012V24.3012" stroke="#231F20" stroke-width="1.5" stroke-linecap="round" stroke-linejoin="round"/>
<path d="M18.5 33C26.7843 33 33.5 26.2843 33.5 18C33.5 9.71573 26.7843 3 18.5 3C10.2157 3 3.5 9.71573 3.5 18C3.5 26.2843 10.2157 33 18.5 33Z" stroke="#231F20" stroke-width="1.5" stroke-miterlimit="10" stroke-linecap="round" stroke-linejoin="round"/>
</svg>
