<svg width="24" height="24" viewBox="0 0 24 24" fill="none" xmlns="http://www.w3.org/2000/svg">
<path d="M12.0348 0.130195V0.142017C12.0466 0.201131 12.0466 0.272066 12.0466 0.343002V8.86714C12.0348 8.91443 11.9993 8.92625 11.9639 8.9499C11.7156 9.06813 11.4792 9.17453 11.2309 9.28093C10.888 9.43463 10.5333 9.60015 10.1905 9.75384L8.9491 10.3213C8.60624 10.475 8.26339 10.6287 7.93235 10.7824C7.53038 10.9716 7.11659 11.1489 6.71462 11.3381C6.37176 11.4918 6.0289 11.6573 5.67422 11.811C5.39048 11.941 5.10674 12.0593 4.83482 12.1893C4.81117 12.2011 4.78753 12.213 4.76388 12.213C4.75206 12.213 4.75206 12.213 4.74023 12.2011L5.05945 11.6691C5.67422 10.6524 6.27718 9.64744 6.89196 8.63069C7.5422 7.543 8.20427 6.45532 8.85452 5.36763C9.45748 4.36271 10.0723 3.35778 10.6752 2.35285C11.1126 1.61985 11.5619 0.886845 11.9993 0.15384C12.0112 0.130195 12.023 0.118372 12.023 0.0947266H12.0348C12.023 0.106549 12.0348 0.118372 12.0348 0.130195Z" fill="#8A92B2"/>
<path d="M19.2945 12.2007L19.3063 12.2125L17.5684 13.2411L12.1063 16.4687C12.0827 16.4805 12.059 16.4923 12.0472 16.5041C12.0117 16.5041 12.0117 16.4687 12.0117 16.4569V16.3505V9.04405C12.0117 9.00858 12.0117 8.96129 12.0235 8.92582C12.0354 8.87853 12.0708 8.89035 12.1063 8.90218C12.26 8.97311 12.4255 9.04405 12.5792 9.11498C13.0403 9.32779 13.5014 9.5406 13.9625 9.74158C14.3644 9.91892 14.7546 10.1081 15.1565 10.2854C15.5585 10.4628 15.9605 10.6519 16.3625 10.8293C16.7053 10.983 17.06 11.1485 17.4029 11.3022C17.7457 11.4559 18.1004 11.6214 18.4432 11.7751C18.7152 11.8933 18.9871 12.0234 19.259 12.1416C19.259 12.1771 19.2708 12.1889 19.2945 12.2007Z" fill="#454A75"/>
<path d="M12.0348 23.8467C12.0348 23.8585 12.023 23.8704 12.023 23.8822H12.0112C12.0112 23.8585 11.9875 23.8467 11.9757 23.8231C11.2427 22.7945 10.5097 21.7541 9.77669 20.7255C9.03186 19.6733 8.27521 18.6093 7.53038 17.5571C6.8092 16.5403 6.0762 15.5117 5.35501 14.495C5.16585 14.2231 4.97669 13.963 4.78753 13.6911C4.7757 13.6674 4.76388 13.6556 4.74023 13.6201C4.7757 13.6201 4.79935 13.6438 4.81117 13.6556C5.83974 14.2585 6.85649 14.8615 7.88506 15.4645C9.06733 16.162 10.2378 16.8595 11.42 17.5571L12.023 17.9117C12.0466 17.9354 12.0466 17.959 12.0466 17.9827V23.6812C12.0466 23.7403 12.0466 23.7994 12.0348 23.8467Z" fill="#8A92B2"/>
<path d="M4.72852 12.2246V12.2128C5.10684 12.0473 5.47334 11.8699 5.85167 11.7044C6.3364 11.4798 6.82113 11.267 7.30586 11.0423C7.67236 10.8768 8.05068 10.6995 8.41719 10.534C8.96103 10.2857 9.49305 10.0492 10.0369 9.80097C10.4034 9.63545 10.7699 9.46994 11.1482 9.2926C11.4083 9.17437 11.6802 9.05614 11.9403 8.93792C11.964 8.92609 11.9995 8.91427 12.0113 8.89062C12.0231 8.89062 12.0231 8.90245 12.0113 8.91427V16.4217C12.0113 16.4571 11.9995 16.4926 12.0231 16.5162C11.9995 16.5517 11.9758 16.5162 11.964 16.5044C11.8576 16.4453 11.7512 16.3862 11.6448 16.3153C9.363 14.9675 7.0694 13.6079 4.78763 12.2601C4.77581 12.2483 4.75216 12.2364 4.72852 12.2246Z" fill="#62688F"/>
<path d="M19.2707 13.6201H19.2826C19.2826 13.6438 19.2589 13.6674 19.2471 13.6911C17.0717 16.7531 14.8963 19.827 12.721 22.8891C12.4963 23.2083 12.2599 23.5275 12.0353 23.8467C12.0234 23.8349 12.0234 23.8231 12.0234 23.8113V23.7403V18.0063V17.8999C12.52 17.6044 13.0047 17.3206 13.5013 17.025C15.4165 15.8901 17.3318 14.7669 19.2353 13.6319C19.2471 13.6438 19.2589 13.6319 19.2707 13.6201Z" fill="#62688F"/>
<path d="M12.0236 8.91402V8.89037V8.81943V0.236183C12.0236 0.200715 12.0118 0.17707 12.0355 0.141602C14.4355 4.12584 16.8355 8.09825 19.2236 12.0825C19.2473 12.118 19.2828 12.1652 19.2946 12.2125C19.1291 12.1534 18.9754 12.0707 18.8217 11.9997C18.6325 11.917 18.4315 11.8224 18.2424 11.7396C18.1241 11.6805 17.9941 11.6332 17.8759 11.5741C17.6749 11.4795 17.4739 11.3968 17.2729 11.3022C17.1547 11.2549 17.0365 11.1958 16.9182 11.1367L16.1379 10.782C16.0079 10.7229 15.8778 10.6638 15.736 10.6047L15.1685 10.3564C15.0502 10.3091 14.932 10.25 14.8138 10.1909L14.0335 9.83618C13.9034 9.77707 13.7734 9.71796 13.6315 9.65884L13.064 9.41057C12.934 9.35145 12.8158 9.29234 12.6857 9.23323C12.4611 9.12682 12.2365 9.02042 12 8.92584C12.0355 8.91402 12.0236 8.91402 12.0236 8.91402Z" fill="#62688F"/>
</svg>
