<svg width="24" height="38" viewBox="0 0 24 38" fill="none" xmlns="http://www.w3.org/2000/svg">
<path d="M8.79329 2.48059L1.89309 11.0782C0.324869 13.0338 0.87836 15.543 3.11078 16.65L9.99252 20.1001C10.8966 20.5429 12.3725 20.5429 13.2766 20.1001L20.1583 16.65C22.3907 15.5245 22.9442 13.0154 21.376 11.0782L14.4942 2.48059C12.9445 0.50647 10.3615 0.50647 8.79329 2.48059Z" stroke="#17191C" stroke-width="1.5" stroke-miterlimit="10" stroke-linecap="round" stroke-linejoin="round"/>
<path d="M11.6533 1.0968V10.8014" stroke="#17191C" stroke-width="1.5" stroke-miterlimit="10" stroke-linecap="round" stroke-linejoin="round"/>
<path d="M3.9043 16.6131L11.6532 10.8014L19.4021 16.6131" stroke="#17191C" stroke-width="1.5" stroke-miterlimit="10" stroke-linecap="round" stroke-linejoin="round"/>
<path d="M5.6944 23.4763L8.6648 24.8047C10.5651 25.6534 12.7422 25.6534 14.661 24.8047L17.6314 23.4763C20.2881 22.2956 22.7419 25.5058 20.897 27.7567L14.5134 35.5609C12.9451 37.4797 10.3806 37.4797 8.79395 35.5609L2.4288 27.7567C0.565377 25.5058 3.01919 22.2956 5.6944 23.4763Z" stroke="#17191C" stroke-width="1.5" stroke-miterlimit="10" stroke-linecap="round" stroke-linejoin="round"/>
</svg>
