<svg width="68" height="18" viewBox="0 0 68 18" fill="none" xmlns="http://www.w3.org/2000/svg">
<rect width="68" height="18" rx="9" fill="#6680E3"/>
<circle cx="20" cy="9" r="8" fill="#6680E3"/>
<path d="M20.0184 3.06461V3.07052C20.0243 3.10008 20.0243 3.13554 20.0243 3.17101V7.43308C20.0184 7.45673 20.0007 7.46264 19.9829 7.47446C19.8588 7.53358 19.7406 7.58678 19.6164 7.63998C19.445 7.71683 19.2676 7.79958 19.0962 7.87643L18.4755 8.16018C18.3041 8.23702 18.1327 8.31387 17.9672 8.39072C17.7662 8.4853 17.5593 8.57397 17.3583 8.66855C17.1869 8.7454 17.0154 8.82816 16.8381 8.905C16.6962 8.97003 16.5543 9.02914 16.4184 9.09417C16.4066 9.10008 16.3947 9.10599 16.3829 9.10599C16.377 9.10599 16.377 9.10599 16.3711 9.10008L16.5307 8.83407C16.8381 8.32569 17.1396 7.82323 17.447 7.31486C17.7721 6.77101 18.1031 6.22717 18.4282 5.68333C18.7297 5.18087 19.0371 4.6784 19.3386 4.17594C19.5573 3.80944 19.7819 3.44293 20.0007 3.07643C20.0066 3.06461 20.0125 3.0587 20.0125 3.04688H20.0184C20.0125 3.05279 20.0184 3.0587 20.0184 3.06461Z" fill="white"/>
<path d="M23.6472 9.09986L23.6532 9.10577L22.7842 9.62006L20.0532 11.2339C20.0413 11.2398 20.0295 11.2457 20.0236 11.2516C20.0059 11.2516 20.0059 11.2339 20.0059 11.2279V11.1747V7.52154C20.0059 7.5038 20.0059 7.48016 20.0118 7.46242C20.0177 7.43878 20.0354 7.44469 20.0532 7.4506C20.13 7.48607 20.2128 7.52154 20.2896 7.557C20.5201 7.66341 20.7507 7.76981 20.9812 7.8703C21.1822 7.95897 21.3773 8.05356 21.5783 8.14223C21.7793 8.2309 21.9802 8.32548 22.1812 8.41415C22.3527 8.49099 22.53 8.57375 22.7014 8.6506C22.8729 8.72745 23.0502 8.81021 23.2216 8.88705C23.3576 8.94617 23.4935 9.01119 23.6295 9.0703C23.6295 9.08804 23.6354 9.09395 23.6472 9.09986Z" fill="#8499E8"/>
<path d="M20.0184 14.9219C20.0184 14.9278 20.0125 14.9337 20.0125 14.9396H20.0066C20.0066 14.9278 19.9947 14.9219 19.9888 14.9101C19.6223 14.3958 19.2558 13.8756 18.8893 13.3613C18.5169 12.8352 18.1386 12.3032 17.7662 11.7771C17.4056 11.2687 17.0391 10.7544 16.6785 10.246C16.5839 10.1101 16.4893 9.98002 16.3947 9.84406C16.3888 9.83224 16.3829 9.82633 16.3711 9.80859C16.3888 9.80859 16.4007 9.82042 16.4066 9.82633C16.9208 10.1278 17.4292 10.4293 17.9435 10.7308C18.5346 11.0795 19.1199 11.4283 19.711 11.7771L20.0125 11.9544C20.0243 11.9662 20.0243 11.9781 20.0243 11.9899V14.8391C20.0243 14.8687 20.0243 14.8982 20.0184 14.9219Z" fill="white"/>
<path d="M16.3652 9.11231V9.1064C16.5544 9.02364 16.7376 8.93497 16.9268 8.85221C17.1692 8.73989 17.4115 8.63349 17.6539 8.52117C17.8372 8.43842 18.0263 8.34975 18.2096 8.26699C18.4815 8.14285 18.7475 8.02462 19.0194 7.90048C19.2027 7.81773 19.3859 7.73497 19.5751 7.6463C19.7051 7.58718 19.8411 7.52807 19.9711 7.46896C19.983 7.46305 20.0007 7.45714 20.0066 7.44531C20.0125 7.44531 20.0125 7.45122 20.0066 7.45714V11.2108C20.0066 11.2286 20.0007 11.2463 20.0125 11.2581C20.0007 11.2759 19.9889 11.2581 19.983 11.2522C19.9298 11.2227 19.8766 11.1931 19.8234 11.1576C18.6825 10.4837 17.5357 9.80393 16.3948 9.13004C16.3889 9.12413 16.3771 9.11822 16.3652 9.11231Z" fill="#C3CCF3"/>
<path d="M23.6354 9.80859H23.6413C23.6413 9.82042 23.6295 9.83224 23.6235 9.84406C22.5359 11.3751 21.4482 12.912 20.3605 14.4431C20.2482 14.6027 20.1299 14.7623 20.0176 14.9219C20.0117 14.916 20.0117 14.9101 20.0117 14.9042V14.8687V12.0017V11.9485C20.26 11.8007 20.5024 11.6588 20.7506 11.5111C21.7083 10.9436 22.6659 10.382 23.6176 9.81451C23.6235 9.82042 23.6295 9.81451 23.6354 9.80859Z" fill="#C3CCF3"/>
<path d="M20.0118 7.45652V7.4447V7.40923V3.1176C20.0118 3.09987 20.0059 3.08805 20.0177 3.07031C21.2177 5.06243 22.4177 7.04864 23.6118 9.04076C23.6236 9.05849 23.6414 9.08214 23.6473 9.10578C23.5645 9.07622 23.4877 9.03484 23.4108 8.99938C23.3163 8.958 23.2158 8.91071 23.1212 8.86933C23.0621 8.83977 22.997 8.81613 22.9379 8.78657C22.8374 8.73928 22.7369 8.6979 22.6365 8.65061C22.5773 8.62696 22.5182 8.59741 22.4591 8.56785L22.069 8.39051C22.0039 8.36095 21.9389 8.3314 21.868 8.30184L21.5842 8.1777C21.5251 8.15406 21.466 8.1245 21.4069 8.09494L21.0167 7.9176C20.9517 7.88805 20.8867 7.85849 20.8158 7.82893L20.532 7.7048C20.467 7.67524 20.4079 7.64568 20.3429 7.61613C20.2305 7.56292 20.1182 7.50972 20 7.46243C20.0177 7.45652 20.0118 7.45652 20.0118 7.45652Z" fill="#C3CCF3"/>
<path d="M33.1322 13V4.27273H38.6038V5.40625H34.449V8.06534H38.3183V9.1946H34.449V11.8665H38.655V13H33.1322ZM39.7823 5.40625V4.27273H46.5366V5.40625H43.8136V13H42.5011V5.40625H39.7823ZM47.8791 13V4.27273H49.1959V8.06534H53.5467V4.27273H54.8678V13H53.5467V9.1946H49.1959V13H47.8791Z" fill="white"/>
</svg>
