<svg width="36" height="36" viewBox="0 0 36 36" fill="none" xmlns="http://www.w3.org/2000/svg">
<g clip-path="url(#clip0_1056_35713)">
<rect width="36" height="36" rx="6" fill="#4D59E8"/>
<path d="M17.9987 24V24.0527M15 14.3067C15 12.6185 16.3431 11.25 18 11.25C19.6569 11.25 21 12.6185 21 14.3067C21 15.9948 19.6569 17.3633 18 17.3633C18 17.3633 17.9987 18.2757 17.9987 19.4011M30 18C30 24.6274 24.6274 30 18 30C11.3726 30 6 24.6274 6 18C6 11.3726 11.3726 6 18 6C24.6274 6 30 11.3726 30 18Z" stroke="#F0F0F5" stroke-width="2" stroke-linecap="round" stroke-linejoin="round"/>
</g>
<defs>
<clipPath id="clip0_1056_35713">
<rect width="36" height="36" rx="6" fill="white"/>
</clipPath>
</defs>
</svg>
