<svg width="18" height="18" viewBox="0 0 18 18" fill="none" xmlns="http://www.w3.org/2000/svg">
<circle cx="9" cy="9" r="9" fill="#340C7E"/>
<path d="M11.6301 4.31818H13.1713V11.0149C13.1713 11.7275 13.0039 12.3589 12.6691 12.9091C12.3344 13.456 11.8637 13.8868 11.2572 14.2017C10.6507 14.5133 9.93972 14.669 9.12438 14.669C8.31235 14.669 7.60307 14.5133 6.99654 14.2017C6.39 13.8868 5.91936 13.456 5.58461 12.9091C5.24985 12.3589 5.08248 11.7275 5.08248 11.0149V4.31818H6.6187V10.8906C6.6187 11.3513 6.71979 11.7607 6.92196 12.1186C7.12746 12.4766 7.41747 12.7583 7.79199 12.9638C8.16652 13.166 8.61065 13.267 9.12438 13.267C9.64142 13.267 10.0872 13.166 10.4617 12.9638C10.8396 12.7583 11.1279 12.4766 11.3268 12.1186C11.529 11.7607 11.6301 11.3513 11.6301 10.8906V4.31818Z" fill="white"/>
</svg>
