<svg width="80" height="77" viewBox="0 0 80 77" fill="none" xmlns="http://www.w3.org/2000/svg">
<rect width="64" height="64" rx="8" fill="#676D9A" fill-opacity="0.1"/>
<rect x="0.5" y="0.5" width="63" height="63" rx="7.5" stroke="#676D9A" stroke-opacity="0.3"/>
<path d="M26.7888 29.7238L24.2402 34.9185H36.3209L39.0203 29.7236L26.7888 29.7238Z" fill="#F0F0F5"/>
<path d="M42.9881 39.0713L41.5884 41.7865H16.5231L13.9771 46.9814H38.9858L38.9908 46.9721L49.2874 46.9627L42.9881 39.0713Z" fill="#F0F0F5"/>
<path d="M24.3503 17.6562L13.9832 17.6656L20.2823 25.5568L21.6727 22.8559H46.5782L49.2794 17.6609H24.3456L24.3503 17.6562Z" fill="#F0F0F5"/>
<path d="M48 61C48 69.8367 55.1632 77 63.9998 77C72.8364 77 80 69.8365 80 61C80 52.1634 72.8364 45 63.9998 45C55.1632 45 48 52.1633 48 61Z" fill="#040214"/>
<path d="M51.5242 61.0002C51.5242 67.8905 57.1097 73.476 63.9999 73.476C70.8902 73.476 76.4761 67.8903 76.4761 61.0002C76.4761 54.1099 70.8902 48.5244 63.9999 48.5244C57.1097 48.5244 51.5242 54.1099 51.5242 61.0002Z" fill="#0C0C4F"/>
<path fill-rule="evenodd" clip-rule="evenodd" d="M51.2 61C51.2 53.9308 56.9305 48.2002 63.9998 48.2002C71.069 48.2002 76.8 53.9308 76.8 61C76.8 68.0691 71.069 73.7999 63.9998 73.7999C56.9305 73.7999 51.2 68.0693 51.2 61ZM63.9998 48.8483C57.2885 48.8483 51.8481 54.2887 51.8481 61C51.8481 67.7114 57.2885 73.1518 63.9998 73.1518C70.7111 73.1518 76.1519 67.7112 76.1519 61C76.1519 54.2888 70.7111 48.8483 63.9998 48.8483Z" fill="#EC796B"/>
<path fill-rule="evenodd" clip-rule="evenodd" d="M58.3541 57.9842L58.6701 57.0081C58.7343 56.8095 58.891 56.655 59.0903 56.5941L60.0712 56.2925C60.207 56.251 60.2081 56.0594 60.0734 56.0158L59.0969 55.6998C58.8987 55.6356 58.7442 55.4789 58.6829 55.2796L58.3816 54.2986C58.3402 54.1632 58.1486 54.1617 58.1049 54.2968L57.789 55.273C57.7247 55.4711 57.568 55.6256 57.3688 55.6869L56.3878 55.9882C56.252 56.0301 56.2506 56.2213 56.3856 56.2649L57.3622 56.5809C57.5603 56.6451 57.7148 56.8022 57.7761 57.0015L58.0774 57.982C58.1189 58.1178 58.3104 58.1193 58.3541 57.9842Z" fill="#FAFAFA"/>
<path fill-rule="evenodd" clip-rule="evenodd" d="M73.8592 57.4162C73.4547 56.964 72.8237 56.7094 72.2101 56.605C71.5916 56.5047 70.943 56.514 70.3325 56.6225C69.0971 56.8315 67.9747 57.343 66.9958 57.9741C66.4874 58.2838 66.0539 58.6422 65.6048 59.0072C65.3884 59.1917 65.1911 59.3883 64.9856 59.5821L64.4241 60.1407C63.8141 60.7784 63.2128 61.3592 62.631 61.8406C62.0468 62.3198 61.5007 62.6838 60.9625 62.938C60.4246 63.1934 59.8491 63.3437 59.0989 63.3677C58.3553 63.394 57.4756 63.2598 56.5346 63.0383C55.5885 62.8177 54.595 62.5034 53.4849 62.2329C53.8722 63.3075 54.4556 64.2572 55.2045 65.1254C55.9622 65.9785 56.9083 66.7559 58.1238 67.2672C59.3217 67.7899 60.8271 67.9775 62.2347 67.6945C63.646 67.4228 64.8845 66.7698 65.8856 66.0144C66.8892 65.2515 67.7012 64.3823 68.3858 63.4787C68.5747 63.2291 68.6747 63.0894 68.8114 62.8943L69.1894 62.3344C69.4521 61.9881 69.6912 61.5938 69.9511 61.2506C70.4608 60.532 70.9634 59.8142 71.5474 59.1529C71.8413 58.8175 72.1512 58.4967 72.5171 58.1884C72.6995 58.0379 72.8967 57.8906 73.1151 57.758C73.3368 57.6149 73.5709 57.5028 73.8592 57.4162Z" fill="#EC796B"/>
<path fill-rule="evenodd" clip-rule="evenodd" d="M73.8592 57.4161C73.4248 56.3199 72.6171 55.3971 71.533 54.7161C70.4555 54.0426 68.959 53.6989 67.476 53.9919C66.7434 54.1336 66.0337 54.4064 65.4108 54.7697C64.7908 55.1315 64.2352 55.567 63.7542 56.0343C63.514 56.2687 63.2961 56.5132 63.0795 56.7592L62.5183 57.4747L61.6515 58.6265C60.5464 60.1085 59.3564 61.8452 57.4036 62.3598C55.4865 62.865 54.655 62.4176 53.4849 62.2328C53.6988 62.7851 53.9638 63.3215 54.3231 63.7934C54.6757 64.2749 55.0922 64.7271 55.6099 65.1148C55.8716 65.3009 56.1478 65.4847 56.4546 65.6406C56.7601 65.7911 57.0894 65.9236 57.441 66.0233C58.1403 66.2149 58.9276 66.2822 59.6899 66.179C60.4525 66.0772 61.1815 65.8356 61.8187 65.5147C62.4605 65.1966 63.0197 64.8094 63.519 64.4008C64.5114 63.5765 65.2834 62.6658 65.9355 61.7453C66.2635 61.2851 66.5613 60.8161 66.8366 60.3471L67.1607 59.7886C67.2598 59.6254 67.36 59.4611 67.4617 59.3082C67.8725 58.6936 68.2741 58.2009 68.762 57.831C69.2431 57.4516 69.913 57.1712 70.8082 57.1061C71.6997 57.0402 72.7289 57.1619 73.8592 57.4161Z" fill="#FAFAFA"/>
<path fill-rule="evenodd" clip-rule="evenodd" d="M69.0359 66.5246C69.0359 67.3299 69.689 67.9829 70.4941 67.9829C71.2994 67.9829 71.9515 67.3299 71.9515 66.5246C71.9515 65.7195 71.2994 65.0664 70.4941 65.0664C69.689 65.0664 69.0359 65.7195 69.0359 66.5246Z" fill="#EC796B"/>
</svg>
