<svg width="98" height="18" viewBox="0 0 98 18" fill="none" xmlns="http://www.w3.org/2000/svg">
<rect width="98" height="18" rx="9" fill="#2AAAFD"/>
<circle cx="20" cy="9" r="8" fill="#6681E3"/>
<circle cx="20" cy="9" r="8" fill="#2AAAFD"/>
<path d="M18.4961 8.29301L17.8008 9.71018H21.0965L21.8329 8.29297L18.4961 8.29301Z" fill="#E6EDF3"/>
<path d="M22.9144 10.8438L22.5326 11.5845H15.6946L15 13.0017H21.8226L21.8239 12.9991L24.6329 12.9966L22.9144 10.8438Z" fill="#E6EDF3"/>
<path d="M17.8302 5L15.002 5.00254L16.7204 7.15532L17.0997 6.41849H23.8942L24.631 5.00127H17.8289L17.8302 5Z" fill="#E6EDF3"/>
<path d="M36.5067 4.27273H37.8192V10.4602C37.8192 11.0199 37.7084 11.4986 37.4868 11.8963C37.2681 12.294 36.9598 12.598 36.5621 12.8082C36.1644 13.0156 35.6985 13.1193 35.1644 13.1193C34.6729 13.1193 34.2311 13.0298 33.8391 12.8509C33.4499 12.6719 33.1417 12.4119 32.9144 12.071C32.6899 11.7273 32.5777 11.3097 32.5777 10.8182H33.886C33.886 11.0597 33.9414 11.2685 34.0522 11.4446C34.1658 11.6207 34.3206 11.7585 34.5167 11.858C34.7155 11.9545 34.9428 12.0028 35.1985 12.0028C35.4769 12.0028 35.7127 11.9446 35.9059 11.8281C36.1019 11.7088 36.251 11.5341 36.3533 11.304C36.4556 11.0739 36.5067 10.7926 36.5067 10.4602V4.27273ZM42.3045 13.1321C41.6596 13.1321 41.1042 12.9943 40.6383 12.7188C40.1752 12.4403 39.8173 12.0497 39.5645 11.5469C39.3145 11.0412 39.1895 10.4489 39.1895 9.76989C39.1895 9.09943 39.3145 8.50852 39.5645 7.99716C39.8173 7.4858 40.1696 7.08665 40.6213 6.79972C41.0758 6.51278 41.6071 6.36932 42.215 6.36932C42.5843 6.36932 42.9423 6.4304 43.2889 6.55256C43.6355 6.67472 43.9466 6.86648 44.2221 7.12784C44.4977 7.3892 44.715 7.72869 44.8741 8.14631C45.0332 8.56108 45.1127 9.06534 45.1127 9.65909V10.1108H39.9096V9.15625H43.8642C43.8642 8.82102 43.796 8.52415 43.6596 8.26562C43.5233 8.00426 43.3315 7.7983 43.0843 7.64773C42.84 7.49716 42.5531 7.42188 42.2235 7.42188C41.8656 7.42188 41.5531 7.50994 41.286 7.68608C41.0218 7.85937 40.8173 8.08665 40.6724 8.3679C40.5304 8.64631 40.4593 8.94886 40.4593 9.27557V10.0213C40.4593 10.4588 40.536 10.831 40.6895 11.1378C40.8457 11.4446 41.063 11.679 41.3414 11.8409C41.6199 12 41.9451 12.0795 42.3173 12.0795C42.5588 12.0795 42.7789 12.0455 42.9778 11.9773C43.1767 11.9062 43.3485 11.8011 43.4934 11.6619C43.6383 11.5227 43.7491 11.3509 43.8258 11.1463L45.0318 11.3636C44.9352 11.7187 44.7619 12.0298 44.5119 12.2969C44.2647 12.5611 43.9537 12.767 43.5787 12.9148C43.2065 13.0597 42.7818 13.1321 42.3045 13.1321ZM48.8267 13.1278C48.2983 13.1278 47.8267 12.9929 47.412 12.723C47 12.4503 46.6762 12.0625 46.4404 11.5597C46.2074 11.054 46.0909 10.4474 46.0909 9.74006C46.0909 9.03267 46.2088 8.42756 46.4446 7.92472C46.6833 7.42187 47.01 7.03693 47.4248 6.76989C47.8395 6.50284 48.3097 6.36932 48.8353 6.36932C49.2415 6.36932 49.5682 6.4375 49.8154 6.57386C50.0654 6.70739 50.2586 6.86364 50.3949 7.04261C50.5341 7.22159 50.6421 7.37926 50.7188 7.51562H50.7955V4.27273H52.0696V13H50.8253V11.9815H50.7188C50.6421 12.1207 50.5313 12.2798 50.3864 12.4588C50.2444 12.6378 50.0483 12.794 49.7983 12.9276C49.5483 13.0611 49.2245 13.1278 48.8267 13.1278ZM49.108 12.0412C49.4745 12.0412 49.7841 11.9446 50.037 11.7514C50.2926 11.5554 50.4858 11.2841 50.6165 10.9375C50.75 10.5909 50.8168 10.1875 50.8168 9.72727C50.8168 9.27273 50.7515 8.875 50.6208 8.53409C50.4901 8.19318 50.2983 7.92756 50.0455 7.73722C49.7926 7.54687 49.4801 7.4517 49.108 7.4517C48.7245 7.4517 48.4049 7.55114 48.1492 7.75C47.8935 7.94886 47.7003 8.22017 47.5696 8.56392C47.4418 8.90767 47.3779 9.29545 47.3779 9.72727C47.3779 10.1648 47.4432 10.5582 47.5739 10.9077C47.7046 11.2571 47.8978 11.5341 48.1534 11.7386C48.412 11.9403 48.7301 12.0412 49.108 12.0412ZM53.7382 13V6.45455H55.0123V13H53.7382ZM54.3816 5.4446C54.16 5.4446 53.9697 5.37074 53.8106 5.22301C53.6544 5.07244 53.5762 4.89347 53.5762 4.68608C53.5762 4.47585 53.6544 4.29687 53.8106 4.14915C53.9697 3.99858 54.16 3.9233 54.3816 3.9233C54.6032 3.9233 54.7922 3.99858 54.9484 4.14915C55.1075 4.29687 55.187 4.47585 55.187 4.68608C55.187 4.89347 55.1075 5.07244 54.9484 5.22301C54.7922 5.37074 54.6032 5.4446 54.3816 5.4446ZM61.4813 8.05256L60.3265 8.2571C60.2782 8.10937 60.2015 7.96875 60.0963 7.83523C59.9941 7.7017 59.8549 7.59233 59.6787 7.5071C59.5026 7.42187 59.2824 7.37926 59.0182 7.37926C58.6574 7.37926 58.3563 7.46023 58.1148 7.62216C57.8733 7.78125 57.7526 7.98722 57.7526 8.24006C57.7526 8.45881 57.8336 8.63494 57.9955 8.76847C58.1574 8.90199 58.4188 9.01136 58.7796 9.09659L59.8194 9.33523C60.4216 9.47443 60.8705 9.68892 61.1659 9.97869C61.4614 10.2685 61.6091 10.6449 61.6091 11.108C61.6091 11.5 61.4955 11.8494 61.2682 12.1562C61.0438 12.4602 60.7299 12.6989 60.3265 12.8722C59.9259 13.0455 59.4614 13.1321 58.933 13.1321C58.2 13.1321 57.602 12.9759 57.139 12.6634C56.6759 12.348 56.3918 11.9006 56.2867 11.321L57.5182 11.1335C57.5949 11.4545 57.7526 11.6974 57.9912 11.8622C58.2299 12.0241 58.5409 12.1051 58.9245 12.1051C59.3421 12.1051 59.6759 12.0185 59.9259 11.8452C60.1759 11.669 60.3009 11.4545 60.3009 11.2017C60.3009 10.9972 60.2242 10.8253 60.0708 10.6861C59.9202 10.5469 59.6887 10.4418 59.3762 10.3707L58.2682 10.1278C57.6574 9.98864 57.2057 9.76705 56.9131 9.46307C56.6233 9.15909 56.4784 8.77415 56.4784 8.30824C56.4784 7.92187 56.5864 7.58381 56.8023 7.29403C57.0182 7.00426 57.3165 6.77841 57.6972 6.61648C58.0779 6.4517 58.514 6.36932 59.0054 6.36932C59.7128 6.36932 60.2696 6.52273 60.6759 6.82955C61.0821 7.13352 61.3506 7.54119 61.4813 8.05256ZM64.2791 13L62.3529 6.45455H63.6697L64.9524 11.2614H65.0163L66.3032 6.45455H67.62L68.8984 11.2401H68.9623L70.2365 6.45455H71.5532L69.6314 13H68.3316L67.0021 8.27415H66.9041L65.5745 13H64.2791ZM74.5172 13.1449C74.1025 13.1449 73.7275 13.0682 73.3922 12.9148C73.057 12.7585 72.7914 12.5327 72.5953 12.2372C72.4022 11.9418 72.3056 11.5795 72.3056 11.1506C72.3056 10.7812 72.3766 10.4773 72.5186 10.2386C72.6607 10 72.8525 9.81108 73.0939 9.67188C73.3354 9.53267 73.6053 9.42756 73.9036 9.35653C74.2019 9.28551 74.5059 9.23153 74.8155 9.1946C75.2076 9.14915 75.5257 9.11222 75.7701 9.08381C76.0144 9.05256 76.1919 9.00284 76.3027 8.93466C76.4135 8.86648 76.4689 8.75568 76.4689 8.60227V8.57244C76.4689 8.20028 76.3638 7.91193 76.1536 7.70739C75.9462 7.50284 75.6365 7.40057 75.2246 7.40057C74.7956 7.40057 74.4576 7.49574 74.2104 7.68608C73.9661 7.87358 73.7971 8.08239 73.7033 8.3125L72.5059 8.03977C72.6479 7.64205 72.8553 7.32102 73.128 7.0767C73.4036 6.82955 73.7203 6.65057 74.0783 6.53977C74.4363 6.42614 74.8127 6.36932 75.2076 6.36932C75.4689 6.36932 75.7459 6.40057 76.0385 6.46307C76.334 6.52273 76.6096 6.63352 76.8652 6.79545C77.1238 6.95739 77.3354 7.18892 77.5002 7.49006C77.665 7.78835 77.7473 8.17614 77.7473 8.65341V13H76.503V12.1051H76.4519C76.3695 12.2699 76.2459 12.4318 76.0811 12.5909C75.9164 12.75 75.7047 12.8821 75.4462 12.9872C75.1877 13.0923 74.878 13.1449 74.5172 13.1449ZM74.7942 12.1222C75.1465 12.1222 75.4476 12.0526 75.6976 11.9134C75.9505 11.7741 76.1422 11.5923 76.2729 11.3679C76.4064 11.1406 76.4732 10.8977 76.4732 10.6392V9.79545C76.4277 9.84091 76.3397 9.88352 76.209 9.9233C76.0811 9.96023 75.9348 9.9929 75.7701 10.0213C75.6053 10.0469 75.4448 10.071 75.2885 10.0938C75.1323 10.1136 75.0016 10.1307 74.8965 10.1449C74.6493 10.1761 74.4235 10.2287 74.2189 10.3026C74.0172 10.3764 73.8553 10.483 73.7331 10.6222C73.6138 10.7585 73.5542 10.9403 73.5542 11.1676C73.5542 11.483 73.6706 11.7216 73.9036 11.8835C74.1365 12.0426 74.4334 12.1222 74.7942 12.1222ZM79.2944 15.4545V6.45455H80.5387V7.51562H80.6453C80.7191 7.37926 80.8257 7.22159 80.9649 7.04261C81.1041 6.86364 81.2973 6.70739 81.5444 6.57386C81.7916 6.4375 82.1183 6.36932 82.5245 6.36932C83.0529 6.36932 83.5245 6.50284 83.9393 6.76989C84.3541 7.03693 84.6794 7.42187 84.9152 7.92472C85.1538 8.42756 85.2731 9.03267 85.2731 9.74006C85.2731 10.4474 85.1552 11.054 84.9194 11.5597C84.6836 12.0625 84.3598 12.4503 83.9478 12.723C83.5359 12.9929 83.0657 13.1278 82.5373 13.1278C82.1396 13.1278 81.8143 13.0611 81.5615 12.9276C81.3115 12.794 81.1154 12.6378 80.9734 12.4588C80.8314 12.2798 80.722 12.1207 80.6453 11.9815H80.5686V15.4545H79.2944ZM80.543 9.72727C80.543 10.1875 80.6098 10.5909 80.7433 10.9375C80.8768 11.2841 81.07 11.5554 81.3228 11.7514C81.5757 11.9446 81.8853 12.0412 82.2518 12.0412C82.6325 12.0412 82.9507 11.9403 83.2064 11.7386C83.462 11.5341 83.6552 11.2571 83.7859 10.9077C83.9194 10.5582 83.9862 10.1648 83.9862 9.72727C83.9862 9.29545 83.9208 8.90767 83.7902 8.56392C83.6623 8.22017 83.4691 7.94886 83.2106 7.75C82.9549 7.55114 82.6353 7.4517 82.2518 7.4517C81.8825 7.4517 81.57 7.54687 81.3143 7.73722C81.0615 7.92756 80.8697 8.19318 80.739 8.53409C80.6083 8.875 80.543 9.27273 80.543 9.72727Z" fill="white"/>
</svg>
