<svg width="200" height="20" viewBox="0 0 200 20" fill="none" xmlns="http://www.w3.org/2000/svg">
<path d="M8.73817 8.23057L7 11.7734H15.2391L17.0801 8.23047L8.73817 8.23057Z" fill="#2AAAFD"/>
<path d="M19.7857 14.6055L18.8311 16.4573H1.73643L0 20.0002H17.0561L17.0595 19.9938L24.0819 19.9874L19.7857 14.6055Z" fill="#2AAAFD"/>
<path d="M7.07436 0L0.00390625 0.00635984L4.29997 5.3882L5.24825 3.54617H22.234L24.0762 0.00317992H7.0712L7.07436 0Z" fill="#2AAAFD"/>
<path d="M38.6948 0.0322266H46.0014L44.2282 10.0772C43.9022 11.8942 43.3518 13.4356 42.5774 14.7016C41.8232 15.947 40.8756 16.9678 39.7342 17.764C38.5928 18.5398 37.2682 19.1116 35.7598 19.479C34.2516 19.826 32.6008 19.9996 30.8073 19.9996H27.2305L28.3005 13.9972H32.5192C33.9256 13.895 34.9548 13.5174 35.607 12.864C36.2796 12.1902 36.7178 11.2612 36.9216 10.0772L38.6948 0.0322266Z" fill="url(#paint0_linear_2867_100863)"/>
<path d="M63.7228 12.6496H53.3284L53.1142 13.9972H64.3342L63.2642 19.9996H44.7988L48.3146 0.0322266H66.7797L65.7097 6.03468H54.49L54.276 7.38218H64.6704L63.7228 12.6496Z" fill="url(#paint1_linear_2867_100863)"/>
<path d="M75.281 6.03468H79.9584C80.6718 6.03468 81.161 6.19802 81.426 6.52468C81.7112 6.85136 81.854 7.2801 81.854 7.81094C81.854 8.17843 81.8234 8.55613 81.7622 8.94405L81.3648 11.1184C81.3036 11.5062 81.212 11.8738 81.0896 12.2208C80.9878 12.568 80.8246 12.8742 80.6004 13.1396C80.3966 13.405 80.1318 13.6194 79.8056 13.7828C79.4796 13.9256 79.072 13.9972 78.5828 13.9972H73.9052L75.281 6.03468ZM65.5898 19.9996H81.4564C82.0476 19.9996 82.6998 19.826 83.413 19.479C84.1468 19.132 84.8398 18.693 85.492 18.1622C86.1442 17.6108 86.7046 16.9984 87.1734 16.3246C87.6626 15.6508 87.9682 14.9874 88.0906 14.334L89.5886 5.69782C89.609 5.59574 89.6192 5.50387 89.6192 5.42219C89.6396 5.32011 89.6498 5.21803 89.6498 5.11595C89.6498 4.50345 89.507 3.90115 89.2218 3.30907C88.9364 2.69658 88.5594 2.14534 88.0906 1.65534C87.6422 1.16534 87.1428 0.777423 86.5926 0.491585C86.0422 0.185346 85.5022 0.0322266 84.9722 0.0322266H69.1056L65.5898 19.9996Z" fill="url(#paint2_linear_2867_100863)"/>
<path d="M96.6438 19.9996L100.16 0.0322266H92.914L89.3984 19.9996H96.6438Z" fill="url(#paint3_linear_2867_100863)"/>
<path d="M98.9648 19.9996H113.578C114.149 19.9996 114.689 19.8976 115.198 19.6934C115.728 19.4892 116.197 19.2034 116.605 18.8358C117.012 18.4684 117.359 18.0396 117.644 17.5496C117.929 17.0596 118.123 16.5186 118.225 15.9266C118.286 15.5386 118.317 15.1608 118.317 14.7934C118.317 13.9768 118.164 13.2008 117.858 12.4658C117.573 11.7308 117.196 11.0162 116.727 10.3222C116.258 9.60759 115.738 8.90321 115.168 8.20905C114.617 7.5149 114.077 6.7901 113.547 6.03468H122.199L123.269 0.0322266H110.215C109.624 0.0322266 109.043 0.154726 108.473 0.399725C107.902 0.624304 107.382 0.940763 106.913 1.34908C106.445 1.75742 106.037 2.24742 105.69 2.81908C105.364 3.37033 105.14 3.97261 105.018 4.62595C104.957 4.91179 104.926 5.15679 104.926 5.36095V5.54468C104.987 6.34094 105.191 7.11678 105.538 7.87218C105.905 8.62759 106.333 9.36259 106.822 10.0772C107.311 10.7712 107.831 11.445 108.381 12.0984C108.951 12.7518 109.471 13.3846 109.94 13.9972H100.035L98.9648 19.9996Z" fill="url(#paint4_linear_2867_100863)"/>
<path d="M144.832 7.59656L143.67 0.0322266H137.25L133.306 7.59656L132.175 0.0322266H125.021L127.742 19.9996H134.957L138.473 12.129L139.237 19.9996H146.452L156.205 0.0322266H148.745L144.832 7.59656Z" fill="url(#paint5_linear_2867_100863)"/>
<path d="M166.627 16.9372H159.229L157.639 19.9996H150.18L159.932 0.0322266H171.549L174.27 19.9996H167.116L166.627 16.9372ZM161.766 11.6084H165.955L164.976 5.29969L161.766 11.6084Z" fill="url(#paint6_linear_2867_100863)"/>
<path d="M183.245 19.9996H176L179.516 0.0322266H194.955C195.647 0.0322266 196.299 0.185346 196.911 0.491585C197.523 0.797843 198.053 1.20616 198.501 1.71658C198.969 2.227 199.337 2.79866 199.601 3.43157C199.867 4.06449 199.999 4.70761 199.999 5.36095C199.999 5.48344 199.989 5.60594 199.969 5.72844C199.969 5.85094 199.959 5.97344 199.937 6.09594L199.509 8.51531C199.387 9.18905 199.081 9.89343 198.593 10.6284C198.103 11.343 197.513 11.9962 196.819 12.5884C196.147 13.1804 195.413 13.6704 194.619 14.0584C193.843 14.4258 193.099 14.6096 192.387 14.6096H184.193L183.245 19.9996ZM185.233 8.69905H190.155C190.909 8.69905 191.429 8.58677 191.715 8.36217C191.999 8.13759 192.193 7.81094 192.295 7.38218L192.325 7.07594C192.325 6.74928 192.213 6.49406 191.989 6.31032C191.765 6.12656 191.307 6.03468 190.613 6.03468H185.691L185.233 8.69905Z" fill="url(#paint7_linear_2867_100863)"/>
<defs>
<linearGradient id="paint0_linear_2867_100863" x1="25.8483" y1="11.3334" x2="199.31" y2="10.7364" gradientUnits="userSpaceOnUse">
<stop stop-color="#2BA9FD"/>
<stop offset="0.524146" stop-color="#8462F5"/>
<stop offset="1" stop-color="#EF0DEB"/>
</linearGradient>
<linearGradient id="paint1_linear_2867_100863" x1="25.8487" y1="11.3334" x2="199.31" y2="10.7364" gradientUnits="userSpaceOnUse">
<stop stop-color="#2BA9FD"/>
<stop offset="0.524146" stop-color="#8462F5"/>
<stop offset="1" stop-color="#EF0DEB"/>
</linearGradient>
<linearGradient id="paint2_linear_2867_100863" x1="25.8474" y1="11.3334" x2="199.309" y2="10.7364" gradientUnits="userSpaceOnUse">
<stop stop-color="#2BA9FD"/>
<stop offset="0.524146" stop-color="#8462F5"/>
<stop offset="1" stop-color="#EF0DEB"/>
</linearGradient>
<linearGradient id="paint3_linear_2867_100863" x1="25.8483" y1="11.3334" x2="199.31" y2="10.7364" gradientUnits="userSpaceOnUse">
<stop stop-color="#2BA9FD"/>
<stop offset="0.524146" stop-color="#8462F5"/>
<stop offset="1" stop-color="#EF0DEB"/>
</linearGradient>
<linearGradient id="paint4_linear_2867_100863" x1="25.8479" y1="11.3334" x2="199.309" y2="10.7364" gradientUnits="userSpaceOnUse">
<stop stop-color="#2BA9FD"/>
<stop offset="0.524146" stop-color="#8462F5"/>
<stop offset="1" stop-color="#EF0DEB"/>
</linearGradient>
<linearGradient id="paint5_linear_2867_100863" x1="25.8489" y1="11.3334" x2="199.31" y2="10.7364" gradientUnits="userSpaceOnUse">
<stop stop-color="#2BA9FD"/>
<stop offset="0.524146" stop-color="#8462F5"/>
<stop offset="1" stop-color="#EF0DEB"/>
</linearGradient>
<linearGradient id="paint6_linear_2867_100863" x1="25.8488" y1="11.3334" x2="199.31" y2="10.7364" gradientUnits="userSpaceOnUse">
<stop stop-color="#2BA9FD"/>
<stop offset="0.524146" stop-color="#8462F5"/>
<stop offset="1" stop-color="#EF0DEB"/>
</linearGradient>
<linearGradient id="paint7_linear_2867_100863" x1="25.8473" y1="11.3334" x2="199.309" y2="10.7364" gradientUnits="userSpaceOnUse">
<stop stop-color="#2BA9FD"/>
<stop offset="0.524146" stop-color="#8462F5"/>
<stop offset="1" stop-color="#EF0DEB"/>
</linearGradient>
</defs>
</svg>
