<svg width="18" height="18" viewBox="0 0 18 18" fill="none" xmlns="http://www.w3.org/2000/svg">
<path d="M18 8.99987C18 13.9704 13.9707 17.9997 9.00013 17.9997C4.02959 17.9997 0 13.9704 0 8.99987C0 4.02933 4.02959 0 9.00013 0C13.9707 0 18 4.02933 18 8.99987Z" fill="#393D4F"/>
<path d="M7.36908 8.11528L6.5 9.8867H10.6195L11.54 8.11523L7.36908 8.11528Z" fill="#2AAAFD"/>
<path d="M12.8927 11.3027L12.4154 12.2286H3.86821L3 14.0001H11.528L11.5297 13.9969L15.0408 13.9937L12.8927 11.3027Z" fill="#2AAAFD"/>
<path d="M6.53714 4L3.00195 4.00318L5.14996 6.69407L5.62409 5.77306H14.1169L15.0379 4.00159H6.53556L6.53714 4Z" fill="#2AAAFD"/>
</svg>
