<svg width="200" height="20" viewBox="0 0 200 20" fill="none" xmlns="http://www.w3.org/2000/svg">
<g clip-path="url(#clip0_3067_101069)">
<path d="M8.73817 8.23057L7 11.7734H15.2391L17.0801 8.23047L8.73817 8.23057Z" fill="#2AAAFD"/>
<path d="M19.7857 14.6055L18.8311 16.4573H1.73643L0 20.0002H17.0561L17.0595 19.9938L24.0819 19.9874L19.7857 14.6055Z" fill="#2AAAFD"/>
<path d="M7.07436 0L0.00390625 0.00635984L4.29997 5.3882L5.24825 3.54617H22.234L24.0762 0.00317992H7.0712L7.07436 0Z" fill="#2AAAFD"/>
<path d="M38.6948 0.0332031H46.0014L44.2282 10.0782C43.9022 11.8952 43.3518 13.4366 42.5774 14.7026C41.8232 15.948 40.8756 16.9688 39.7342 17.765C38.5928 18.5408 37.2682 19.1126 35.7598 19.48C34.2516 19.827 32.6008 20.0006 30.8073 20.0006H27.2305L28.3005 13.9982H32.5192C33.9256 13.896 34.9548 13.5184 35.607 12.865C36.2796 12.1912 36.7178 11.2622 36.9216 10.0782L38.6948 0.0332031Z" fill="url(#paint0_linear_3067_101069)"/>
<path d="M63.7228 12.6506H53.3284L53.1142 13.9982H64.3342L63.2642 20.0006H44.7988L48.3146 0.0332031H66.7797L65.7097 6.03566H54.49L54.276 7.38316H64.6704L63.7228 12.6506Z" fill="url(#paint1_linear_3067_101069)"/>
<path d="M75.281 6.03566H79.9584C80.6718 6.03566 81.161 6.199 81.426 6.52566C81.7112 6.85234 81.854 7.28108 81.854 7.81192C81.854 8.17941 81.8234 8.55711 81.7622 8.94503L81.3648 11.1194C81.3036 11.5072 81.212 11.8748 81.0896 12.2218C80.9878 12.569 80.8246 12.8752 80.6004 13.1406C80.3966 13.406 80.1318 13.6204 79.8056 13.7838C79.4796 13.9266 79.072 13.9982 78.5828 13.9982H73.9052L75.281 6.03566ZM65.5898 20.0006H81.4564C82.0476 20.0006 82.6998 19.827 83.413 19.48C84.1468 19.133 84.8398 18.694 85.492 18.1632C86.1442 17.6118 86.7046 16.9994 87.1734 16.3256C87.6626 15.6518 87.9682 14.9884 88.0906 14.335L89.5886 5.6988C89.609 5.59672 89.6192 5.50485 89.6192 5.42317C89.6396 5.32109 89.6498 5.21901 89.6498 5.11693C89.6498 4.50443 89.507 3.90213 89.2218 3.31005C88.9364 2.69756 88.5594 2.14632 88.0906 1.65632C87.6422 1.16632 87.1428 0.7784 86.5926 0.492562C86.0422 0.186323 85.5022 0.0332031 84.9722 0.0332031H69.1056L65.5898 20.0006Z" fill="url(#paint2_linear_3067_101069)"/>
<path d="M96.6438 20.0006L100.16 0.0332031H92.914L89.3984 20.0006H96.6438Z" fill="url(#paint3_linear_3067_101069)"/>
<path d="M98.9648 20.0006H113.578C114.149 20.0006 114.689 19.8986 115.198 19.6944C115.728 19.4902 116.197 19.2044 116.605 18.8368C117.012 18.4694 117.359 18.0406 117.644 17.5506C117.929 17.0606 118.123 16.5196 118.225 15.9276C118.286 15.5396 118.317 15.1618 118.317 14.7944C118.317 13.9778 118.164 13.2018 117.858 12.4668C117.573 11.7318 117.196 11.0172 116.727 10.3232C116.258 9.60857 115.738 8.90419 115.168 8.21003C114.617 7.51588 114.077 6.79108 113.547 6.03566H122.199L123.269 0.0332031H110.215C109.624 0.0332031 109.043 0.155703 108.473 0.400702C107.902 0.625281 107.382 0.94174 106.913 1.35006C106.445 1.7584 106.037 2.2484 105.69 2.82006C105.364 3.37131 105.14 3.97359 105.018 4.62693C104.957 4.91277 104.926 5.15777 104.926 5.36193V5.54566C104.987 6.34192 105.191 7.11776 105.538 7.87316C105.905 8.62857 106.333 9.36357 106.822 10.0782C107.311 10.7722 107.831 11.446 108.381 12.0994C108.951 12.7528 109.471 13.3856 109.94 13.9982H100.035L98.9648 20.0006Z" fill="url(#paint4_linear_3067_101069)"/>
<path d="M144.832 7.59754L143.67 0.0332031H137.25L133.306 7.59754L132.175 0.0332031H125.021L127.742 20.0006H134.957L138.473 12.13L139.237 20.0006H146.452L156.205 0.0332031H148.745L144.832 7.59754Z" fill="url(#paint5_linear_3067_101069)"/>
<path d="M166.627 16.9382H159.229L157.639 20.0006H150.18L159.932 0.0332031H171.549L174.27 20.0006H167.116L166.627 16.9382ZM161.766 11.6094H165.955L164.976 5.30067L161.766 11.6094Z" fill="url(#paint6_linear_3067_101069)"/>
<path d="M183.245 20.0006H176L179.516 0.0332031H194.955C195.647 0.0332031 196.299 0.186323 196.911 0.492562C197.523 0.79882 198.053 1.20714 198.501 1.71756C198.969 2.22798 199.337 2.79964 199.601 3.43255C199.867 4.06547 199.999 4.70859 199.999 5.36193C199.999 5.48442 199.989 5.60692 199.969 5.72942C199.969 5.85192 199.959 5.97442 199.937 6.09692L199.509 8.51629C199.387 9.19003 199.081 9.89441 198.593 10.6294C198.103 11.344 197.513 11.9972 196.819 12.5894C196.147 13.1814 195.413 13.6714 194.619 14.0594C193.843 14.4268 193.099 14.6106 192.387 14.6106H184.193L183.245 20.0006ZM185.233 8.70003H190.155C190.909 8.70003 191.429 8.58775 191.715 8.36315C191.999 8.13857 192.193 7.81192 192.295 7.38316L192.325 7.07692C192.325 6.75026 192.213 6.49504 191.989 6.3113C191.765 6.12754 191.307 6.03566 190.613 6.03566H185.691L185.233 8.70003Z" fill="url(#paint7_linear_3067_101069)"/>
</g>
<defs>
<linearGradient id="paint0_linear_3067_101069" x1="25.8483" y1="11.3344" x2="199.31" y2="10.7374" gradientUnits="userSpaceOnUse">
<stop stop-color="#2BA9FD"/>
<stop offset="0.524146" stop-color="#8462F5"/>
<stop offset="1" stop-color="#EF0DEB"/>
</linearGradient>
<linearGradient id="paint1_linear_3067_101069" x1="25.8487" y1="11.3344" x2="199.31" y2="10.7374" gradientUnits="userSpaceOnUse">
<stop stop-color="#2BA9FD"/>
<stop offset="0.524146" stop-color="#8462F5"/>
<stop offset="1" stop-color="#EF0DEB"/>
</linearGradient>
<linearGradient id="paint2_linear_3067_101069" x1="25.8474" y1="11.3344" x2="199.309" y2="10.7374" gradientUnits="userSpaceOnUse">
<stop stop-color="#2BA9FD"/>
<stop offset="0.524146" stop-color="#8462F5"/>
<stop offset="1" stop-color="#EF0DEB"/>
</linearGradient>
<linearGradient id="paint3_linear_3067_101069" x1="25.8483" y1="11.3344" x2="199.31" y2="10.7374" gradientUnits="userSpaceOnUse">
<stop stop-color="#2BA9FD"/>
<stop offset="0.524146" stop-color="#8462F5"/>
<stop offset="1" stop-color="#EF0DEB"/>
</linearGradient>
<linearGradient id="paint4_linear_3067_101069" x1="25.8479" y1="11.3344" x2="199.309" y2="10.7374" gradientUnits="userSpaceOnUse">
<stop stop-color="#2BA9FD"/>
<stop offset="0.524146" stop-color="#8462F5"/>
<stop offset="1" stop-color="#EF0DEB"/>
</linearGradient>
<linearGradient id="paint5_linear_3067_101069" x1="25.8494" y1="11.3344" x2="199.31" y2="10.7374" gradientUnits="userSpaceOnUse">
<stop stop-color="#2BA9FD"/>
<stop offset="0.524146" stop-color="#8462F5"/>
<stop offset="1" stop-color="#EF0DEB"/>
</linearGradient>
<linearGradient id="paint6_linear_3067_101069" x1="25.8484" y1="11.3344" x2="199.31" y2="10.7374" gradientUnits="userSpaceOnUse">
<stop stop-color="#2BA9FD"/>
<stop offset="0.524146" stop-color="#8462F5"/>
<stop offset="1" stop-color="#EF0DEB"/>
</linearGradient>
<linearGradient id="paint7_linear_3067_101069" x1="25.8473" y1="11.3344" x2="199.309" y2="10.7374" gradientUnits="userSpaceOnUse">
<stop stop-color="#2BA9FD"/>
<stop offset="0.524146" stop-color="#8462F5"/>
<stop offset="1" stop-color="#EF0DEB"/>
</linearGradient>
<clipPath id="clip0_3067_101069">
<rect width="200" height="20" fill="white"/>
</clipPath>
</defs>
</svg>
