<svg width="10" height="10" viewBox="0 0 10 10" fill="none" xmlns="http://www.w3.org/2000/svg">
<path d="M5 10C7.76142 10 10 7.76142 10 5C10 2.23858 7.76142 0 5 0C2.23858 0 0 2.23858 0 5C0 7.76142 2.23858 10 5 10Z" fill="#F7931A"/>
<path d="M7.39543 4.33984C7.5001 3.64117 6.96777 3.2655 6.24043 3.01484L6.47643 2.06817L5.90043 1.92484L5.67043 2.8465C5.5191 2.8085 5.36377 2.77317 5.20877 2.73784L5.44043 1.81017L4.86443 1.6665L4.62843 2.61284C4.5031 2.58417 4.37977 2.55617 4.26043 2.52617L4.2611 2.52317L3.46643 2.32484L3.3131 2.94017C3.3131 2.94017 3.74077 3.03817 3.73177 3.04417C3.9651 3.1025 4.0071 3.25684 4.0001 3.3795L3.73143 4.45784C3.74743 4.46184 3.7681 4.46784 3.79143 4.47684L3.73043 4.46184L3.35377 5.9725C3.3251 6.04317 3.25277 6.1495 3.08943 6.10917C3.09543 6.1175 2.67077 6.00484 2.67077 6.00484L2.38477 6.66417L3.13477 6.85117C3.2741 6.88617 3.41077 6.92284 3.5451 6.95717L3.30677 7.9145L3.88243 8.05784L4.11843 7.11117C4.27577 7.1535 4.42843 7.19284 4.57777 7.23017L4.34243 8.17284L4.91843 8.31617L5.15677 7.36084C6.13943 7.54684 6.8781 7.47184 7.1891 6.58317C7.43977 5.86784 7.17677 5.45484 6.65977 5.18584C7.03643 5.09917 7.31977 4.8515 7.39543 4.33984V4.33984ZM6.07877 6.18584C5.9011 6.9015 4.6961 6.5145 4.30543 6.4175L4.6221 5.14917C5.01277 5.24684 6.2651 5.43984 6.07877 6.18584ZM6.2571 4.3295C6.09477 4.9805 5.0921 4.6495 4.7671 4.5685L5.05377 3.4185C5.37877 3.4995 6.42643 3.6505 6.2571 4.3295Z" fill="white"/>
</svg>
