<svg width="20" height="20" viewBox="0 0 20 20" fill="none" xmlns="http://www.w3.org/2000/svg">
<path d="M7.91602 11.4585C7.91602 12.2669 8.54103 12.9169 9.30769 12.9169H10.8743C11.541 12.9169 12.0827 12.3502 12.0827 11.6419C12.0827 10.8835 11.7494 10.6085 11.2577 10.4335L8.74935 9.55853C8.25768 9.38353 7.92436 9.11686 7.92436 8.35019C7.92436 7.65019 8.46601 7.0752 9.13268 7.0752H10.6993C11.466 7.0752 12.091 7.7252 12.091 8.53353" stroke="white" stroke-linecap="round" stroke-linejoin="round"/>
<path d="M9.99902 6.25V13.75" stroke="white" stroke-linecap="round" stroke-linejoin="round"/>
<path d="M18.3337 10.0003C18.3337 14.6003 14.6003 18.3337 10.0003 18.3337C5.40033 18.3337 1.66699 14.6003 1.66699 10.0003C1.66699 5.40033 5.40033 1.66699 10.0003 1.66699" stroke="white" stroke-linecap="round" stroke-linejoin="round"/>
<path d="M14.167 2.5V5.83333H17.5003" stroke="white" stroke-linecap="round" stroke-linejoin="round"/>
<path d="M18.3337 1.66699L14.167 5.83366" stroke="white" stroke-linecap="round" stroke-linejoin="round"/>
</svg>
