<svg width="93" height="18" viewBox="0 0 93 18" fill="none" xmlns="http://www.w3.org/2000/svg">
<rect width="93" height="18" rx="9" fill="white"/>
<circle cx="20" cy="9" r="8" fill="#6681E3"/>
<circle cx="20" cy="9" r="8" fill="white"/>
<path d="M22.3366 9.05184C21.7513 8.71567 21.1241 8.45923 20.4704 8.28252C19.693 8.05841 19.1365 7.82567 18.7986 7.58863C18.4607 7.35158 18.2906 7.05204 18.2862 6.69432C18.2663 6.30859 18.443 5.94009 18.7544 5.70304C19.0658 5.466 19.5053 5.34963 20.0729 5.34963C20.6802 5.34963 21.1462 5.49401 21.4753 5.78062C21.6056 5.89699 21.7116 6.03922 21.7889 6.19437H20.5919L22.7915 8.19201L25 6.19653H23.5844C23.5071 5.92931 23.3856 5.67503 23.2288 5.44229C22.913 4.97682 22.4691 4.60617 21.9457 4.37559C21.3626 4.117 20.7266 3.98986 20.0861 4.00063C19.0393 4.00063 18.189 4.25492 17.5331 4.76348C16.8772 5.27205 16.5481 5.91854 16.5481 6.70294C16.5481 7.5994 17.0031 8.32562 17.913 8.88375C18.5159 9.22639 19.1608 9.49145 19.8322 9.67246C20.636 9.90951 21.1926 10.1422 21.5018 10.375C21.811 10.6056 21.9655 10.9353 21.9655 11.3641C21.9766 11.7326 21.8087 12.0839 21.5084 12.3101C21.2058 12.5493 20.7509 12.6678 20.148 12.6678C19.4479 12.6678 18.9112 12.517 18.538 12.2132C18.2884 12.0106 18.1117 11.7369 18.0389 11.4288H19.4037L17.2019 9.43111L15 11.4266H16.2853C16.3494 11.8253 16.5062 12.2045 16.7447 12.5321C17.1069 13.0105 17.595 13.3833 18.1559 13.6096C18.7831 13.8746 19.4611 14.0082 20.1436 13.9996C21.2345 13.9996 22.1003 13.7604 22.7385 13.282C23.3635 12.8273 23.7213 12.1033 23.6948 11.3426C23.7058 10.8857 23.591 10.4353 23.3635 10.0345C23.1117 9.63152 22.7584 9.29319 22.3366 9.05184Z" fill="black"/>
<path d="M33.119 4.27273H34.717L37.4954 11.0568H37.5977L40.3761 4.27273H41.9741V13H40.7212V6.68466H40.6403L38.0664 12.9872H37.0266L34.4528 6.6804H34.3718V13H33.119V4.27273ZM44.4416 15.4545C44.2513 15.4545 44.078 15.4389 43.9217 15.4077C43.7655 15.3793 43.649 15.348 43.5723 15.3139L43.8791 14.2699C44.1121 14.3324 44.3195 14.3594 44.5013 14.3509C44.6831 14.3423 44.8436 14.2741 44.9828 14.1463C45.1249 14.0185 45.2499 13.8097 45.3578 13.5199L45.5155 13.0852L43.1206 6.45455H44.4842L46.1419 11.5341H46.2101L47.8678 6.45455H49.2357L46.5382 13.8736C46.4132 14.2145 46.2541 14.5028 46.0609 14.7386C45.8678 14.9773 45.6376 15.1563 45.3706 15.2756C45.1036 15.3949 44.7939 15.4545 44.4416 15.4545ZM55.1453 6.56534C55.0999 6.16193 54.9124 5.84943 54.5828 5.62784C54.2533 5.40341 53.8385 5.29119 53.3385 5.29119C52.9805 5.29119 52.6709 5.34801 52.4095 5.46165C52.1482 5.57244 51.945 5.72585 51.8001 5.92188C51.6581 6.11506 51.5871 6.33523 51.5871 6.58239C51.5871 6.78977 51.6354 6.96875 51.732 7.11932C51.8314 7.26989 51.9607 7.39631 52.1197 7.49858C52.2817 7.59801 52.455 7.68182 52.6396 7.75C52.8243 7.81534 53.0018 7.86932 53.1723 7.91193L54.0246 8.13352C54.303 8.2017 54.5885 8.29403 54.8811 8.41051C55.1737 8.52699 55.445 8.6804 55.695 8.87074C55.945 9.06108 56.1467 9.29688 56.3001 9.57812C56.4564 9.85938 56.5345 10.196 56.5345 10.5881C56.5345 11.0824 56.4067 11.5213 56.151 11.9048C55.8982 12.2884 55.5303 12.5909 55.0473 12.8125C54.5672 13.0341 53.9862 13.1449 53.3044 13.1449C52.651 13.1449 52.0857 13.0412 51.6084 12.8338C51.1311 12.6264 50.7575 12.3324 50.4876 11.9517C50.2178 11.5682 50.0686 11.1136 50.0402 10.5881H51.3612C51.3868 10.9034 51.4891 11.1662 51.668 11.3764C51.8499 11.5838 52.0814 11.7386 52.3626 11.8409C52.6467 11.9403 52.9578 11.9901 53.2959 11.9901C53.668 11.9901 53.999 11.9318 54.2888 11.8153C54.5814 11.696 54.8115 11.5312 54.9791 11.321C55.1467 11.108 55.2305 10.8594 55.2305 10.5753C55.2305 10.3168 55.1567 10.1051 55.0089 9.94034C54.8641 9.77557 54.6666 9.6392 54.4166 9.53125C54.1695 9.4233 53.8896 9.32812 53.5771 9.24574L52.5459 8.96449C51.847 8.77415 51.293 8.49432 50.8839 8.125C50.4777 7.75568 50.2746 7.26705 50.2746 6.65909C50.2746 6.15625 50.4109 5.71733 50.6837 5.34233C50.9564 4.96733 51.3257 4.67614 51.7916 4.46875C52.2575 4.25852 52.7831 4.15341 53.3683 4.15341C53.9592 4.15341 54.4805 4.2571 54.9322 4.46449C55.3868 4.67188 55.7447 4.95739 56.0061 5.32102C56.2675 5.68182 56.4038 6.09659 56.4152 6.56534H55.1453ZM59.2748 13L57.3486 6.45455H58.6654L59.9481 11.2614H60.012L61.2989 6.45455H62.6157L63.8941 11.2401H63.958L65.2322 6.45455H66.5489L64.6271 13H63.3273L61.9978 8.27415H61.8998L60.5702 13H59.2748ZM69.5129 13.1449C69.0982 13.1449 68.7232 13.0682 68.3879 12.9148C68.0527 12.7585 67.7871 12.5327 67.5911 12.2372C67.3979 11.9418 67.3013 11.5795 67.3013 11.1506C67.3013 10.7812 67.3723 10.4773 67.5143 10.2386C67.6564 10 67.8482 9.81108 68.0896 9.67188C68.3311 9.53267 68.601 9.42756 68.8993 9.35653C69.1976 9.28551 69.5016 9.23153 69.8112 9.1946C70.2033 9.14915 70.5215 9.11222 70.7658 9.08381C71.0101 9.05256 71.1876 9.00284 71.2984 8.93466C71.4092 8.86648 71.4646 8.75568 71.4646 8.60227V8.57244C71.4646 8.20028 71.3595 7.91193 71.1493 7.70739C70.9419 7.50284 70.6322 7.40057 70.2203 7.40057C69.7913 7.40057 69.4533 7.49574 69.2061 7.68608C68.9618 7.87358 68.7928 8.08239 68.699 8.3125L67.5016 8.03977C67.6436 7.64205 67.851 7.32102 68.1237 7.0767C68.3993 6.82955 68.7161 6.65057 69.074 6.53977C69.432 6.42614 69.8084 6.36932 70.2033 6.36932C70.4646 6.36932 70.7416 6.40057 71.0342 6.46307C71.3297 6.52273 71.6053 6.63352 71.8609 6.79545C72.1195 6.95739 72.3311 7.18892 72.4959 7.49006C72.6607 7.78835 72.743 8.17614 72.743 8.65341V13H71.4987V12.1051H71.4476C71.3652 12.2699 71.2416 12.4318 71.0768 12.5909C70.9121 12.75 70.7004 12.8821 70.4419 12.9872C70.1834 13.0923 69.8737 13.1449 69.5129 13.1449ZM69.7899 12.1222C70.1422 12.1222 70.4433 12.0526 70.6933 11.9134C70.9462 11.7741 71.1379 11.5923 71.2686 11.3679C71.4021 11.1406 71.4689 10.8977 71.4689 10.6392V9.79545C71.4234 9.84091 71.3354 9.88352 71.2047 9.9233C71.0768 9.96023 70.9305 9.9929 70.7658 10.0213C70.601 10.0469 70.4405 10.071 70.2842 10.0938C70.128 10.1136 69.9973 10.1307 69.8922 10.1449C69.645 10.1761 69.4192 10.2287 69.2146 10.3026C69.0129 10.3764 68.851 10.483 68.7288 10.6222C68.6095 10.7585 68.5499 10.9403 68.5499 11.1676C68.5499 11.483 68.6663 11.7216 68.8993 11.8835C69.1322 12.0426 69.4291 12.1222 69.7899 12.1222ZM74.2901 15.4545V6.45455H75.5344V7.51562H75.641C75.7148 7.37926 75.8214 7.22159 75.9606 7.04261C76.0998 6.86364 76.293 6.70739 76.5401 6.57386C76.7873 6.4375 77.114 6.36932 77.5202 6.36932C78.0487 6.36932 78.5202 6.50284 78.935 6.76989C79.3498 7.03693 79.6751 7.42187 79.9109 7.92472C80.1495 8.42756 80.2688 9.03267 80.2688 9.74006C80.2688 10.4474 80.1509 11.054 79.9151 11.5597C79.6793 12.0625 79.3555 12.4503 78.9435 12.723C78.5316 12.9929 78.0614 13.1278 77.533 13.1278C77.1353 13.1278 76.81 13.0611 76.5572 12.9276C76.3072 12.794 76.1112 12.6378 75.9691 12.4588C75.8271 12.2798 75.7177 12.1207 75.641 11.9815H75.5643V15.4545H74.2901ZM75.5387 9.72727C75.5387 10.1875 75.6055 10.5909 75.739 10.9375C75.8725 11.2841 76.0657 11.5554 76.3185 11.7514C76.5714 11.9446 76.881 12.0412 77.2475 12.0412C77.6282 12.0412 77.9464 11.9403 78.2021 11.7386C78.4577 11.5341 78.6509 11.2571 78.7816 10.9077C78.9151 10.5582 78.9819 10.1648 78.9819 9.72727C78.9819 9.29545 78.9165 8.90767 78.7859 8.56392C78.658 8.22017 78.4648 7.94886 78.2063 7.75C77.9506 7.55114 77.631 7.4517 77.2475 7.4517C76.8782 7.4517 76.5657 7.54687 76.31 7.73722C76.0572 7.92756 75.8654 8.19318 75.7347 8.53409C75.604 8.875 75.5387 9.27273 75.5387 9.72727Z" fill="black"/>
</svg>
