<svg width="18" height="18" viewBox="0 0 18 18" fill="none" xmlns="http://www.w3.org/2000/svg">
<path d="M18 8.99987C18 13.9704 13.9707 17.9997 9.00013 17.9997C4.02959 17.9997 0 13.9704 0 8.99987C0 4.02933 4.02959 0 9.00013 0C13.9707 0 18 4.02933 18 8.99987Z" fill="#393D4F"/>
<path d="M11.8039 9.06221C11.1016 8.6588 10.3489 8.35107 9.56449 8.13903C8.63163 7.87009 7.96378 7.59081 7.5583 7.30635C7.15283 7.0219 6.94876 6.66245 6.94346 6.23319C6.91961 5.7703 7.13163 5.32811 7.5053 5.04365C7.87898 4.7592 8.40636 4.61956 9.08746 4.61956C9.81625 4.61956 10.3754 4.79282 10.7703 5.13675C10.9267 5.27639 11.0539 5.44706 11.1466 5.63325H9.71025L12.3498 8.03042L15 5.63583H13.3012C13.2085 5.31518 13.0627 5.01004 12.8746 4.73075C12.4956 4.17219 11.9629 3.72741 11.3348 3.45071C10.6352 3.1404 9.87191 2.98783 9.10336 3.00076C7.84717 3.00076 6.82686 3.3059 6.03975 3.91618C5.25265 4.52646 4.85777 5.30225 4.85777 6.24353C4.85777 7.31928 5.40371 8.19074 6.49558 8.8605C7.21908 9.27167 7.99293 9.58974 8.79859 9.80696C9.76325 10.0914 10.4311 10.3707 10.8021 10.65C11.1731 10.9267 11.3587 11.3223 11.3587 11.8369C11.3719 12.2791 11.1705 12.7006 10.8101 12.9722C10.447 13.2592 9.90106 13.4014 9.17756 13.4014C8.33746 13.4014 7.69346 13.2204 7.24558 12.8558C6.94611 12.6127 6.7341 12.2843 6.64664 11.9145H8.28445L5.64223 9.51733L3 11.9119H4.5424C4.61926 12.3903 4.80742 12.8454 5.09364 13.2385C5.52827 13.8126 6.11396 14.2599 6.7871 14.5315C7.53975 14.8495 8.35336 15.0099 9.17226 14.9995C10.4814 14.9995 11.5203 14.7125 12.2862 14.1384C13.0362 13.5928 13.4655 12.7239 13.4337 11.8111C13.447 11.2628 13.3092 10.7224 13.0362 10.2414C12.7341 9.75782 12.3101 9.35183 11.8039 9.06221Z" fill="white"/>
</svg>
