<svg width="36" height="16" viewBox="0 0 36 16" fill="none" xmlns="http://www.w3.org/2000/svg">
<path d="M5.98147 1.18113C6.36121 0.748218 6.90913 0.5 7.48499 0.5L31.5 0.5C33.7091 0.5 35.5 2.29086 35.5 4.5V11.5C35.5 13.7091 33.7091 15.5 31.5 15.5H7.48499C6.90913 15.5 6.36121 15.2518 5.98147 14.8189L1.15691 9.31888C0.494934 8.56422 0.494933 7.43578 1.15691 6.68112L5.98147 1.18113Z" fill="#F7BB5B"/>
<path d="M14.7987 4.72727V12H13.9464L9.98336 6.28977H9.91234V12H9.03166V4.72727H9.88393L13.8612 10.4517H13.9322V4.72727H14.7987ZM16.411 12V4.72727H20.8002V5.50852H17.2916V7.96591H20.5729V8.74716H17.2916V11.2188H20.857V12H16.411ZM23.5585 12L21.5699 4.72727H22.4648L23.9847 10.6506H24.0557L25.604 4.72727H26.5983L28.1466 10.6506H28.2176L29.7375 4.72727H30.6324L28.6438 12H27.7347L26.1296 6.20455H26.0727L24.4676 12H23.5585Z" fill="black"/>
</svg>
