<svg width="36" height="16" viewBox="0 0 36 16" fill="none" xmlns="http://www.w3.org/2000/svg">
<path d="M5.98147 1.18113C6.36121 0.748218 6.90913 0.5 7.48499 0.5L31.5 0.5C33.7091 0.5 35.5 2.29086 35.5 4.5V11.5C35.5 13.7091 33.7091 15.5 31.5 15.5H7.48499C6.90913 15.5 6.36121 15.2518 5.98147 14.8189L1.15691 9.31888C0.494934 8.56422 0.494933 7.43578 1.15691 6.68112L5.98147 1.18113Z" fill="#F7BB5B"/>
<path d="M15.0604 4.72727V12H14.2081L10.2451 6.28977H10.1741V12H9.29338V4.72727H10.1456L14.1229 10.4517H14.1939V4.72727H15.0604ZM18.846 12.1136C18.3204 12.1136 17.867 11.9976 17.4859 11.7656C17.1071 11.5312 16.8147 11.2045 16.6088 10.7855C16.4052 10.3641 16.3034 9.87405 16.3034 9.31534C16.3034 8.75663 16.4052 8.2642 16.6088 7.83807C16.8147 7.40956 17.1012 7.07576 17.4681 6.83665C17.8374 6.59517 18.2683 6.47443 18.7607 6.47443C19.0448 6.47443 19.3254 6.52178 19.6024 6.61648C19.8793 6.71117 20.1315 6.86506 20.3588 7.07812C20.586 7.28883 20.7671 7.56818 20.9021 7.91619C21.037 8.2642 21.1045 8.69271 21.1045 9.2017V9.55682H16.8999V8.83239H20.2522C20.2522 8.52462 20.1907 8.25 20.0676 8.00852C19.9468 7.76705 19.774 7.57647 19.5491 7.43679C19.3266 7.29711 19.0638 7.22727 18.7607 7.22727C18.4269 7.22727 18.1381 7.31013 17.8943 7.47585C17.6528 7.6392 17.4669 7.85227 17.3367 8.11506C17.2065 8.37784 17.1414 8.65956 17.1414 8.96023V9.44318C17.1414 9.85511 17.2124 10.2043 17.3545 10.4908C17.4989 10.7749 17.699 10.9915 17.9546 11.1406C18.2103 11.2874 18.5074 11.3608 18.846 11.3608C19.0661 11.3608 19.265 11.33 19.4426 11.2685C19.6225 11.2045 19.7776 11.1098 19.9078 10.9844C20.038 10.8565 20.1386 10.6979 20.2096 10.5085L21.0193 10.7358C20.934 11.0104 20.7908 11.2519 20.5896 11.4602C20.3883 11.6662 20.1398 11.8272 19.8438 11.9432C19.5479 12.0568 19.2153 12.1136 18.846 12.1136ZM23.4651 12L21.8032 6.54545H22.6839L23.8629 10.7216H23.9197L25.0845 6.54545H25.9793L27.1299 10.7074H27.1867L28.3657 6.54545H29.2464L27.5845 12H26.7606L25.5674 7.80966H25.4822L24.289 12H23.4651Z" fill="black"/>
</svg>
