<svg width="48" height="16" viewBox="0 0 48 16" fill="none" xmlns="http://www.w3.org/2000/svg">
<path d="M6.40699 1.13536C6.78525 0.730092 7.31474 0.5 7.8691 0.5H44C46.2091 0.5 48 2.29086 48 4.5V11.5C48 13.7091 46.2091 15.5 44 15.5H7.86911C7.31474 15.5 6.78525 15.2699 6.40699 14.8646L1.27366 9.36464C0.556473 8.59622 0.556475 7.40378 1.27366 6.63536L6.40699 1.13536Z" fill="#3E415C"/>
<path d="M10.2313 11.5V4.22727H12.6887C13.2592 4.22727 13.7256 4.33026 14.0878 4.53622C14.4524 4.73982 14.7223 5.01562 14.8975 5.36364C15.0727 5.71165 15.1602 6.09991 15.1602 6.52841C15.1602 6.95691 15.0727 7.34635 14.8975 7.69673C14.7246 8.04711 14.4571 8.32647 14.0949 8.5348C13.7327 8.74077 13.2687 8.84375 12.7029 8.84375H10.9415V8.0625H12.6744C13.0651 8.0625 13.3788 7.99503 13.6155 7.86009C13.8522 7.72514 14.0239 7.54285 14.1304 7.31321C14.2393 7.0812 14.2938 6.8196 14.2938 6.52841C14.2938 6.23722 14.2393 5.9768 14.1304 5.74716C14.0239 5.51752 13.8511 5.33759 13.6119 5.20739C13.3728 5.07481 13.0556 5.00852 12.6602 5.00852H11.1119V11.5H10.2313ZM17.9204 11.6278C17.5748 11.6278 17.2611 11.5627 16.9794 11.4325C16.6976 11.3 16.4739 11.1094 16.3082 10.8608C16.1425 10.6098 16.0596 10.3068 16.0596 9.9517C16.0596 9.6392 16.1212 9.38589 16.2443 9.19176C16.3674 8.99527 16.5319 8.84138 16.7379 8.73011C16.9438 8.61884 17.1711 8.53598 17.4197 8.48153C17.6706 8.42472 17.9228 8.37973 18.1761 8.34659C18.5075 8.30398 18.7762 8.27202 18.9822 8.25071C19.1905 8.22704 19.342 8.18797 19.4367 8.13352C19.5338 8.07907 19.5823 7.98437 19.5823 7.84943V7.82102C19.5823 7.47064 19.4865 7.19839 19.2947 7.00426C19.1053 6.81013 18.8177 6.71307 18.4318 6.71307C18.0317 6.71307 17.718 6.80066 17.4907 6.97585C17.2634 7.15104 17.1036 7.33807 17.0113 7.53693L16.2159 7.25284C16.3579 6.9214 16.5473 6.66335 16.784 6.47869C17.0231 6.29167 17.2836 6.16146 17.5653 6.08807C17.8494 6.01231 18.1287 5.97443 18.4034 5.97443C18.5785 5.97443 18.7798 5.99574 19.007 6.03835C19.2367 6.0786 19.458 6.16264 19.6711 6.29048C19.8865 6.41832 20.0653 6.61127 20.2073 6.86932C20.3494 7.12737 20.4204 7.47301 20.4204 7.90625V11.5H19.5823V10.7614H19.5397C19.4829 10.8797 19.3882 11.0064 19.2556 11.1413C19.1231 11.2763 18.9467 11.3911 18.7265 11.4858C18.5063 11.5805 18.2376 11.6278 17.9204 11.6278ZM18.0482 10.875C18.3797 10.875 18.659 10.8099 18.8863 10.6797C19.116 10.5495 19.2888 10.3814 19.4048 10.1754C19.5231 9.96946 19.5823 9.75284 19.5823 9.52557V8.75852C19.5468 8.80114 19.4687 8.8402 19.348 8.87571C19.2296 8.90885 19.0923 8.93845 18.936 8.96449C18.7821 8.98816 18.6318 9.00947 18.485 9.02841C18.3406 9.04498 18.2234 9.05919 18.1335 9.07102C17.9157 9.09943 17.7121 9.1456 17.5227 9.20952C17.3356 9.27107 17.1841 9.36458 17.0681 9.49006C16.9545 9.61316 16.8977 9.78125 16.8977 9.99432C16.8977 10.2855 17.0054 10.5057 17.2208 10.6548C17.4386 10.8016 17.7144 10.875 18.0482 10.875ZM25.2376 9.26989V6.04545H26.0756V11.5H25.2376V10.5767H25.1807C25.0529 10.8537 24.854 11.0893 24.5841 11.2834C24.3143 11.4751 23.9733 11.571 23.5614 11.571C23.2205 11.571 22.9175 11.4964 22.6523 11.3473C22.3872 11.1958 22.1788 10.9685 22.0273 10.6655C21.8758 10.3601 21.8001 9.97538 21.8001 9.51136V6.04545H22.6381V9.45455C22.6381 9.85227 22.7494 10.1695 22.9719 10.4062C23.1968 10.643 23.4833 10.7614 23.8313 10.7614C24.0396 10.7614 24.2515 10.7081 24.467 10.6016C24.6848 10.495 24.8671 10.3317 25.0138 10.1115C25.163 9.89134 25.2376 9.6108 25.2376 9.26989ZM31.3242 7.26705L30.5714 7.48011C30.524 7.35464 30.4542 7.23272 30.3619 7.11435C30.2719 6.99361 30.1488 6.89418 29.9926 6.81605C29.8363 6.73793 29.6363 6.69886 29.3924 6.69886C29.0586 6.69886 28.7804 6.7758 28.5579 6.92969C28.3377 7.0812 28.2276 7.27415 28.2276 7.50852C28.2276 7.71686 28.3034 7.88139 28.4549 8.00213C28.6064 8.12287 28.8432 8.22348 29.1651 8.30398L29.9748 8.50284C30.4625 8.62121 30.8259 8.80232 31.065 9.04616C31.3041 9.28764 31.4237 9.59896 31.4237 9.98011C31.4237 10.2926 31.3337 10.572 31.1538 10.8182C30.9762 11.0644 30.7276 11.2585 30.408 11.4006C30.0884 11.5426 29.7168 11.6136 29.293 11.6136C28.7366 11.6136 28.2762 11.4929 27.9116 11.2514C27.547 11.0099 27.3162 10.6572 27.2191 10.1932L28.0146 9.99432C28.0903 10.2879 28.2336 10.508 28.4443 10.6548C28.6573 10.8016 28.9355 10.875 29.2788 10.875C29.6694 10.875 29.9795 10.7921 30.2092 10.6264C30.4412 10.4583 30.5572 10.2571 30.5572 10.0227C30.5572 9.83333 30.4909 9.67472 30.3583 9.54688C30.2258 9.41667 30.0222 9.3196 29.7475 9.25568L28.8384 9.04261C28.3389 8.92424 27.972 8.74077 27.7376 8.49219C27.5056 8.24124 27.3896 7.92756 27.3896 7.55114C27.3896 7.24337 27.476 6.97112 27.6488 6.73438C27.824 6.49763 28.0619 6.31179 28.3626 6.17685C28.6656 6.0419 29.0089 5.97443 29.3924 5.97443C29.9322 5.97443 30.356 6.0928 30.6637 6.32955C30.9739 6.56629 31.194 6.87879 31.3242 7.26705ZM34.8221 11.6136C34.2966 11.6136 33.8432 11.4976 33.4621 11.2656C33.0833 11.0312 32.7909 10.7045 32.5849 10.2855C32.3813 9.86411 32.2795 9.37405 32.2795 8.81534C32.2795 8.25663 32.3813 7.7642 32.5849 7.33807C32.7909 6.90956 33.0773 6.57576 33.4443 6.33665C33.8136 6.09517 34.2445 5.97443 34.7369 5.97443C35.021 5.97443 35.3015 6.02178 35.5785 6.11648C35.8555 6.21117 36.1077 6.36506 36.3349 6.57812C36.5622 6.78883 36.7433 7.06818 36.8782 7.41619C37.0132 7.7642 37.0807 8.19271 37.0807 8.7017V9.05682H32.8761V8.33239H36.2284C36.2284 8.02462 36.1668 7.75 36.0437 7.50852C35.923 7.26705 35.7502 7.07647 35.5253 6.93679C35.3027 6.79711 35.0399 6.72727 34.7369 6.72727C34.4031 6.72727 34.1143 6.81013 33.8704 6.97585C33.629 7.1392 33.4431 7.35227 33.3129 7.61506C33.1827 7.87784 33.1176 8.15956 33.1176 8.46023V8.94318C33.1176 9.35511 33.1886 9.70431 33.3307 9.99077C33.4751 10.2749 33.6751 10.4915 33.9308 10.6406C34.1865 10.7874 34.4836 10.8608 34.8221 10.8608C35.0423 10.8608 35.2412 10.83 35.4187 10.7685C35.5987 10.7045 35.7537 10.6098 35.8839 10.4844C36.0141 10.3565 36.1148 10.1979 36.1858 10.0085L36.9954 10.2358C36.9102 10.5104 36.767 10.7519 36.5657 10.9602C36.3645 11.1662 36.1159 11.3272 35.82 11.4432C35.5241 11.5568 35.1915 11.6136 34.8221 11.6136ZM40.2652 11.6136C39.8106 11.6136 39.4094 11.4988 39.0613 11.2692C38.7133 11.0372 38.4411 10.7105 38.2446 10.2891C38.0481 9.86529 37.9498 9.36458 37.9498 8.78693C37.9498 8.21402 38.0481 7.71686 38.2446 7.29545C38.4411 6.87405 38.7145 6.54853 39.0649 6.31889C39.4153 6.08925 39.8201 5.97443 40.2794 5.97443C40.6345 5.97443 40.915 6.03362 41.121 6.15199C41.3293 6.26799 41.488 6.40057 41.5969 6.54972C41.7081 6.6965 41.7945 6.81723 41.8561 6.91193H41.9271V4.22727H42.7652V11.5H41.9555V10.6619H41.8561C41.7945 10.7614 41.7069 10.8868 41.5933 11.0384C41.4797 11.1875 41.3175 11.3213 41.1068 11.4396C40.8961 11.5556 40.6156 11.6136 40.2652 11.6136ZM40.3788 10.8608C40.715 10.8608 40.9991 10.7732 41.2311 10.598C41.4631 10.4205 41.6395 10.1754 41.7602 9.86293C41.8809 9.54806 41.9413 9.18466 41.9413 8.77273C41.9413 8.36553 41.8821 8.00923 41.7638 7.70384C41.6454 7.39607 41.4702 7.15696 41.2382 6.98651C41.0062 6.81368 40.7197 6.72727 40.3788 6.72727C40.0237 6.72727 39.7278 6.81842 39.491 7.00071C39.2567 7.18063 39.0803 7.42566 38.9619 7.7358C38.8459 8.04356 38.7879 8.3892 38.7879 8.77273C38.7879 9.16098 38.8471 9.51373 38.9655 9.83097C39.0862 10.1458 39.2638 10.3968 39.4981 10.5838C39.7349 10.7685 40.0284 10.8608 40.3788 10.8608Z" fill="#E6EDF3"/>
</svg>
