<svg width="16" height="16" viewBox="0 0 16 16" fill="none" xmlns="http://www.w3.org/2000/svg">
<path d="M8 10C9.10457 10 10 9.10457 10 8C10 6.89543 9.10457 6 8 6C6.89543 6 6 6.89543 6 8C6 9.10457 6.89543 10 8 10Z" stroke="#B1B0B5" stroke-width="1.37" stroke-linecap="round" stroke-linejoin="round"/>
<path d="M1.33374 8.5863V7.41296C1.33374 6.71963 1.90041 6.1463 2.60041 6.1463C3.80707 6.1463 4.30041 5.29297 3.69374 4.2463C3.34707 3.6463 3.55374 2.8663 4.16041 2.51963L5.31374 1.85963C5.84041 1.5463 6.52041 1.73297 6.83374 2.25963L6.90707 2.3863C7.50707 3.43297 8.49374 3.43297 9.10041 2.3863L9.17374 2.25963C9.48707 1.73297 10.1671 1.5463 10.6937 1.85963L11.8471 2.51963C12.4537 2.8663 12.6604 3.6463 12.3137 4.2463C11.7071 5.29297 12.2004 6.1463 13.4071 6.1463C14.1004 6.1463 14.6737 6.71296 14.6737 7.41296V8.5863C14.6737 9.27963 14.1071 9.85296 13.4071 9.85296C12.2004 9.85296 11.7071 10.7063 12.3137 11.753C12.6604 12.3596 12.4537 13.133 11.8471 13.4796L10.6937 14.1396C10.1671 14.453 9.48707 14.2663 9.17374 13.7396L9.10041 13.613C8.50041 12.5663 7.51374 12.5663 6.90707 13.613L6.83374 13.7396C6.52041 14.2663 5.84041 14.453 5.31374 14.1396L4.16041 13.4796C3.55374 13.133 3.34707 12.353 3.69374 11.753C4.30041 10.7063 3.80707 9.85296 2.60041 9.85296C1.90041 9.85296 1.33374 9.27963 1.33374 8.5863Z" stroke="#B1B0B5" stroke-width="1.37" stroke-linecap="round" stroke-linejoin="round"/>
</svg>
