<svg width="16" height="16" viewBox="0 0 16 16" fill="none" xmlns="http://www.w3.org/2000/svg">
<path d="M6.33398 9.1667C6.33398 9.81336 6.83399 10.3334 7.44733 10.3334H8.70064C9.23398 10.3334 9.66732 9.88003 9.66732 9.31336C9.66732 8.7067 9.40066 8.4867 9.00732 8.3467L7.00065 7.6467C6.60732 7.5067 6.34066 7.29337 6.34066 6.68003C6.34066 6.12003 6.77398 5.66003 7.30731 5.66003H8.56065C9.17398 5.66003 9.67399 6.18003 9.67399 6.8267" stroke="#00E965" stroke-linecap="round" stroke-linejoin="round"/>
<path d="M8 5V11" stroke="#00E965" stroke-linecap="round" stroke-linejoin="round"/>
<path d="M14.6673 7.99998C14.6673 11.68 11.6807 14.6666 8.00065 14.6666C4.32065 14.6666 1.33398 11.68 1.33398 7.99998C1.33398 4.31998 4.32065 1.33331 8.00065 1.33331" stroke="#00E965" stroke-linecap="round" stroke-linejoin="round"/>
<path d="M11.1152 3.47137L13.0009 5.35699L14.8865 3.47137" stroke="#00E965" stroke-linecap="round" stroke-linejoin="round"/>
<path d="M12.9996 0.642978V5.35702" stroke="#00E965" stroke-linecap="round" stroke-linejoin="round"/>
</svg>
