<svg width="18" height="18" viewBox="0 0 18 18" fill="none" xmlns="http://www.w3.org/2000/svg">
<circle cx="9" cy="9" r="9" fill="#0C521F"/>
<path d="M11.167 6.9929C11.114 6.52225 10.8952 6.15767 10.5107 5.89915C10.1263 5.63731 9.64237 5.50639 9.05904 5.50639C8.64142 5.50639 8.28016 5.57268 7.97523 5.70526C7.67031 5.83452 7.43333 6.01349 7.26429 6.24219C7.09857 6.46757 7.01571 6.72443 7.01571 7.01278C7.01571 7.25473 7.07206 7.46354 7.18475 7.6392C7.30075 7.81487 7.45156 7.96236 7.63716 8.08168C7.82608 8.19768 8.02826 8.29545 8.2437 8.375C8.45913 8.45123 8.66628 8.5142 8.86515 8.56392L9.85946 8.82244C10.1843 8.90199 10.5174 9.00971 10.8588 9.1456C11.2001 9.28149 11.5167 9.46046 11.8083 9.68253C12.1 9.90459 12.3353 10.1797 12.5143 10.5078C12.6966 10.8359 12.7877 11.2287 12.7877 11.6861C12.7877 12.2628 12.6386 12.7749 12.3403 13.2223C12.0453 13.6697 11.6161 14.0227 11.0526 14.2812C10.4925 14.5398 9.81472 14.669 9.01926 14.669C8.25695 14.669 7.59739 14.5481 7.04057 14.3061C6.48375 14.0642 6.04791 13.7211 5.73304 13.277C5.41818 12.8295 5.24417 12.2992 5.21103 11.6861H6.75222C6.78205 12.054 6.90137 12.3606 7.11017 12.6058C7.3223 12.8478 7.59242 13.0284 7.92054 13.1477C8.25198 13.2637 8.61491 13.3217 9.00932 13.3217C9.44351 13.3217 9.82963 13.2538 10.1677 13.1179C10.5091 12.9787 10.7776 12.7865 10.9731 12.5412C11.1686 12.2926 11.2664 12.0026 11.2664 11.6712C11.2664 11.3696 11.1802 11.1226 11.0079 10.9304C10.8389 10.7382 10.6085 10.5791 10.3169 10.4531C10.0285 10.3272 9.70203 10.2161 9.33745 10.12L8.13432 9.7919C7.31898 9.56984 6.67267 9.24337 6.1954 8.8125C5.72144 8.38163 5.48446 7.81155 5.48446 7.10227C5.48446 6.51562 5.64355 6.00355 5.96174 5.56605C6.27992 5.12855 6.71079 4.78883 7.25435 4.54688C7.79791 4.30161 8.41107 4.17898 9.09384 4.17898C9.78323 4.17898 10.3914 4.29995 10.9184 4.5419C11.4487 4.78385 11.8663 5.11695 12.1713 5.54119C12.4762 5.96212 12.6353 6.44602 12.6485 6.9929H11.167Z" fill="white"/>
</svg>
