<svg width="24" height="25" viewBox="0 0 24 25" fill="none" xmlns="http://www.w3.org/2000/svg">
<path d="M11.3255 7.60603C11.0833 7.3154 10.6514 7.27613 10.3608 7.51832C10.0701 7.76052 10.0309 8.19245 10.2731 8.48308L11.3255 7.60603ZM14.3349 12.2872L14.8611 12.7258C15.0728 12.4717 15.0728 12.1027 14.8611 11.8487L14.3349 12.2872ZM10.2731 16.0914C10.0309 16.382 10.0701 16.8139 10.3608 17.0561C10.6514 17.2983 11.0833 17.2591 11.3255 16.9684L10.2731 16.0914ZM10.2731 8.48308L13.8086 12.7258L14.8611 11.8487L11.3255 7.60603L10.2731 8.48308ZM13.8086 11.8487L10.2731 16.0914L11.3255 16.9684L14.8611 12.7258L13.8086 11.8487ZM11.9999 3.58502C16.9235 3.58502 20.9149 7.5764 20.9149 12.5H22.2849C22.2849 6.81977 17.6801 2.21502 11.9999 2.21502V3.58502ZM20.9149 12.5C20.9149 17.4236 16.9235 21.415 11.9999 21.415V22.785C17.6802 22.785 22.2849 18.1803 22.2849 12.5H20.9149ZM11.9999 21.415C7.07628 21.415 3.0849 17.4236 3.0849 12.5H1.7149C1.7149 18.1803 6.31965 22.785 11.9999 22.785V21.415ZM3.0849 12.5C3.0849 7.57641 7.07628 3.58502 11.9999 3.58502V2.21502C6.31965 2.21502 1.7149 6.81978 1.7149 12.5H3.0849Z" fill="#E6EDF3"/>
</svg>
