<svg width="74" height="15" viewBox="0 0 74 15" fill="none" xmlns="http://www.w3.org/2000/svg">
<path d="M5.98147 0.681125C6.36121 0.248218 6.90913 0 7.48499 0L69.5 0C71.7091 0 73.5 1.79086 73.5 4V11C73.5 13.2091 71.7091 15 69.5 15H7.48499C6.90913 15 6.36121 14.7518 5.98147 14.3189L1.15691 8.81888C0.494934 8.06422 0.494933 6.93578 1.15691 6.18112L5.98147 0.681125Z" fill="#F7BB5B"/>
<path d="M12.858 6.04545C12.8153 5.68561 12.6425 5.40625 12.3395 5.20739C12.0365 5.00852 11.6648 4.90909 11.2244 4.90909C10.9025 4.90909 10.6207 4.96117 10.3793 5.06534C10.1402 5.16951 9.95313 5.31274 9.81818 5.49503C9.68561 5.67732 9.61932 5.88447 9.61932 6.11648C9.61932 6.31061 9.66548 6.47751 9.75781 6.61719C9.85251 6.7545 9.97325 6.86932 10.12 6.96165C10.2668 7.05161 10.4207 7.12618 10.5817 7.18537C10.7427 7.24219 10.8906 7.28835 11.0256 7.32386L11.7642 7.52273C11.9536 7.57244 12.1643 7.6411 12.3963 7.72869C12.6307 7.81629 12.8544 7.93584 13.0675 8.08736C13.2829 8.23651 13.4605 8.42827 13.6001 8.66264C13.7398 8.89702 13.8097 9.18466 13.8097 9.52557C13.8097 9.91856 13.7067 10.2737 13.5007 10.5909C13.2971 10.9081 12.9988 11.1603 12.6058 11.3473C12.2152 11.5343 11.7405 11.6278 11.1818 11.6278C10.661 11.6278 10.21 11.5438 9.82884 11.3757C9.45005 11.2076 9.15175 10.9732 8.93395 10.6726C8.71851 10.3719 8.59659 10.0227 8.56818 9.625H9.47727C9.50095 9.89962 9.59328 10.1269 9.75426 10.3068C9.91761 10.4844 10.1236 10.617 10.3722 10.7045C10.6231 10.7898 10.893 10.8324 11.1818 10.8324C11.518 10.8324 11.8198 10.7779 12.0874 10.669C12.3549 10.5578 12.5668 10.4039 12.723 10.2074C12.8793 10.0085 12.9574 9.77652 12.9574 9.51136C12.9574 9.26989 12.8899 9.07339 12.755 8.92188C12.62 8.77036 12.4425 8.64725 12.2223 8.55256C12.0021 8.45786 11.7642 8.375 11.5085 8.30398L10.6136 8.0483C10.0455 7.88494 9.59564 7.65175 9.2642 7.34872C8.93277 7.04569 8.76705 6.64915 8.76705 6.15909C8.76705 5.75189 8.87713 5.39678 9.0973 5.09375C9.31984 4.78835 9.61813 4.55161 9.99219 4.38352C10.3686 4.21307 10.7888 4.12784 11.2528 4.12784C11.7216 4.12784 12.1383 4.21188 12.5028 4.37997C12.8674 4.54569 13.1563 4.77296 13.3693 5.06179C13.5848 5.35062 13.6984 5.6785 13.7102 6.04545H12.858ZM14.7099 5.00852V4.22727H20.1645V5.00852H17.8775V11.5H16.9968V5.00852H14.7099ZM21.3737 11.5V4.22727H23.831C24.3992 4.22727 24.8656 4.32434 25.2302 4.51847C25.5948 4.71023 25.8647 4.97419 26.0398 5.31037C26.215 5.64654 26.3026 6.02888 26.3026 6.45739C26.3026 6.88589 26.215 7.26586 26.0398 7.5973C25.8647 7.92874 25.596 8.18916 25.2337 8.37855C24.8715 8.56558 24.4087 8.65909 23.8452 8.65909H21.8566V7.86364H23.8168C24.2051 7.86364 24.5176 7.80682 24.7543 7.69318C24.9934 7.57955 25.1663 7.41856 25.2728 7.21023C25.3817 6.99953 25.4362 6.74858 25.4362 6.45739C25.4362 6.16619 25.3817 5.91169 25.2728 5.69389C25.1639 5.47609 24.9899 5.308 24.7508 5.18963C24.5117 5.06889 24.1956 5.00852 23.8026 5.00852H22.2543V11.5H21.3737ZM24.7969 8.23295L26.5867 11.5H25.564L23.8026 8.23295H24.7969ZM27.6201 11.5V4.22727H28.5008V7.83523H28.586L31.8531 4.22727H33.0037L29.9497 7.50852L33.0037 11.5H31.9383L29.4099 8.11932L28.5008 9.14205V11.5H27.6201ZM36.5424 11.5V6.04545H37.3521V6.86932H37.4089C37.5083 6.59943 37.6883 6.38045 37.9487 6.21236C38.2091 6.04427 38.5027 5.96023 38.8294 5.96023C38.8909 5.96023 38.9679 5.96141 39.0602 5.96378C39.1525 5.96615 39.2224 5.9697 39.2697 5.97443V6.8267C39.2413 6.8196 39.1762 6.80895 39.0744 6.79474C38.975 6.77817 38.8696 6.76989 38.7583 6.76989C38.4932 6.76989 38.2565 6.82552 38.0481 6.93679C37.8422 7.04569 37.6788 7.19721 37.5581 7.39134C37.4397 7.5831 37.3805 7.80208 37.3805 8.0483V11.5H36.5424ZM42.2341 11.6136C41.7085 11.6136 41.2551 11.4976 40.874 11.2656C40.4952 11.0312 40.2028 10.7045 39.9968 10.2855C39.7932 9.86411 39.6914 9.37405 39.6914 8.81534C39.6914 8.25663 39.7932 7.7642 39.9968 7.33807C40.2028 6.90956 40.4893 6.57576 40.8562 6.33665C41.2255 6.09517 41.6564 5.97443 42.1488 5.97443C42.4329 5.97443 42.7135 6.02178 42.9904 6.11648C43.2674 6.21117 43.5196 6.36506 43.7468 6.57812C43.9741 6.78883 44.1552 7.06818 44.2902 7.41619C44.4251 7.7642 44.4926 8.19271 44.4926 8.7017V9.05682H40.288V8.33239H43.6403C43.6403 8.02462 43.5788 7.75 43.4556 7.50852C43.3349 7.26705 43.1621 7.07647 42.9372 6.93679C42.7146 6.79711 42.4519 6.72727 42.1488 6.72727C41.815 6.72727 41.5262 6.81013 41.2824 6.97585C41.0409 7.1392 40.855 7.35227 40.7248 7.61506C40.5946 7.87784 40.5295 8.15956 40.5295 8.46023V8.94318C40.5295 9.35511 40.6005 9.70431 40.7426 9.99077C40.887 10.2749 41.087 10.4915 41.3427 10.6406C41.5984 10.7874 41.8955 10.8608 42.2341 10.8608C42.4542 10.8608 42.6531 10.83 42.8306 10.7685C43.0106 10.7045 43.1656 10.6098 43.2958 10.4844C43.4261 10.3565 43.5267 10.1979 43.5977 10.0085L44.4074 10.2358C44.3221 10.5104 44.1789 10.7519 43.9777 10.9602C43.7764 11.1662 43.5279 11.3272 43.2319 11.4432C42.936 11.5568 42.6034 11.6136 42.2341 11.6136ZM46.8532 11.5L45.1913 6.04545H46.072L47.251 10.2216H47.3078L48.4726 6.04545H49.3674L50.518 10.2074H50.5748L51.7538 6.04545H52.6345L50.9726 11.5H50.1487L48.9555 7.30966H48.8703L47.6771 11.5H46.8532ZM55.1975 11.6278C54.8519 11.6278 54.5382 11.5627 54.2565 11.4325C53.9748 11.3 53.7511 11.1094 53.5853 10.8608C53.4196 10.6098 53.3368 10.3068 53.3368 9.9517C53.3368 9.6392 53.3983 9.38589 53.5214 9.19176C53.6445 8.99527 53.8091 8.84138 54.015 8.73011C54.221 8.61884 54.4483 8.53598 54.6968 8.48153C54.9478 8.42472 55.1999 8.37973 55.4532 8.34659C55.7847 8.30398 56.0534 8.27202 56.2593 8.25071C56.4677 8.22704 56.6192 8.18797 56.7139 8.13352C56.8109 8.07907 56.8595 7.98437 56.8595 7.84943V7.82102C56.8595 7.47064 56.7636 7.19839 56.5718 7.00426C56.3824 6.81013 56.0948 6.71307 55.7089 6.71307C55.3088 6.71307 54.9951 6.80066 54.7679 6.97585C54.5406 7.15104 54.3808 7.33807 54.2885 7.53693L53.493 7.25284C53.635 6.9214 53.8244 6.66335 54.0612 6.47869C54.3003 6.29167 54.5607 6.16146 54.8424 6.08807C55.1265 6.01231 55.4059 5.97443 55.6805 5.97443C55.8557 5.97443 56.0569 5.99574 56.2842 6.03835C56.5138 6.0786 56.7352 6.16264 56.9483 6.29048C57.1637 6.41832 57.3424 6.61127 57.4845 6.86932C57.6265 7.12737 57.6975 7.47301 57.6975 7.90625V11.5H56.8595V10.7614H56.8169C56.76 10.8797 56.6654 11.0064 56.5328 11.1413C56.4002 11.2763 56.2238 11.3911 56.0037 11.4858C55.7835 11.5805 55.5148 11.6278 55.1975 11.6278ZM55.3254 10.875C55.6568 10.875 55.9362 10.8099 56.1635 10.6797C56.3931 10.5495 56.5659 10.3814 56.6819 10.1754C56.8003 9.96946 56.8595 9.75284 56.8595 9.52557V8.75852C56.824 8.80114 56.7458 8.8402 56.6251 8.87571C56.5067 8.90885 56.3694 8.93845 56.2132 8.96449C56.0593 8.98816 55.909 9.00947 55.7622 9.02841C55.6178 9.04498 55.5006 9.05919 55.4106 9.07102C55.1928 9.09943 54.9892 9.1456 54.7998 9.20952C54.6128 9.27107 54.4613 9.36458 54.3453 9.49006C54.2316 9.61316 54.1748 9.78125 54.1748 9.99432C54.1748 10.2855 54.2825 10.5057 54.498 10.6548C54.7158 10.8016 54.9916 10.875 55.3254 10.875ZM59.0772 11.5V6.04545H59.8869V6.86932H59.9437C60.0431 6.59943 60.223 6.38045 60.4835 6.21236C60.7439 6.04427 61.0374 5.96023 61.3641 5.96023C61.4257 5.96023 61.5026 5.96141 61.595 5.96378C61.6873 5.96615 61.7571 5.9697 61.8045 5.97443V6.8267C61.7761 6.8196 61.711 6.80895 61.6092 6.79474C61.5097 6.77817 61.4044 6.76989 61.2931 6.76989C61.028 6.76989 60.7912 6.82552 60.5829 6.93679C60.3769 7.04569 60.2136 7.19721 60.0928 7.39134C59.9745 7.5831 59.9153 7.80208 59.9153 8.0483V11.5H59.0772ZM64.5415 11.6136C64.087 11.6136 63.6857 11.4988 63.3377 11.2692C62.9897 11.0372 62.7174 10.7105 62.521 10.2891C62.3245 9.86529 62.2262 9.36458 62.2262 8.78693C62.2262 8.21402 62.3245 7.71686 62.521 7.29545C62.7174 6.87405 62.9909 6.54853 63.3413 6.31889C63.6916 6.08925 64.0965 5.97443 64.5558 5.97443C64.9109 5.97443 65.1914 6.03362 65.3974 6.15199C65.6057 6.26799 65.7643 6.40057 65.8732 6.54972C65.9845 6.6965 66.0709 6.81723 66.1325 6.91193H66.2035V4.22727H67.0415V11.5H66.2319V10.6619H66.1325C66.0709 10.7614 65.9833 10.8868 65.8697 11.0384C65.756 11.1875 65.5939 11.3213 65.3832 11.4396C65.1725 11.5556 64.8919 11.6136 64.5415 11.6136ZM64.6552 10.8608C64.9914 10.8608 65.2754 10.7732 65.5075 10.598C65.7395 10.4205 65.9158 10.1754 66.0366 9.86293C66.1573 9.54806 66.2177 9.18466 66.2177 8.77273C66.2177 8.36553 66.1585 8.00923 66.0401 7.70384C65.9218 7.39607 65.7466 7.15696 65.5146 6.98651C65.2826 6.81368 64.9961 6.72727 64.6552 6.72727C64.3001 6.72727 64.0041 6.81842 63.7674 7.00071C63.533 7.18063 63.3567 7.42566 63.2383 7.7358C63.1223 8.04356 63.0643 8.3892 63.0643 8.77273C63.0643 9.16098 63.1235 9.51373 63.2418 9.83097C63.3626 10.1458 63.5401 10.3968 63.7745 10.5838C64.0112 10.7685 64.3048 10.8608 64.6552 10.8608Z" fill="black"/>
</svg>
