<svg width="16" height="16" viewBox="0 0 16 16" fill="none" xmlns="http://www.w3.org/2000/svg">
<g clip-path="url(#clip0_68_768)">
<path d="M0.202515 8.0001C0.202515 12.3069 3.69315 15.7976 7.99998 15.7976C12.3068 15.7976 15.7975 12.3069 15.7975 8.0001C15.7975 3.69327 12.3068 0.202637 7.99998 0.202637C3.69315 0.202637 0.202515 3.69327 0.202515 8.0001Z" fill="#0C0C4F"/>
<path fill-rule="evenodd" clip-rule="evenodd" d="M0 8C0 3.58131 3.58131 0 8 0C12.4187 0 16 3.58131 16 8C16 12.4187 12.4187 16 8 16C3.58131 16 0 12.4187 0 8ZM8 0.405063C3.80502 0.405063 0.405063 3.80502 0.405063 8C0.405063 12.195 3.80502 15.5949 8 15.5949C12.195 15.5949 15.5949 12.195 15.5949 8C15.5949 3.80502 12.195 0.405063 8 0.405063Z" fill="#EC796B"/>
<path fill-rule="evenodd" clip-rule="evenodd" d="M4.47092 6.11545L4.66839 5.50583C4.70889 5.38128 4.80611 5.28507 4.93067 5.2476L5.54332 5.05925C5.62839 5.03292 5.62839 4.91343 5.54434 4.88609L4.9337 4.68862C4.81016 4.64811 4.71294 4.5509 4.67548 4.42634L4.48712 3.81368C4.46079 3.72862 4.3413 3.72862 4.31396 3.81267L4.11649 4.42229C4.07598 4.54583 3.97877 4.64305 3.85421 4.68052L3.24155 4.86887C3.15649 4.8952 3.15548 5.01469 3.24054 5.04203L3.85117 5.2395C3.97472 5.28001 4.07193 5.37824 4.1094 5.50279L4.29775 6.11545C4.32408 6.20052 4.44358 6.20153 4.47092 6.11647V6.11545Z" fill="#FAFAFA"/>
<path fill-rule="evenodd" clip-rule="evenodd" d="M14.1621 5.75996C13.9089 5.47742 13.515 5.31844 13.1312 5.25261C12.7443 5.18983 12.3393 5.19591 11.9575 5.26375C11.1859 5.39439 10.4841 5.71439 9.87245 6.10831C9.55447 6.30173 9.28409 6.52553 9.00258 6.75439C8.86688 6.86983 8.74435 6.99236 8.61574 7.11388L8.26435 7.46325C7.88258 7.86223 7.50688 8.22477 7.14334 8.52553C6.77777 8.82527 6.4365 9.05211 6.1003 9.2111C5.76409 9.3711 5.4046 9.46426 4.93574 9.47945C4.47093 9.49565 3.92106 9.4116 3.3327 9.27388C2.74131 9.13616 2.12055 8.9397 1.42688 8.77059C1.66891 9.44198 2.03346 10.0354 2.50131 10.5782C2.97523 11.1108 3.56663 11.5969 4.32612 11.9169C5.07447 12.244 6.01523 12.3605 6.89523 12.1843C7.77726 12.0141 8.55093 11.606 9.17675 11.1341C9.80359 10.6572 10.3119 10.1144 10.7393 9.54932C10.8578 9.39337 10.9195 9.30629 11.0056 9.18375L11.2416 8.83337C11.4056 8.61667 11.5555 8.37059 11.7175 8.15591C12.0365 7.70629 12.3504 7.25768 12.715 6.84451C12.8983 6.63489 13.0927 6.43439 13.3216 6.24198C13.436 6.1478 13.5585 6.05565 13.6952 5.97261C13.834 5.8835 13.9798 5.81363 14.16 5.75894L14.1621 5.75996Z" fill="#EC796B"/>
<path fill-rule="evenodd" clip-rule="evenodd" d="M14.162 5.76006C13.8906 5.07449 13.3853 4.49829 12.7079 4.07297C12.0344 3.6517 11.0987 3.43702 10.1722 3.62031C9.71444 3.70841 9.27089 3.87955 8.88102 4.10639C8.49317 4.33221 8.14583 4.60462 7.84608 4.89727C7.69621 5.04411 7.5595 5.19702 7.42482 5.34993L7.07444 5.79753L6.53267 6.51753C5.84203 7.44411 5.09874 8.52968 3.87748 8.85069C2.6795 9.16664 2.16001 8.88715 1.42786 8.7717C1.56153 9.11702 1.7276 9.45221 1.9514 9.74689C2.17216 10.0477 2.43241 10.3302 2.75545 10.5732C2.91849 10.6897 3.09165 10.8041 3.28305 10.9013C3.47444 10.9955 3.68001 11.0785 3.89975 11.1403C4.33722 11.2598 4.82938 11.3023 5.30532 11.2375C5.78229 11.1737 6.23798 11.0228 6.63596 10.8223C7.03697 10.6239 7.38634 10.3818 7.69824 10.1266C8.31899 9.6112 8.80102 9.04208 9.20811 8.46689C9.41267 8.1793 9.599 7.88664 9.77115 7.59297L9.97368 7.2436C10.0355 7.14132 10.0982 7.03905 10.162 6.94284C10.4192 6.55905 10.6694 6.2512 10.9752 6.0193C11.276 5.78234 11.6942 5.60715 12.2542 5.56664C12.8111 5.52512 13.4542 5.60107 14.161 5.76006H14.162Z" fill="#FAFAFA"/>
<path fill-rule="evenodd" clip-rule="evenodd" d="M11.1473 11.4531C11.1473 11.9564 11.5554 12.3645 12.0587 12.3645C12.562 12.3645 12.9701 11.9564 12.9701 11.4531C12.9701 10.9498 12.562 10.5417 12.0587 10.5417C11.5554 10.5417 11.1473 10.9498 11.1473 11.4531Z" fill="#EC796B"/>
</g>
<defs>
<clipPath id="clip0_68_768">
<rect width="16" height="16" fill="white"/>
</clipPath>
</defs>
</svg>
