<svg width="137" height="81" viewBox="0 0 137 81" fill="none" xmlns="http://www.w3.org/2000/svg">
    <g opacity="0.25">
        <path
            d="M89.8762 71.7401L89.8762 73.8472C89.835 73.957 89.7664 74.06 89.7526 74.1698C89.3408 76.6613 87.9475 78.432 85.7512 79.5988C83.6167 80.7313 81.2968 80.9921 78.9426 80.9921C56.2725 80.999 33.5955 81.0127 10.9254 80.9715C9.27812 80.9715 7.58283 80.7451 5.99736 80.3264C1.97535 79.2557 -0.269011 76.0985 0.0261194 72.1588C0.190843 69.9282 1.05564 67.9172 2.1538 65.9954C13.5403 46.1462 24.9132 26.2901 36.3272 6.45455C37.1371 5.0544 38.1323 3.70914 39.2647 2.54922C42.4425 -0.683496 46.5469 -0.827623 50.0542 2.03445C51.5779 3.27675 52.6554 4.86908 53.6232 6.55063C64.4126 25.3635 75.1952 44.1763 85.9846 62.9892C87.5769 65.7689 89.3477 68.48 89.8693 71.7401L89.8762 71.7401Z"
            fill="#676D9A" />
        <path
            d="M136.888 73.6996L136.888 75.3608C136.856 75.4474 136.802 75.5285 136.791 75.6151C136.466 77.5794 135.366 78.9754 133.632 79.8953C131.947 80.7882 130.115 80.9938 128.256 80.9938C110.359 80.9992 92.4554 81.01 74.5576 80.9776C73.2571 80.9776 71.9187 80.799 70.667 80.4689C67.4917 79.6248 65.7198 77.1356 65.9528 74.0296C66.0828 72.271 66.7656 70.6855 67.6326 69.1704C76.6221 53.5214 85.6008 37.8669 94.612 22.2287C95.2514 21.1248 96.0371 20.0642 96.9312 19.1497C99.44 16.6011 102.68 16.4874 105.449 18.7439C106.652 19.7233 107.503 20.9787 108.267 22.3044C116.785 37.1364 125.298 51.9684 133.816 66.8003C135.073 68.9919 136.471 71.1293 136.883 73.6996L136.888 73.6996Z"
            fill="#676D9A" />
    </g>
</svg>