<svg width="16" height="16" viewBox="0 0 16 16" fill="none" xmlns="http://www.w3.org/2000/svg">
<path d="M6.73954 7.43335H4.97288C4.55288 7.43335 4.21289 7.77332 4.21289 8.19332V11.6066H6.73954V7.43335V7.43335Z" stroke="#7956EC" stroke-miterlimit="10" stroke-linecap="round" stroke-linejoin="round"/>
<path d="M8.50771 4.40002H7.49436C7.07436 4.40002 6.73438 4.74003 6.73438 5.16003V11.6001H9.26105V5.16003C9.26105 4.74003 8.92771 4.40002 8.50771 4.40002Z" stroke="#7956EC" stroke-miterlimit="10" stroke-linecap="round" stroke-linejoin="round"/>
<path d="M11.0323 8.56665H9.26562V11.6H11.7923V9.32666C11.7856 8.90666 11.4456 8.56665 11.0323 8.56665Z" stroke="#7956EC" stroke-miterlimit="10" stroke-linecap="round" stroke-linejoin="round"/>
<path d="M6.00065 14.6667H10.0007C13.334 14.6667 14.6673 13.3334 14.6673 10V6.00004C14.6673 2.66671 13.334 1.33337 10.0007 1.33337H6.00065C2.66732 1.33337 1.33398 2.66671 1.33398 6.00004V10C1.33398 13.3334 2.66732 14.6667 6.00065 14.6667Z" stroke="#7956EC" stroke-linecap="round" stroke-linejoin="round"/>
</svg>
