<svg width="22" height="22" viewBox="0 0 22 22" fill="none" xmlns="http://www.w3.org/2000/svg">
<path d="M13.5 7.25007C13.5 8.6308 12.3807 9.7501 11 9.7501C9.61929 9.7501 8.5 8.6308 8.5 7.25007C8.5 5.86934 9.61929 4.75004 11 4.75004C12.3807 4.75004 13.5 5.86934 13.5 7.25007Z" fill="white"/>
<path d="M4.75 4.75004V9.12509M17.25 4.75004V9.12509M16.625 13.5001H19.125C20.1605 13.5001 21 12.6607 21 11.6251V2.87502C21 1.83948 20.1605 1 19.125 1H2.875C1.83947 1 1 1.83948 1 2.87502V11.6251C1 12.6607 1.83947 13.5001 2.875 13.5001H5.375M7.46347 17.4644L10.999 21M10.999 21L14.2964 17.7026M10.999 21L10.9992 13.7683M13.5 7.25007C13.5 8.6308 12.3807 9.7501 11 9.7501C9.61929 9.7501 8.5 8.6308 8.5 7.25007C8.5 5.86934 9.61929 4.75004 11 4.75004C12.3807 4.75004 13.5 5.86934 13.5 7.25007Z" stroke="white" stroke-width="1.5" stroke-linecap="round" stroke-linejoin="round"/>
</svg>
