<svg width="18" height="18" viewBox="0 0 18 18" fill="none" xmlns="http://www.w3.org/2000/svg">
<path d="M11 6.00006C11 7.10464 10.1046 8.00008 9 8.00008C7.89543 8.00008 7 7.10464 7 6.00006C7 4.89547 7.89543 4.00003 9 4.00003C10.1046 4.00003 11 4.89547 11 6.00006Z" fill="#676D9A"/>
<path d="M4 4.00003V7.50007M14 4.00003V7.50007M13.5 11.0001H15.5C16.3284 11.0001 17 10.3285 17 9.5001V2.50002C17 1.67158 16.3284 1 15.5 1H2.5C1.67157 1 1 1.67158 1 2.50002V9.5001C1 10.3285 1.67157 11.0001 2.5 11.0001H4.5M6.17078 14.1715L8.99921 17M8.99921 17L11.6371 14.3621M8.99921 17L8.99932 11.2147M11 6.00006C11 7.10464 10.1046 8.00008 9 8.00008C7.89543 8.00008 7 7.10464 7 6.00006C7 4.89548 7.89543 4.00003 9 4.00003C10.1046 4.00003 11 4.89548 11 6.00006Z" stroke="#676D9A" stroke-width="1.37" stroke-linecap="round" stroke-linejoin="round"/>
</svg>
