<svg width="36" height="36" viewBox="0 0 36 36" fill="none" xmlns="http://www.w3.org/2000/svg">
<path d="M25.3506 25.35C29.4006 21.3 29.4006 14.55 25.3506 10.5" stroke="#231F20" stroke-width="1.5" stroke-miterlimit="10" stroke-linecap="round" stroke-linejoin="round"/>
<path d="M10.6508 10.6494C6.60078 14.6994 6.60078 21.4494 10.6508 25.4994" stroke="#231F20" stroke-width="1.5" stroke-miterlimit="10" stroke-linecap="round" stroke-linejoin="round"/>
<path d="M14.5498 20.4012C14.5498 21.7512 15.5998 22.8012 16.9498 22.8012H19.4998C20.5498 22.8012 21.5998 21.9012 21.5998 20.7012C21.5998 19.3512 20.9998 18.9012 20.2498 18.6012L16.0498 17.1012C14.9998 16.9512 14.5498 16.5012 14.5498 15.3012C14.5498 14.1012 15.4498 13.2012 16.6498 13.2012H19.3498C20.6998 13.2012 21.7498 14.2512 21.7498 15.6012" stroke="#231F20" stroke-width="1.5" stroke-linecap="round" stroke-linejoin="round"/>
<path d="M18 11.7012V24.3012" stroke="#231F20" stroke-width="1.5" stroke-linecap="round" stroke-linejoin="round"/>
<path d="M18 33C26.2843 33 33 26.2843 33 18C33 9.71573 26.2843 3 18 3C9.71573 3 3 9.71573 3 18C3 26.2843 9.71573 33 18 33Z" stroke="#231F20" stroke-width="1.5" stroke-miterlimit="10" stroke-linecap="round" stroke-linejoin="round"/>
</svg>
