<svg width="20" height="19" viewBox="0 0 20 19" fill="none" xmlns="http://www.w3.org/2000/svg">
<path d="M13.0204 11.6205C13.0204 9.7746 11.9104 9.14598 9.69043 8.87658C8.11043 8.66704 7.79044 8.24797 7.79044 7.5096C7.79044 6.77122 8.32044 6.29225 9.37044 6.29225C10.3204 6.29225 10.8504 6.61153 11.1104 7.39979C11.1604 7.55944 11.3204 7.65923 11.4804 7.65923H12.3304C12.5404 7.65923 12.7004 7.49959 12.7004 7.29005V7.24017C12.4904 6.08272 11.5404 5.18472 10.3204 5.07496V3.80773C10.3204 3.59819 10.1604 3.43856 9.90044 3.38867H9.11043C8.90043 3.38867 8.74043 3.5483 8.69043 3.80773V5.02502C7.11043 5.23456 6.10043 6.29225 6.10043 7.60935C6.10043 9.34553 7.16043 10.034 9.38043 10.2934C10.8604 10.5529 11.3304 10.8722 11.3304 11.7203C11.3304 12.5684 10.5904 13.1471 9.59044 13.1471C8.22044 13.1471 7.74043 12.5684 7.58043 11.7802C7.53043 11.5706 7.37043 11.4608 7.21043 11.4608H6.31044C6.10044 11.4608 5.94043 11.6205 5.94043 11.83V11.88C6.15043 13.1971 7.00043 14.145 8.74043 14.4144V15.6816C8.74043 15.8911 8.90043 16.0508 9.16043 16.1006H9.95044C10.1604 16.1006 10.3204 15.941 10.3704 15.6816V14.4144C11.9604 14.1549 13.0204 13.0474 13.0204 11.6205Z" fill="#2775CA"/>
<path d="M6.84052 17.1587C2.72052 15.682 0.61051 11.0921 2.14051 7.041C2.93051 4.82588 4.68052 3.13959 6.84052 2.35133C7.05052 2.24157 7.16051 2.09193 7.16051 1.82252V1.08416C7.16051 0.874621 7.05052 0.714929 6.84052 0.665039C6.79052 0.665039 6.68052 0.665088 6.63052 0.714978C1.61052 2.2915 -1.13948 7.61976 0.450523 12.6287C1.40052 15.5822 3.67052 17.8472 6.63052 18.7951C6.84052 18.9049 7.05051 18.7951 7.11051 18.5856C7.16051 18.5357 7.16051 18.4758 7.16051 18.376V17.6376C7.16051 17.478 7.00052 17.2585 6.84052 17.1587ZM12.4405 0.714978C12.2305 0.60522 12.0205 0.714939 11.9605 0.924477C11.9105 0.974367 11.9105 1.03426 11.9105 1.13404V1.8724C11.9105 2.08194 12.0705 2.29151 12.2305 2.40126C16.3505 3.87801 18.4605 8.46785 16.9305 12.5189C16.1405 14.734 14.3905 16.4203 12.2305 17.2086C12.0205 17.3184 11.9105 17.4681 11.9105 17.7375V18.4758C11.9105 18.6854 12.0205 18.845 12.2305 18.8949C12.2805 18.8949 12.3905 18.8949 12.4405 18.845C17.4605 17.2685 20.2105 11.9402 18.6205 6.93126C17.6705 3.92788 15.3405 1.66289 12.4405 0.714978Z" fill="#2775CA"/>
</svg>
