<svg width="24" height="23" viewBox="0 0 24 23" fill="none" xmlns="http://www.w3.org/2000/svg">
<path fill-rule="evenodd" clip-rule="evenodd" d="M9.00148 22.4115C9.00148 22.7878 8.70683 23.0015 8.34292 22.8879C3.50654 21.3451 0 16.81 0 11.4591C0 6.10828 3.50654 1.5731 8.34292 0.0302266C8.70683 -0.0826531 9.00148 0.130382 9.00148 0.506648V1.4355C9.00148 1.68598 8.80735 1.98081 8.56868 2.06243C4.74222 3.46751 2.00112 7.14347 2.00112 11.4527C2.00112 15.762 4.74222 19.4386 8.56868 20.843C8.80735 20.931 9.00148 21.2193 9.00148 21.4707V22.4115Z" fill="#2775CA"/>
<path fill-rule="evenodd" clip-rule="evenodd" d="M12.997 18.954C12.997 19.2303 12.7712 19.456 12.4953 19.456H11.4977C11.2218 19.456 10.996 19.2303 10.996 18.954V17.3735C8.81297 17.0788 7.74688 15.8553 7.45823 14.1932C7.40788 13.9105 7.63364 13.6535 7.92229 13.6535H9.06399C9.3023 13.6535 9.50315 13.8231 9.55332 14.0611C9.76672 15.0523 10.3375 15.8113 12.0874 15.8113C13.3796 15.8113 14.2957 15.0899 14.2957 14.0114C14.2957 12.9321 13.756 12.5245 11.8616 12.2106C9.06399 11.8344 7.74052 10.9873 7.74052 8.79188C7.74052 7.09832 9.02037 5.78121 11.0024 5.49873V3.94932C11.0024 3.67321 11.2283 3.44727 11.5041 3.44727H12.5016C12.7776 3.44727 13.0033 3.67321 13.0033 3.94932V5.54272C14.6155 5.83174 15.6379 6.74695 15.9706 8.26492C16.0331 8.55394 15.8073 8.82314 15.5127 8.82314H14.4586C14.2328 8.82314 14.0447 8.67245 13.9758 8.45306C13.6935 7.48749 13.0033 7.0736 11.8051 7.0736C10.4816 7.0736 9.7978 7.71325 9.7978 8.61011C9.7978 9.55732 10.187 10.0337 12.2195 10.3291C14.9666 10.7054 16.3846 11.4894 16.3846 13.8297C16.3846 15.6047 15.0672 17.0412 13.0033 17.3735V18.954H12.997Z" fill="#2775CA"/>
<path fill-rule="evenodd" clip-rule="evenodd" d="M15.6566 22.8887C15.2931 23.0023 14.998 22.7885 14.998 22.4122V21.4841C14.998 21.208 15.1675 20.951 15.4308 20.8565C19.2573 19.4514 21.9984 15.7754 21.9984 11.4662C21.9984 7.15694 19.2573 3.48099 15.4308 2.0759C15.1925 1.98792 14.998 1.69963 14.998 1.44824V0.520118C14.998 0.143852 15.2931 -0.0755454 15.6566 0.0429692C20.493 1.58675 23.9995 6.12175 23.9995 11.4725C23.9935 16.8106 20.493 21.3394 15.6566 22.8887Z" fill="#2775CA"/>
</svg>
