<svg width="78" height="18" viewBox="0 0 78 18" fill="none" xmlns="http://www.w3.org/2000/svg">
<rect width="78" height="18" rx="9" fill="#2775CA"/>
<path fill-rule="evenodd" clip-rule="evenodd" d="M18.735 13.3923C18.735 13.551 18.6107 13.6412 18.4571 13.5933C16.4168 12.9424 14.9375 11.0292 14.9375 8.77175C14.9375 6.51441 16.4168 4.60114 18.4571 3.95025C18.6107 3.90263 18.735 3.9925 18.735 4.15124V4.5431C18.735 4.64877 18.6531 4.77315 18.5524 4.80758C16.9381 5.40034 15.7817 6.95112 15.7817 8.76907C15.7817 10.587 16.9381 12.1381 18.5524 12.7306C18.6531 12.7677 18.735 12.8893 18.735 12.9954V13.3923Z" fill="white"/>
<path fill-rule="evenodd" clip-rule="evenodd" d="M20.4197 11.9325C20.4197 12.049 20.3244 12.1443 20.208 12.1443H19.7872C19.6708 12.1443 19.5756 12.049 19.5756 11.9325V11.2657C18.6546 11.1414 18.2048 10.6252 18.0831 9.92403C18.0618 9.80478 18.1571 9.69635 18.2788 9.69635H18.7605C18.861 9.69635 18.9457 9.7679 18.9669 9.86828C19.0569 10.2864 19.2977 10.6067 20.036 10.6067C20.5811 10.6067 20.9676 10.3023 20.9676 9.84734C20.9676 9.39199 20.7399 9.22007 19.9407 9.08764C18.7605 8.9289 18.2021 8.57155 18.2021 7.64536C18.2021 6.9309 18.7421 6.37525 19.5782 6.25608V5.60243C19.5782 5.48594 19.6736 5.39062 19.7899 5.39062H20.2107C20.3271 5.39062 20.4224 5.48594 20.4224 5.60243V6.27464C21.1025 6.39656 21.5338 6.78267 21.6742 7.42306C21.7005 7.54498 21.6053 7.65855 21.481 7.65855H21.0363C20.9411 7.65855 20.8617 7.59498 20.8326 7.50242C20.7135 7.09508 20.4224 6.92047 19.9169 6.92047C19.3585 6.92047 19.0701 7.19032 19.0701 7.56868C19.0701 7.96828 19.2342 8.16927 20.0917 8.29388C21.2506 8.45262 21.8488 8.78335 21.8488 9.77066C21.8488 10.5195 21.293 11.1255 20.4224 11.2657V11.9325H20.4197Z" fill="white"/>
<path fill-rule="evenodd" clip-rule="evenodd" d="M21.5435 13.5929C21.3901 13.6409 21.2656 13.5507 21.2656 13.392V13.0004C21.2656 12.8839 21.3371 12.7755 21.4482 12.7356C23.0625 12.1429 24.2189 10.5921 24.2189 8.77413C24.2189 6.95618 23.0625 5.4054 21.4482 4.81264C21.3477 4.77552 21.2656 4.6539 21.2656 4.54785V4.1563C21.2656 3.99756 21.3901 3.905 21.5435 3.955C23.5838 4.60628 25.0631 6.51947 25.0631 8.77681C25.0606 11.0288 23.5838 12.9394 21.5435 13.5929Z" fill="white"/>
<path d="M38.7687 4.27273H40.0897V10.0128C40.0897 10.6236 39.9462 11.1648 39.6593 11.6364C39.3724 12.1051 38.969 12.4744 38.4491 12.7443C37.9292 13.0114 37.3198 13.1449 36.621 13.1449C35.9249 13.1449 35.317 13.0114 34.7971 12.7443C34.2772 12.4744 33.8738 12.1051 33.5869 11.6364C33.2999 11.1648 33.1565 10.6236 33.1565 10.0128V4.27273H34.4732V9.90625C34.4732 10.3011 34.5599 10.652 34.7332 10.9588C34.9093 11.2656 35.1579 11.5071 35.4789 11.6832C35.7999 11.8565 36.1806 11.9432 36.621 11.9432C37.0641 11.9432 37.4462 11.8565 37.7673 11.6832C38.0911 11.5071 38.3383 11.2656 38.5087 10.9588C38.682 10.652 38.7687 10.3011 38.7687 9.90625V4.27273ZM46.6141 6.56534C46.5686 6.16193 46.3811 5.84943 46.0516 5.62784C45.722 5.40341 45.3072 5.29119 44.8072 5.29119C44.4493 5.29119 44.1396 5.34801 43.8783 5.46165C43.6169 5.57244 43.4138 5.72585 43.2689 5.92188C43.1268 6.11506 43.0558 6.33523 43.0558 6.58239C43.0558 6.78977 43.1041 6.96875 43.2007 7.11932C43.3001 7.26989 43.4294 7.39631 43.5885 7.49858C43.7504 7.59801 43.9237 7.68182 44.1084 7.75C44.293 7.81534 44.4706 7.86932 44.6411 7.91193L45.4933 8.13352C45.7717 8.2017 46.0572 8.29403 46.3499 8.41051C46.6425 8.52699 46.9138 8.6804 47.1638 8.87074C47.4138 9.06108 47.6155 9.29688 47.7689 9.57812C47.9251 9.85938 48.0033 10.196 48.0033 10.5881C48.0033 11.0824 47.8754 11.5213 47.6197 11.9048C47.3669 12.2884 46.999 12.5909 46.5161 12.8125C46.0359 13.0341 45.455 13.1449 44.7732 13.1449C44.1197 13.1449 43.5544 13.0412 43.0771 12.8338C42.5999 12.6264 42.2263 12.3324 41.9564 11.9517C41.6865 11.5682 41.5374 11.1136 41.5089 10.5881H42.83C42.8555 10.9034 42.9578 11.1662 43.1368 11.3764C43.3186 11.5838 43.5501 11.7386 43.8314 11.8409C44.1155 11.9403 44.4266 11.9901 44.7646 11.9901C45.1368 11.9901 45.4678 11.9318 45.7575 11.8153C46.0501 11.696 46.2803 11.5312 46.4479 11.321C46.6155 11.108 46.6993 10.8594 46.6993 10.5753C46.6993 10.3168 46.6254 10.1051 46.4777 9.94034C46.3328 9.77557 46.1354 9.6392 45.8854 9.53125C45.6382 9.4233 45.3584 9.32812 45.0459 9.24574L44.0146 8.96449C43.3158 8.77415 42.7618 8.49432 42.3527 8.125C41.9464 7.75568 41.7433 7.26705 41.7433 6.65909C41.7433 6.15625 41.8797 5.71733 42.1524 5.34233C42.4251 4.96733 42.7945 4.67614 43.2604 4.46875C43.7263 4.25852 44.2518 4.15341 44.8371 4.15341C45.428 4.15341 45.9493 4.2571 46.401 4.46449C46.8555 4.67188 47.2135 4.95739 47.4749 5.32102C47.7362 5.68182 47.8726 6.09659 47.8839 6.56534H46.6141ZM52.2521 13H49.4268V4.27273H52.3415C53.1967 4.27273 53.931 4.44744 54.5447 4.79688C55.1583 5.14347 55.6285 5.64205 55.9552 6.29261C56.2847 6.94034 56.4495 7.71733 56.4495 8.62358C56.4495 9.53267 56.2833 10.3139 55.9509 10.9673C55.6214 11.6207 55.1441 12.1236 54.5191 12.4759C53.8941 12.8253 53.1384 13 52.2521 13ZM50.7435 11.8494H52.1796C52.8444 11.8494 53.3969 11.7244 53.8373 11.4744C54.2776 11.2216 54.6072 10.8565 54.8259 10.3793C55.0447 9.89915 55.154 9.31392 55.154 8.62358C55.154 7.93892 55.0447 7.35795 54.8259 6.88068C54.61 6.40341 54.2876 6.04119 53.8586 5.79403C53.4296 5.54687 52.8969 5.4233 52.2606 5.4233H50.7435V11.8494ZM65.1855 7.1108H63.856C63.8048 6.8267 63.7097 6.5767 63.5705 6.3608C63.4312 6.14489 63.2608 5.96165 63.0591 5.81108C62.8574 5.66051 62.6315 5.54687 62.3815 5.47017C62.1344 5.39347 61.8716 5.35511 61.5932 5.35511C61.0903 5.35511 60.6401 5.48153 60.2423 5.73438C59.8474 5.98722 59.5349 6.35795 59.3048 6.84659C59.0776 7.33523 58.9639 7.93182 58.9639 8.63636C58.9639 9.34659 59.0776 9.94602 59.3048 10.4347C59.5349 10.9233 59.8489 11.2926 60.2466 11.5426C60.6443 11.7926 61.0918 11.9176 61.5889 11.9176C61.8645 11.9176 62.1259 11.8807 62.373 11.8068C62.623 11.7301 62.8489 11.6179 63.0506 11.4702C63.2523 11.3224 63.4227 11.142 63.5619 10.929C63.704 10.7131 63.802 10.4659 63.856 10.1875L65.1855 10.1918C65.1145 10.6207 64.9767 11.0156 64.7722 11.3764C64.5705 11.7344 64.3105 12.044 63.9923 12.3054C63.677 12.5639 63.3162 12.7642 62.9099 12.9062C62.5037 13.0483 62.0605 13.1193 61.5804 13.1193C60.8247 13.1193 60.1514 12.9403 59.5605 12.5824C58.9696 12.2216 58.5037 11.706 58.1628 11.0355C57.8247 10.3651 57.6557 9.56534 57.6557 8.63636C57.6557 7.70455 57.8261 6.90483 58.167 6.23722C58.508 5.56676 58.9739 5.05256 59.5648 4.6946C60.1557 4.33381 60.8276 4.15341 61.5804 4.15341C62.0435 4.15341 62.4753 4.22017 62.8759 4.35369C63.2793 4.48437 63.6415 4.67756 63.9625 4.93324C64.2835 5.18608 64.5491 5.49574 64.7594 5.86222C64.9696 6.22585 65.1116 6.64205 65.1855 7.1108Z" fill="white"/>
</svg>
