<svg width="18" height="16" viewBox="0 0 18 16" fill="none" xmlns="http://www.w3.org/2000/svg">
<path fill-rule="evenodd" clip-rule="evenodd" d="M10.44 8.57108C10.34 8.58106 9.83001 8.61103 8.70001 8.61103C7.80001 8.61103 7.16001 8.58106 6.93001 8.57108C3.44001 8.42141 0.830002 7.81276 0.830002 7.08436C0.830002 6.35597 3.44001 5.7573 6.93001 5.59765V7.96243C7.16001 7.98239 7.81 8.0223 8.72 8.0223C9.8 8.0223 10.35 7.97242 10.44 7.97242V5.60764C13.92 5.76729 16.52 6.36596 16.52 7.09435C16.52 7.82275 13.92 8.41143 10.44 8.57108ZM10.44 5.3482V3.23287H15.3V0H2.06001V3.23287H6.92V5.3482C2.97 5.5278 0 6.30605 0 7.24399C0 8.18192 2.97 8.96023 6.92 9.13983V15.9349H10.43V9.13983C14.37 8.96023 17.34 8.18192 17.34 7.24399C17.34 6.30605 14.38 5.5278 10.44 5.3482Z" fill="#50AF95"/>
</svg>
