<svg width="24" height="23" viewBox="0 0 24 23" fill="none" xmlns="http://www.w3.org/2000/svg">
<path d="M21.3616 0H2.55078V4.54131H9.68556V11.2162H14.2269V4.54131H21.3616V0Z" fill="#1BA27A"/>
<path d="M12.0001 11.93C6.09799 11.93 1.31293 10.996 1.31293 9.84354C1.31293 8.69133 6.09779 7.75705 12.0001 7.75705C17.9022 7.75705 22.6871 8.69133 22.6871 9.84354C22.6871 10.996 17.9022 11.93 12.0001 11.93ZM24 10.1914C24 8.70544 18.6275 7.50098 12.0001 7.50098C5.37289 7.50098 0 8.70544 0 10.1914C0 11.5 4.16604 12.5902 9.68653 12.8317V22.4138H14.2274V12.8355C19.7904 12.6015 24 11.5067 24 10.1914Z" fill="#1BA27A"/>
</svg>
