<svg width="77" height="20" viewBox="0 0 77 20" fill="none" xmlns="http://www.w3.org/2000/svg">
<rect width="77" height="20" rx="9" fill="#1BA27A"/>
<path d="M23.5111 4.3125H16.457V6.01549H19.1326V8.51857H20.8356V6.01549H23.5111V4.3125Z" fill="white"/>
<path d="M20 8.7859C17.7867 8.7859 15.9923 8.43562 15.9923 8.00346C15.9923 7.57138 17.7867 7.22103 20 7.22103C22.2133 7.22103 24.0077 7.57138 24.0077 8.00346C24.0077 8.43562 22.2133 8.7859 20 8.7859ZM24.5 8.13391C24.5 7.57667 22.4853 7.125 20 7.125C17.5148 7.125 15.5 7.57667 15.5 8.13391C15.5 8.62462 17.0623 9.03345 19.1325 9.12404V12.7173H20.8353V9.12546C22.9214 9.0377 24.5 8.62715 24.5 8.13391Z" fill="white"/>
<path d="M38.9601 4.27273H40.2811V10.0128C40.2811 10.6236 40.1376 11.1648 39.8507 11.6364C39.5638 12.1051 39.1604 12.4744 38.6405 12.7443C38.1206 13.0114 37.5112 13.1449 36.8124 13.1449C36.1163 13.1449 35.5084 13.0114 34.9885 12.7443C34.4686 12.4744 34.0652 12.1051 33.7783 11.6364C33.4913 11.1648 33.3479 10.6236 33.3479 10.0128V4.27273H34.6646V9.90625C34.6646 10.3011 34.7513 10.652 34.9246 10.9588C35.1007 11.2656 35.3493 11.5071 35.6703 11.6832C35.9913 11.8565 36.372 11.9432 36.8124 11.9432C37.2555 11.9432 37.6376 11.8565 37.9587 11.6832C38.2825 11.5071 38.5297 11.2656 38.7001 10.9588C38.8734 10.652 38.9601 10.3011 38.9601 9.90625V4.27273ZM46.8055 6.56534C46.76 6.16193 46.5725 5.84943 46.243 5.62784C45.9134 5.40341 45.4987 5.29119 44.9987 5.29119C44.6407 5.29119 44.331 5.34801 44.0697 5.46165C43.8083 5.57244 43.6052 5.72585 43.4603 5.92188C43.3183 6.11506 43.2472 6.33523 43.2472 6.58239C43.2472 6.78977 43.2955 6.96875 43.3921 7.11932C43.4915 7.26989 43.6208 7.39631 43.7799 7.49858C43.9418 7.59801 44.1151 7.68182 44.2998 7.75C44.4844 7.81534 44.662 7.86932 44.8325 7.91193L45.6847 8.13352C45.9631 8.2017 46.2487 8.29403 46.5413 8.41051C46.8339 8.52699 47.1052 8.6804 47.3552 8.87074C47.6052 9.06108 47.8069 9.29688 47.9603 9.57812C48.1165 9.85938 48.1947 10.196 48.1947 10.5881C48.1947 11.0824 48.0668 11.5213 47.8112 11.9048C47.5583 12.2884 47.1904 12.5909 46.7075 12.8125C46.2273 13.0341 45.6464 13.1449 44.9646 13.1449C44.3112 13.1449 43.7458 13.0412 43.2685 12.8338C42.7913 12.6264 42.4177 12.3324 42.1478 11.9517C41.8779 11.5682 41.7288 11.1136 41.7004 10.5881H43.0214C43.0469 10.9034 43.1492 11.1662 43.3282 11.3764C43.51 11.5838 43.7415 11.7386 44.0228 11.8409C44.3069 11.9403 44.618 11.9901 44.956 11.9901C45.3282 11.9901 45.6592 11.9318 45.9489 11.8153C46.2415 11.696 46.4717 11.5312 46.6393 11.321C46.8069 11.108 46.8907 10.8594 46.8907 10.5753C46.8907 10.3168 46.8168 10.1051 46.6691 9.94034C46.5242 9.77557 46.3268 9.6392 46.0768 9.53125C45.8296 9.4233 45.5498 9.32812 45.2373 9.24574L44.206 8.96449C43.5072 8.77415 42.9532 8.49432 42.5441 8.125C42.1379 7.75568 41.9347 7.26705 41.9347 6.65909C41.9347 6.15625 42.0711 5.71733 42.3438 5.34233C42.6165 4.96733 42.9859 4.67614 43.4518 4.46875C43.9177 4.25852 44.4433 4.15341 45.0285 4.15341C45.6194 4.15341 46.1407 4.2571 46.5924 4.46449C47.0469 4.67188 47.4049 4.95739 47.6663 5.32102C47.9276 5.68182 48.064 6.09659 48.0754 6.56534H46.8055ZM52.4435 13H49.6182V4.27273H52.533C53.3881 4.27273 54.1224 4.44744 54.7361 4.79688C55.3497 5.14347 55.8199 5.64205 56.1466 6.29261C56.4761 6.94034 56.6409 7.71733 56.6409 8.62358C56.6409 9.53267 56.4747 10.3139 56.1423 10.9673C55.8128 11.6207 55.3355 12.1236 54.7105 12.4759C54.0855 12.8253 53.3298 13 52.4435 13ZM50.9349 11.8494H52.371C53.0358 11.8494 53.5884 11.7244 54.0287 11.4744C54.469 11.2216 54.7986 10.8565 55.0173 10.3793C55.2361 9.89915 55.3455 9.31392 55.3455 8.62358C55.3455 7.93892 55.2361 7.35795 55.0173 6.88068C54.8014 6.40341 54.479 6.04119 54.05 5.79403C53.621 5.54687 53.0884 5.4233 52.452 5.4233H50.9349V11.8494ZM57.3229 5.40625V4.27273H64.0772V5.40625H61.3542V13H60.0417V5.40625H57.3229Z" fill="white"/>
</svg>
