<svg width="20" height="20" viewBox="0 0 20 20" fill="none" xmlns="http://www.w3.org/2000/svg">
<path d="M17.0707 1.66699H19.9613L13.9457 7.62324C11.7672 9.7791 8.23516 9.7791 6.05508 7.62324L0.0371094 1.66699H2.93008L7.50039 6.1916C8.16628 6.84789 9.06368 7.2158 9.99863 7.2158C10.9336 7.2158 11.831 6.84789 12.4969 6.1916L17.0707 1.66699Z" fill="white"/>
<path d="M2.89258 18.229H0L6.05469 12.236C8.2332 10.0802 11.7652 10.0802 13.9453 12.236L20 18.229H17.1094L12.5 13.6677C11.8341 13.0114 10.9367 12.6435 10.0018 12.6435C9.06681 12.6435 8.16941 13.0114 7.50352 13.6677L2.89258 18.229Z" fill="white"/>
</svg>
