<svg width="68" height="18" viewBox="0 0 68 18" fill="none" xmlns="http://www.w3.org/2000/svg">
<rect width="68" height="18" rx="9" fill="#EA2020"/>
<circle cx="20" cy="9" r="8" fill="#6681E3"/>
<circle cx="20" cy="9" r="8" fill="#EA2020"/>
<path d="M18.6367 10.0039H20.2965V15.26H18.6367V10.0039Z" fill="white"/>
<path fill-rule="evenodd" clip-rule="evenodd" d="M19.0315 10.5872C17.7954 9.3661 16.7923 7.64962 15.6934 5.16495L16.9583 4.60547C18.0375 7.04552 18.9561 8.56845 20.0036 9.60317C21.0325 10.6196 22.2332 11.2108 23.9772 11.6872L23.6128 13.0215C21.731 12.5075 20.2862 11.8266 19.0315 10.5872Z" fill="white"/>
<path d="M17.8061 5.29954C17.8061 5.98706 17.2488 6.54441 16.5613 6.54441C15.8737 6.54441 15.3164 5.98706 15.3164 5.29954C15.3164 4.61203 15.8737 4.05469 16.5613 4.05469C17.2488 4.05469 17.8061 4.61203 17.8061 5.29954Z" fill="white"/>
<path d="M24.9995 12.3542C24.9995 13.0418 24.4421 13.5991 23.7546 13.5991C23.0671 13.5991 22.5098 13.0418 22.5098 12.3542C22.5098 11.6667 23.0671 11.1094 23.7546 11.1094C24.4421 11.1094 24.9995 11.6667 24.9995 12.3542Z" fill="white"/>
<path d="M32.2879 4.27273H33.7836L36.0634 8.24006H36.1572L38.437 4.27273H39.9327L36.7665 9.57386V13H35.454V9.57386L32.2879 4.27273ZM41.8325 13.1449C41.4177 13.1449 41.0427 13.0682 40.7075 12.9148C40.3722 12.7585 40.1066 12.5327 39.9106 12.2372C39.7174 11.9418 39.6208 11.5795 39.6208 11.1506C39.6208 10.7812 39.6918 10.4773 39.8339 10.2386C39.9759 10 40.1677 9.81108 40.4092 9.67188C40.6506 9.53267 40.9205 9.42756 41.2188 9.35653C41.5171 9.28551 41.8211 9.23153 42.1308 9.1946C42.5228 9.14915 42.841 9.11222 43.0853 9.08381C43.3296 9.05256 43.5072 9.00284 43.618 8.93466C43.7288 8.86648 43.7842 8.75568 43.7842 8.60227V8.57244C43.7842 8.20028 43.679 7.91193 43.4688 7.70739C43.2614 7.50284 42.9518 7.40057 42.5398 7.40057C42.1109 7.40057 41.7728 7.49574 41.5256 7.68608C41.2813 7.87358 41.1123 8.08239 41.0185 8.3125L39.8211 8.03977C39.9631 7.64205 40.1705 7.32102 40.4433 7.0767C40.7188 6.82955 41.0356 6.65057 41.3935 6.53977C41.7515 6.42614 42.1279 6.36932 42.5228 6.36932C42.7842 6.36932 43.0612 6.40057 43.3538 6.46307C43.6492 6.52273 43.9248 6.63352 44.1805 6.79545C44.439 6.95739 44.6506 7.18892 44.8154 7.49006C44.9802 7.78835 45.0626 8.17614 45.0626 8.65341V13H43.8183V12.1051H43.7671C43.6847 12.2699 43.5612 12.4318 43.3964 12.5909C43.2316 12.75 43.02 12.8821 42.7614 12.9872C42.5029 13.0923 42.1933 13.1449 41.8325 13.1449ZM42.1094 12.1222C42.4617 12.1222 42.7629 12.0526 43.0129 11.9134C43.2657 11.7741 43.4575 11.5923 43.5881 11.3679C43.7217 11.1406 43.7884 10.8977 43.7884 10.6392V9.79545C43.743 9.84091 43.6549 9.88352 43.5242 9.9233C43.3964 9.96023 43.2501 9.9929 43.0853 10.0213C42.9205 10.0469 42.76 10.071 42.6038 10.0938C42.4475 10.1136 42.3168 10.1307 42.2117 10.1449C41.9646 10.1761 41.7387 10.2287 41.5342 10.3026C41.3325 10.3764 41.1705 10.483 41.0484 10.6222C40.929 10.7585 40.8694 10.9403 40.8694 11.1676C40.8694 11.483 40.9859 11.7216 41.2188 11.8835C41.4518 12.0426 41.7487 12.1222 42.1094 12.1222ZM49.354 15.5909C48.8341 15.5909 48.3866 15.5227 48.0116 15.3864C47.6395 15.25 47.3355 15.0696 47.0997 14.8452C46.8639 14.6207 46.6878 14.375 46.5713 14.108L47.6665 13.6562C47.7432 13.7812 47.8455 13.9134 47.9733 14.0526C48.104 14.1946 48.2801 14.3153 48.5017 14.4148C48.7261 14.5142 49.0145 14.5639 49.3668 14.5639C49.8497 14.5639 50.2489 14.446 50.5642 14.2102C50.8795 13.9773 51.0372 13.6051 51.0372 13.0938V11.8068H50.9563C50.8795 11.946 50.7688 12.1009 50.6239 12.2713C50.4818 12.4418 50.2858 12.5895 50.0358 12.7145C49.7858 12.8395 49.4605 12.902 49.0599 12.902C48.5429 12.902 48.077 12.7812 47.6622 12.5398C47.2503 12.2955 46.9236 11.9361 46.6821 11.4616C46.4435 10.9844 46.3241 10.3977 46.3241 9.7017C46.3241 9.00568 46.442 8.40909 46.6778 7.91193C46.9165 7.41477 47.2432 7.03409 47.658 6.76989C48.0727 6.50284 48.5429 6.36932 49.0685 6.36932C49.4747 6.36932 49.8028 6.4375 50.0528 6.57386C50.3028 6.70739 50.4974 6.86364 50.6366 7.04261C50.7787 7.22159 50.8881 7.37926 50.9648 7.51562H51.0585V6.45455H52.3071V13.1449C52.3071 13.7074 52.1764 14.169 51.9151 14.5298C51.6537 14.8906 51.3 15.1577 50.854 15.331C50.4108 15.5043 49.9108 15.5909 49.354 15.5909ZM49.3412 11.8452C49.7077 11.8452 50.0173 11.7599 50.2702 11.5895C50.5259 11.4162 50.719 11.169 50.8497 10.848C50.9832 10.5241 51.05 10.1364 51.05 9.68466C51.05 9.24432 50.9847 8.85653 50.854 8.52131C50.7233 8.18608 50.5315 7.92472 50.2787 7.73722C50.0259 7.54687 49.7134 7.4517 49.3412 7.4517C48.9577 7.4517 48.6381 7.55114 48.3824 7.75C48.1267 7.94602 47.9335 8.21307 47.8028 8.55114C47.675 8.8892 47.6111 9.26705 47.6111 9.68466C47.6111 10.1136 47.6764 10.4901 47.8071 10.8139C47.9378 11.1378 48.131 11.3906 48.3866 11.5724C48.6452 11.7543 48.9634 11.8452 49.3412 11.8452ZM53.8659 13V6.45455H55.1401V13H53.8659ZM54.5094 5.4446C54.2878 5.4446 54.0974 5.37074 53.9384 5.22301C53.7821 5.07244 53.704 4.89347 53.704 4.68608C53.704 4.47585 53.7821 4.29687 53.9384 4.14915C54.0974 3.99858 54.2878 3.9233 54.5094 3.9233C54.731 3.9233 54.9199 3.99858 55.0761 4.14915C55.2352 4.29687 55.3148 4.47585 55.3148 4.68608C55.3148 4.89347 55.2352 5.07244 55.0761 5.22301C54.9199 5.37074 54.731 5.4446 54.5094 5.4446Z" fill="white"/>
</svg>
