<svg width="18" height="18" viewBox="0 0 18 18" fill="none" xmlns="http://www.w3.org/2000/svg">
<path d="M18 8.99987C18 13.9704 13.9707 17.9997 9.00013 17.9997C4.02959 17.9997 0 13.9704 0 8.99987C0 4.02933 4.02959 0 9.00013 0C13.9707 0 18 4.02933 18 8.99987Z" fill="#393D4F"/>
<path d="M7.85156 9.90137H9.77745V16H7.85156V9.90137Z" fill="#EA2020"/>
<path fill-rule="evenodd" clip-rule="evenodd" d="M8.31081 10.5793C6.87651 9.16247 5.7126 7.17083 4.4375 4.28784L5.90526 3.63867C7.15745 6.46988 8.22331 8.23695 9.43867 9.43754C10.6325 10.6169 12.0257 11.3029 14.0493 11.8557L13.6264 13.4038C11.4431 12.8075 9.76662 12.0174 8.31081 10.5793Z" fill="#EA2020"/>
<path d="M6.88884 4.44442C6.88884 5.24215 6.24215 5.88884 5.44442 5.88884C4.64669 5.88884 4 5.24215 4 4.44442C4 3.64669 4.64669 3 5.44442 3C6.24215 3 6.88884 3.64669 6.88884 4.44442Z" fill="#EA2020"/>
<path d="M15.2345 12.6295C15.2345 13.4272 14.5879 14.0739 13.7901 14.0739C12.9924 14.0739 12.3457 13.4272 12.3457 12.6295C12.3457 11.8317 12.9924 11.1851 13.7901 11.1851C14.5879 11.1851 15.2345 11.8317 15.2345 12.6295Z" fill="#EA2020"/>
</svg>
