<svg width="75" height="24" viewBox="0 0 75 24" fill="none" xmlns="http://www.w3.org/2000/svg">
<path d="M36.5544 0.56543L32.2021 15.2104V23.5181H26.673V15.2104L22.4766 0.56543H27.9631C28.8232 5.03592 29.3052 8.04623 29.4092 9.59626C29.74 7.14834 30.2929 4.13807 31.0679 0.56543H36.5544Z" fill="#EA2020"/>
<path d="M47.8963 0.56543L51.3131 23.5181H45.2025L44.9048 19.3926H42.764L42.4097 23.5181H36.2285L39.2624 0.56543H47.8963ZM44.7347 15.3238C44.4322 12.7246 44.1301 9.51592 43.8275 5.69755C43.2224 10.083 42.8444 13.2917 42.6933 15.3238H44.7347Z" fill="#EA2020"/>
<path d="M66.0293 9.01457H60.0604V6.93055C60.0604 5.61681 60.0039 4.79454 59.8904 4.46372C59.7769 4.13295 59.5075 3.96753 59.0821 3.96753C58.7137 3.96753 58.4633 4.10932 58.3308 4.39283C58.1987 4.67639 58.1325 5.40414 58.1325 6.5761V17.5917C58.1325 18.6219 58.1987 19.3024 58.3308 19.6332C58.4633 19.9546 58.7279 20.1152 59.1249 20.1152C59.5596 20.1152 59.8524 19.9309 60.0039 19.5624C60.1646 19.1937 60.245 18.4754 60.245 17.4074V14.6854H59.0397V11.1978H66.0293V23.5177H62.2723L61.7194 21.8732C61.313 22.5821 60.7976 23.1161 60.1739 23.4752C59.5596 23.8249 58.8317 23.9998 57.9907 23.9998C56.989 23.9998 56.0482 23.7588 55.1693 23.2767C54.3 22.7852 53.6384 22.1804 53.1848 21.4621C52.7312 20.7438 52.4476 19.9924 52.3341 19.2079C52.2206 18.414 52.1641 17.2279 52.1641 15.6495V8.83029C52.1641 6.63754 52.282 5.04497 52.5183 4.05261C52.7546 3.0602 53.4304 2.15286 54.5456 1.33059C55.6706 0.498871 57.1211 0.0830078 58.8979 0.0830078C60.6465 0.0830078 62.0974 0.44216 63.2502 1.16047C64.4035 1.87877 65.1548 2.73413 65.5046 3.72652C65.8544 4.70947 66.0293 6.14135 66.0293 8.0222V9.01457Z" fill="#EA2020"/>
<path d="M74.3219 0.56543V23.5181H68.3535V0.56543H74.3219Z" fill="#EA2020"/>
<path d="M6.96875 12.4854H10.4529V23.5185H6.96875V12.4854Z" fill="#EA2020"/>
<path fill-rule="evenodd" clip-rule="evenodd" d="M7.79829 13.7117C5.20347 11.1485 3.09782 7.54536 0.791016 2.32969L3.44636 1.15527C5.71173 6.27727 7.64 9.47411 9.83873 11.6461C11.9986 13.7797 14.519 15.0208 18.1799 16.0208L17.4149 18.8216C13.4649 17.7427 10.432 16.3134 7.79829 13.7117Z" fill="#EA2020"/>
<path d="M5.22625 2.61312C5.22625 4.05632 4.05632 5.22625 2.61312 5.22625C1.16993 5.22625 0 4.05632 0 2.61312C0 1.16993 1.16993 0 2.61312 0C4.05632 0 5.22625 1.16993 5.22625 2.61312Z" fill="#EA2020"/>
<path d="M20.3239 17.4207C20.3239 18.8639 19.154 20.0339 17.7108 20.0339C16.2676 20.0339 15.0977 18.8639 15.0977 17.4207C15.0977 15.9776 16.2676 14.8076 17.7108 14.8076C19.154 14.8076 20.3239 15.9776 20.3239 17.4207Z" fill="#EA2020"/>
</svg>
