<svg width="17" height="16" viewBox="0 0 17 16" fill="none" xmlns="http://www.w3.org/2000/svg">
<g clip-path="url(#clip0_462_36982)">
<mask id="mask0_462_36982" style="mask-type:luminance" maskUnits="userSpaceOnUse" x="0" y="0" width="17" height="16">
<path d="M16.4646 0.0371094H0.5354V15.9663H16.4646V0.0371094Z" fill="white"/>
</mask>
<g mask="url(#mask0_462_36982)">
<path d="M9.88284 8.49794V10.8704C9.88489 10.9139 9.87781 10.9573 9.86209 10.998C9.84638 11.0386 9.8223 11.0756 9.79151 11.1064C9.76071 11.1372 9.72383 11.1612 9.68319 11.177C9.64255 11.1927 9.59908 11.1998 9.55554 11.1978H3.87013C3.36002 11.1978 3.00589 11.1002 2.78752 10.8996C2.56675 10.6968 2.4548 10.4213 2.4548 10.0806C2.45406 9.91366 2.49358 9.74899 2.57003 9.6006C2.64614 9.45596 2.74425 9.324 2.86086 9.20945L5.13951 6.93945H0.605354C0.558802 7.29016 0.535433 7.6435 0.5354 7.99727C0.5354 12.3983 4.10127 15.9661 8.50004 15.9661C9.56779 15.9673 10.6249 15.7531 11.6079 15.3363C12.591 14.9195 13.4799 14.3086 14.2215 13.5403L9.88616 8.50226L9.88284 8.49794Z" fill="white"/>
<path d="M7.4305 5.50269C7.62792 5.70492 7.72803 6.00277 7.72803 6.38811C7.73121 6.54717 7.7041 6.70539 7.64824 6.85433C7.59626 6.98596 7.51795 7.1056 7.4181 7.20585L5.17058 9.45456H8.14013V0.0371094C4.88311 0.181997 2.13516 2.28387 1.04187 5.19617H6.40876C6.8947 5.19617 7.22891 5.29642 7.4305 5.50269Z" fill="white"/>
<path d="M9.89549 7.32797L9.90872 7.3114L12.5655 5.05897C12.6075 5.01035 12.6597 4.9716 12.7185 4.94549C12.7772 4.91938 12.841 4.90655 12.9052 4.90791H14.2919C14.457 4.90791 14.5494 5.01603 14.568 5.12319C14.579 5.19074 14.5705 5.29014 14.4692 5.39145L14.4585 5.40141L11.5849 7.91962L15.2594 12.2131C16.0492 10.949 16.4669 9.4879 16.4647 7.99728C16.4647 4.06814 13.6224 0.803468 9.88281 0.148438V7.34468C9.88713 7.33916 9.89117 7.33342 9.89549 7.32797Z" fill="white"/>
</g>
</g>
<defs>
<clipPath id="clip0_462_36982">
<rect width="15.9292" height="16" fill="white" transform="translate(0.5354)"/>
</clipPath>
</defs>
</svg>
