<svg width="92" height="97" viewBox="0 0 92 97" fill="none" xmlns="http://www.w3.org/2000/svg">
<g filter="url(#filter0_dd_2297_123862)">
<rect width="87" height="87" rx="8" fill="#393D4F"/>
<path d="M44 61.1368C30.744 61.1368 20 57.3068 20 52.1752C20 49.4974 22.9264 47.085 27.6104 45.3855C31.2663 47.7316 37.401 48.9337 44.3565 48.9337C51.1461 48.9337 57.1482 47.4664 60.8373 45.2197C65.256 46.9026 68 49.2487 68 51.8353C68 56.9752 57.256 61.1368 44 61.1368Z" fill="white"/>
<path d="M44.1403 47.7795C34.0926 47.7795 25.9434 44.6292 25.9434 40.7412C25.9434 38.5857 28.4553 36.6541 32.3931 35.3691C35.2035 36.8365 39.4149 37.7733 44.1403 37.7733C48.8656 37.7733 53.077 36.8365 55.8874 35.3691C59.8335 36.6624 62.3371 38.5857 62.3371 40.7412C62.3454 44.6292 54.1962 47.7795 44.1403 47.7795Z" fill="white"/>
<path d="M44.0743 36.6062C36.3064 36.6062 30.0059 34.0031 30.0059 30.8031C30.0059 27.6031 36.3064 25 44.0743 25C51.8421 25 58.1426 27.6031 58.1426 30.8031C58.1426 34.0031 51.8421 36.6062 44.0743 36.6062Z" fill="white"/>
</g>
<defs>
<filter id="filter0_dd_2297_123862" x="0" y="0" width="92" height="97" filterUnits="userSpaceOnUse" color-interpolation-filters="sRGB">
<feFlood flood-opacity="0" result="BackgroundImageFix"/>
<feColorMatrix in="SourceAlpha" type="matrix" values="0 0 0 0 0 0 0 0 0 0 0 0 0 0 0 0 0 0 127 0" result="hardAlpha"/>
<feMorphology radius="5" operator="erode" in="SourceAlpha" result="effect1_dropShadow_2297_123862"/>
<feOffset dx="5" dy="5"/>
<feGaussianBlur stdDeviation="2.5"/>
<feComposite in2="hardAlpha" operator="out"/>
<feColorMatrix type="matrix" values="0 0 0 0 0.0784314 0 0 0 0 0.0901961 0 0 0 0 0.14902 0 0 0 0.3 0"/>
<feBlend mode="normal" in2="BackgroundImageFix" result="effect1_dropShadow_2297_123862"/>
<feColorMatrix in="SourceAlpha" type="matrix" values="0 0 0 0 0 0 0 0 0 0 0 0 0 0 0 0 0 0 127 0" result="hardAlpha"/>
<feMorphology radius="5" operator="erode" in="SourceAlpha" result="effect2_dropShadow_2297_123862"/>
<feOffset dx="5" dy="10"/>
<feGaussianBlur stdDeviation="2.5"/>
<feComposite in2="hardAlpha" operator="out"/>
<feColorMatrix type="matrix" values="0 0 0 0 0.079375 0 0 0 0 0.0918383 0 0 0 0 0.15 0 0 0 0.15 0"/>
<feBlend mode="normal" in2="effect1_dropShadow_2297_123862" result="effect2_dropShadow_2297_123862"/>
<feBlend mode="normal" in="SourceGraphic" in2="effect2_dropShadow_2297_123862" result="shape"/>
</filter>
</defs>
</svg>
