<svg width="92" height="97" viewBox="0 0 92 97" fill="none" xmlns="http://www.w3.org/2000/svg">
<g filter="url(#filter0_dd_2297_123868)">
<rect width="87" height="87" rx="8" fill="#393D4F"/>
<path d="M62.7233 21H25.1016V30.0826H39.3711V43.4324H48.4537V30.0826H62.7233V21Z" fill="white"/>
<path d="M44.0002 44.8513C32.196 44.8513 22.6259 42.9831 22.6259 40.6783C22.6259 38.3739 32.1956 36.5053 44.0002 36.5053C55.8044 36.5053 65.3741 38.3739 65.3741 40.6783C65.3741 42.9831 55.8044 44.8513 44.0002 44.8513ZM68 41.374C68 38.4021 57.255 35.9932 44.0002 35.9932C30.7458 35.9932 20 38.4021 20 41.374C20 43.9911 28.3321 46.1716 39.3731 46.6547V65.8188H48.4549V46.6623C59.5809 46.1942 68 44.0046 68 41.374Z" fill="white"/>
</g>
<defs>
<filter id="filter0_dd_2297_123868" x="0" y="0" width="92" height="97" filterUnits="userSpaceOnUse" color-interpolation-filters="sRGB">
<feFlood flood-opacity="0" result="BackgroundImageFix"/>
<feColorMatrix in="SourceAlpha" type="matrix" values="0 0 0 0 0 0 0 0 0 0 0 0 0 0 0 0 0 0 127 0" result="hardAlpha"/>
<feMorphology radius="5" operator="erode" in="SourceAlpha" result="effect1_dropShadow_2297_123868"/>
<feOffset dx="5" dy="5"/>
<feGaussianBlur stdDeviation="2.5"/>
<feComposite in2="hardAlpha" operator="out"/>
<feColorMatrix type="matrix" values="0 0 0 0 0.0784314 0 0 0 0 0.0901961 0 0 0 0 0.14902 0 0 0 0.3 0"/>
<feBlend mode="normal" in2="BackgroundImageFix" result="effect1_dropShadow_2297_123868"/>
<feColorMatrix in="SourceAlpha" type="matrix" values="0 0 0 0 0 0 0 0 0 0 0 0 0 0 0 0 0 0 127 0" result="hardAlpha"/>
<feMorphology radius="5" operator="erode" in="SourceAlpha" result="effect2_dropShadow_2297_123868"/>
<feOffset dx="5" dy="10"/>
<feGaussianBlur stdDeviation="2.5"/>
<feComposite in2="hardAlpha" operator="out"/>
<feColorMatrix type="matrix" values="0 0 0 0 0.079375 0 0 0 0 0.0918383 0 0 0 0 0.15 0 0 0 0.15 0"/>
<feBlend mode="normal" in2="effect1_dropShadow_2297_123868" result="effect2_dropShadow_2297_123868"/>
<feBlend mode="normal" in="SourceGraphic" in2="effect2_dropShadow_2297_123868" result="shape"/>
</filter>
</defs>
</svg>
