<svg width="95" height="95" viewBox="0 0 95 95" fill="none" xmlns="http://www.w3.org/2000/svg">
<g filter="url(#filter0_d_2043_80996)">
<rect x="4" width="87" height="87" rx="8" fill="white"/>
</g>
<path fill-rule="evenodd" clip-rule="evenodd" d="M50.808 56.9005V64.9964C50.808 66.1029 49.9114 66.9992 48.8048 66.9992C48.4273 66.9992 48.0628 66.901 47.7406 66.7051L30.919 56.4102C29.7283 55.6818 29 54.3793 29 52.9786V45.1768C29 44.2525 29.7564 43.4961 30.6803 43.4961C30.9745 43.4961 31.2692 43.5802 31.5209 43.7344L49.1413 54.0011C50.1781 54.6032 50.808 55.7098 50.808 56.9005Z" fill="#6F6F6F"/>
<path fill-rule="evenodd" clip-rule="evenodd" d="M58.8464 44.4919V60.9077C58.8464 61.3979 58.5947 61.8463 58.1748 62.0703L54.3086 64.2414C54.2669 64.2694 54.2108 64.2975 54.1547 64.3115V55.1932C54.1547 54.0165 53.5385 52.9239 52.5161 52.3077L37.0527 43.0492V32.7686C37.0527 31.844 37.8091 31.0879 38.7331 31.0879C39.0272 31.0879 39.3219 31.1716 39.5737 31.3119L57.1804 41.5928C58.2165 42.195 58.8464 43.3016 58.8464 44.4919Z" fill="#6F6F6F"/>
<path fill-rule="evenodd" clip-rule="evenodd" d="M66.5658 56.3544C66.5658 56.8448 66.2997 57.293 65.8655 57.5311L62.21 59.5059V42.8101C62.21 41.6194 61.5937 40.5412 60.5849 39.9247L44.7578 30.4422V20.6796C44.7578 20.3855 44.8412 20.0914 44.9814 19.8395C45.4581 19.041 46.4806 18.7609 47.2787 19.2233L64.8991 29.4618C65.9359 30.0639 66.5658 31.1706 66.5658 32.3612V56.3544Z" fill="#6F6F6F"/>
<defs>
<filter id="filter0_d_2043_80996" x="0" y="0" width="95" height="95" filterUnits="userSpaceOnUse" color-interpolation-filters="sRGB">
<feFlood flood-opacity="0" result="BackgroundImageFix"/>
<feColorMatrix in="SourceAlpha" type="matrix" values="0 0 0 0 0 0 0 0 0 0 0 0 0 0 0 0 0 0 127 0" result="hardAlpha"/>
<feOffset dy="4"/>
<feGaussianBlur stdDeviation="2"/>
<feComposite in2="hardAlpha" operator="out"/>
<feColorMatrix type="matrix" values="0 0 0 0 0.894118 0 0 0 0 0.929412 0 0 0 0 0.94902 0 0 0 1 0"/>
<feBlend mode="normal" in2="BackgroundImageFix" result="effect1_dropShadow_2043_80996"/>
<feBlend mode="normal" in="SourceGraphic" in2="effect1_dropShadow_2043_80996" result="shape"/>
</filter>
</defs>
</svg>
