<svg width="95" height="95" viewBox="0 0 95 95" fill="none" xmlns="http://www.w3.org/2000/svg">
<g filter="url(#filter0_d_2043_81002)">
<rect x="4" width="87" height="87" rx="8" fill="white"/>
</g>
<path d="M47.6146 20.0709V20.0946C47.6382 20.2128 47.6382 20.3547 47.6382 20.4966V37.5448C47.6146 37.6394 47.5436 37.6631 47.4727 37.7103C46.9761 37.9468 46.5032 38.1596 46.0067 38.3724C45.321 38.6798 44.6116 39.0108 43.9259 39.3182L41.4431 40.4532C40.7574 40.7606 40.0717 41.068 39.4096 41.3754C38.6057 41.7537 37.7781 42.1084 36.9742 42.4867C36.2884 42.7941 35.6027 43.1251 34.8934 43.4325C34.3259 43.6926 33.7584 43.9291 33.2146 44.1892C33.1673 44.2128 33.12 44.2365 33.0727 44.2365C33.049 44.2365 33.049 44.2365 33.0254 44.2128L33.6638 43.1488C34.8934 41.1153 36.0993 39.1054 37.3288 37.0719C38.6293 34.8966 39.9535 32.7212 41.254 30.5458C42.4599 28.536 43.6894 26.5261 44.8953 24.5163C45.7702 23.0502 46.6687 21.5842 47.5436 20.1182C47.5673 20.0709 47.5909 20.0473 47.5909 20H47.6146C47.5909 20.0236 47.6146 20.0473 47.6146 20.0709Z" fill="#6F6F6F"/>
<path d="M62.1319 44.2119L62.1556 44.2356L58.6797 46.2927L47.7556 52.7479C47.7083 52.7715 47.661 52.7952 47.6373 52.8188C47.5664 52.8188 47.5664 52.7479 47.5664 52.7243V52.5114V37.8986C47.5664 37.8277 47.5664 37.7331 47.5901 37.6622C47.6137 37.5676 47.6846 37.5913 47.7556 37.6149C48.063 37.7568 48.394 37.8986 48.7014 38.0405C49.6235 38.4661 50.5457 38.8917 51.4679 39.2937C52.2718 39.6484 53.0521 40.0267 53.8561 40.3814C54.66 40.7361 55.4639 41.1144 56.2679 41.4691C56.9536 41.7765 57.663 42.1075 58.3487 42.4149C59.0344 42.7223 59.7437 43.0533 60.4295 43.3607C60.9733 43.5972 61.5171 43.8573 62.061 44.0937C62.061 44.1647 62.0846 44.1883 62.1319 44.2119Z" fill="#6F6F6F"/>
<path d="M47.6126 67.504C47.6126 67.5276 47.589 67.5513 47.589 67.5749H47.5653C47.5653 67.5276 47.518 67.504 47.4944 67.4567C46.0284 65.3996 44.5624 63.3188 43.0963 61.2616C41.6067 59.1572 40.0934 57.0291 38.6037 54.9247C37.1614 52.8912 35.6954 50.834 34.253 48.8005C33.8747 48.2567 33.4963 47.7365 33.118 47.1927C33.0944 47.1454 33.0707 47.1217 33.0234 47.0508C33.0944 47.0508 33.1417 47.0981 33.1653 47.1217C35.2225 48.3276 37.2559 49.5335 39.3131 50.7395C41.6776 52.1345 44.0185 53.5296 46.383 54.9247L47.589 55.634C47.6362 55.6813 47.6362 55.7286 47.6362 55.7759V67.173C47.6362 67.2912 47.6362 67.4094 47.6126 67.504Z" fill="#6F6F6F"/>
<path d="M33 44.2598V44.2361C33.7567 43.9051 34.4897 43.5504 35.2463 43.2194C36.2158 42.7701 37.1852 42.3445 38.1547 41.8952C38.8877 41.5642 39.6443 41.2095 40.3773 40.8785C41.465 40.3819 42.5291 39.909 43.6167 39.4125C44.3498 39.0815 45.0828 38.7504 45.8394 38.3957C46.3596 38.1593 46.9034 37.9228 47.4236 37.6864C47.4709 37.6627 47.5419 37.6391 47.5655 37.5918C47.5892 37.5918 47.5892 37.6154 47.5655 37.6391V52.6539C47.5655 52.7248 47.5419 52.7957 47.5892 52.843C47.5419 52.914 47.4946 52.843 47.4709 52.8194C47.2581 52.7012 47.0453 52.5829 46.8325 52.4411C42.269 49.7455 37.6818 47.0263 33.1182 44.3307C33.0946 44.3071 33.0473 44.2834 33 44.2598Z" fill="#6F6F6F"/>
<path d="M62.0844 47.0508H62.1081C62.1081 47.0981 62.0608 47.1454 62.0371 47.1927C57.6864 53.3168 53.3357 59.4646 48.9849 65.5887C48.5357 66.2271 48.0628 66.8656 47.6135 67.504C47.5898 67.4803 47.5898 67.4567 47.5898 67.4331V67.2912V55.8232V55.6104C48.5829 55.0193 49.5524 54.4518 50.5455 53.8606C54.3761 51.5907 58.2066 49.3444 62.0135 47.0744C62.0371 47.0981 62.0608 47.0744 62.0844 47.0508Z" fill="#6F6F6F"/>
<path d="M47.5883 37.6386V37.5913V37.4494V20.2829C47.5883 20.212 47.5647 20.1647 47.612 20.0938C52.412 28.0622 57.212 36.0071 61.9883 43.9755C62.0356 44.0465 62.1065 44.141 62.1302 44.2356C61.7991 44.1174 61.4918 43.9519 61.1844 43.81C60.806 43.6445 60.4041 43.4553 60.0257 43.2898C59.7893 43.1716 59.5292 43.077 59.2927 42.9588C58.8908 42.7696 58.4888 42.6041 58.0868 42.4149C57.8504 42.3204 57.6139 42.2021 57.3775 42.0839L55.8169 41.3745C55.5568 41.2563 55.2967 41.1381 55.0129 41.0199L53.878 40.5233C53.6415 40.4287 53.4051 40.3105 53.1686 40.1923L51.608 39.4829C51.3479 39.3647 51.0878 39.2465 50.8041 39.1282L49.6691 38.6317C49.409 38.5135 49.1725 38.3952 48.9124 38.277C48.4632 38.0642 48.0139 37.8514 47.541 37.6622C47.612 37.6386 47.5883 37.6386 47.5883 37.6386Z" fill="#6F6F6F"/>
<defs>
<filter id="filter0_d_2043_81002" x="0" y="0" width="95" height="95" filterUnits="userSpaceOnUse" color-interpolation-filters="sRGB">
<feFlood flood-opacity="0" result="BackgroundImageFix"/>
<feColorMatrix in="SourceAlpha" type="matrix" values="0 0 0 0 0 0 0 0 0 0 0 0 0 0 0 0 0 0 127 0" result="hardAlpha"/>
<feOffset dy="4"/>
<feGaussianBlur stdDeviation="2"/>
<feComposite in2="hardAlpha" operator="out"/>
<feColorMatrix type="matrix" values="0 0 0 0 0.894118 0 0 0 0 0.929412 0 0 0 0 0.94902 0 0 0 1 0"/>
<feBlend mode="normal" in2="BackgroundImageFix" result="effect1_dropShadow_2043_81002"/>
<feBlend mode="normal" in="SourceGraphic" in2="effect1_dropShadow_2043_81002" result="shape"/>
</filter>
</defs>
</svg>
