<svg width="92" height="97" viewBox="0 0 92 97" fill="none" xmlns="http://www.w3.org/2000/svg">
<g filter="url(#filter0_dd_2297_123879)">
<rect width="87" height="87" rx="8" fill="#393D4F"/>
<path d="M43.6146 20.0709V20.0946C43.6382 20.2128 43.6382 20.3547 43.6382 20.4966V37.5448C43.6146 37.6394 43.5436 37.6631 43.4727 37.7103C42.9761 37.9468 42.5032 38.1596 42.0067 38.3724C41.321 38.6798 40.6116 39.0108 39.9259 39.3182L37.4431 40.4532C36.7574 40.7606 36.0717 41.068 35.4096 41.3754C34.6057 41.7537 33.7781 42.1084 32.9742 42.4867C32.2884 42.7941 31.6027 43.1251 30.8934 43.4325C30.3259 43.6926 29.7584 43.9291 29.2146 44.1892C29.1673 44.2128 29.12 44.2365 29.0727 44.2365C29.049 44.2365 29.049 44.2365 29.0254 44.2128L29.6638 43.1488C30.8934 41.1153 32.0993 39.1054 33.3288 37.0719C34.6293 34.8966 35.9535 32.7212 37.254 30.5458C38.4599 28.536 39.6894 26.5261 40.8953 24.5163C41.7702 23.0502 42.6687 21.5842 43.5436 20.1182C43.5673 20.0709 43.5909 20.0473 43.5909 20H43.6146C43.5909 20.0236 43.6146 20.0473 43.6146 20.0709Z" fill="white"/>
<path d="M58.1319 44.2119L58.1556 44.2356L54.6797 46.2927L43.7556 52.7479C43.7083 52.7715 43.661 52.7952 43.6373 52.8188C43.5664 52.8188 43.5664 52.7479 43.5664 52.7243V52.5114V37.8986C43.5664 37.8277 43.5664 37.7331 43.5901 37.6622C43.6137 37.5676 43.6846 37.5913 43.7556 37.6149C44.063 37.7568 44.394 37.8986 44.7014 38.0405C45.6235 38.4661 46.5457 38.8917 47.4679 39.2937C48.2718 39.6484 49.0521 40.0267 49.8561 40.3814C50.66 40.7361 51.4639 41.1144 52.2679 41.4691C52.9536 41.7765 53.663 42.1075 54.3487 42.4149C55.0344 42.7223 55.7437 43.0533 56.4295 43.3607C56.9733 43.5972 57.5171 43.8573 58.061 44.0937C58.061 44.1647 58.0846 44.1883 58.1319 44.2119Z" fill="white"/>
<path d="M43.6126 67.504C43.6126 67.5276 43.589 67.5513 43.589 67.5749H43.5653C43.5653 67.5276 43.518 67.504 43.4944 67.4567C42.0284 65.3996 40.5624 63.3188 39.0963 61.2616C37.6067 59.1572 36.0934 57.0291 34.6037 54.9247C33.1614 52.8912 31.6954 50.834 30.253 48.8005C29.8747 48.2567 29.4963 47.7365 29.118 47.1927C29.0944 47.1454 29.0707 47.1217 29.0234 47.0508C29.0944 47.0508 29.1417 47.0981 29.1653 47.1217C31.2225 48.3276 33.2559 49.5335 35.3131 50.7395C37.6776 52.1345 40.0185 53.5296 42.383 54.9247L43.589 55.634C43.6362 55.6813 43.6362 55.7286 43.6362 55.7759V67.173C43.6362 67.2912 43.6362 67.4094 43.6126 67.504Z" fill="white"/>
<path d="M29 44.2598V44.2361C29.7567 43.9051 30.4897 43.5504 31.2463 43.2194C32.2158 42.7701 33.1852 42.3445 34.1547 41.8952C34.8877 41.5642 35.6443 41.2095 36.3773 40.8785C37.465 40.3819 38.5291 39.909 39.6167 39.4125C40.3498 39.0815 41.0828 38.7504 41.8394 38.3957C42.3596 38.1593 42.9034 37.9228 43.4236 37.6864C43.4709 37.6627 43.5419 37.6391 43.5655 37.5918C43.5892 37.5918 43.5892 37.6154 43.5655 37.6391V52.6539C43.5655 52.7248 43.5419 52.7957 43.5892 52.843C43.5419 52.914 43.4946 52.843 43.4709 52.8194C43.2581 52.7012 43.0453 52.5829 42.8325 52.4411C38.269 49.7455 33.6818 47.0263 29.1182 44.3307C29.0946 44.3071 29.0473 44.2834 29 44.2598Z" fill="white"/>
<path d="M58.0844 47.0508H58.1081C58.1081 47.0981 58.0608 47.1454 58.0371 47.1927C53.6864 53.3168 49.3357 59.4646 44.9849 65.5887C44.5357 66.2271 44.0628 66.8656 43.6135 67.504C43.5898 67.4803 43.5898 67.4567 43.5898 67.4331V67.2912V55.8232V55.6104C44.5829 55.0193 45.5524 54.4518 46.5455 53.8606C50.3761 51.5907 54.2066 49.3444 58.0135 47.0744C58.0371 47.0981 58.0608 47.0744 58.0844 47.0508Z" fill="white"/>
<path d="M43.5883 37.6386V37.5913V37.4494V20.2829C43.5883 20.212 43.5647 20.1647 43.612 20.0938C48.412 28.0622 53.212 36.0071 57.9883 43.9755C58.0356 44.0465 58.1065 44.141 58.1302 44.2356C57.7991 44.1174 57.4918 43.9519 57.1844 43.81C56.806 43.6445 56.4041 43.4553 56.0257 43.2898C55.7893 43.1716 55.5292 43.077 55.2927 42.9588C54.8908 42.7696 54.4888 42.6041 54.0868 42.4149C53.8504 42.3204 53.6139 42.2021 53.3775 42.0839L51.8169 41.3745C51.5568 41.2563 51.2967 41.1381 51.0129 41.0199L49.878 40.5233C49.6415 40.4287 49.4051 40.3105 49.1686 40.1923L47.608 39.4829C47.3479 39.3647 47.0878 39.2465 46.8041 39.1282L45.6691 38.6317C45.409 38.5135 45.1725 38.3952 44.9124 38.277C44.4632 38.0642 44.0139 37.8514 43.541 37.6622C43.612 37.6386 43.5883 37.6386 43.5883 37.6386Z" fill="white"/>
</g>
<defs>
<filter id="filter0_dd_2297_123879" x="0" y="0" width="92" height="97" filterUnits="userSpaceOnUse" color-interpolation-filters="sRGB">
<feFlood flood-opacity="0" result="BackgroundImageFix"/>
<feColorMatrix in="SourceAlpha" type="matrix" values="0 0 0 0 0 0 0 0 0 0 0 0 0 0 0 0 0 0 127 0" result="hardAlpha"/>
<feMorphology radius="5" operator="erode" in="SourceAlpha" result="effect1_dropShadow_2297_123879"/>
<feOffset dx="5" dy="5"/>
<feGaussianBlur stdDeviation="2.5"/>
<feComposite in2="hardAlpha" operator="out"/>
<feColorMatrix type="matrix" values="0 0 0 0 0.0784314 0 0 0 0 0.0901961 0 0 0 0 0.14902 0 0 0 0.3 0"/>
<feBlend mode="normal" in2="BackgroundImageFix" result="effect1_dropShadow_2297_123879"/>
<feColorMatrix in="SourceAlpha" type="matrix" values="0 0 0 0 0 0 0 0 0 0 0 0 0 0 0 0 0 0 127 0" result="hardAlpha"/>
<feMorphology radius="5" operator="erode" in="SourceAlpha" result="effect2_dropShadow_2297_123879"/>
<feOffset dx="5" dy="10"/>
<feGaussianBlur stdDeviation="2.5"/>
<feComposite in2="hardAlpha" operator="out"/>
<feColorMatrix type="matrix" values="0 0 0 0 0.079375 0 0 0 0 0.0918383 0 0 0 0 0.15 0 0 0 0.15 0"/>
<feBlend mode="normal" in2="effect1_dropShadow_2297_123879" result="effect2_dropShadow_2297_123879"/>
<feBlend mode="normal" in="SourceGraphic" in2="effect2_dropShadow_2297_123879" result="shape"/>
</filter>
</defs>
</svg>
