<svg width="95" height="95" viewBox="0 0 95 95" fill="none" xmlns="http://www.w3.org/2000/svg">
<g filter="url(#filter0_d_2043_81011)">
<rect x="4" width="87" height="87" rx="8" fill="white"/>
</g>
<path d="M32.6783 29.0174L36.2261 27.1391L36.6435 27.9739L49.5826 20.4609L48.7478 19.8348L47.7043 19.2087L47.287 19L26 31.313V31.7304L32.0522 28.3913L32.6783 29.0174ZM32.6783 36.9478L42.9043 30.8957L43.3217 31.7304L56.4696 24.2174L55.4261 23.5913L54.3826 23.1739L53.9652 22.9652L26 39.0348V39.4522L32.0522 36.113L32.6783 36.9478ZM32.6783 40.7043L46.2435 32.9826L46.6609 33.6087L59.8087 26.0957L58.7652 25.6783L57.7217 25.0522L57.3043 24.8435L26 42.7913V43.4174L32.0522 39.8696L32.6783 40.7043ZM32.6783 44.4609L49.5826 34.8609L50 35.487L63.1478 28.1826L62.1043 27.5565L61.0609 26.9304L60.6435 26.7217L26 46.7565V47.1739L32.0522 43.8348L32.6783 44.4609ZM32.6783 48.4261L52.9217 36.7391L53.3391 37.5739L66.487 30.0609L65.4435 29.4348L64.6087 29.0174L63.9826 28.6L26 50.513V51.1391L32.0522 47.5913L32.6783 48.4261ZM67.7391 30.8957L67.3217 30.4783L26 54.4783V54.8957L32.0522 51.5565L32.6783 52.3913L52.9217 40.4957L53.3391 41.3304L68.5739 32.7739V31.313L67.7391 30.8957ZM28.713 57.4L32.0522 55.313L32.4696 56.1478L52.9217 44.4609L53.3391 45.2957L68.5739 36.5304V33.8174L28.087 56.9826L28.713 57.4ZM52.9217 48.4261L53.3391 49.2609L68.5739 40.287V37.5739L31.4261 59.0696L32.0522 59.2783L35.3913 57.1913L36.0174 58.0261L52.9217 48.4261ZM35.3913 61.1565L38.9391 59.2783L39.3565 60.113L52.9217 52.1826L53.3391 53.0174L68.5739 44.2522V41.5391L34.7652 60.9478L35.3913 61.1565ZM38.7304 63.0348L42.2783 61.1565L42.6957 61.9913L52.9217 56.1478L53.3391 56.9826L68.5739 48.2174V45.2957L38.1043 62.8261L38.7304 63.0348ZM41.4435 64.7043L42.0696 65.1217L45.6174 63.0348L46.0348 63.8696L52.9217 59.9043L53.3391 60.7391L68.5739 51.9739V49.2609L41.4435 64.7043ZM45.4087 67L48.7478 64.913L49.3739 65.7478L52.9217 63.8696L53.3391 64.7043L68.5739 55.9391V53.0174L44.9913 66.7913L45.4087 67ZM53.1304 22.3391L52.087 21.713L51.0435 21.2957L50.6261 20.8783L26 35.0696V35.6957L32.0522 32.1478L32.6783 32.9826L39.5652 29.0174L39.9826 29.8522L53.1304 22.3391Z" fill="#6F6F6F"/>
<defs>
<filter id="filter0_d_2043_81011" x="0" y="0" width="95" height="95" filterUnits="userSpaceOnUse" color-interpolation-filters="sRGB">
<feFlood flood-opacity="0" result="BackgroundImageFix"/>
<feColorMatrix in="SourceAlpha" type="matrix" values="0 0 0 0 0 0 0 0 0 0 0 0 0 0 0 0 0 0 127 0" result="hardAlpha"/>
<feOffset dy="4"/>
<feGaussianBlur stdDeviation="2"/>
<feComposite in2="hardAlpha" operator="out"/>
<feColorMatrix type="matrix" values="0 0 0 0 0.894118 0 0 0 0 0.929412 0 0 0 0 0.94902 0 0 0 1 0"/>
<feBlend mode="normal" in2="BackgroundImageFix" result="effect1_dropShadow_2043_81011"/>
<feBlend mode="normal" in="SourceGraphic" in2="effect1_dropShadow_2043_81011" result="shape"/>
</filter>
</defs>
</svg>
