<svg width="92" height="97" viewBox="0 0 92 97" fill="none" xmlns="http://www.w3.org/2000/svg">
<g filter="url(#filter0_dd_2297_123888)">
<rect width="87" height="87" rx="8" fill="#393D4F"/>
<path d="M28.6783 29.0174L32.2261 27.1391L32.6435 27.9739L45.5826 20.4609L44.7478 19.8348L43.7043 19.2087L43.287 19L22 31.313V31.7304L28.0522 28.3913L28.6783 29.0174ZM28.6783 36.9478L38.9043 30.8957L39.3217 31.7304L52.4696 24.2174L51.4261 23.5913L50.3826 23.1739L49.9652 22.9652L22 39.0348V39.4522L28.0522 36.113L28.6783 36.9478ZM28.6783 40.7043L42.2435 32.9826L42.6609 33.6087L55.8087 26.0957L54.7652 25.6783L53.7217 25.0522L53.3043 24.8435L22 42.7913V43.4174L28.0522 39.8696L28.6783 40.7043ZM28.6783 44.4609L45.5826 34.8609L46 35.487L59.1478 28.1826L58.1043 27.5565L57.0609 26.9304L56.6435 26.7217L22 46.7565V47.1739L28.0522 43.8348L28.6783 44.4609ZM28.6783 48.4261L48.9217 36.7391L49.3391 37.5739L62.487 30.0609L61.4435 29.4348L60.6087 29.0174L59.9826 28.6L22 50.513V51.1391L28.0522 47.5913L28.6783 48.4261ZM63.7391 30.8957L63.3217 30.4783L22 54.4783V54.8957L28.0522 51.5565L28.6783 52.3913L48.9217 40.4957L49.3391 41.3304L64.5739 32.7739V31.313L63.7391 30.8957ZM24.713 57.4L28.0522 55.313L28.4696 56.1478L48.9217 44.4609L49.3391 45.2957L64.5739 36.5304V33.8174L24.087 56.9826L24.713 57.4ZM48.9217 48.4261L49.3391 49.2609L64.5739 40.287V37.5739L27.4261 59.0696L28.0522 59.2783L31.3913 57.1913L32.0174 58.0261L48.9217 48.4261ZM31.3913 61.1565L34.9391 59.2783L35.3565 60.113L48.9217 52.1826L49.3391 53.0174L64.5739 44.2522V41.5391L30.7652 60.9478L31.3913 61.1565ZM34.7304 63.0348L38.2783 61.1565L38.6957 61.9913L48.9217 56.1478L49.3391 56.9826L64.5739 48.2174V45.2957L34.1043 62.8261L34.7304 63.0348ZM37.4435 64.7043L38.0696 65.1217L41.6174 63.0348L42.0348 63.8696L48.9217 59.9043L49.3391 60.7391L64.5739 51.9739V49.2609L37.4435 64.7043ZM41.4087 67L44.7478 64.913L45.3739 65.7478L48.9217 63.8696L49.3391 64.7043L64.5739 55.9391V53.0174L40.9913 66.7913L41.4087 67ZM49.1304 22.3391L48.087 21.713L47.0435 21.2957L46.6261 20.8783L22 35.0696V35.6957L28.0522 32.1478L28.6783 32.9826L35.5652 29.0174L35.9826 29.8522L49.1304 22.3391Z" fill="white"/>
</g>
<defs>
<filter id="filter0_dd_2297_123888" x="0" y="0" width="92" height="97" filterUnits="userSpaceOnUse" color-interpolation-filters="sRGB">
<feFlood flood-opacity="0" result="BackgroundImageFix"/>
<feColorMatrix in="SourceAlpha" type="matrix" values="0 0 0 0 0 0 0 0 0 0 0 0 0 0 0 0 0 0 127 0" result="hardAlpha"/>
<feMorphology radius="5" operator="erode" in="SourceAlpha" result="effect1_dropShadow_2297_123888"/>
<feOffset dx="5" dy="5"/>
<feGaussianBlur stdDeviation="2.5"/>
<feComposite in2="hardAlpha" operator="out"/>
<feColorMatrix type="matrix" values="0 0 0 0 0.0784314 0 0 0 0 0.0901961 0 0 0 0 0.14902 0 0 0 0.3 0"/>
<feBlend mode="normal" in2="BackgroundImageFix" result="effect1_dropShadow_2297_123888"/>
<feColorMatrix in="SourceAlpha" type="matrix" values="0 0 0 0 0 0 0 0 0 0 0 0 0 0 0 0 0 0 127 0" result="hardAlpha"/>
<feMorphology radius="5" operator="erode" in="SourceAlpha" result="effect2_dropShadow_2297_123888"/>
<feOffset dx="5" dy="10"/>
<feGaussianBlur stdDeviation="2.5"/>
<feComposite in2="hardAlpha" operator="out"/>
<feColorMatrix type="matrix" values="0 0 0 0 0.079375 0 0 0 0 0.0918383 0 0 0 0 0.15 0 0 0 0.15 0"/>
<feBlend mode="normal" in2="effect1_dropShadow_2297_123888" result="effect2_dropShadow_2297_123888"/>
<feBlend mode="normal" in="SourceGraphic" in2="effect2_dropShadow_2297_123888" result="shape"/>
</filter>
</defs>
</svg>
